<svg width="118.000000" height="57.000000" viewBox="0 0 118 57" fill="none" xmlns="http://www.w3.org/2000/svg" xmlns:xlink="http://www.w3.org/1999/xlink">
    <desc>
            Created with Pixso.
    </desc>
    <defs/>
    <path id="Union" d="M54.7199 0.0507812Q54.8658 -0.00158691 55.0117 -0.00158691Q55.1576 -0.00158691 55.3035 0.0507812L71.1263 5.73071Q71.2358 5.77002 71.3203 5.83972Q71.392 5.89893 71.4457 5.97998Q71.4962 6.05603 71.5228 6.13977Q71.5527 6.23352 71.5527 6.33691Q71.5527 6.44019 71.5228 6.53394Q71.4962 6.61768 71.4457 6.69373Q71.392 6.77478 71.3203 6.83398Q71.2358 6.90369 71.1263 6.94299L55.3035 12.6229Q55.1576 12.6753 55.0117 12.6753Q54.8658 12.6753 54.7199 12.6229L38.8971 6.94299Q38.7876 6.90369 38.7032 6.83398Q38.6314 6.77478 38.5777 6.69373Q38.5272 6.61768 38.5006 6.53394Q38.4707 6.44019 38.4707 6.33691Q38.4707 6.23352 38.5006 6.13977Q38.5272 6.05603 38.5777 5.97998Q38.6314 5.89893 38.7032 5.83972Q38.7876 5.77002 38.8971 5.73071L54.7199 0.0507812ZM55.0066 0.849487L39.7203 6.33691L55.0066 11.8242Q55.0092 11.8252 55.0117 11.8252Q55.0143 11.8252 55.0168 11.8242L70.3031 6.33691L55.0168 0.849487Q55.0143 0.848511 55.0117 0.848511Q55.0092 0.848511 55.0066 0.849487ZM82.8241 4.59875C83.51 3.91382 84.3112 3.60413 84.6136 3.90698C84.6921 3.9856 84.7293 4.09778 84.7293 4.23279C84.7293 4.6178 84.427 5.18835 83.9192 5.69543C83.7535 5.86084 83.5811 6.00439 83.4107 6.1228C83.5811 6.24109 83.7535 6.38464 83.9192 6.55005C84.427 7.05713 84.7293 7.62769 84.7293 8.0127C84.7293 8.14771 84.6921 8.25989 84.6136 8.3385C84.3112 8.64136 83.51 8.33167 82.8241 7.64673C82.3163 7.13965 82.014 6.56909 82.014 6.18408C82.014 6.16309 82.0149 6.14258 82.0167 6.1228C82.0149 6.10291 82.014 6.0824 82.014 6.0614C82.014 5.67639 82.3163 5.10583 82.8241 4.59875ZM25.4096 3.90698C25.712 3.60413 26.5132 3.91382 27.1991 4.59875C27.7069 5.10583 28.0092 5.67639 28.0092 6.0614C28.0092 6.0824 28.0083 6.10291 28.0065 6.1228C28.0083 6.1427 28.0092 6.16309 28.0092 6.1842C28.0092 6.56909 27.7069 7.13977 27.1991 7.64673C26.5132 8.33167 25.712 8.64136 25.4096 8.3385C25.3311 8.25989 25.2939 8.14771 25.2939 8.0127C25.2939 7.62769 25.5962 7.05713 26.104 6.55005C26.2697 6.38464 26.4421 6.24109 26.6126 6.1228C26.4421 6.00452 26.2697 5.86096 26.104 5.69543C25.5962 5.18848 25.2939 4.6178 25.2939 4.23291C25.2939 4.0979 25.3311 3.9856 25.4096 3.90698ZM27.5991 3.93262C27.9015 3.62976 28.7027 3.93945 29.3886 4.62439C29.8964 5.13147 30.1987 5.70203 30.1987 6.08704C30.1987 6.10803 30.1978 6.12854 30.1959 6.14844C30.1978 6.16833 30.1987 6.18884 30.1987 6.20984C30.1987 6.59485 29.8964 7.16541 29.3886 7.67249C28.7027 8.35742 27.9015 8.66711 27.5991 8.36426C27.5206 8.28564 27.4834 8.17346 27.4834 8.03845C27.4834 7.65344 27.7857 7.08289 28.2935 6.57581C28.4592 6.41028 28.6316 6.26672 28.8021 6.14844C28.6316 6.03015 28.4592 5.88647 28.2935 5.72107C27.7857 5.21399 27.4834 4.64343 27.4834 4.25842C27.4834 4.12341 27.5206 4.01123 27.5991 3.93262ZM80.6344 4.62439C81.3203 3.93945 82.1215 3.62976 82.4239 3.93262C82.5024 4.01123 82.5396 4.12341 82.5396 4.25842C82.5396 4.64343 82.2373 5.21399 81.7295 5.72107C81.5638 5.88647 81.3914 6.03003 81.221 6.14844C81.3914 6.26672 81.5638 6.41028 81.7295 6.57568C82.2373 7.08276 82.5396 7.65332 82.5396 8.03833C82.5396 8.17334 82.5024 8.28552 82.4239 8.36414C82.1215 8.66699 81.3203 8.3573 80.6344 7.67236C80.1266 7.16528 79.8243 6.59473 79.8243 6.20972C79.8243 6.18872 79.8252 6.16821 79.827 6.14844C79.8252 6.12854 79.8243 6.10803 79.8243 6.08704C79.8243 5.70203 80.1266 5.13147 80.6344 4.62439ZM29.7888 3.9585C30.0912 3.65564 30.8924 3.96533 31.5783 4.65027C32.0861 5.15735 32.3884 5.72791 32.3884 6.11292C32.3884 6.13391 32.3875 6.1543 32.3856 6.17419C32.3875 6.19397 32.3884 6.21448 32.3884 6.23547C32.3884 6.62048 32.0861 7.19104 31.5783 7.69812C30.8924 8.38306 30.0912 8.69275 29.7888 8.38989C29.7103 8.31128 29.6731 8.1991 29.6731 8.06409C29.6731 7.67908 29.9753 7.10852 30.4832 6.60144C30.6488 6.43604 30.8212 6.29248 30.9916 6.17419C30.8212 6.05591 30.6488 5.91235 30.4832 5.74695C29.9753 5.23987 29.6731 4.66931 29.6731 4.2843C29.6731 4.14929 29.7103 4.03711 29.7888 3.9585ZM78.4447 4.65027C79.1306 3.96533 79.9318 3.65564 80.2342 3.9585C80.3127 4.03711 80.3499 4.14929 80.3499 4.2843C80.3499 4.66931 80.0476 5.23987 79.5398 5.74695C79.3741 5.91235 79.2017 6.05591 79.0313 6.17432C79.2017 6.2926 79.3741 6.43616 79.5398 6.60156C80.0476 7.10864 80.3499 7.6792 80.3499 8.06421C80.3499 8.19922 80.3127 8.3114 80.2342 8.39001C79.9318 8.69287 79.1306 8.38318 78.4447 7.69824C77.9369 7.19116 77.6346 6.62061 77.6346 6.2356C77.6346 6.2146 77.6355 6.19409 77.6374 6.17432C77.6355 6.15442 77.6346 6.13391 77.6346 6.11292C77.6346 5.72791 77.9369 5.15735 78.4447 4.65027ZM31.9785 3.98438C32.2809 3.68152 33.0821 3.99121 33.768 4.67615C34.2758 5.18323 34.5781 5.75378 34.5781 6.13879C34.5781 6.15979 34.5772 6.1803 34.5753 6.2002C34.5772 6.22009 34.5781 6.2406 34.5781 6.2616C34.5781 6.64661 34.2758 7.21716 33.768 7.72424C33.0821 8.40918 32.2809 8.71887 31.9785 8.41602C31.9 8.3374 31.8628 8.22522 31.8628 8.09021C31.8628 7.7052 32.165 7.13464 32.6729 6.62756C32.8386 6.46204 33.011 6.31848 33.1815 6.2002C33.011 6.08191 32.8386 5.93823 32.6729 5.77283C32.165 5.26575 31.8628 4.69519 31.8628 4.31018C31.8628 4.17517 31.9 4.06299 31.9785 3.98438ZM76.2558 4.67615C76.9417 3.99121 77.7428 3.68152 78.0452 3.98438C78.1238 4.06299 78.1609 4.17517 78.1609 4.31018C78.1609 4.69519 77.8587 5.26575 77.3509 5.77283C77.1852 5.93823 77.0128 6.08179 76.8423 6.2002C77.0128 6.31848 77.1852 6.46204 77.3509 6.62744C77.8587 7.13452 78.1609 7.70508 78.1609 8.09009C78.1609 8.2251 78.1238 8.33728 78.0452 8.41589C77.7428 8.71875 76.9417 8.40906 76.2558 7.72412C75.7479 7.21704 75.4457 6.64648 75.4457 6.26147C75.4457 6.24048 75.4466 6.21997 75.4484 6.2002C75.4466 6.1803 75.4457 6.15979 75.4457 6.13879C75.4457 5.75378 75.7479 5.18323 76.2558 4.67615ZM34.1674 4.01025C34.4698 3.7074 35.271 4.01709 35.9569 4.70203C36.4648 5.20911 36.767 5.77966 36.767 6.16467C36.767 6.18567 36.7661 6.20605 36.7643 6.22595C36.7661 6.24573 36.767 6.26624 36.767 6.28723C36.767 6.67224 36.4648 7.2428 35.9569 7.74988C35.271 8.43481 34.4698 8.74451 34.1674 8.44165C34.0889 8.36304 34.0518 8.25085 34.0518 8.11584C34.0518 7.73083 34.354 7.16028 34.8618 6.6532C35.0275 6.48779 35.1999 6.34424 35.3703 6.22595C35.1999 6.10767 35.0275 5.96411 34.8618 5.79871C34.354 5.29163 34.0518 4.72107 34.0518 4.33606C34.0518 4.20105 34.0889 4.08887 34.1674 4.01025ZM74.0663 4.70203C74.7522 4.01709 75.5534 3.7074 75.8558 4.01025C75.9343 4.08887 75.9715 4.20105 75.9715 4.33606C75.9715 4.72107 75.6692 5.29163 75.1614 5.79871C74.9957 5.96411 74.8233 6.10767 74.6528 6.22607C74.8233 6.34436 74.9957 6.48792 75.1614 6.65332C75.6692 7.1604 75.9715 7.73096 75.9715 8.11597C75.9715 8.25098 75.9343 8.36316 75.8558 8.44177C75.5534 8.74463 74.7522 8.43494 74.0663 7.75C73.5585 7.24292 73.2562 6.67236 73.2562 6.28735C73.2562 6.26636 73.2571 6.24585 73.2589 6.22607C73.2571 6.20618 73.2562 6.18567 73.2562 6.16467C73.2562 5.77966 73.5585 5.20911 74.0663 4.70203ZM52.2009 7.79114L49.7671 7.79114L49.7671 7.37585L50.9728 6.06079C51.1468 5.86682 51.2707 5.70483 51.3445 5.57471C51.4182 5.4447 51.4551 5.31409 51.4551 5.18323C51.4551 5.01086 51.4066 4.87158 51.3097 4.7655C51.2127 4.65942 51.0822 4.60645 50.9181 4.60645C50.7225 4.60645 50.5709 4.66614 50.4632 4.7854C50.3554 4.90479 50.3016 5.06799 50.3016 5.27515L49.6975 5.27515C49.6975 5.05481 49.7476 4.85632 49.8479 4.67981C49.9481 4.5033 50.0915 4.36609 50.2779 4.26831C50.4644 4.17053 50.6794 4.1217 50.9231 4.1217C51.2744 4.1217 51.5516 4.20996 51.7547 4.38647C51.9577 4.56299 52.0592 4.80701 52.0592 5.11853Q52.0592 5.38953 51.9063 5.68665C51.8044 5.88464 51.6374 6.10962 51.4054 6.36157L50.5203 7.30884L52.2009 7.30884L52.2009 7.79114ZM55.0201 6.26709Q55.0201 7.04773 54.728 7.44434C54.5332 7.70862 54.237 7.84082 53.8392 7.84082C53.4481 7.84082 53.1535 7.71191 52.9554 7.45422C52.7574 7.19653 52.6559 6.81494 52.6509 6.30945L52.6509 5.68286C52.6509 5.16248 52.7483 4.77222 52.943 4.51196C53.1377 4.25171 53.4348 4.1217 53.8343 4.1217C54.2304 4.1217 54.5258 4.24841 54.7205 4.50208C54.9153 4.75562 55.0151 5.13513 55.0201 5.64062L55.0201 6.26709ZM60.3278 4.15393L60.3278 4.65369L60.2533 4.65369C59.9151 4.65869 59.645 4.75146 59.4428 4.93213Q59.4067 4.96436 59.3742 4.99976L59.3739 5Q59.1327 5.26245 59.0823 5.70032C59.2762 5.49646 59.524 5.39453 59.8257 5.39453C60.1455 5.39453 60.3979 5.5072 60.5827 5.73267C60.7675 5.95801 60.8599 6.2489 60.8599 6.60522Q60.8599 7.03357 60.6644 7.33533L60.6644 7.33545Q60.608 7.42249 60.5354 7.49902C60.3191 7.72681 60.0353 7.84082 59.6839 7.84082C59.3226 7.84082 59.0297 7.7074 58.8051 7.44055C58.5806 7.17371 58.4683 6.82397 58.4683 6.39148L58.4683 6.18506C58.4683 5.55029 58.6228 5.0531 58.9319 4.69348C59.241 4.33386 59.6856 4.15393 60.2657 4.15393L60.3278 4.15393ZM57.1904 7.79114L56.5888 7.79114L56.5888 4.88489L55.7013 5.18823L55.7013 4.67859L57.1134 4.15894L57.1904 4.15894L57.1904 7.79114ZM54.416 5.59094C54.416 5.2511 54.3696 5.0022 54.2768 4.84387C54.184 4.68555 54.0365 4.60645 53.8343 4.60645C53.637 4.60645 53.492 4.6814 53.3992 4.83142C53.3064 4.98145 53.2575 5.21558 53.2525 5.53369L53.2525 6.35413C53.2525 6.69226 53.2998 6.94421 53.3942 7.10986Q53.4569 7.21997 53.5513 7.28125Q53.6702 7.35852 53.8392 7.35852C54.0331 7.35852 54.1765 7.28186 54.2693 7.12854Q54.4085 6.89856 54.416 6.40881L54.416 5.59094ZM86.4303 5.11633L88.2764 6.0304C88.3285 6.05615 88.3545 6.1062 88.3545 6.15625C88.3545 6.2063 88.3285 6.25635 88.2764 6.2821L86.4303 7.19617C86.3517 7.23511 86.2596 7.23511 86.181 7.19617L84.3349 6.2821C84.2828 6.25635 84.2568 6.2063 84.2568 6.15625C84.2568 6.1062 84.2828 6.05615 84.3349 6.0304L86.181 5.11633C86.2596 5.07739 86.3517 5.07739 86.4303 5.11633ZM21.7472 6.03052L23.5933 5.11633C23.6719 5.07751 23.764 5.07751 23.8426 5.11633L25.6887 6.03052C25.7408 6.05627 25.7669 6.10632 25.7669 6.15637C25.7669 6.20642 25.7408 6.25635 25.6887 6.28223L23.8426 7.19629C23.764 7.23523 23.6719 7.23523 23.5933 7.19629L21.7472 6.28223C21.6951 6.25635 21.6691 6.20642 21.6691 6.15637C21.6691 6.10632 21.6951 6.05627 21.7472 6.03052ZM59.679 5.88184C59.5464 5.88184 59.425 5.91907 59.3148 5.99365C59.2046 6.06824 59.1238 6.16772 59.0724 6.29199L59.0724 6.47595Q59.0724 6.87866 59.2414 7.11609C59.3541 7.27441 59.5 7.35352 59.679 7.35352C59.858 7.35352 59.9997 7.28638 60.1041 7.15222Q60.2607 6.95081 60.2607 6.62268C60.2607 6.40381 60.2077 6.22571 60.1016 6.08813Q60.0244 5.98792 59.9225 5.9364Q59.8146 5.88184 59.679 5.88184ZM37.5832 19.6038C41.1428 19.6038 43.8228 22.1926 43.8228 26.5817C43.8228 30.9663 41.1428 33.5551 37.5832 33.5551C34.0144 33.5551 31.3436 30.9617 31.3436 26.5817C31.3436 22.1926 34.0144 19.6038 37.5832 19.6038ZM65.8596 19.6038C68.8677 19.6038 71.1876 21.3539 71.6069 24.3712L69.1275 24.3712C68.8404 22.7487 67.546 21.8143 65.896 21.8143C63.6764 21.8143 62.1131 23.5189 62.1131 26.5817C62.1131 29.6947 63.6901 31.3446 65.8915 31.3446C67.5141 31.3446 68.813 30.4513 69.1275 28.8606L71.6069 28.8743C71.2286 31.4677 69.0865 33.5551 65.8596 33.5551C62.2772 33.5551 59.6382 30.9617 59.6382 26.5817C59.6382 22.1926 62.3091 19.6038 65.8596 19.6038ZM111.707 19.6038C115.267 19.6038 117.947 22.1926 117.947 26.5817C117.947 30.9663 115.267 33.5551 111.707 33.5551C108.139 33.5551 105.468 30.9617 105.468 26.5817C105.468 22.1926 108.139 19.6038 111.707 19.6038ZM7.50932 33.3683L-0.927116 33.3683L-0.927116 19.7906L1.52952 19.7906L1.52952 31.3081L7.50932 31.3081L7.50932 33.3683ZM9.64029 19.7906L12.0969 19.7906L12.0969 33.3683L9.64029 33.3683L9.64029 19.7906ZM14.7715 33.3683L14.7715 19.7906L17.7796 19.7906L21.8133 29.6309L21.9682 29.6309L26.0019 19.7906L29.01 19.7906L29.01 33.3683L26.6491 33.3683L26.6491 24.0385L26.526 24.0385L22.7704 33.3271L21.0111 33.3271L17.2555 24.0203L17.1324 24.0203L17.1324 33.3683L14.7715 33.3683ZM54.8654 19.7906L57.3129 19.7906L57.3129 33.3683L55.1252 33.3683L48.7261 24.1205L48.6121 24.1205L48.6121 33.3683L46.1555 33.3683L46.1555 19.7906L48.3569 19.7906L54.7469 29.0475L54.8654 29.0475L54.8654 19.7906ZM82.7499 33.3683L73.8668 33.3683L73.8668 19.7906L82.6952 19.7906L82.6952 21.8507L76.3234 21.8507L76.3234 25.538L82.2394 25.538L82.2394 27.6027L76.3234 27.6027L76.3234 31.3081L82.7499 31.3081L82.7499 33.3683ZM93.6463 33.3683L85.2098 33.3683L85.2098 19.7906L87.6665 19.7906L87.6665 31.3081L93.6463 31.3081L93.6463 33.3683ZM104.214 33.3683L95.7772 33.3683L95.7772 19.7906L98.2339 19.7906L98.2339 31.3081L104.214 31.3081L104.214 33.3683ZM37.5832 31.3446C39.7982 31.3446 41.3479 29.6674 41.3479 26.5817C41.3479 23.4916 39.7982 21.8143 37.5832 21.8143C35.3772 21.8143 33.8184 23.4916 33.8184 26.5817C33.8184 29.6674 35.3772 31.3446 37.5832 31.3446ZM111.707 31.3446C113.923 31.3446 115.472 29.6674 115.472 26.5817C115.472 23.4916 113.923 21.8143 111.707 21.8143C109.502 21.8143 107.943 23.4916 107.943 26.5817C107.943 29.6674 109.502 31.3446 111.707 31.3446ZM7.59953 46.88L8.11976 47.3477Q8.07112 47.304 8.03324 47.2523Q7.99201 47.1962 7.96352 47.1306Q7.93677 47.0691 7.92373 47.0048L7.92369 47.0046Q7.91132 46.9436 7.91132 46.88Q7.91132 46.8163 7.92369 46.7552L7.92373 46.7551Q7.93677 46.6908 7.96352 46.6293Q7.99198 46.5638 8.03316 46.5077L8.03322 46.5076Q8.07111 46.4561 8.11976 46.4122L7.59953 46.88L2.32997 42.1426Q2.19416 42.0205 2.10975 41.8696L2.10972 41.8696Q2.03299 41.7324 1.99875 41.5715Q1.97464 41.4583 1.97464 41.3467Q1.97464 41.311 1.9771 41.2755Q1.98797 41.1189 2.04671 40.9657Q2.10545 40.8125 2.20202 40.6888Q2.29245 40.573 2.41604 40.4832Q2.54912 40.3864 2.6979 40.3357Q2.86154 40.2799 3.04415 40.2799L19.7299 40.2799L19.7299 43.5665L18.8813 43.5665L18.8813 44.4152L19.7299 44.4152L19.7299 43.5665L88.5963 43.5665L88.5963 44.4152L89.4449 44.4152L89.4449 43.5665L88.5963 43.5665L88.5963 40.2799L105.282 40.2799Q105.465 40.2799 105.628 40.3357Q105.777 40.3864 105.91 40.4832Q106.034 40.5731 106.124 40.6888Q106.221 40.8125 106.279 40.9657Q106.338 41.119 106.349 41.2755Q106.352 41.311 106.352 41.3467Q106.352 41.4583 106.327 41.5715Q106.293 41.7324 106.216 41.8695L106.216 41.8696Q106.132 42.0205 105.996 42.1426L100.727 46.88L100.206 46.4122Q100.255 46.4559 100.293 46.5076L100.293 46.5077Q100.334 46.5638 100.363 46.6293Q100.389 46.6907 100.402 46.7548Q100.415 46.816 100.415 46.88Q100.415 46.9438 100.402 47.0052Q100.389 47.0693 100.363 47.1306Q100.334 47.1959 100.293 47.252L100.293 47.2522Q100.255 47.3038 100.206 47.3477L100.727 46.88L105.996 51.6173Q106.132 51.7394 106.216 51.8903Q106.293 52.0275 106.327 52.1884Q106.352 52.3016 106.352 52.4132Q106.352 52.4489 106.349 52.4844Q106.338 52.6409 106.279 52.7942Q106.221 52.9474 106.124 53.071Q106.034 53.1869 105.91 53.2767Q105.777 53.3735 105.628 53.4242Q105.465 53.48 105.282 53.48L92.7549 53.48L92.7549 52.6313L91.9064 52.6313L91.9064 53.48L92.7549 53.48L92.7549 56.7666L15.5713 56.7666L15.5713 53.48L16.4198 53.48L16.4198 52.6313L15.5713 52.6313L15.5713 53.48L3.04415 53.48Q2.86153 53.48 2.6979 53.4242Q2.54912 53.3735 2.41604 53.2767Q2.29246 53.1869 2.20203 53.071Q2.10545 52.9474 2.04671 52.7942Q1.98797 52.641 1.97711 52.4844Q1.97464 52.449 1.97464 52.4132Q1.97464 52.3016 1.99875 52.1884Q2.03299 52.0275 2.10974 51.8903Q2.19415 51.7394 2.32997 51.6173L7.59953 46.88ZM9.2544 46.0856Q9.34297 46.1652 9.41045 46.2598L9.41051 46.2599Q9.47474 46.35 9.51986 46.4537Q9.56352 46.5542 9.58567 46.6591L9.58571 46.6593Q9.60847 46.7672 9.60847 46.88Q9.60847 46.9927 9.58571 47.1006L9.58567 47.1008Q9.56352 47.2057 9.51986 47.3062Q9.47475 47.4098 9.41053 47.5Q9.34302 47.5947 9.2544 47.6743L4.68439 51.7828L3.04415 51.7828Q3.13759 51.7828 3.22337 51.8085Q3.32415 51.8386 3.41433 51.9043Q3.494 51.9622 3.55005 52.0377Q3.60014 52.1051 3.63137 52.1865Q3.66259 52.2681 3.67044 52.3517L3.67046 52.3518Q3.67308 52.3798 3.67308 52.4081Q3.67308 52.4741 3.65873 52.5416Q3.63552 52.6508 3.58073 52.7405Q3.53411 52.8169 3.46461 52.8794L4.68439 51.7828L17.2684 51.7828L17.2684 55.0695L16.4198 55.0695L16.4198 55.918L17.2684 55.918L17.2684 55.0695L91.0578 55.0695L91.0578 55.918L91.9064 55.918L91.9064 55.0695L91.0578 55.0695L91.0578 51.7828L103.642 51.7828L104.862 52.8794Q104.792 52.817 104.746 52.7406L104.745 52.7405Q104.691 52.6508 104.667 52.5416Q104.653 52.4741 104.653 52.4081Q104.653 52.3801 104.656 52.3525L104.656 52.3517Q104.664 52.2679 104.695 52.1865Q104.726 52.1052 104.776 52.0377Q104.832 51.9622 104.912 51.9043Q105.002 51.8386 105.103 51.8085Q105.189 51.7828 105.282 51.7828L103.642 51.7828L99.0718 47.6743Q98.9832 47.5947 98.9158 47.5001Q98.8515 47.4099 98.8063 47.3062Q98.7627 47.2058 98.7406 47.101Q98.7177 46.9929 98.7177 46.88Q98.7177 46.767 98.7406 46.6588Q98.7627 46.554 98.8063 46.4537Q98.8514 46.3501 98.9156 46.26L98.9157 46.2599Q98.9832 46.1652 99.0718 46.0856L103.642 41.9771L105.282 41.9771Q105.189 41.9771 105.103 41.9514L105.103 41.9514Q105.002 41.9213 104.912 41.8557Q104.832 41.7977 104.776 41.7222Q104.726 41.6547 104.695 41.5734Q104.664 41.4918 104.656 41.4082L104.656 41.4076Q104.653 41.3799 104.653 41.3518Q104.653 41.2858 104.667 41.2183Q104.691 41.1091 104.746 41.0193Q104.792 40.9429 104.862 40.8805L103.642 41.9771L90.2934 41.9771L90.2934 41.1285L89.4449 41.1285L89.4449 41.9771L90.2934 41.9771L90.2934 45.2637L18.0328 45.2637L18.0328 41.9771L18.8813 41.9771L18.8813 41.1285L18.0328 41.1285L18.0328 41.9771L4.6844 41.9771L3.46461 40.8805Q3.53408 40.9429 3.58069 41.0193L3.58073 41.0194Q3.63551 41.1091 3.65873 41.2183Q3.67308 41.2858 3.67308 41.3518Q3.67308 41.3801 3.67045 41.4082L3.67044 41.4083Q3.66259 41.4919 3.63137 41.5734Q3.60013 41.6548 3.55003 41.7223Q3.49399 41.7977 3.41433 41.8557Q3.32415 41.9213 3.22337 41.9514Q3.13759 41.9771 3.04415 41.9771L4.6844 41.9771L9.2544 46.0856ZM31.2088 50.4969Q31.1223 51.2371 30.715 51.6868L30.7147 51.6871Q30.6481 51.7606 30.573 51.8264Q30.5255 51.8679 30.4752 51.9058Q29.9591 52.2944 29.1503 52.2944Q28.5815 52.2944 28.1463 52.0532Q27.8454 51.8865 27.6083 51.6045Q27.593 51.5862 27.578 51.5676Q27.0285 50.8839 27.0285 49.7585L27.0285 49.2366Q27.0285 48.4795 27.2988 47.9053Q27.503 47.4716 27.8358 47.1899Q27.9437 47.0986 28.0652 47.0233Q28.1357 46.9795 28.2094 46.942L28.2096 46.9419Q28.654 46.7157 29.2137 46.7157Q29.9455 46.7157 30.4318 47.0612Q30.5205 47.1241 30.6009 47.1986Q30.6783 47.2701 30.746 47.3499Q31.1357 47.808 31.2088 48.5354L30.4891 48.5354Q30.3958 47.8866 30.0845 47.5957Q30.069 47.5813 30.0529 47.5675L30.0523 47.567Q29.7448 47.3048 29.2137 47.3048Q28.8093 47.3048 28.5078 47.4811Q28.2979 47.6038 28.1379 47.812Q27.7482 48.3192 27.7482 49.2551L27.7482 49.781Q27.7482 50.6648 28.1174 51.1869Q28.2856 51.4248 28.5151 51.5543Q28.7891 51.7089 29.1503 51.7089Q29.747 51.7089 30.0658 51.4386Q30.3846 51.1682 30.4891 50.4969L31.2088 50.4969ZM47.9337 50.7617Q47.9337 50.5734 47.9842 50.3998L47.9842 50.3997Q48.0387 50.2123 48.1519 50.042Q48.37 49.7139 48.9853 49.2776Q48.6236 48.8375 48.5005 48.569Q48.3775 48.3005 48.3775 48.0358Q48.3775 47.5354 48.6162 47.2106Q48.6729 47.1334 48.7429 47.0662Q48.7955 47.0159 48.8534 46.9727L48.8535 46.9727Q49.1985 46.7157 49.7349 46.7157Q50.156 46.7157 50.4672 46.9006L50.4674 46.9008Q50.5694 46.9614 50.6597 47.042Q50.8357 47.1991 50.9269 47.3956Q51.0251 47.6072 51.0251 47.8643Q51.0251 48.0446 50.9751 48.2096Q50.934 48.345 50.8592 48.4702Q50.6933 48.748 50.2793 49.0538L49.8803 49.3484L51.0885 50.7915Q51.1282 50.7158 51.1616 50.6375Q51.3421 50.2141 51.3421 49.7139L51.9649 49.7139Q51.9649 50.6433 51.5267 51.2627Q51.5166 51.2771 51.5062 51.2913L52.2818 52.2198L51.454 52.2198L51.0923 51.7909Q51.0612 51.8187 51.0288 51.845L51.0264 51.8469Q50.7729 52.0521 50.4453 52.1658Q50.1854 52.2559 49.9192 52.2828L49.9184 52.2828Q49.8049 52.2944 49.6901 52.2944Q48.9733 52.2944 48.5116 51.9512Q48.4617 51.9141 48.4148 51.873Q48.2273 51.7087 48.1129 51.5038Q47.9337 51.1827 47.9337 50.7617ZM35.184 50.8027L32.9092 50.8027L32.3983 52.2198L31.66 52.2198L33.7334 46.7903L34.3599 46.7903L36.437 52.2198L35.7023 52.2198L35.184 50.8027ZM38.5476 49.6952L37.8838 50.3851L37.8838 52.2198L37.1679 52.2198L37.1679 46.7903L37.8838 46.7903L37.8838 49.4752L40.2966 46.7903L41.1617 46.7903L39.0249 49.188L41.3295 52.2198L40.4718 52.2198L38.5476 49.6952ZM45.025 49.7101L42.672 49.7101L42.672 51.6343L45.4054 51.6343L45.4054 52.2198L41.956 52.2198L41.956 46.7903L45.3681 46.7903L45.3681 47.3794L42.672 47.3794L42.672 49.1246L45.025 49.1246L45.025 49.7101ZM54.8251 52.2198L54.8251 46.7903L56.6001 46.7903Q57.4839 46.7903 57.9295 47.1556Q58.0272 47.2357 58.1034 47.3326L58.1035 47.3328Q58.3752 47.6781 58.3752 48.2372Q58.3752 48.47 58.2941 48.6699Q58.2428 48.7966 58.1589 48.9103Q58.134 48.9438 58.1071 48.9758L58.1066 48.9763Q57.8993 49.2216 57.5697 49.3633Q57.8545 49.443 58.062 49.6156Q58.1751 49.7096 58.2652 49.8313Q58.3256 49.913 58.3717 50.002Q58.5206 50.2892 58.5206 50.6536Q58.5206 51.1726 58.2818 51.5337Q58.1843 51.681 58.047 51.8021Q57.5734 52.2198 56.7083 52.2198L54.8251 52.2198ZM62.5779 50.8027L60.3031 50.8027L59.7922 52.2198L59.0539 52.2198L61.1272 46.7903L61.7537 46.7903L63.8308 52.2198L63.0962 52.2198L62.5779 50.8027ZM65.9415 49.6952L65.2777 50.3851L65.2777 52.2198L64.5617 52.2198L64.5617 46.7903L65.2777 46.7903L65.2777 49.4752L67.6904 46.7903L68.5556 46.7903L66.4188 49.188L68.7234 52.2198L67.8657 52.2198L65.9415 49.6952ZM72.4189 49.7101L70.0658 49.7101L70.0658 51.6343L72.7993 51.6343L72.7993 52.2198L69.3499 52.2198L69.3499 46.7903L72.762 46.7903L72.762 47.3794L70.0658 47.3794L70.0658 49.1246L72.4189 49.1246L72.4189 49.7101ZM75.6819 50.0233L74.4065 50.0233L74.4065 52.2198L73.6868 52.2198L73.6868 46.7903L75.4842 46.7903Q76.4016 46.7903 76.8957 47.2079Q77.004 47.2996 77.0886 47.4094Q77.3898 47.8005 77.3898 48.4236Q77.3898 48.7878 77.2484 49.0848L77.2483 49.085Q77.1929 49.2013 77.1157 49.3074Q77.0728 49.3663 77.0246 49.4207Q76.7651 49.7133 76.3531 49.8705L77.6284 52.175L77.6284 52.2198L76.8603 52.2198L75.6819 50.0233ZM79.8696 49.5162L81.2867 46.7903L82.0996 46.7903L80.2276 50.1949L80.2276 52.2198L79.5116 52.2198L79.5116 50.1949L77.6396 46.7903L78.46 46.7903L79.8696 49.5162ZM49.0674 48.0134Q49.0674 48.3713 49.5074 48.9083L49.9474 48.5989Q50.201 48.4198 50.2942 48.2577Q50.3875 48.0955 50.3875 47.8643Q50.3875 47.7389 50.3406 47.6348Q50.294 47.5311 50.201 47.4485Q50.1533 47.406 50.0993 47.3744L50.0992 47.3743Q49.942 47.2825 49.7311 47.2825Q49.5299 47.2825 49.3836 47.3721Q49.3076 47.4187 49.2464 47.4895Q49.2088 47.5328 49.1791 47.5812L49.1791 47.5812Q49.0674 47.7629 49.0674 48.0134ZM55.5411 49.106L56.6225 49.106Q57.0811 49.106 57.3603 48.8822Q57.366 48.8777 57.3716 48.873L57.3739 48.8711Q57.4783 48.7839 57.544 48.6737Q57.6555 48.4868 57.6555 48.2334Q57.6555 47.8507 57.4645 47.6466Q57.4322 47.6121 57.3944 47.5826Q57.1334 47.3794 56.6001 47.3794L55.5411 47.3794L55.5411 49.106ZM74.4065 49.4379L75.5066 49.4379Q76.0079 49.4379 76.3164 49.194L76.3188 49.1921Q76.3372 49.1775 76.355 49.162Q76.4674 49.0635 76.5397 48.9413Q76.6701 48.7209 76.6701 48.4236Q76.6701 48.0138 76.4712 47.7596L76.471 47.7595Q76.4256 47.7015 76.3699 47.6516Q76.0697 47.3832 75.5029 47.3794L74.4065 47.3794L74.4065 49.4379ZM33.1255 50.2135L34.9714 50.2135L34.0466 47.6741L33.1255 50.2135ZM60.5194 50.2135L62.3653 50.2135L61.4405 47.6741L60.5194 50.2135ZM55.5411 49.6803L55.5411 51.6343L56.7232 51.6343Q57.1948 51.6343 57.4787 51.4034L57.4791 51.4032Q57.4958 51.3895 57.5119 51.3751Q57.5896 51.3054 57.6465 51.2216Q57.8009 50.9935 57.8009 50.661Q57.8009 50.2117 57.577 49.9683Q57.3122 49.6803 56.7344 49.6803L55.5411 49.6803ZM49.6901 51.7313Q49.8431 51.7313 49.9888 51.6987L49.9888 51.6987Q50.3653 51.6147 50.6933 51.3136L49.3694 49.7288L49.2464 49.8182Q48.6439 50.262 48.6243 50.7301L48.6242 50.7312Q48.6236 50.7465 48.6236 50.7617Q48.6236 51.0645 48.7586 51.2842L48.7587 51.2843Q48.8199 51.3839 48.9089 51.4666Q48.9338 51.4896 48.9603 51.5107Q49.2375 51.7313 49.6901 51.7313Z" clip-rule="evenodd" fill="#0F0F0F" fill-opacity="1.000000" fill-rule="evenodd"/>
</svg>