<svg width="111.000000" height="56.000000" viewBox="0 0 111 56" fill="none" xmlns="http://www.w3.org/2000/svg" xmlns:xlink="http://www.w3.org/1999/xlink">
	<desc>
			Created with Pixso.
	</desc>
	<defs>
		<clipPath id="clip478_3981">
			<rect id="Logo" width="111.000000" height="56.000000" fill="white" fill-opacity="0"/>
		</clipPath>
	</defs>
	<g clip-path="url(#clip478_3981)">
		<path id="Union" d="M55.7158 0.0507812C55.9102 -0.019043 56.1045 -0.019043 56.2998 0.0507812L72.1221 5.73071C72.2568 5.77917 72.3633 5.8623 72.4414 5.97998C72.5127 6.08752 72.5488 6.20654 72.5488 6.33691C72.5488 6.46716 72.5127 6.58618 72.4414 6.69373C72.3633 6.8114 72.2568 6.89453 72.1221 6.94299L56.2998 12.6229C56.1045 12.6927 55.9102 12.6927 55.7158 12.6229L39.8936 6.94299C39.7578 6.89453 39.6514 6.8114 39.5732 6.69373C39.54 6.64307 39.5146 6.58972 39.4961 6.53394C39.4766 6.47144 39.4668 6.40576 39.4668 6.33691C39.4668 6.26807 39.4766 6.20227 39.4961 6.13977C39.5146 6.08398 39.54 6.03076 39.5732 5.97998C39.6514 5.8623 39.7578 5.77917 39.8936 5.73071L55.7158 0.0507812ZM56.0029 0.849487L40.7158 6.33691L56.0029 11.8242C56.0039 11.8248 56.0059 11.8252 56.0078 11.8252C56.0098 11.8252 56.0107 11.8248 56.0127 11.8242L71.2988 6.33691L56.0127 0.849487C56.0107 0.848877 56.0098 0.848511 56.0078 0.848511C56.0059 0.848511 56.0039 0.848877 56.0029 0.849487ZM83.8223 4.59888C84.5088 3.91406 85.3096 3.60437 85.6123 3.9071C85.6904 3.98584 85.7275 4.09802 85.7275 4.23303C85.7275 4.61804 85.4258 5.1886 84.918 5.69568C84.752 5.86096 84.5801 6.00452 84.4092 6.1228C84.5801 6.24109 84.752 6.38452 84.918 6.54993C85.4258 7.05701 85.7275 7.62756 85.7275 8.01257C85.7275 8.14758 85.6904 8.25977 85.6123 8.33838C85.3096 8.64124 84.5088 8.33154 83.8223 7.64661C83.3145 7.13953 83.0127 6.56897 83.0127 6.18396C83.0127 6.16309 83.0137 6.14258 83.0156 6.1228C83.0137 6.10291 83.0127 6.08252 83.0127 6.06152C83.0127 5.67651 83.3145 5.10596 83.8223 4.59888ZM26.4102 3.90735C26.7129 3.60449 27.5137 3.91418 28.2002 4.59912C28.708 5.1062 29.0098 5.67676 29.0098 6.06177C29.0098 6.08276 29.0088 6.10315 29.0068 6.12292C29.0088 6.1427 29.0098 6.16309 29.0098 6.18408C29.0098 6.56909 28.708 7.13965 28.2002 7.64673C27.5137 8.33167 26.7129 8.64136 26.4102 8.3385C26.332 8.25989 26.2949 8.14771 26.2949 8.0127C26.2949 7.62769 26.5967 7.05713 27.1045 6.55005C27.2705 6.38464 27.4424 6.24121 27.6133 6.12292C27.4424 6.00464 27.2705 5.86121 27.1045 5.6958C26.5967 5.18872 26.2949 4.61816 26.2949 4.23328C26.2949 4.09814 26.332 3.98596 26.4102 3.90735ZM81.6328 4.62463C82.3193 3.93982 83.1201 3.63013 83.4229 3.93286C83.501 4.0116 83.5381 4.12378 83.5381 4.25879C83.5381 4.6438 83.2363 5.21436 82.7285 5.72144C82.5625 5.88672 82.3906 6.03027 82.2197 6.14856C82.3906 6.26685 82.5625 6.41028 82.7285 6.57568C83.2363 7.08276 83.5381 7.65332 83.5381 8.03833C83.5381 8.17334 83.501 8.28552 83.4229 8.36414C83.1201 8.66699 82.3193 8.3573 81.6328 7.67236C81.125 7.16528 80.8232 6.59473 80.8232 6.20972C80.8232 6.18872 80.8242 6.16833 80.8262 6.14856C80.8242 6.12866 80.8232 6.10828 80.8232 6.08728C80.8232 5.70227 81.125 5.13171 81.6328 4.62463ZM28.5996 3.93298C28.9023 3.63013 29.7031 3.93982 30.3896 4.62476C30.8975 5.13184 31.1992 5.70239 31.1992 6.0874C31.1992 6.1084 31.1982 6.12878 31.1963 6.14856C31.1982 6.16833 31.1992 6.18872 31.1992 6.20972C31.1992 6.59473 30.8975 7.16528 30.3896 7.67236C29.7031 8.3573 28.9023 8.66699 28.5996 8.36414C28.5215 8.28552 28.4844 8.17334 28.4844 8.03833C28.4844 7.65332 28.7861 7.08276 29.2939 6.57568C29.46 6.41028 29.6318 6.26685 29.8027 6.14856C29.6318 6.03027 29.46 5.88684 29.2939 5.72144C28.7861 5.21436 28.4844 4.6438 28.4844 4.25891C28.4844 4.12378 28.5215 4.0116 28.5996 3.93298ZM79.4434 4.65051C80.1299 3.96558 80.9307 3.65588 81.2334 3.95874C81.3115 4.03735 81.3486 4.14954 81.3486 4.28455C81.3486 4.66956 81.0469 5.24011 80.5391 5.74719C80.373 5.9126 80.2012 6.05603 80.0303 6.17432C80.2012 6.2926 80.373 6.43604 80.5391 6.60132C81.0469 7.1084 81.3486 7.67896 81.3486 8.06396C81.3486 8.19897 81.3115 8.31116 81.2334 8.38989C80.9307 8.69275 80.1299 8.38293 79.4434 7.69812C78.9355 7.19104 78.6338 6.62048 78.6338 6.23547C78.6338 6.21448 78.6348 6.19409 78.6367 6.17432C78.6348 6.15454 78.6338 6.13403 78.6338 6.11316C78.6338 5.72815 78.9355 5.15759 79.4434 4.65051ZM30.7891 3.95874C31.0918 3.65588 31.8926 3.96558 32.5791 4.65051C33.0869 5.15759 33.3887 5.72815 33.3887 6.11316C33.3887 6.13416 33.3877 6.15454 33.3857 6.17432C33.3877 6.19409 33.3887 6.21448 33.3887 6.23547C33.3887 6.62048 33.0869 7.19104 32.5791 7.69812C31.8926 8.38306 31.0918 8.69275 30.7891 8.38989C30.7109 8.31128 30.6738 8.1991 30.6738 8.06409C30.6738 7.67908 30.9756 7.10852 31.4834 6.60144C31.6494 6.43604 31.8213 6.2926 31.9922 6.17432C31.8213 6.05603 31.6494 5.9126 31.4834 5.74719C30.9756 5.24011 30.6738 4.66956 30.6738 4.28467C30.6738 4.14954 30.7109 4.03735 30.7891 3.95874ZM77.2539 4.67639C77.9404 3.99158 78.7412 3.68188 79.0439 3.98462C79.1221 4.06335 79.1592 4.17554 79.1592 4.31055C79.1592 4.69556 78.8574 5.26611 78.3496 5.77319C78.1836 5.93848 78.0117 6.08191 77.8408 6.2002C78.0117 6.31848 78.1836 6.46191 78.3496 6.6272C78.8574 7.13428 79.1592 7.70483 79.1592 8.08984C79.1592 8.22485 79.1221 8.33704 79.0439 8.41565C78.7412 8.71851 77.9404 8.40881 77.2539 7.72388C76.7461 7.2168 76.4443 6.64624 76.4443 6.26123C76.4443 6.24036 76.4453 6.21997 76.4473 6.2002C76.4453 6.18042 76.4443 6.16003 76.4443 6.13904C76.4443 5.75403 76.7461 5.18347 77.2539 4.67639ZM32.9785 3.98486C33.2812 3.68201 34.082 3.9917 34.7686 4.67664C35.2764 5.18372 35.5781 5.75427 35.5781 6.13928C35.5781 6.16016 35.5771 6.18054 35.5752 6.20032C35.5771 6.22009 35.5781 6.24048 35.5781 6.26147C35.5781 6.64636 35.2764 7.21704 34.7686 7.724C34.082 8.40894 33.2812 8.71863 32.9785 8.41577C32.9004 8.33716 32.8633 8.22498 32.8633 8.08997C32.8633 7.70496 33.165 7.1344 33.6729 6.62732C33.8389 6.46204 34.0107 6.3186 34.1816 6.20032C34.0107 6.08203 33.8389 5.9386 33.6729 5.77332C33.165 5.26624 32.8633 4.69568 32.8633 4.31067C32.8633 4.17566 32.9004 4.06348 32.9785 3.98486ZM75.0645 4.70227C75.751 4.01733 76.5518 3.70764 76.8545 4.0105C76.9326 4.08911 76.9697 4.20129 76.9697 4.3363C76.9697 4.72131 76.668 5.29187 76.1602 5.79895C75.9941 5.96436 75.8223 6.10779 75.6514 6.22607C75.8223 6.34436 75.9941 6.48779 76.1602 6.65308C76.668 7.16016 76.9697 7.73071 76.9697 8.11572C76.9697 8.25073 76.9326 8.36292 76.8545 8.44165C76.5518 8.74451 75.751 8.43469 75.0645 7.74988C74.5566 7.2428 74.2549 6.67224 74.2549 6.28723C74.2549 6.26624 74.2559 6.24585 74.2578 6.22607C74.2559 6.2063 74.2549 6.18579 74.2549 6.16492C74.2549 5.77991 74.5566 5.20935 75.0645 4.70227ZM35.168 4.0105C35.4707 3.70764 36.2715 4.01733 36.958 4.70227C37.4658 5.20935 37.7676 5.77991 37.7676 6.16492C37.7676 6.18591 37.7666 6.2063 37.7646 6.22607C37.7666 6.24585 37.7676 6.26624 37.7676 6.28723C37.7676 6.67224 37.4658 7.2428 36.958 7.74988C36.2715 8.43481 35.4707 8.74451 35.168 8.44165C35.0898 8.36304 35.0527 8.25085 35.0527 8.11584C35.0527 7.73083 35.3545 7.16028 35.8623 6.6532C36.0283 6.48779 36.2002 6.34436 36.3711 6.22607C36.2002 6.10779 36.0283 5.96436 35.8623 5.79895C35.3545 5.29187 35.0527 4.72131 35.0527 4.3363C35.0527 4.20129 35.0898 4.08911 35.168 4.0105ZM53.2012 7.79114L50.7666 7.79114L50.7666 7.37585L51.9727 6.06079C52.1465 5.86682 52.2705 5.70483 52.3447 5.57471C52.417 5.44727 52.4531 5.31934 52.4551 5.19104L52.4551 5.18323C52.4551 5.04041 52.4219 4.92041 52.3555 4.82312C52.3418 4.80298 52.3262 4.78381 52.3096 4.7655C52.2803 4.73364 52.248 4.70654 52.2129 4.6842L52.2129 4.6842C52.1309 4.63232 52.0322 4.60645 51.918 4.60645C51.7646 4.60645 51.6387 4.64294 51.54 4.71606C51.5117 4.73633 51.4863 4.75952 51.4629 4.7854C51.457 4.79187 51.4512 4.79834 51.4463 4.80505L51.4443 4.80676C51.3496 4.92395 51.3018 5.08008 51.3018 5.27515L50.6973 5.27515C50.6973 5.09705 50.7305 4.93335 50.7959 4.78394C50.8115 4.74841 50.8281 4.71375 50.8477 4.67981C50.8867 4.61169 50.9316 4.54956 50.9834 4.49316C51.0654 4.40332 51.1631 4.32837 51.2773 4.26831C51.4639 4.17053 51.6797 4.1217 51.9229 4.1217C52.2676 4.1217 52.541 4.20654 52.7422 4.37622C52.7461 4.37952 52.751 4.38293 52.7549 4.38647C52.8135 4.43799 52.8643 4.49536 52.9062 4.55847C53.0078 4.7113 53.0586 4.89807 53.0586 5.11853C53.0586 5.29919 53.0078 5.48853 52.9062 5.68665C52.8047 5.88464 52.6377 6.10962 52.4053 6.36157L51.5205 7.30884L53.2012 7.30884L53.2012 7.79114ZM56.0195 6.26709C56.0195 6.7876 55.9229 7.17993 55.7275 7.44434C55.6748 7.51648 55.6143 7.57886 55.5459 7.63135C55.3633 7.771 55.1279 7.84082 54.8389 7.84082C54.5547 7.84082 54.3203 7.77246 54.1377 7.63574L54.1377 7.63574C54.0703 7.58472 54.0088 7.52417 53.9551 7.45422C53.7568 7.19653 53.6553 6.81494 53.6504 6.30945L53.6504 5.68286C53.6504 5.16248 53.748 4.77222 53.9434 4.51196C53.9922 4.4458 54.0488 4.38818 54.1113 4.33887C54.2949 4.19409 54.5361 4.1217 54.834 4.1217C55.1357 4.1217 55.3789 4.19507 55.5635 4.3418C55.6211 4.38794 55.6738 4.44141 55.7207 4.50208C55.915 4.75562 56.0146 5.13513 56.0195 5.64062L56.0195 6.26709ZM61.3281 4.15393L61.3281 4.65369L61.2529 4.65369C60.9443 4.6582 60.6924 4.73608 60.4961 4.88733C60.4785 4.90161 60.46 4.9165 60.4424 4.93213C60.4189 4.95361 60.3955 4.9762 60.374 4.99976L60.374 5C60.2129 5.17505 60.1162 5.40845 60.082 5.70032C60.1572 5.62109 60.2412 5.55725 60.333 5.50879C60.4766 5.43262 60.6416 5.39453 60.8252 5.39453C61.0254 5.39453 61.1992 5.4386 61.3467 5.52686C61.4346 5.57971 61.5137 5.64832 61.583 5.73267C61.5986 5.75281 61.6152 5.77344 61.6299 5.79468L61.6309 5.79541C61.7832 6.01111 61.8594 6.28113 61.8594 6.60522C61.8594 6.89075 61.7949 7.13416 61.6641 7.33533L61.6641 7.33545C61.627 7.39343 61.584 7.448 61.5352 7.49902C61.4648 7.57275 61.3887 7.63452 61.3037 7.68445L61.3037 7.68445C61.1279 7.7887 60.9219 7.84082 60.6836 7.84082C60.4854 7.84082 60.3076 7.80054 60.1504 7.71997C60.0215 7.65381 59.9062 7.56079 59.8047 7.44055C59.7871 7.41931 59.7695 7.39746 59.7539 7.37512C59.5635 7.11743 59.4678 6.78955 59.4678 6.39148L59.4678 6.18506C59.4678 5.55029 59.623 5.0531 59.9316 4.69348C60.001 4.61255 60.0771 4.54077 60.1611 4.47815C60.4473 4.26208 60.8154 4.15393 61.2656 4.15393L61.3281 4.15393ZM58.1904 7.79114L57.5889 7.79114L57.5889 4.88489L56.7012 5.18823L56.7012 4.67859L58.1133 4.15894L58.1904 4.15894L58.1904 7.79114ZM55.416 5.59094C55.416 5.2511 55.3691 5.0022 55.2764 4.84387C55.2393 4.78015 55.1934 4.72925 55.1377 4.69116C55.0566 4.63464 54.9551 4.60645 54.834 4.60645C54.7129 4.60645 54.6104 4.63501 54.5293 4.69202C54.4775 4.72742 54.4346 4.77393 54.3994 4.83142C54.3066 4.98145 54.2578 5.21558 54.252 5.53369L54.252 6.35413C54.252 6.69226 54.2998 6.94421 54.3945 7.10986C54.4355 7.18323 54.4883 7.24036 54.5508 7.28125C54.6309 7.33276 54.7266 7.35852 54.8389 7.35852C54.9521 7.35852 55.0479 7.33264 55.126 7.28076C55.1826 7.24353 55.2305 7.19275 55.2695 7.12854C55.3623 6.97522 55.4111 6.73535 55.416 6.40881L55.416 5.59094ZM22.748 6.03052L24.5938 5.11646C24.6729 5.07751 24.7646 5.07751 24.8428 5.11646L26.6895 6.03052C26.7412 6.0564 26.7676 6.10632 26.7676 6.15637C26.7676 6.20642 26.7412 6.25647 26.6895 6.28223L24.8428 7.19641C24.7646 7.23523 24.6729 7.23523 24.5938 7.19641L22.748 6.28223C22.6953 6.25647 22.6699 6.20642 22.6699 6.15637C22.6699 6.10632 22.6953 6.0564 22.748 6.03052ZM87.4297 5.11646L89.2764 6.03064C89.3281 6.0564 89.3545 6.10645 89.3545 6.15637C89.3545 6.20642 89.3281 6.25647 89.2764 6.28223L87.4297 7.19641C87.3516 7.23523 87.2588 7.23523 87.1807 7.19641L85.334 6.28223C85.2822 6.25647 85.2559 6.20642 85.2559 6.15637C85.2559 6.10645 85.2822 6.0564 85.334 6.03064L87.1807 5.11646C87.2588 5.07764 87.3516 5.07764 87.4297 5.11646ZM60.6787 5.88184C60.6143 5.88184 60.5518 5.89075 60.4922 5.90857C60.4297 5.92725 60.3711 5.95557 60.3145 5.99365C60.2627 6.02856 60.2178 6.06885 60.1797 6.11462C60.1348 6.16675 60.0996 6.22583 60.0723 6.29199L60.0723 6.47595C60.0723 6.74451 60.1289 6.95789 60.2412 7.11609C60.3086 7.21057 60.3877 7.27686 60.4785 7.31494C60.54 7.3407 60.6064 7.35352 60.6787 7.35352C60.7803 7.35352 60.8691 7.33203 60.9473 7.28906C61.0059 7.25598 61.0586 7.21045 61.1035 7.15222C61.208 7.01794 61.2607 6.84143 61.2607 6.62268C61.2607 6.40479 61.208 6.22729 61.1025 6.08997L61.1016 6.08813C61.0498 6.02136 60.9902 5.97083 60.9229 5.9364C60.8506 5.90002 60.7695 5.88184 60.6787 5.88184ZM24.0869 19.6038C27.6465 19.6038 30.3262 22.1926 30.3262 26.5817C30.3262 30.9663 27.6465 33.5551 24.0869 33.5551C20.5176 33.5551 17.8467 30.9617 17.8467 26.5817C17.8467 22.1926 20.5176 19.6038 24.0869 19.6038ZM52.3633 19.6038C55.3711 19.6038 57.6914 21.3539 58.1104 24.3712L55.6309 24.3712C55.3438 22.7487 54.0488 21.8143 52.3994 21.8143C50.1797 21.8143 48.6162 23.5189 48.6162 26.5817C48.6162 29.6947 50.1934 31.3446 52.3945 31.3446C54.0176 31.3446 55.3164 30.4513 55.6309 28.8606L58.1104 28.8743C57.7324 31.4677 55.5898 33.5551 52.3633 33.5551C48.7803 33.5551 46.1416 30.9617 46.1416 26.5817C46.1416 22.1926 48.8125 19.6038 52.3633 19.6038ZM98.2109 19.6038C101.771 19.6038 104.45 22.1926 104.45 26.5817C104.45 30.9663 101.771 33.5551 98.2109 33.5551C94.6416 33.5551 91.9707 30.9617 91.9707 26.5817C91.9707 22.1926 94.6416 19.6038 98.2109 19.6038ZM-5.9873 33.3683L-14.4238 33.3683L-14.4238 19.7906L-11.9668 19.7906L-11.9668 31.3081L-5.9873 31.3081L-5.9873 33.3683ZM-3.85645 19.7906L-1.39941 19.7906L-1.39941 33.3683L-3.85645 33.3683L-3.85645 19.7906ZM1.27441 33.3683L1.27441 19.7906L4.2832 19.7906L8.31641 29.6309L8.47168 29.6309L12.5049 19.7906L15.5137 19.7906L15.5137 33.3683L13.1523 33.3683L13.1523 24.0385L13.0293 24.0385L9.27344 33.3271L7.51465 33.3271L3.75879 24.0203L3.63574 24.0203L3.63574 33.3683L1.27441 33.3683ZM41.3691 19.7906L43.8164 19.7906L43.8164 33.3683L41.6289 33.3683L35.2295 24.1205L35.1152 24.1205L35.1152 33.3683L32.6592 33.3683L32.6592 19.7906L34.8604 19.7906L41.25 29.0475L41.3691 29.0475L41.3691 19.7906ZM69.2529 33.3683L60.3701 33.3683L60.3701 19.7906L69.1982 19.7906L69.1982 21.8507L62.8271 21.8507L62.8271 25.538L68.7432 25.538L68.7432 27.6027L62.8271 27.6027L62.8271 31.3081L69.2529 31.3081L69.2529 33.3683ZM80.1494 33.3683L71.7129 33.3683L71.7129 19.7906L74.1699 19.7906L74.1699 31.3081L80.1494 31.3081L80.1494 33.3683ZM90.7168 33.3683L82.2803 33.3683L82.2803 19.7906L84.7373 19.7906L84.7373 31.3081L90.7168 31.3081L90.7168 33.3683ZM24.0869 31.3446C26.3018 31.3446 27.8516 29.6674 27.8516 26.5817C27.8516 23.4916 26.3018 21.8143 24.0869 21.8143C21.8809 21.8143 20.3213 23.4916 20.3213 26.5817C20.3213 29.6674 21.8809 31.3446 24.0869 31.3446ZM98.2109 31.3446C100.426 31.3446 101.976 29.6674 101.976 26.5817C101.976 23.4916 100.426 21.8143 98.2109 21.8143C96.0049 21.8143 94.4463 23.4916 94.4463 26.5817C94.4463 29.6674 96.0049 31.3446 98.2109 31.3446ZM8.59473 46.8799L9.11426 47.3475C9.04688 47.2866 8.99512 47.2144 8.95801 47.1305C8.92383 47.0504 8.90625 46.9669 8.90625 46.8799C8.90625 46.7927 8.92383 46.7092 8.95801 46.6292C8.99512 46.5454 9.04688 46.473 9.11426 46.4121L8.59473 46.8799L3.3252 42.1425C3.23438 42.061 3.16113 41.9701 3.10449 41.8696L3.10449 41.8695C3.05371 41.7781 3.0166 41.6787 2.99414 41.5714C2.97754 41.4958 2.96973 41.4209 2.96973 41.3466C2.96973 41.3228 2.9707 41.2991 2.97168 41.2754L2.97168 41.2754C2.97949 41.171 3.00293 41.0677 3.04199 40.9656C3.08105 40.8635 3.13281 40.7712 3.19727 40.6887L3.19727 40.6887C3.25684 40.6116 3.32812 40.543 3.41113 40.483C3.59766 40.3475 3.80664 40.2798 4.03906 40.2798L20.7246 40.2798L20.7246 43.5664L19.876 43.5664L19.876 44.415L20.7246 44.415L20.7246 43.5664L89.5908 43.5664L89.5908 44.415L90.4395 44.415L90.4395 43.5664L89.5908 43.5664L89.5908 40.2798L106.277 40.2798C106.51 40.2798 106.719 40.3475 106.905 40.483C107.075 40.6069 107.198 40.7678 107.274 40.9656C107.322 41.0909 107.347 41.2179 107.347 41.3466C107.347 41.4209 107.339 41.4958 107.322 41.5714C107.274 41.7968 107.164 41.9871 106.991 42.1425L101.722 46.8799L101.201 46.4121C101.27 46.473 101.321 46.5453 101.357 46.6292C101.393 46.7092 101.41 46.7927 101.41 46.8799C101.41 46.9669 101.393 47.0504 101.357 47.1305C101.321 47.2144 101.27 47.2866 101.201 47.3475L101.722 46.8799L106.991 51.6172C107.164 51.7726 107.274 51.963 107.322 52.1882C107.339 52.2638 107.347 52.3387 107.347 52.4131C107.347 52.5417 107.322 52.6687 107.274 52.7941C107.198 52.9918 107.075 53.1527 106.905 53.2766C106.719 53.4121 106.51 53.4799 106.277 53.4799L93.75 53.4799L93.75 52.6312L92.9014 52.6312L92.9014 53.4799L93.75 53.4799L93.75 56.7665L16.5664 56.7665L16.5664 53.4799L17.415 53.4799L17.415 52.6312L16.5664 52.6312L16.5664 53.4799L4.03906 53.4799C3.80664 53.4799 3.59766 53.4121 3.41113 53.2766C3.24023 53.1527 3.11719 52.9918 3.04199 52.7941C3.00293 52.6919 2.97949 52.5886 2.97168 52.4844C2.9707 52.4607 2.96973 52.4369 2.96973 52.4131C2.96973 52.3387 2.97754 52.2638 2.99414 52.1882C3.0166 52.0809 3.05371 51.9816 3.10449 51.8901C3.16113 51.7896 3.23438 51.6986 3.3252 51.6172L8.59473 46.8799ZM10.249 46.0854C10.3643 46.1891 10.4531 46.3118 10.5146 46.4536C10.5742 46.5895 10.6035 46.7316 10.6035 46.8799C10.6035 47.0281 10.5742 47.1702 10.5146 47.306C10.4531 47.4479 10.3643 47.5706 10.249 47.6742L5.67969 51.7827L4.03906 51.7827C4.10156 51.7827 4.16113 51.7913 4.21875 51.8083C4.28516 51.8285 4.34961 51.8604 4.40918 51.9041C4.50977 51.9773 4.58203 52.0714 4.62598 52.1864C4.6543 52.259 4.66797 52.3328 4.66797 52.408C4.66797 52.452 4.66309 52.4966 4.65332 52.5415C4.625 52.6761 4.56055 52.7887 4.45996 52.8793L5.67969 51.7827L18.2637 51.7827L18.2637 55.0693L17.415 55.0693L17.415 55.9178L18.2637 55.9178L18.2637 55.0693L92.0527 55.0693L92.0527 55.9178L92.9014 55.9178L92.9014 55.0693L92.0527 55.0693L92.0527 51.7827L104.637 51.7827L105.856 52.8793C105.756 52.7887 105.691 52.6761 105.662 52.5415C105.653 52.4966 105.648 52.452 105.648 52.408C105.648 52.3328 105.662 52.259 105.689 52.1864C105.734 52.0714 105.807 51.9773 105.907 51.9042C106.019 51.8231 106.142 51.7827 106.277 51.7827L104.637 51.7827L100.066 47.6743C99.9512 47.5706 99.8633 47.4479 99.8018 47.306C99.7422 47.1702 99.7129 47.0281 99.7129 46.8799C99.7129 46.7316 99.7422 46.5895 99.8018 46.4536C99.8633 46.3118 99.9512 46.1891 100.066 46.0854L104.637 41.9769L106.277 41.9769C106.142 41.9769 106.019 41.9365 105.907 41.8556C105.807 41.7823 105.734 41.6882 105.689 41.5732C105.662 41.5007 105.648 41.4269 105.648 41.3517C105.648 41.3076 105.653 41.2631 105.662 41.2181C105.691 41.0835 105.756 40.9709 105.856 40.8804L104.637 41.9769L91.2881 41.9769L91.2881 41.1284L90.4395 41.1284L90.4395 41.9769L91.2881 41.9769L91.2881 45.2635L19.0273 45.2635L19.0273 41.9769L19.876 41.9769L19.876 41.1284L19.0273 41.1284L19.0273 41.9769L5.67969 41.9769L4.45996 40.8804C4.56055 40.9709 4.625 41.0835 4.65332 41.2181C4.66309 41.2631 4.66797 41.3076 4.66797 41.3517C4.66797 41.4269 4.6543 41.5007 4.62598 41.5732C4.60547 41.6276 4.57812 41.6771 4.54492 41.7222C4.50781 41.7725 4.46191 41.8169 4.40918 41.8556C4.29785 41.9365 4.1748 41.9769 4.03906 41.9769L5.67969 41.9769L10.249 46.0854ZM32.208 50.4969C32.1504 50.9904 31.9854 51.387 31.7139 51.6868C31.6699 51.736 31.6221 51.7825 31.5723 51.8264C31.54 51.854 31.5078 51.8805 31.4746 51.9058C31.1299 52.1648 30.6885 52.2944 30.1494 52.2944C29.7705 52.2944 29.4355 52.214 29.1455 52.0532C28.9453 51.9421 28.7656 51.7925 28.6074 51.6045C28.5977 51.5923 28.5869 51.58 28.5771 51.5676C28.2109 51.1118 28.0273 50.5088 28.0273 49.7585L28.0273 49.2366C28.0273 48.7318 28.1182 48.2881 28.2979 47.9053C28.4336 47.6161 28.6133 47.3777 28.835 47.1899C28.9072 47.129 28.9834 47.0735 29.0645 47.0233C29.1113 46.9941 29.1592 46.967 29.209 46.942L29.209 46.9419C29.5049 46.7911 29.8398 46.7157 30.2129 46.7157C30.7012 46.7157 31.1064 46.8308 31.4307 47.0612C31.4902 47.1031 31.5469 47.1489 31.5996 47.1986C31.6514 47.2462 31.7002 47.2966 31.7451 47.3499C32.0049 47.6553 32.1592 48.0505 32.208 48.5354L31.4883 48.5354C31.4258 48.1029 31.291 47.7897 31.084 47.5957C31.0732 47.5861 31.0625 47.5767 31.0518 47.5675L31.0518 47.567C30.8467 47.3922 30.5674 47.3048 30.2129 47.3048C29.9434 47.3048 29.708 47.3636 29.5068 47.4811C29.3672 47.5629 29.2441 47.6732 29.1367 47.812C28.877 48.1501 28.7471 48.6312 28.7471 49.2551L28.7471 49.781C28.7471 50.3701 28.8701 50.8387 29.1162 51.1869C29.2285 51.3455 29.3613 51.468 29.5146 51.5543C29.6973 51.6573 29.9082 51.7089 30.1494 51.7089C30.5469 51.7089 30.8525 51.6188 31.0654 51.4386C31.2773 51.2583 31.4189 50.9445 31.4883 50.4969L32.208 50.4969ZM48.9326 50.7617C48.9326 50.6361 48.9492 50.5155 48.9834 50.3998L48.9834 50.3997C49.0195 50.2748 49.0752 50.1555 49.1514 50.042C49.2969 49.8232 49.5742 49.5684 49.9844 49.2776C49.7432 48.9841 49.582 48.748 49.5 48.569C49.418 48.39 49.377 48.2123 49.377 48.0358C49.377 47.7023 49.4561 47.4271 49.6152 47.2106C49.6533 47.1592 49.6953 47.111 49.7422 47.0662C49.7773 47.0326 49.8135 47.0015 49.8525 46.9727L49.8525 46.9727C50.083 46.8013 50.376 46.7157 50.7344 46.7157C51.0146 46.7157 51.2588 46.7773 51.4668 46.9006L51.4668 46.9008C51.5342 46.9412 51.5986 46.9883 51.6592 47.042C51.7764 47.1467 51.8652 47.2646 51.9258 47.3956C51.9912 47.5366 52.0244 47.6929 52.0244 47.8643C52.0244 47.9844 52.0078 48.0995 51.9746 48.2096C51.9473 48.2999 51.9082 48.3867 51.8584 48.4702C51.748 48.6554 51.5547 48.85 51.2783 49.0538L50.8799 49.3484L52.0879 50.7915C52.1143 50.7411 52.1387 50.6897 52.1611 50.6375C52.2812 50.3552 52.3408 50.0474 52.3408 49.7139L52.9639 49.7139C52.9639 50.3335 52.8184 50.8497 52.5254 51.2627C52.5195 51.2723 52.5127 51.2819 52.5049 51.2913L53.2812 52.2198L52.4531 52.2198L52.0918 51.7909C52.0703 51.8094 52.0498 51.8274 52.0283 51.845L52.0254 51.8469C51.8564 51.9838 51.6631 52.09 51.4443 52.1658C51.2715 52.2258 51.0957 52.2648 50.918 52.2828L50.918 52.2828C50.8418 52.2905 50.7656 52.2944 50.6895 52.2944C50.2109 52.2944 49.8184 52.1799 49.5107 51.9512C49.4775 51.9264 49.4453 51.9004 49.4141 51.873C49.2891 51.7635 49.1885 51.6405 49.1123 51.5038C48.9922 51.2898 48.9326 51.0424 48.9326 50.7617ZM36.1836 50.8027L33.9082 50.8027L33.3975 52.2198L32.6592 52.2198L34.7324 46.7903L35.3594 46.7903L37.4365 52.2198L36.7012 52.2198L36.1836 50.8027ZM39.5469 49.6952L38.8828 50.3851L38.8828 52.2198L38.167 52.2198L38.167 46.7903L38.8828 46.7903L38.8828 49.4752L41.2959 46.7903L42.1611 46.7903L40.0244 49.188L42.3291 52.2198L41.4707 52.2198L39.5469 49.6952ZM46.0244 49.7101L43.6709 49.7101L43.6709 51.6343L46.4043 51.6343L46.4043 52.2198L42.9551 52.2198L42.9551 46.7903L46.3672 46.7903L46.3672 47.3794L43.6709 47.3794L43.6709 49.1246L46.0244 49.1246L46.0244 49.7101ZM55.8242 52.2198L55.8242 46.7903L57.5996 46.7903C58.1885 46.7903 58.6318 46.9121 58.9287 47.1556C58.9941 47.2091 59.0518 47.2681 59.1025 47.3326L59.1025 47.3328C59.2842 47.563 59.374 47.8645 59.374 48.2372C59.374 48.3923 59.3477 48.5366 59.293 48.6699C59.2588 48.7544 59.2139 48.8345 59.1582 48.9103C59.1416 48.9326 59.124 48.9545 59.1064 48.9758L59.1055 48.9763C58.9678 49.1398 58.7891 49.2688 58.5684 49.3633C58.7588 49.4164 58.9229 49.5005 59.0615 49.6156C59.1367 49.6783 59.2041 49.7502 59.2646 49.8313C59.3047 49.8857 59.3398 49.9426 59.3711 50.002C59.4697 50.1935 59.5195 50.4106 59.5195 50.6536C59.5195 50.9996 59.4404 51.293 59.2812 51.5337C59.2158 51.632 59.1377 51.7214 59.0459 51.8021C58.7305 52.0806 58.2842 52.2198 57.707 52.2198L55.8242 52.2198ZM63.5771 50.8027L61.3027 50.8027L60.791 52.2198L60.0527 52.2198L62.126 46.7903L62.7529 46.7903L64.8301 52.2198L64.0957 52.2198L63.5771 50.8027ZM66.9404 49.6952L66.2764 50.3851L66.2764 52.2198L65.5605 52.2198L65.5605 46.7903L66.2764 46.7903L66.2764 49.4752L68.6895 46.7903L69.5547 46.7903L67.418 49.188L69.7227 52.2198L68.8652 52.2198L66.9404 49.6952ZM73.418 49.7101L71.0654 49.7101L71.0654 51.6343L73.7988 51.6343L73.7988 52.2198L70.3486 52.2198L70.3486 46.7903L73.7607 46.7903L73.7607 47.3794L71.0654 47.3794L71.0654 49.1246L73.418 49.1246L73.418 49.7101ZM76.6807 50.0233L75.4053 50.0233L75.4053 52.2198L74.6855 52.2198L74.6855 46.7903L76.4834 46.7903C77.0947 46.7903 77.5654 46.9294 77.8945 47.2079C77.9668 47.2689 78.0312 47.3361 78.0879 47.4093L78.0879 47.4094C78.2881 47.6702 78.3887 48.0083 78.3887 48.4236C78.3887 48.6664 78.3418 48.8868 78.2471 49.0847C78.2109 49.1625 78.166 49.2366 78.1152 49.3074C78.0859 49.3467 78.0557 49.3844 78.0234 49.4207C77.8506 49.6157 77.627 49.7656 77.3525 49.8705L78.6279 52.175L78.6279 52.2198L77.8594 52.2198L76.6807 50.0233ZM80.8691 49.5162L82.2861 46.7903L83.0986 46.7903L81.2266 50.1949L81.2266 52.2198L80.5107 52.2198L80.5107 50.1949L78.6387 46.7903L79.459 46.7903L80.8691 49.5162ZM50.0664 48.0134C50.0664 48.2521 50.2129 48.5504 50.5068 48.9083L50.9463 48.5989C51.1152 48.4795 51.2314 48.3657 51.293 48.2577C51.3555 48.1495 51.3867 48.0183 51.3867 47.8643C51.3867 47.7806 51.3711 47.7042 51.3398 47.6348C51.3086 47.5657 51.2617 47.5035 51.2002 47.4485C51.168 47.4202 51.1348 47.3954 51.0986 47.3744L51.0986 47.3743C50.9932 47.3131 50.8711 47.2825 50.7305 47.2825C50.5957 47.2825 50.4805 47.3124 50.3828 47.3721C50.332 47.4032 50.2861 47.4423 50.2451 47.4895C50.2207 47.5184 50.1982 47.549 50.1787 47.5812L50.1777 47.5812C50.1035 47.7024 50.0664 47.8464 50.0664 48.0134ZM56.54 49.106L57.6221 49.106C57.9277 49.106 58.1729 49.0314 58.3594 48.8822C58.3633 48.8792 58.3672 48.8761 58.3711 48.873L58.373 48.8711C58.4424 48.813 58.499 48.7472 58.543 48.6737C58.6172 48.5491 58.6543 48.4023 58.6543 48.2334C58.6543 47.9783 58.5908 47.7827 58.4639 47.6466C58.4424 47.6235 58.4189 47.6023 58.3936 47.5826C58.2197 47.4471 57.9551 47.3794 57.5996 47.3794L56.54 47.3794L56.54 49.106ZM75.4053 49.4379L76.5059 49.4379C76.8398 49.4379 77.1104 49.3566 77.3154 49.194C77.3291 49.1836 77.3418 49.173 77.3545 49.162C77.4287 49.0963 77.4902 49.0227 77.5391 48.9413C77.626 48.7944 77.6689 48.6218 77.6689 48.4236C77.6689 48.1504 77.6025 47.9291 77.4707 47.7598C77.4404 47.7209 77.4062 47.6849 77.3691 47.6516C77.1689 47.4727 76.8799 47.382 76.502 47.3794L75.4053 47.3794L75.4053 49.4379ZM34.125 50.2135L35.9707 50.2135L35.0459 47.6741L34.125 50.2135ZM61.5186 50.2135L63.3643 50.2135L62.4395 47.6741L61.5186 50.2135ZM56.54 49.6803L56.54 51.6343L57.7227 51.6343C58.0371 51.6343 58.2881 51.5574 58.4775 51.4034L58.4785 51.4032C58.4893 51.394 58.5 51.3848 58.5107 51.3751C58.5625 51.3287 58.6074 51.2775 58.6455 51.2216C58.749 51.0696 58.7998 50.8827 58.7998 50.661C58.7998 50.3615 58.7256 50.1305 58.5762 49.9683C58.3994 49.7762 58.1191 49.6803 57.7334 49.6803L56.54 49.6803ZM50.6895 51.7313C50.791 51.7313 50.8906 51.7205 50.9883 51.6987L50.9883 51.6987C51.2393 51.6427 51.4736 51.5144 51.6924 51.3136L50.3682 49.7288L50.2451 49.8182C49.8438 50.1141 49.6367 50.4181 49.623 50.7301L49.623 50.7312C49.623 50.7413 49.623 50.7516 49.623 50.7617C49.623 50.9635 49.668 51.1377 49.7578 51.2842L49.7578 51.2843C49.7988 51.3507 49.8486 51.4115 49.9082 51.4666C49.9248 51.4819 49.9414 51.4967 49.959 51.5107C50.1445 51.6577 50.3877 51.7313 50.6895 51.7313Z" clip-rule="evenodd" fill="#FFFFFF" fill-opacity="1.000000" fill-rule="evenodd"/>
	</g>
</svg>
