<svg width="240" height="246" viewBox="0 0 240 246" fill="none" xmlns="http://www.w3.org/2000/svg">
<g clip-path="url(#clip0_185_1067)">
<path d="M237.409 39.6396C230.67 40.5564 224.473 42.6613 217.602 42.9426C210.607 43.2337 203.614 42.7424 196.624 42.4083C184.174 41.8231 171.749 43.4347 159.636 46.2574C147.175 49.1663 135.125 53.7411 123.302 58.5704C111.134 63.5563 99.3323 69.138 88.2494 76.239C66.5988 90.1278 48.1128 110.379 38.144 134.247C33.1864 146.134 31.0773 158.98 26.5905 171.032C24.0329 177.925 19.7797 188.563 13.2031 193.322C11.367 193.977 9.59748 194.82 7.96115 195.863C6.42522 196.84 7.98419 199.19 9.52012 198.214C22.1352 190.326 35.6059 196.614 48.563 199.25C61.1393 201.791 74.275 200.532 86.8311 198.443C113.722 193.979 138.45 184.557 161.026 169.185C183.121 154.134 201.352 134.37 214.607 111.184C220.9 100.175 225.593 88.5648 227.892 76.0706C230.133 63.9475 238.259 53.5006 239.06 41.1039C239.119 40.2982 238.178 39.5341 237.409 39.6396Z" fill="#AEBFAC"/>
<path d="M220.841 83.7778C223.082 71.6546 231.208 61.2077 232.009 48.811C232.068 48.0053 231.127 47.2412 230.358 47.3468C223.619 48.2636 217.423 50.3685 210.551 50.6498C203.557 50.9409 196.563 50.4496 189.573 50.1154C177.123 49.5302 164.698 51.1419 152.585 53.9645C140.124 56.8734 128.074 61.4482 116.251 66.2776C104.083 71.2634 92.2815 76.8451 81.1986 83.9462C59.548 97.835 41.062 118.086 31.0932 141.954C26.1356 153.841 24.0265 166.687 19.5397 178.739C16.9821 185.632 12.7289 196.27 6.15228 201.029C4.31627 201.684 2.5467 202.527 0.910373 203.571C-0.625559 204.547 0.933404 206.898 2.46934 205.921C15.0844 198.033 28.5551 204.321 41.5122 206.957C54.0885 209.499 67.2242 208.239 79.7803 206.15C106.671 201.687 131.4 192.264 153.976 176.892C176.07 161.841 194.301 142.077 207.556 118.891C213.849 107.882 218.542 96.2719 220.841 83.7778ZM146.527 178.309C123.699 192.952 98.0644 200.748 71.3229 204.302C58.2997 206.036 45.0737 205.764 32.5376 201.56C27.3449 199.815 21.4354 198.865 15.6702 199.178C22.9612 194.755 30.2254 190.378 37.4031 185.828C54.2553 195.426 77.1673 196.542 95.5016 191.15C96.294 190.927 96.0562 189.609 95.2339 189.722C85.9847 190.931 77.0259 192.339 67.6563 191.994C57.5082 191.63 47.8961 189.044 38.6613 185.021C46.2239 180.2 53.6532 175.179 60.8397 169.639C61.7869 168.908 62.7608 168.218 63.7214 167.507C83.2188 176.231 106.353 178.314 127.356 175.114C128.379 174.955 128.328 173.397 127.269 173.478C105.735 175.006 85.3927 173.817 64.9631 166.61C71.7407 161.631 78.7715 157.033 85.9321 152.653C90.7452 153.783 95.2162 155.486 99.8776 157.193C105.3 159.176 111.328 159.803 117.017 160.553C129.241 162.171 142.073 162.242 153.715 157.793C154.772 157.38 154.258 155.798 153.167 156.117C139.752 160.05 125.975 159.754 112.258 157.782C106.328 156.931 100.954 155.567 95.3373 153.51C93.1535 152.704 90.5927 151.612 88.1137 151.32C95.0266 147.133 102.059 143.128 109.092 139.122C117.963 143.054 128.155 144.835 137.677 145.803C147.981 146.859 158.732 146.387 168.312 142.166C169.151 141.796 168.747 140.445 167.864 140.771C148.928 147.763 129.181 143.286 110.391 138.375C111.608 137.682 112.806 137.002 114.024 136.309C119.427 133.226 124.751 130.023 130.025 126.723C129.934 126.913 129.95 127.177 130.2 127.315C136.398 131.142 145.938 130.13 152.882 129.916C163.673 129.592 174.464 127.98 185.131 126.379C185.973 126.253 185.939 124.959 185.053 125.041C176.173 125.803 167.371 127.208 158.5 128.007C150.178 128.76 138.284 130.41 130.58 126.557C130.483 126.52 130.413 126.523 130.339 126.543C138.159 121.653 145.833 116.541 153.373 111.229C157.941 112.796 163.653 112.141 168.272 112.17C175.443 112.21 182.519 111.431 189.454 109.545C190.3 109.316 189.865 108.115 189.032 108.277C183.299 109.466 177.542 110.251 171.69 110.565C166.61 110.843 159.765 111.599 154.39 110.495C158.771 107.397 163.112 104.239 167.393 101.034C169.033 99.7999 170.677 98.5491 172.3 97.3117C172.156 97.5956 172.218 97.9736 172.639 98.0412C183.249 99.8199 198.349 103.463 207.871 96.6029C208.5 96.1561 207.871 95.2287 207.205 95.5986C197 101.364 183.823 98.3532 172.839 96.9683C172.772 96.9548 172.712 96.9948 172.655 97.0181C177.451 93.3257 182.204 89.5898 186.988 85.8774C193.718 87.2375 201.988 87.9519 208.011 84.2986C208.526 83.9853 208.103 83.065 207.545 83.3348C201.256 86.3255 194.876 85.0362 188.307 84.8567C193.17 81.0909 198.074 77.3853 203.1 73.8439C207.03 75.4729 211.302 74.8056 215.439 74.8067C216.048 74.8078 216.127 73.8149 215.515 73.7435C211.743 73.2249 207.912 74.1204 204.198 73.0568C208.733 69.8856 213.381 66.8416 218.206 64.042C218.738 63.7321 218.215 62.9654 217.686 63.2586C211.467 66.5939 205.54 70.3711 199.761 74.3692C202.466 70.6194 204.58 66.2633 207.148 62.5032C207.52 61.9522 206.833 61.3089 206.364 61.823C202.549 65.8181 199.346 71.2589 197.013 76.2666C192.023 79.7981 187.147 83.4569 182.276 87.1692C186.188 80.0278 188.477 72.315 194.224 66.0666C194.757 65.4958 193.89 64.7987 193.337 65.2959C186.497 71.3584 183.564 80.5412 180.121 88.8035C175.519 92.309 170.913 95.8312 166.244 99.2362C165.327 99.9032 164.413 100.554 163.479 101.217C166.35 90.2822 170.819 80.2096 179.19 72.2474C179.686 71.7735 178.922 70.9061 178.4 71.3398C169.235 78.7588 163.816 90.692 162.057 102.234C156.123 106.48 150.079 110.581 143.955 114.562C150.477 101.216 155.231 87.583 166.458 77.0149C167.061 76.4409 166.144 75.3859 165.498 75.9163C152.992 86.1042 147.622 101.578 141.636 116.059C132.029 122.223 122.239 128.089 112.289 133.628C107.862 136.09 103.439 138.536 99.043 141.022C99.3809 129.802 100.605 119.786 104.708 109.205C108.488 99.4451 114.011 90.4378 119.981 81.886C120.617 80.971 119.387 79.8352 118.65 80.7299C111.59 89.4268 106.109 99.2601 102.15 109.732C98.5007 119.361 95.6655 131.068 97.7925 141.361C97.8189 141.488 97.8722 141.568 97.9422 141.652C91.4281 145.328 84.9672 149.084 78.6396 153.041C79.8367 149.526 80.0219 145.684 80.3639 142.013C80.8872 136.327 81.9048 130.775 83.3368 125.237C86.2784 113.778 92.3003 104.28 100.662 96.0199C101.359 95.3257 100.289 94.0832 99.5187 94.7104C91.1266 101.486 85.7579 110.246 82.3679 120.397C78.6617 131.511 79.4528 142.995 76.8794 154.181C70.7557 158.075 64.7486 162.166 58.948 166.612C58.1279 167.229 57.2946 167.826 56.4745 168.443C57.1631 165.208 57.4007 161.882 57.6717 158.562C58.2099 152.2 59.7565 146.181 62.0715 140.23C66.3388 129.265 73.3532 119.758 80.1069 110.252C80.717 109.384 79.5463 108.295 78.8361 109.143C71.4929 117.695 65.2336 127.25 60.8038 137.643C58.7148 142.561 57.21 147.771 56.3701 153.046C55.503 158.541 55.6115 164.112 54.8446 169.627C48.7866 174.056 42.5823 178.177 36.3046 182.231C35.2459 175.599 38.879 167.427 40.1657 161.06C41.986 152.052 44.5571 143.544 49.8999 135.944C50.4597 135.153 49.4324 134.215 48.7458 134.946C42.054 141.995 39.5248 151.242 37.7607 160.574C36.855 165.314 35.7892 169.986 34.78 174.722C34.1826 177.506 33.9357 180.448 35.0832 183.028C27.2294 188.086 19.3189 193.079 11.6248 198.465C14.5596 194.953 16.7712 190.547 18.6669 186.929C23.6832 177.332 26.1851 166.758 29.1645 156.402C37.1431 128.705 54.9562 105.848 78.31 89.2939C99.4114 74.3374 125.335 64.0778 150.242 57.4743C163.172 54.0513 176.468 52.5985 189.824 53.0884C196.831 53.339 203.784 53.8569 210.802 53.7097C217.139 53.5812 222.74 51.756 228.811 50.7042C227.5 62.0065 219.88 71.8425 218.015 83.1371C215.886 95.9961 210.581 107.796 204.158 119.022C190.275 143.334 170.092 163.207 146.608 178.256L146.527 178.309Z" fill="#90B87E"/>
<path d="M204.06 119.072C210.484 107.846 215.789 96.0461 217.918 83.1871C219.786 71.8758 227.403 62.0565 228.713 50.7542C222.643 51.806 217.041 53.6311 210.705 53.7596C203.687 53.9069 196.734 53.389 189.727 53.1384C176.371 52.6485 163.074 54.1013 150.145 57.5242C125.234 64.1445 99.3142 74.3874 78.2128 89.3439C54.8389 105.911 37.0425 128.771 29.0673 156.452C26.0913 166.791 23.5859 177.383 18.5697 186.979C16.674 190.597 14.4624 195.003 11.5276 198.515C19.2183 193.146 27.1288 188.152 34.986 183.078C33.8218 180.495 34.0854 177.556 34.6827 174.772C35.6886 170.053 36.7545 165.38 37.6635 160.624C39.4443 151.295 41.9568 142.045 48.6486 134.996C49.3352 134.265 50.3625 135.203 49.8027 135.994C44.4432 143.591 41.9055 152.106 40.0685 161.11C38.7818 167.477 35.132 175.645 36.2074 182.281C42.4851 178.227 48.6894 174.106 54.7474 169.677C55.5143 164.162 55.4058 158.591 56.2729 153.096C57.1128 147.821 58.6176 142.611 60.7066 137.693C65.1197 127.296 71.3956 117.745 78.7389 109.193C79.4658 108.348 80.6365 109.437 80.0097 110.302C73.256 119.808 66.2416 129.315 61.9743 140.28C59.6593 146.231 58.096 152.247 57.5745 158.612C57.3069 161.915 57.0659 165.258 56.3773 168.493C57.1974 167.876 58.0307 167.279 58.8508 166.662C64.6514 162.216 70.6585 158.125 76.7822 154.231C79.3723 143.048 78.5846 131.548 82.2707 120.447C85.644 110.292 91.0327 101.519 99.4215 94.7604C100.191 94.1332 101.278 95.3791 100.565 96.0699C92.2031 104.33 86.1812 113.828 83.2396 125.287C81.8243 130.828 80.79 136.377 80.2666 142.063C79.9247 145.734 79.7395 149.576 78.5424 153.091C84.87 149.134 91.3309 145.378 97.845 141.702C97.7717 141.635 97.7217 141.538 97.6953 141.411C95.5683 131.118 98.4035 119.411 102.053 109.782C106.028 99.3135 111.51 89.4801 118.553 80.7799C119.29 79.8852 120.52 81.021 119.883 81.936C113.93 90.4911 108.391 99.4951 104.611 109.255C100.525 119.84 99.2871 129.835 98.9458 141.072C103.342 138.586 107.782 136.144 112.191 133.678C122.142 128.139 131.932 122.273 141.539 116.109C147.525 101.628 152.878 86.1509 165.401 75.9663C166.047 75.4359 166.98 76.4943 166.361 77.0649C155.134 87.633 150.379 101.266 143.858 114.612C149.982 110.631 156.029 106.513 161.96 102.284C163.719 90.742 169.137 78.8088 178.303 71.3898C178.842 70.9595 179.589 71.8235 179.093 72.2974C170.738 80.2629 166.269 90.3356 163.382 101.267C164.299 100.6 165.23 99.9532 166.147 99.2862C170.816 95.8812 175.418 92.3757 180.024 88.8535C183.466 80.5912 186.403 71.3917 193.24 65.3459C193.789 64.8654 194.66 65.5458 194.127 66.1166C188.38 72.365 186.091 80.0778 182.179 87.2192C187.046 83.5236 191.926 79.8481 196.916 76.3166C199.249 71.3089 202.452 65.8681 206.267 61.873C206.749 61.379 207.419 62.0189 207.051 62.5532C204.483 66.3133 202.368 70.6694 199.664 74.4192C205.46 70.4245 211.37 66.6439 217.589 63.3086C218.114 63.0321 218.641 63.7821 218.109 64.092C213.301 66.895 208.652 69.939 204.101 73.1068C207.801 74.1503 211.63 73.2715 215.418 73.7935C216.026 73.8816 215.95 74.8578 215.342 74.8567C211.205 74.8556 206.933 75.5229 203.003 73.8939C197.976 77.4353 193.073 81.1409 188.209 84.9067C194.779 85.0862 201.162 86.3588 207.448 83.3848C208.006 83.115 208.429 84.0353 207.913 84.3486C201.894 87.9852 193.625 87.2708 186.89 85.9273C182.107 89.6398 177.371 93.3791 172.558 97.0681C172.614 97.0448 172.675 97.0048 172.741 97.0183C183.713 98.3831 196.903 101.414 207.108 95.6486C207.773 95.2787 208.406 96.1893 207.774 96.6529C198.252 103.513 183.148 99.8867 172.542 98.0912C172.124 98.0068 172.075 97.649 172.203 97.3617C170.576 98.6158 168.949 99.8699 167.296 101.084C162.998 104.286 158.674 107.447 154.293 110.545C159.668 111.649 166.513 110.893 171.593 110.615C177.445 110.301 183.201 109.516 188.935 108.327C189.751 108.161 190.186 109.362 189.357 109.595C182.425 111.464 175.362 112.263 168.174 112.22C163.556 112.191 157.84 112.862 153.276 111.279C145.735 116.591 138.045 121.699 130.242 126.593C130.312 126.59 130.386 126.57 130.482 126.607C138.187 130.46 150.081 128.81 158.403 128.057C167.274 127.258 176.076 125.853 184.956 125.091C185.842 125.009 185.876 126.303 185.034 126.429C174.363 128.047 163.576 129.642 152.785 129.966C145.857 130.183 136.301 131.192 130.103 127.365C129.873 127.214 129.837 126.963 129.927 126.773C124.654 130.073 119.33 133.276 113.927 136.359C112.709 137.052 111.511 137.732 110.293 138.425C129.067 143.332 148.831 147.813 167.766 140.821C168.666 140.498 169.074 141.833 168.215 142.216C158.635 146.437 147.883 146.909 137.58 145.853C128.058 144.885 117.869 143.087 108.995 139.172C101.962 143.178 94.9461 147.187 88.0165 151.37C90.4955 151.662 93.0563 152.754 95.2401 153.56C100.857 155.617 106.231 156.981 112.16 157.832C125.881 159.787 139.658 160.084 153.07 156.167C154.16 155.848 154.675 157.43 153.618 157.843C141.959 162.288 129.127 162.217 116.92 160.603C111.23 159.853 105.203 159.226 99.7804 157.243C95.119 155.536 90.6279 153.846 85.8349 152.703C78.6743 157.083 71.6602 161.684 64.8659 166.66C85.2955 173.867 105.654 175.059 127.172 173.528C128.248 173.45 128.298 175.008 127.258 175.164C106.252 178.381 83.1216 176.281 63.6242 167.557C62.6636 168.268 61.6897 168.958 60.7425 169.689C53.5594 175.212 46.13 180.234 38.5641 185.071C47.7989 189.094 57.411 191.68 67.5591 192.044C76.9286 192.389 85.8875 190.981 95.1367 189.772C95.959 189.659 96.2002 190.961 95.4044 191.2C77.0701 196.592 54.1581 195.476 37.3059 185.878C30.1483 190.415 22.8674 194.788 15.573 199.228C21.3381 198.915 27.2477 199.865 32.4404 201.61C44.9765 205.814 58.2025 206.086 71.2257 204.352C97.9505 200.794 123.588 192.982 146.43 178.359C169.914 163.31 190.097 143.437 203.98 119.125L204.06 119.072ZM124.244 105.865C121.923 111.24 120.486 116.376 119.451 122.099C118.859 125.371 118.197 128.56 116.076 131.227C115.748 131.648 115.011 131.168 115.296 130.704C118.032 126.369 117.779 120.909 118.799 116.036C119.825 111.129 121.917 106.281 124.095 101.782C129.154 91.3758 135.757 81.9257 143.915 73.7291C144.527 73.105 145.535 73.9696 144.952 74.6171C136.615 83.9603 129.221 94.3116 124.227 105.861L124.244 105.865Z" fill="#4D7C43"/>
<path d="M143.935 73.7158C135.777 81.9124 129.17 91.3791 124.116 101.768C121.921 106.265 119.848 111.099 118.819 116.022C117.799 120.895 118.052 126.356 115.316 130.691C115.031 131.155 115.771 131.618 116.096 131.214C118.214 128.563 118.876 125.375 119.471 122.085C120.506 116.363 121.947 111.21 124.264 105.851C129.258 94.3016 136.651 83.9503 144.989 74.6072C145.575 73.9429 144.581 73.0984 143.951 73.7192L143.935 73.7158Z" fill="#90B87E"/>
<path d="M97.3816 179.093C87.6852 175.29 76.1296 178.364 66.4571 174.357C63.6491 173.198 61.86 176.976 64.4131 178.536C68.7284 181.182 73.9528 182.168 78.7856 183.458C84.4934 184.977 91.1172 186.35 96.9578 185.147C99.7493 184.581 99.946 180.081 97.385 179.076L97.3816 179.093Z" fill="#71964C"/>
<path d="M106.951 185.932C106.256 186.105 105.544 186.1 104.846 186.115C103.626 186.13 102.796 186.449 101.939 187.337C101.132 188.148 101.242 189.753 102.163 190.444C103.247 191.271 104.183 191.374 105.496 191.239C106.509 191.13 107.539 190.938 108.492 190.609C111.505 189.548 110.004 185.192 106.965 185.952L106.951 185.932Z" fill="#71964C"/>
<path d="M119.184 182.09C118.518 182.373 117.833 182.408 117.217 182.875C116.474 183.456 116.114 184.809 117.045 185.449C118.313 186.314 119.496 186.136 120.714 185.269C122.314 184.149 121.087 181.274 119.167 182.086L119.184 182.09Z" fill="#71964C"/>
<path d="M60.794 128.144C61.9439 126.411 63.1949 124.263 63.0892 122.12C62.9996 120.24 60.7351 119.661 59.5295 120.896C58.1932 122.261 57.0435 123.907 55.7305 125.329C54.1027 127.105 52.3748 128.773 52.5297 131.362C52.6623 133.458 54.9859 134.519 56.7125 133.459C58.6198 132.279 59.5938 129.954 60.8141 128.131L60.794 128.144Z" fill="#71964C"/>
<path d="M52.9164 161.793C54.4509 158.328 54.3019 154.506 54.654 150.786C55.081 146.436 55.6982 142.178 57.7883 138.286C59.0162 135.995 55.4758 133.557 53.9407 135.735C51.4302 139.297 50.015 143.204 48.9735 147.411C47.9523 151.519 46.8723 156.519 47.6387 160.726C48.0879 163.235 51.6673 164.619 52.9164 161.793Z" fill="#71964C"/>
<path d="M46.3243 170.758C46.9086 169.415 47.2259 167.931 47.5463 166.517C47.8499 165.187 46.9037 163.848 45.6009 163.585C44.198 163.301 43.0198 164.228 42.6694 165.532C42.336 166.752 41.8724 167.928 41.5557 169.151C41.2928 170.194 41.9116 171.519 42.9232 171.932C43.1169 172.006 43.3273 172.083 43.541 172.144C44.5964 172.427 45.8944 171.767 46.3209 170.775L46.3243 170.758Z" fill="#71964C"/>
<path d="M32.0889 175.135C33.1722 173.301 33.1704 170.987 33.4321 168.918C33.7246 166.525 34.0705 164.125 34.6002 161.762C35.0152 159.88 32.306 159.437 31.7442 161.185C31.0614 163.273 30.5422 165.412 30.0398 167.554C29.5405 169.767 28.6164 172.189 28.8522 174.463C29.0356 176.222 31.207 176.574 32.0756 175.115L32.0889 175.135Z" fill="#71964C"/>
<path d="M60.8989 196.959C56.9218 195.564 52.743 194.737 48.6078 193.867C44.7731 193.057 40.522 193.277 37.0844 191.19C35.1486 190.016 33.0902 193.149 34.9053 194.49C38.0482 196.83 41.7997 197.448 45.5473 198.345C50.3904 199.498 54.9669 201.884 60.058 201.121C61.9767 200.83 63.2063 197.756 60.9022 196.943L60.8989 196.959Z" fill="#71964C"/>
<path d="M69.1043 197.818C68.9241 197.677 68.7573 197.556 68.5938 197.419C67.5696 196.638 66.0115 197.036 65.7379 198.39C65.4644 199.743 66.7456 200.715 67.9927 200.393C68.1967 200.33 68.414 200.287 68.618 200.224C69.6277 199.958 69.9317 198.454 69.1043 197.818Z" fill="#71964C"/>
<path d="M71.9692 145.187C73.5977 141.516 73.9376 137.253 74.7312 133.326C75.6329 128.864 77.0688 124.597 79.3129 120.632C80.3427 118.805 77.4395 116.827 76.2161 118.58C71.4028 125.452 67.0501 135.722 67.4798 144.263C67.6019 146.584 70.9888 147.372 71.9726 145.171L71.9692 145.187Z" fill="#71964C"/>
<path d="M64.6936 150.397C64.9892 148.073 61.6891 147.372 61.1194 149.674C60.7149 151.332 60.2166 153.11 60.8179 154.779C61.2066 155.867 62.5928 156.147 63.3732 155.296C64.6427 153.917 64.4827 152.128 64.7103 150.4L64.6936 150.397Z" fill="#71964C"/>
<path d="M98.5442 160.264C97.653 159.771 96.7417 159.291 95.8237 158.844C94.8923 158.378 93.6392 158.385 92.6269 158.233C90.5357 157.915 88.4444 157.597 86.3599 157.245C83.1697 156.687 82.2877 161.31 85.3738 162.125C87.4211 162.66 89.4753 163.162 91.5328 163.648C92.5281 163.884 93.7 164.364 94.7228 164.292C95.7455 164.221 96.7549 164.129 97.7742 164.074C99.8197 163.931 100.277 161.24 98.5375 160.297L98.5442 160.264Z" fill="#71964C"/>
<path d="M132.974 166.665C128.07 165.9 123.234 166.262 118.291 166.463C113.121 166.671 107.989 166.434 102.823 166.277C101.58 166.235 101.201 168.193 102.346 168.633C111.372 172.231 123.131 172.364 132.654 171.175C135.114 170.872 135.657 167.068 132.978 166.648L132.974 166.665Z" fill="#71964C"/>
<path d="M107.565 93.4316C108.27 91.7477 105.93 90.5964 105.034 92.1897C104.223 93.6259 102.99 94.9075 102.449 96.468C102.032 97.6709 103.252 99.2046 104.5 98.2741C106.057 97.1101 106.839 95.2157 107.578 93.4517L107.565 93.4316Z" fill="#71964C"/>
<path d="M91.1027 126.981C92.5824 124.131 92.9638 120.782 93.7456 117.687C94.7228 113.884 96.2945 110.235 97.9494 106.691C98.6812 105.134 96.3657 103.431 95.3432 104.964C91.5316 110.665 85.7564 118.856 86.7603 126.103C87.0764 128.324 89.992 129.122 91.086 126.977L91.1027 126.981Z" fill="#71964C"/>
<path d="M91.3747 135.785C91.6068 135.067 91.582 134.157 91.7172 133.402C92.0523 131.399 89.134 130.27 88.2844 132.238C87.6396 133.708 86.5027 135.635 87.6257 137.132C88.0656 137.708 88.9435 138.181 89.6727 137.841C90.693 137.352 91.0549 136.851 91.3914 135.788L91.3747 135.785Z" fill="#71964C"/>
<path d="M113.261 119.439C117.167 111.896 118.595 103.54 123.215 96.2463C124.157 94.7668 121.745 93.2008 120.669 94.5663C115.482 101.224 110.698 109.754 109.812 118.272C109.597 120.281 112.244 121.373 113.244 119.436L113.261 119.439Z" fill="#71964C"/>
<path d="M106.351 128.514C106.946 127.034 106.999 125.566 107.093 123.985C107.214 122.009 103.869 121.785 103.648 123.741C103.464 125.339 103.18 126.743 103.521 128.325C103.812 129.636 105.881 129.724 106.368 128.517L106.351 128.514Z" fill="#71964C"/>
<path d="M133.159 148.717C129.286 147.412 125.249 147.17 121.258 146.277C117.317 145.393 113.432 144.313 109.488 143.446C107.457 143.001 106.582 145.868 108.341 146.797C115.528 150.633 125.112 155.161 133.398 153.044C135.818 152.42 135.033 149.339 133.143 148.713L133.159 148.717Z" fill="#71964C"/>
<path d="M142.741 153.001C142.026 152.752 141.352 152.477 140.59 152.462C139.795 152.44 138.983 152.416 138.191 152.377C135.752 152.232 135.459 156.435 137.884 156.646C139.492 156.78 140.952 156.953 142.51 156.468C143.941 156.009 144.364 153.573 142.758 153.004L142.741 153.001Z" fill="#71964C"/>
<path d="M158.626 136.503C149.192 135.014 139.565 136.2 130.061 134.54C128.535 134.267 127.614 136.585 129.16 137.194C138.312 140.852 149.098 143.049 158.884 140.991C161.207 140.504 160.817 136.842 158.626 136.503Z" fill="#71964C"/>
<path d="M170.677 132.868C168.86 132.484 167.045 132.778 165.211 132.39C162.162 131.739 161.233 136.421 164.256 137.119C165.368 137.379 166.494 137.484 167.63 137.54C168.215 137.571 168.793 137.549 169.361 137.49C170.103 137.431 170.762 137.008 171.408 136.651C173.054 135.731 172.341 133.239 170.674 132.885L170.677 132.868Z" fill="#71964C"/>
<path d="M136.533 106.556C138.859 103.391 140.02 99.5379 141.933 96.0976C144.16 92.0426 147.102 88.4103 150.06 84.8683C151.484 83.1557 149.045 81.1148 147.488 82.6265C141.628 88.3131 132.952 96.492 132.663 105.235C132.609 107.137 135.411 108.069 136.517 106.553L136.533 106.556Z" fill="#71964C"/>
<path d="M139.78 113.544C140.765 112.543 141.112 111.343 141.696 110.087C142.25 108.894 142.83 107.742 143.334 106.539C144.268 104.327 141.14 102.773 139.982 104.888C138.738 107.176 136.346 109.719 136.578 112.445C136.728 114.11 138.648 114.672 139.78 113.544Z" fill="#71964C"/>
<path d="M129.418 114.755C129.764 112.789 126.692 111.56 125.986 113.592C125.606 114.698 125.035 115.713 125.494 116.884C125.883 117.885 126.998 118.301 127.932 117.725C129.026 117.041 129.219 115.915 129.422 114.738L129.418 114.755Z" fill="#71964C"/>
<path d="M172.914 118.274C169.054 118.277 165.288 118.42 161.434 118.737C158.322 118.996 154.484 119.925 151.476 118.725C149.93 118.117 148.709 119.94 149.877 121.133C152.311 123.625 155.924 123.381 159.178 123.534C164.254 123.795 168.831 124.111 173.661 122.234C175.848 121.389 175.226 118.272 172.914 118.274Z" fill="#71964C"/>
<path d="M159.018 96.541C159.855 95.7535 160.205 94.7109 160.705 93.6988C161.262 92.5764 161.866 91.4808 162.483 90.4053C163.56 88.5182 160.619 87.1585 159.492 88.9485C158.245 90.9055 156.395 93.2627 156.38 95.66C156.367 97.1011 158.138 97.3719 158.998 96.5544L159.018 96.541Z" fill="#71964C"/>
<path d="M180.623 81.9299C181.067 80.8541 181.54 79.8017 182.097 78.7662C182.684 77.6673 183.655 76.9068 184.182 75.7609C185.102 73.7899 183.271 72.011 181.318 72.4687C179.021 72.996 177.582 75.6448 176.502 77.5487C175.184 79.8566 173.912 82.4522 173.602 85.1032C173.411 86.8214 175.425 88.8983 177.106 87.4637C178.897 85.9123 179.75 84.1016 180.623 81.9299Z" fill="#71964C"/>
<path d="M202.549 92.8313C198.157 91.7698 193.673 91.3334 189.131 91.4419C186.982 91.4947 186.916 94.5774 188.869 95.0592C191.087 95.6117 193.288 96.1609 195.546 96.5998C198.092 97.0794 200.274 96.9464 202.735 96.2088C204.474 95.6904 204.172 93.2289 202.529 92.8447L202.549 92.8313Z" fill="#71964C"/>
<path d="M208.062 91.4407C208.735 90.7766 208.594 89.4957 207.894 88.9193C206.73 87.9708 205.389 88.0653 204.121 88.7483C202.853 89.4314 203.073 91.5283 204.338 92.0623C205.684 92.6299 207.014 92.4986 208.079 91.4441L208.062 91.4407Z" fill="#71964C"/>
<path d="M199.442 67.1732C200.478 65.3996 197.938 64.034 196.622 65.2988C195.671 66.2198 194.706 67.2946 194.924 68.7127C195.105 69.9669 196.263 70.5141 197.371 69.9378C198.461 69.358 198.842 68.1651 199.428 67.1531L199.442 67.1732Z" fill="#71964C"/>
<path d="M209.042 78.7668C207.258 78.4759 205.07 78.2076 203.318 78.619C202.388 78.8312 201.924 80.1812 202.521 80.9279C204.004 82.7931 206.19 82.2957 208.285 82.5972C210.754 82.9396 211.564 79.1895 209.058 78.7702L209.042 78.7668Z" fill="#71964C"/>
<path d="M212.565 62.5368C213.318 61.8193 213.821 60.8774 214.158 59.9017C214.635 58.5718 212.984 57.1945 211.965 58.4497C211.091 59.508 209.402 60.1234 209.519 61.6951C209.558 62.1901 209.851 62.7189 210.332 62.9204C210.382 62.9306 210.428 62.9574 210.475 62.9842C211.263 63.3 211.955 63.1442 212.558 62.5702L212.565 62.5368Z" fill="#71964C"/>
<path d="M216.343 67.6663C215.163 67.828 213.689 67.8954 212.882 68.8802C212.356 69.5045 212.624 70.6719 213.523 70.784C214.675 70.9299 215.676 70.2798 216.77 69.9442C218.01 69.5687 217.664 67.4983 216.34 67.683L216.343 67.6663Z" fill="#71964C"/>
<path d="M222.335 59.9538C223.597 59.0434 222.331 57.1351 221.002 57.9451C220.25 58.4018 219.674 58.7551 219.298 59.5837C219.013 60.2218 219.479 60.9248 220.164 60.8893C221.073 60.8643 221.605 60.4674 222.335 59.9538Z" fill="#71964C"/>
</g>
<defs>
<clipPath id="clip0_185_1067">
<rect width="202" height="210" fill="white" transform="translate(41.5962) rotate(11.4245)"/>
</clipPath>
</defs>
</svg>
