<svg width="241.000000" height="243.000000" viewBox="0 0 241 243" fill="none" xmlns="http://www.w3.org/2000/svg" xmlns:xlink="http://www.w3.org/1999/xlink">
	<desc>
			Created with Pixso.
	</desc>
	<defs>
		<clipPath id="clip92_4790">
			<rect id="green leaf element" width="205.356964" height="206.895187" transform="translate(-0.376831 38.946289) rotate(-11.026557)" fill="white" fill-opacity="0"/>
		</clipPath>
	</defs>
	<rect id="green leaf element" width="205.356964" height="206.895187" transform="translate(-0.376831 38.946289) rotate(-11.026557)" fill="#FFFFFF" fill-opacity="0"/>
	<g clip-path="url(#clip92_4790)">
		<path id="Vector" d="M53.41 206.27C52.67 208.04 51.95 209.84 51.32 211.65C50.79 213.15 53.12 214.36 53.86 212.9C54.85 211 55.86 209.14 56.85 207.25C69.16 210.29 78.74 219.32 92.14 219.18C104.35 219.03 116.48 216.73 127.92 212.51C154.73 202.61 173.71 180.86 189.36 157.8C197.59 145.66 206.65 132.42 210.01 117.95C211.43 111.86 211.38 105.63 211.96 99.44C212.7 91.51 214.77 83.82 215.11 75.85C215.62 63.72 209.08 52.49 201.86 43.26C194.81 34.27 185.78 27.77 187.04 15.89C187.37 15.6 187.68 15.29 188.01 14.96C189.09 13.76 187.99 12.01 186.7 12.34C186.53 12.33 186.36 12.39 186.18 12.54C186.15 12.59 186.1 12.62 186.06 12.67C178.71 19.07 167.21 12.11 159.04 10.63C147.97 8.64 137 12.07 126.74 15.89C114.32 20.53 101.5 24.47 90.38 31.89C78.46 39.84 73.96 53.79 65.49 64.7C60.7 70.87 55.78 76.59 51.92 83.44C48.28 89.88 45.6 96.85 43.2 103.81C38.67 116.82 34.55 130.21 31.91 143.74C27.89 164.52 33.2 193.58 52.83 205.3C52.9 205.67 53.13 206 53.43 206.25L53.41 206.27Z" fill="#AEBFAC" fill-opacity="1.000000" fill-rule="nonzero"/>
		<path id="Vector" d="M50.52 214.82C53.18 208.97 56.28 203.31 59.65 197.81C53.8 192.26 48.78 185.64 45.18 178.48C43.23 174.55 40.96 170.31 40.09 165.96C39.59 163.35 39.33 160.77 38.98 158.13C38.96 158.01 38.01 149.78 35.53 152.85C35.51 152.87 35.47 152.86 35.48 152.82C36.07 151.96 36.73 151.14 37.45 150.38C37.66 150.11 38.09 150.09 38.26 150.45C40.02 154.09 40.4 157.81 41.14 161.75C42.08 166.58 43.85 171.12 46.17 175.45C49.01 180.73 52.24 185.81 56.37 190.18C58 191.89 59.65 193.52 61.18 195.25C63.47 191.63 65.86 188.08 68.28 184.57C63.65 179.5 61.51 172.59 59.28 166.21C56.94 159.5 54.43 153 53.49 145.9C51.57 131.31 53.27 116.42 58.63 102.71C58.95 101.93 60.13 102.31 59.88 103.12C55.4 117.36 53.23 132.54 56.34 147.34C57.74 154 60.18 160.28 62.51 166.66C64.46 172.03 66.45 177.52 70.08 181.94C70.23 181.73 70.39 181.51 70.53 181.28C70.56 180.47 71.01 179.75 71.75 179.54C71.88 179.35 72.01 179.18 72.12 179C75.14 174.71 78.17 170.45 81.22 166.18C76.36 162.41 73.05 155.02 71.16 149.62C68.4 141.78 66.99 133.72 66.45 125.45C65.42 109.88 67.64 93.66 73.19 79.07C73.44 78.45 74.39 78.76 74.19 79.41C69.19 94.45 67.22 111.01 68.92 126.8C69.77 134.64 71.25 142.62 74.47 149.86C76.74 155 80.22 158.94 83.19 163.43C88.71 155.73 94.2 147.99 99.6 140.18C99.07 140.32 98.51 140.17 98.26 139.54C93.21 127.11 89.81 113.14 90.1 99.67C90.39 85.86 92.83 72.19 95.75 58.7C95.92 57.89 97.33 58.17 97.18 58.98C94.92 72.48 92.34 86.08 92.66 99.83C92.85 107.97 93.8 116.1 96.53 123.8C98.12 128.27 101.07 133.84 100.62 138.71C100.88 138.33 101.14 137.97 101.4 137.61C102.59 135.86 103.82 134.14 105.02 132.41C105.11 132.23 105.2 132.07 105.36 131.93C108.98 126.69 112.6 121.45 116.29 116.25C115.6 116.12 114.97 115.63 114.93 114.75C114.62 109.41 111.79 104.54 111.67 99.23C111.55 93.2 111.87 87.06 112.34 81.05C113.19 70.01 114.86 58.47 121.34 49.18C121.76 48.58 122.6 49.18 122.27 49.8C116.19 60.86 114.73 72.95 114.5 85.39C114.41 90.91 113.59 97.27 115.17 102.61C116.28 106.44 117.65 110.09 117.85 114.06C119.19 112.18 120.55 110.33 121.89 108.47C122.02 108.05 122.26 107.7 122.6 107.49C125.88 102.93 129.12 98.37 132.45 93.85C132.89 93.25 133.35 92.66 133.78 92.07C133.78 92.07 133.78 92.07 133.76 92.03C129.01 86.02 130.5 75.4 131.69 68.43C133.01 60.7 135.79 53.16 139.77 46.41C140.19 45.69 141.21 46.42 140.84 47.13C137.02 54.19 134.25 62.29 133.43 70.31C133.03 74.17 132.78 78.14 133.36 81.99C133.78 84.76 134.74 87.38 135.27 90.11C136.37 88.67 137.49 87.26 138.63 85.83C137.79 85 138.82 83.12 140.02 83.71C140.09 83.73 140.15 83.76 140.22 83.79C143.5 79.74 146.85 75.76 150.2 71.77C145.92 69.97 147.04 62.75 147.7 59.3C148.64 54.41 150.54 49.09 153.65 45.12C154.07 44.57 154.97 45.15 154.57 45.74C152.17 49.13 150.72 53.47 149.84 57.51C148.75 62.48 148.82 66.18 151.17 70.63C155.73 65.17 160.21 59.63 164.36 53.85C164.85 53.18 165.86 53.87 165.42 54.57C162.73 58.85 159.78 62.98 156.69 67.05C164.07 67.44 172.12 67.33 177.8 61.93C178.5 61.28 179.36 62.37 178.76 63.04C173.04 69.2 164.09 69.63 156.21 69.22C155.81 69.19 155.55 69 155.39 68.74C151.24 74.15 146.91 79.45 142.65 84.79C156.32 89.73 172.16 83.23 182.9 74.43C183.72 73.75 184.78 74.98 183.97 75.68C172.82 85.26 155.41 92.82 140.96 86.93C138.29 90.33 135.67 93.75 133.21 97.25C130.8 100.67 128.41 104.12 126.01 107.56C135.24 108.47 144.94 105.27 153.65 102.67C164.38 99.45 174.64 95.31 184.25 89.52C185.14 88.98 185.8 90.43 184.94 90.97C174.76 97.55 163.71 102.43 152.15 106.04C143.08 108.88 133.41 112.36 123.84 110.65C119.11 117.45 114.42 124.27 109.76 131.14C122.84 129.64 135.43 128.23 148.05 123.78C160.16 119.51 171.77 114 183.48 108.78C184.29 108.42 184.88 109.62 184.07 110.02C171.33 116.37 158.7 122.89 145.23 127.61C133.02 131.88 120.29 133.87 107.41 134.57C106.33 136.18 105.21 137.79 104.13 139.4C100.81 144.38 97.41 149.29 94.01 154.18C101.77 155.03 109.69 156.36 117.49 155.31C122.67 154.61 127.81 153.57 132.85 152.18C144.35 149.01 157.06 144.71 165.18 135.51C165.87 134.74 167.15 135.51 166.55 136.43C159.98 146.5 146.15 151.6 135.18 154.97C129.27 156.77 123.12 158.47 116.93 159.08C108.91 159.86 101.09 158.78 93.12 157.95C92.56 157.89 92.16 157.62 91.87 157.29C86.4 165.09 80.9 172.85 75.48 180.68C83.5 184.3 90.67 188.24 99.93 188.36C107.55 188.46 115.15 187.33 122.4 184.95C137.15 180.12 150.26 171.66 162.39 162.15C163.28 161.46 164.39 162.74 163.53 163.47C151.01 174.01 137.11 183.85 121.32 188.77C113.77 191.12 105.78 192.58 97.84 192.16C88.46 191.64 81.42 187.88 73.3 183.92C70.31 188.36 67.45 192.88 64.68 197.43C85.67 208.1 108.19 206.32 130.85 202.58C131.98 202.4 132.28 204.04 131.19 204.32C110.78 209.49 81.24 213.91 62.81 200.54C59.94 205.41 57.16 210.33 54.46 215.33C65.5 217.84 74.54 226.63 86.28 226.5C99.61 226.34 112.99 224.07 125.33 218.95C152.84 207.53 172.18 184.04 187.72 159.39C196.12 146.05 203.44 133.25 204.16 117.15C204.83 102.45 210.99 87.27 204.99 72.93C200.37 61.87 192.22 54.5 185.45 45C182.2 40.44 179.31 34.68 180.07 29.11C174.98 31.32 168.56 29.49 163.36 27.85C152.82 24.53 142.84 24.19 132.18 27.54C120.39 31.24 107.97 35.42 96.91 40.94C90.4 44.2 83.86 48.15 79.41 54.09C75.47 59.35 72.55 65.13 69.08 70.7C65.49 76.42 60.9 81.3 56.91 86.74C52.24 93.11 48.45 100.01 45.53 107.37C40.66 119.74 36.6 132.73 33.34 145.62C27.14 170.05 29.32 197.89 49.85 214.77C49.99 214.74 50.13 214.72 50.3 214.72C50.35 214.71 50.44 214.74 50.5 214.74L50.52 214.82Z" fill="#6B9244" fill-opacity="1.000000" fill-rule="nonzero"/>
		<path id="Vector" d="M155.37 68.81C151.21 74.22 146.88 79.52 142.63 84.86C151.57 88.09 161.43 86.41 170.19 82.41C169.19 80.12 166.9 78.39 164.42 78.15C166.48 76.97 168.63 75.75 170.04 73.81C171.25 72.14 171.75 69.76 170.9 67.94C166.25 69.46 161.03 69.53 156.2 69.26C155.8 69.24 155.54 69.04 155.38 68.78L155.37 68.81Z" fill="#8AB15D" fill-opacity="1.000000" fill-rule="nonzero"/>
		<path id="Vector" d="M162.7 49.97C160.06 52.84 157.34 56.27 153.46 56.7C152.35 56.81 151.2 56.69 150.07 56.58C149.99 56.9 149.89 57.23 149.83 57.55C148.74 62.52 148.81 66.23 151.15 70.68C155.71 65.21 160.2 59.67 164.35 53.9C164.83 53.23 165.85 53.91 165.41 54.61C162.72 58.9 159.76 63.02 156.68 67.1C160.97 67.33 165.47 67.35 169.62 66.3C169.12 65.86 168.61 65.43 168.2 64.91C166 62.18 167.68 58.13 169.66 55.22C171.64 52.33 173.98 48.96 172.86 45.63C169.19 44.29 165.36 47.09 162.72 49.95L162.7 49.97Z" fill="#8AB15D" fill-opacity="1.000000" fill-rule="nonzero"/>
		<path id="Vector" d="M133.19 97.31C130.78 100.74 128.39 104.18 125.98 107.63C135.21 108.54 144.91 105.34 153.62 102.74C155.06 102.31 156.48 101.81 157.89 101.35C157.55 101.07 157.23 100.78 156.97 100.42C155.34 98.15 157.5 94.94 160.05 93.78C162.6 92.63 165.6 92.48 167.85 90.83C169.83 89.37 170.91 86.82 170.68 84.4C161.24 88.93 150.43 90.9 140.91 87.02C138.25 90.42 135.63 93.84 133.17 97.34L133.19 97.31Z" fill="#8AB15D" fill-opacity="1.000000" fill-rule="nonzero"/>
		<path id="Vector" d="M133.6 69C133.55 69.47 133.47 69.91 133.42 70.37C133.02 74.23 132.77 78.2 133.35 82.05C133.77 84.82 134.73 87.45 135.27 90.18C136.36 88.73 137.48 87.32 138.62 85.89C137.78 85.07 138.81 83.18 140.01 83.77C140.08 83.8 140.14 83.83 140.21 83.85C143.49 79.81 146.84 75.83 150.19 71.83C145.92 70.03 147.03 62.81 147.7 59.36C147.88 58.42 148.1 57.45 148.37 56.48C147.25 56.47 146.2 56.61 145.27 57.23C142.37 59.1 142.98 63.73 140.65 66.3C138.93 68.19 136.18 68.42 133.6 69Z" fill="#8AB15D" fill-opacity="1.000000" fill-rule="nonzero"/>
		<path id="Vector" d="M109.75 131.2C120.44 129.98 130.78 128.78 141.09 125.98C140.9 125.75 140.71 125.52 140.51 125.31C138.89 123.72 136.69 122.87 134.54 122.08C141.97 117.22 149.43 112.38 156.86 107.53C158.3 106.59 159.9 105.15 159.61 103.54C157.14 104.45 154.66 105.31 152.14 106.1C143.07 108.94 133.4 112.43 123.83 110.72C119.1 117.51 114.41 124.34 109.75 131.2Z" fill="#8AB15D" fill-opacity="1.000000" fill-rule="nonzero"/>
		<path id="Vector" d="M54.43 215.42C63.73 217.53 71.64 224.09 80.91 226.02C82.01 225.56 82.95 224.89 83.46 223.84C84.32 222.12 83.73 220.04 84.21 218.18C84.92 215.43 87.85 213.81 90.65 213.33C93.45 212.84 96.34 213.23 99.15 212.82C101.69 212.45 104.34 211.21 105.51 208.97C90.22 210.37 74.32 208.97 62.78 200.61C59.91 205.48 57.13 210.39 54.43 215.4L54.43 215.42Z" fill="#8AB15D" fill-opacity="1.000000" fill-rule="nonzero"/>
		<path id="Vector" d="M50.31 214.8C50.31 214.8 50.46 214.82 50.52 214.82C53.18 208.97 56.28 203.31 59.65 197.81C53.8 192.26 48.78 185.64 45.18 178.48C43.37 174.87 41.38 170.99 40.38 166.99C39.24 170.52 39.51 174.53 40.27 178.22C41.25 183.04 42.94 187.81 42.85 192.73C42.78 197.12 41.31 201.4 41.31 205.8C43.71 209.05 46.52 212.09 49.84 214.83C49.98 214.81 50.12 214.78 50.29 214.79L50.31 214.8Z" fill="#8AB15D" fill-opacity="1.000000" fill-rule="nonzero"/>
		<path id="Vector" d="M97.83 192.24C88.45 191.73 81.42 187.96 73.3 184C70.3 188.45 67.45 192.97 64.68 197.51C77.85 204.2 91.64 205.99 105.69 205.47C104.99 203.7 103.27 202.33 101.48 202.96C107.48 201.18 113.12 198.21 117.98 194.25C119.99 192.6 121.93 190.73 122.92 188.32C122.92 188.32 122.92 188.32 122.91 188.3C122.37 188.48 121.84 188.71 121.28 188.88C113.73 191.23 105.74 192.69 97.8 192.27L97.83 192.24Z" fill="#8AB15D" fill-opacity="1.000000" fill-rule="nonzero"/>
		<path id="Vector" d="M99.65 140.23C99.12 140.37 98.56 140.22 98.31 139.59C94.56 130.36 91.74 120.28 90.63 110.17C89.64 111.43 88.94 113 88.71 114.56C88.19 118.3 89.37 122.03 89.61 125.78C89.84 129.53 88.68 133.91 85.25 135.46C79.46 131.48 73.6 123.63 68.85 125.23C68.89 125.78 68.91 126.31 68.98 126.85C69.83 134.69 71.3 142.67 74.52 149.91C76.79 155.05 80.27 158.99 83.24 163.49C88.76 155.78 94.25 148.04 99.65 140.23Z" fill="#8AB15D" fill-opacity="1.000000" fill-rule="nonzero"/>
		<path id="Vector" d="M101.42 137.65C102.62 135.89 103.85 134.18 105.05 132.44C105.14 132.26 105.23 132.1 105.39 131.97C109.01 126.73 112.62 121.48 116.31 116.29C115.63 116.15 115 115.66 114.95 114.79C114.65 109.45 111.81 104.58 111.7 99.26C111.6 94.3 111.83 89.26 112.17 84.29C107.9 88.92 108.09 95.68 106.96 102.2C106.42 105.24 105.67 109.17 102.6 109.64C100.33 110 98.34 108.03 96.09 107.64C95.09 107.47 94.12 107.64 93.23 108.04C93.77 113.41 94.74 118.73 96.56 123.85C98.15 128.33 101.1 133.89 100.66 138.76C100.91 138.38 101.17 138.03 101.43 137.67L101.42 137.65Z" fill="#8AB15D" fill-opacity="1.000000" fill-rule="nonzero"/>
		<path id="Vector" d="M81.27 166.23C76.41 162.46 73.1 155.07 71.21 149.67C68.62 142.29 67.25 134.72 66.64 126.95C62.49 132.01 63.46 142.77 64.82 151.35C63.13 149.01 59.65 148.72 57.07 150.05C58.51 155.72 60.55 161.17 62.57 166.69C64.52 172.06 66.52 177.54 70.15 181.97C70.29 181.76 70.46 181.54 70.6 181.31C70.62 180.5 71.08 179.78 71.82 179.57C71.94 179.38 72.08 179.21 72.18 179.03C75.21 174.74 78.24 170.48 81.29 166.21L81.27 166.23Z" fill="#8AB15D" fill-opacity="1.000000" fill-rule="nonzero"/>
		<path id="Vector" d="M75.46 180.75C83.47 184.36 90.64 188.3 99.9 188.43C107.52 188.52 115.12 187.39 122.38 185.01C122.74 184.9 123.1 184.75 123.47 184.62C123.35 183.26 122.83 181.99 121.89 181.02C120.16 179.31 117.51 179.02 115.1 178.75C112.69 178.48 110.01 177.94 108.58 175.96C107.15 173.98 108.69 169.57 111.12 169.51C120.19 169.28 128.8 163.62 133.06 155.67C127.8 157.23 122.38 158.61 116.93 159.16C108.91 159.94 101.08 158.86 93.12 158.03C92.55 157.98 92.15 157.71 91.86 157.37C86.4 165.17 80.89 172.94 75.48 180.77L75.46 180.75Z" fill="#8AB15D" fill-opacity="1.000000" fill-rule="nonzero"/>
		<path id="Vector" d="M104.12 139.48C100.8 144.46 97.41 149.37 94.01 154.26C101.77 155.11 109.69 156.44 117.49 155.4C122.67 154.69 127.8 153.65 132.85 152.26C133.47 152.1 134.09 151.91 134.72 151.73C134.83 151.38 134.97 151.02 135.06 150.66C130.66 148.7 126.23 146.75 121.83 144.8C127.46 141.34 133.11 137.88 138.73 134.42C139.98 133.66 141.3 132.83 141.97 131.51C142.43 130.62 142.5 129.6 142.3 128.61C131 132.21 119.27 133.97 107.43 134.63C106.34 136.24 105.22 137.85 104.14 139.46L104.12 139.48Z" fill="#8AB15D" fill-opacity="1.000000" fill-rule="nonzero"/>
		<path id="Vector" d="M56.41 190.17C58.04 191.88 59.69 193.51 61.22 195.25C63.51 191.62 65.9 188.07 68.31 184.56C63.69 179.49 61.55 172.58 59.32 166.2C57.67 161.45 55.95 156.81 54.74 151.98C52.95 154.4 52.6 157.77 53.27 160.77C54.03 164.17 55.94 167.18 57.82 170.12C52.07 169.58 46.45 167.41 41.86 163.93C41.81 164 41.78 164.07 41.75 164.12C42.74 168.07 44.27 171.82 46.21 175.42C49.04 180.7 52.27 185.78 56.41 190.15L56.41 190.17Z" fill="#8AB15D" fill-opacity="1.000000" fill-rule="nonzero"/>
		<path id="Vector" d="M132.46 93.88C132.89 93.29 133.36 92.7 133.79 92.11C133.79 92.11 133.79 92.11 133.77 92.07C129.27 86.38 130.35 76.56 131.5 69.62C130.94 69.85 130.39 70.1 129.91 70.46C123.95 74.87 128.19 86.5 121.97 90.55C121.28 88.36 117.16 85.84 114.58 84.09C114.56 84.52 114.54 84.98 114.53 85.41C114.43 90.93 113.62 97.29 115.19 102.63C116.31 106.46 117.68 110.11 117.87 114.08C119.21 112.19 120.58 110.35 121.92 108.48C122.04 108.07 122.28 107.71 122.63 107.5C125.91 102.94 129.15 98.39 132.47 93.86L132.46 93.88Z" fill="#8AB15D" fill-opacity="1.000000" fill-rule="nonzero"/>
		<path id="Vector" d="M140.16 211.28C160.03 198.64 175.12 179.44 187.7 159.49C196.1 146.15 203.42 133.35 204.14 117.26C204.81 102.55 210.97 87.37 204.97 73.04C200.35 61.97 192.2 54.61 185.42 45.11C182.18 40.55 179.29 34.79 180.05 29.22C174.96 31.42 168.54 29.59 163.34 27.96C152.8 24.63 142.81 24.3 132.16 27.65C120.37 31.34 107.95 35.53 96.89 41.05C90.38 44.31 83.84 48.25 79.39 54.19C75.45 59.46 72.53 65.24 69.06 70.8C65.47 76.53 60.88 81.41 56.89 86.85C52.22 93.22 48.43 100.12 45.51 107.48C44.77 109.35 44.1 111.27 43.4 113.17C45.78 110.65 48.02 108.04 49.55 104.93C51.8 100.34 52.35 94.84 55.73 91C59.31 86.93 65.3 85.64 68.86 81.56C73.17 76.61 72.92 68.72 77.64 64.16C81.41 60.53 87.27 60.09 91.61 57.17C96.66 53.78 98.98 47.54 103.35 43.34C108.9 38.01 117.02 36.55 124.62 35.34C137.02 33.35 149.53 31.37 162.08 31.8C166.48 31.95 171.17 32.51 174.6 35.29C177.47 37.6 179.06 41.11 180.54 44.5C184.61 53.77 188.67 63.04 192.72 72.33C195.31 78.25 197.96 84.59 197.01 90.98C196.34 95.46 193.94 99.56 193.59 104.08C193.05 111.33 197.9 118.6 195.78 125.54C194.5 129.73 190.91 132.79 188.87 136.66C186.67 140.83 186.37 145.94 188.04 150.31C177.28 171.13 161.65 190.07 144.88 206.43C143.26 208.02 141.6 209.6 140.1 211.31L140.16 211.28Z" fill="#8AB15D" fill-opacity="1.000000" fill-rule="nonzero"/>
		<path id="Vector" d="M205.78 129.55C207.2 123.46 207.16 117.23 207.74 111.04C208.47 103.11 210.54 95.42 210.88 87.45C211.39 75.32 204.85 64.09 197.63 54.86C190.58 45.87 181.56 39.38 182.81 27.49C183.15 27.2 183.46 26.89 183.78 26.56C184.86 25.37 183.76 23.61 182.47 23.94C182.3 23.93 182.13 23.99 181.96 24.15C181.92 24.19 181.87 24.23 181.84 24.27C174.48 30.67 162.98 23.72 154.81 22.23C143.75 20.24 132.78 23.67 122.52 27.5C110.1 32.13 97.27 36.07 86.16 43.49C74.24 51.44 69.73 65.4 61.26 76.31C56.47 82.47 51.55 88.2 47.69 95.05C44.06 101.48 41.37 108.45 38.97 115.41C34.44 128.42 30.32 141.81 27.68 155.34C23.66 176.12 28.97 205.18 48.6 216.9C48.68 217.28 48.91 217.6 49.2 217.85L50.56 214.8C50.56 214.8 50.41 214.78 50.35 214.78C50.18 214.77 50.05 214.81 49.9 214.82C29.35 197.95 27.19 170.12 33.39 145.67C36.67 132.77 40.71 119.79 45.59 107.43C48.48 100.07 52.27 93.17 56.96 86.79C60.95 81.35 65.53 76.5 69.13 70.75C72.6 65.18 75.52 59.4 79.46 54.14C83.91 48.2 90.43 44.26 96.96 41C108.01 35.45 120.44 31.29 132.23 27.6C142.87 24.25 152.85 24.6 163.41 27.9C168.62 29.54 175.03 31.37 180.12 29.16C179.36 34.73 182.24 40.47 185.5 45.05C192.25 54.56 200.42 61.92 205.04 72.99C211.02 87.32 204.88 102.48 204.22 117.21C203.49 133.3 196.2 146.12 187.77 159.44C172.23 184.09 152.89 207.58 125.39 219C113.04 224.14 99.64 226.4 86.33 226.55C74.59 226.68 65.55 217.89 54.51 215.38L52.69 218.81C65.01 221.86 74.59 230.89 87.99 230.74C100.2 230.6 112.33 228.3 123.77 224.08C150.58 214.17 169.56 192.43 185.21 169.36C193.43 157.23 202.5 143.98 205.85 129.51L205.78 129.55Z" fill="#517433" fill-opacity="1.000000" fill-rule="nonzero"/>
		<path id="Vector" d="M62.78 200.63C81.21 213.98 110.76 209.57 131.16 204.41C132.26 204.13 131.96 202.49 130.82 202.67C108.17 206.4 85.65 208.18 64.66 197.51C67.4 192.95 70.28 188.45 73.28 184.01C81.4 187.97 88.43 191.73 97.81 192.24C105.76 192.67 113.73 191.23 121.3 188.86C137.07 183.94 150.98 174.08 163.5 163.55C164.37 162.83 163.25 161.53 162.36 162.23C150.24 171.74 137.12 180.19 122.38 185.03C115.12 187.41 107.52 188.54 99.91 188.45C90.66 188.32 83.47 184.38 75.46 180.77C80.87 172.94 86.38 165.17 91.84 157.38C92.14 157.73 92.53 157.98 93.1 158.03C101.08 158.86 108.89 159.95 116.91 159.16C123.09 158.55 129.25 156.86 135.16 155.05C146.1 151.69 159.94 146.61 166.53 136.52C167.13 135.6 165.85 134.82 165.16 135.6C157.06 144.79 144.32 149.1 132.83 152.26C127.78 153.66 122.65 154.7 117.47 155.4C109.67 156.45 101.74 155.1 93.99 154.27C97.41 149.37 100.8 144.46 104.1 139.49C105.18 137.86 106.31 136.26 107.39 134.66C120.27 133.93 133 131.97 145.2 127.7C158.66 122.98 171.31 116.47 184.05 110.11C184.85 109.71 184.25 108.51 183.46 108.87C171.75 114.09 160.13 119.6 148.03 123.86C135.39 128.32 122.81 129.72 109.74 131.22C114.38 124.37 119.06 117.54 123.81 110.74C133.38 112.45 143.05 108.96 152.13 106.13C163.68 102.52 174.74 97.64 184.91 91.05C185.77 90.5 185.12 89.06 184.22 89.61C174.61 95.4 164.35 99.54 153.63 102.76C144.94 105.37 135.21 108.56 125.98 107.65C128.39 104.22 130.76 100.77 133.19 97.33C135.67 93.83 138.27 90.41 140.93 87.02C155.4 92.9 172.82 85.36 183.95 75.76C184.76 75.07 183.69 73.84 182.88 74.51C172.14 83.34 156.3 89.81 142.63 84.88C146.89 79.54 151.21 74.24 155.37 68.83C155.52 69.09 155.79 69.28 156.18 69.31C164.07 69.72 173 69.29 178.73 63.13C179.36 62.45 178.47 61.37 177.78 62.02C172.12 67.41 164.05 67.55 156.66 67.14C159.73 63.07 162.7 58.94 165.4 54.66C165.84 53.96 164.82 53.27 164.34 53.94C160.19 59.72 155.7 65.25 151.14 70.72C148.8 66.27 148.73 62.57 149.82 57.59C150.69 53.56 152.15 49.23 154.54 45.83C154.96 45.24 154.07 44.67 153.62 45.21C150.54 49.18 148.61 54.48 147.68 59.38C147.02 62.84 145.9 70.06 150.17 71.85C146.84 75.85 143.49 79.83 140.2 83.88C140.13 83.85 140.06 83.82 140 83.79C138.79 83.21 137.76 85.07 138.6 85.91C137.48 87.32 136.36 88.75 135.25 90.2C134.72 87.47 133.76 84.86 133.34 82.07C132.75 78.22 133 74.25 133.4 70.4C134.22 62.4 137 54.28 140.81 47.21C141.21 46.5 140.18 45.78 139.75 46.5C135.77 53.25 132.98 60.77 131.66 68.52C130.47 75.47 128.99 86.1 133.73 92.12C133.73 92.12 133.73 92.12 133.76 92.15C133.32 92.75 132.86 93.33 132.42 93.93C129.1 98.46 125.86 103.01 122.58 107.57C122.23 107.79 121.99 108.14 121.87 108.55C120.53 110.42 119.17 112.28 117.83 114.15C117.63 110.18 116.26 106.53 115.14 102.7C113.59 97.36 114.38 91 114.48 85.48C114.68 73.02 116.16 60.95 122.24 49.89C122.57 49.27 121.74 48.69 121.32 49.27C114.84 58.56 113.16 70.09 112.32 81.14C111.87 87.14 111.53 93.3 111.65 99.31C111.76 104.63 114.6 109.5 114.9 114.84C114.95 115.71 115.58 116.21 116.26 116.34C112.57 121.53 108.95 126.78 105.34 132.02C105.2 132.15 105.09 132.31 105 132.5C103.8 134.23 102.57 135.95 101.37 137.7C101.12 138.08 100.86 138.43 100.6 138.79C101.07 133.92 98.09 128.36 96.5 123.89C93.77 116.18 92.82 108.05 92.63 99.92C92.32 86.19 94.9 72.56 97.16 59.07C97.28 58.24 95.9 57.98 95.73 58.79C92.81 72.27 90.36 85.93 90.08 99.76C89.81 113.22 93.19 127.2 98.24 139.62C98.5 140.25 99.07 140.41 99.57 140.27C94.18 148.07 88.68 155.8 83.16 163.52C80.17 159.03 76.71 155.07 74.44 149.95C71.22 142.69 69.75 134.72 68.9 126.88C67.18 111.1 69.15 94.54 74.16 79.5C74.37 78.86 73.42 78.54 73.17 79.16C67.62 93.75 65.4 109.97 66.42 125.54C66.97 133.83 68.39 141.87 71.13 149.71C73.02 155.11 76.35 162.49 81.19 166.27C78.15 170.54 75.12 174.8 72.09 179.09C71.97 179.27 71.83 179.44 71.73 179.63C70.99 179.83 70.53 180.56 70.5 181.37C70.36 181.58 70.2 181.8 70.06 182.03C66.42 177.6 64.43 172.12 62.48 166.75C60.15 160.37 57.72 154.11 56.31 147.42C53.21 132.63 55.38 117.45 59.85 103.21C60.11 102.4 58.92 101.99 58.6 102.8C53.25 116.51 51.55 131.39 53.47 145.99C54.4 153.09 56.92 159.58 59.25 166.29C61.46 172.68 63.63 179.57 68.25 184.66C65.84 188.17 63.45 191.73 61.16 195.34C59.61 193.61 57.97 191.96 56.35 190.26C52.21 185.9 49 180.81 46.15 175.54C43.83 171.21 42.04 166.67 41.12 161.84C40.35 157.9 39.98 154.18 38.24 150.53C38.07 150.18 37.64 150.22 37.42 150.47C36.71 151.24 36.05 152.05 35.46 152.9C35.44 152.93 35.47 152.96 35.5 152.94C37.99 149.86 38.95 158.09 38.96 158.22C39.3 160.84 39.54 163.44 40.07 166.05C40.96 170.39 43.2 174.63 45.16 178.56C48.73 185.73 53.78 192.34 59.62 197.9C56.24 203.4 53.13 209.06 50.5 214.91L49.14 217.97C48.4 219.73 47.68 221.54 47.05 223.34C46.52 224.84 48.85 226.05 49.59 224.59C50.58 222.7 51.59 220.84 52.57 218.94L54.39 215.51C57.09 210.51 59.86 205.57 62.74 200.72L62.78 200.63Z" fill="#517433" fill-opacity="1.000000" fill-rule="nonzero"/>
	</g>
</svg>
