<svg width="400.000000" height="254.000000" viewBox="0 0 400 254" fill="none" xmlns="http://www.w3.org/2000/svg" xmlns:xlink="http://www.w3.org/1999/xlink">
	<desc>
			Created with Pixso.
	</desc>
	<defs>
		<clipPath id="clip92_4974">
			<rect id="green leaf element" width="202.627853" height="209.615540" transform="translate(10.345398 213.172241) rotate(-92.926567)" fill="white" fill-opacity="0"/>
		</clipPath>
		<clipPath id="clip92_5015">
			<rect id="green leaf element" width="160.107819" height="167.248535" transform="translate(219.594360 88.161865) rotate(-7.519667)" fill="white" fill-opacity="0"/>
		</clipPath>
	</defs>
	<g opacity="0.500000">
		<rect id="green leaf element" width="202.627853" height="209.615540" transform="translate(10.345398 213.172241) rotate(-92.926567)" fill="#FFFFFF" fill-opacity="0"/>
		<g clip-path="url(#clip92_4974)">
			<path id="Vector" d="M0.18 12.98C2.74 19.28 6.31 24.76 8.29 31.35C10.31 38.05 11.57 44.95 12.98 51.8C15.5 64.01 20.14 75.64 25.88 86.68C31.79 98.03 39.21 108.57 46.83 118.82C54.68 129.37 63.01 139.42 72.64 148.39C91.47 165.92 115.67 178.81 141.27 182.54C154.01 184.39 166.98 183.25 179.77 184.61C187.08 185.37 198.44 186.85 204.68 192.04C205.77 193.66 207.03 195.17 208.44 196.49C209.77 197.74 211.66 195.64 210.33 194.4C199.56 184.14 202.31 169.53 201.65 156.32C200.99 143.51 196.51 131.09 191.37 119.45C180.38 94.51 165.12 72.89 144.62 54.83C124.56 37.16 100.89 24.41 75.14 17.32C62.92 13.95 50.5 12.29 37.83 13.16C25.53 14 13.39 8.72 1.19 11.02C0.39 11.16 -0.12 12.26 0.18 12.98Z" fill="#AEBFAC" fill-opacity="1.000000" fill-rule="nonzero"/>
			<path id="Vector" d="M47.05 18.08C34.75 18.91 22.61 13.63 10.4 15.93C9.61 16.08 9.1 17.18 9.39 17.9C11.95 24.2 15.53 29.68 17.51 36.26C19.52 42.97 20.78 49.87 22.19 56.72C24.72 68.93 29.36 80.56 35.1 91.6C41.01 102.95 48.43 113.48 56.04 123.74C63.89 134.29 72.23 144.34 81.86 153.31C100.68 170.84 124.89 183.72 150.48 187.46C163.23 189.31 176.19 188.17 188.98 189.52C196.29 190.29 207.66 191.77 213.9 196.96C214.99 198.58 216.24 200.08 217.66 201.41C218.99 202.66 220.88 200.56 219.55 199.32C208.78 189.05 211.53 174.44 210.87 161.24C210.21 148.42 205.73 136.01 200.59 124.37C189.59 99.42 174.33 77.81 153.84 59.75C133.78 42.08 110.11 29.32 84.36 22.23C72.13 18.87 59.72 17.2 47.05 18.08ZM157.06 66.61C176.91 85.1 190.82 107.99 200.9 133.02C205.81 145.2 208.83 158.08 207.87 171.27C207.46 176.73 208.01 182.69 209.74 188.2C203.65 182.24 197.61 176.28 191.42 170.46C196.53 151.75 191.93 129.28 182.16 112.86C181.75 112.15 180.53 112.7 180.84 113.47C184.31 122.13 187.89 130.46 189.88 139.62C192.05 149.54 191.93 159.5 190.32 169.44C183.78 163.31 177.07 157.36 169.92 151.77C168.98 151.04 168.07 150.27 167.14 149.51C170.75 128.46 167.03 105.53 158.72 85.98C158.31 85.03 156.82 85.46 157.16 86.47C163.98 106.95 167.88 126.95 165.96 148.53C159.46 143.2 153.26 137.53 147.24 131.68C147.14 126.74 147.68 121.98 148.18 117.04C148.75 111.3 147.87 105.3 147.18 99.61C145.71 87.36 142.6 74.91 135.4 64.74C134.74 63.82 133.33 64.71 133.91 65.69C141.05 77.71 144.18 91.13 145.68 104.91C146.32 110.86 146.34 116.41 145.74 122.36C145.5 124.67 145.08 127.42 145.41 129.9C139.64 124.24 134.01 118.42 128.39 112.6C129.99 103.03 129.19 92.72 127.77 83.25C126.23 73.01 123.11 62.71 116.64 54.48C116.07 53.76 114.87 54.48 115.4 55.26C126.87 71.87 127.43 92.11 127.34 111.53C126.37 110.52 125.41 109.53 124.44 108.52C120.11 104.05 115.69 99.69 111.18 95.4C111.39 95.44 111.64 95.36 111.71 95.08C113.88 88.13 110.53 79.14 108.6 72.46C105.61 62.09 101.37 52.04 97.17 42.1C96.84 41.32 95.6 41.67 95.9 42.51C98.84 50.92 102.38 59.1 105.36 67.5C108.15 75.37 112.7 86.48 110.88 94.9C110.87 95.01 110.89 95.07 110.93 95.14C104.25 88.78 97.39 82.61 90.38 76.63C90.76 71.81 88.71 66.44 87.59 61.96C85.85 55 83.34 48.34 79.79 42.09C79.36 41.33 78.31 42.05 78.67 42.81C81.25 48.07 83.43 53.45 85.19 59.05C86.72 63.9 89.15 70.34 89.41 75.82C85.33 72.35 81.19 68.92 77.02 65.57C75.42 64.29 73.8 63.01 72.2 61.74C72.51 61.81 72.86 61.66 72.82 61.23C71.91 50.51 71.7 34.98 62.69 27.46C62.1 26.96 61.36 27.8 61.88 28.35C70 36.81 70.35 50.32 71.73 61.31C71.74 61.37 71.79 61.42 71.83 61.47C67.06 57.74 62.26 54.06 57.48 50.35C57.13 43.49 55.77 35.31 50.73 30.38C50.3 29.96 49.52 30.59 49.92 31.07C54.37 36.42 54.71 42.92 56.16 49.33C51.31 45.55 46.5 41.72 41.82 37.73C42.43 33.52 40.72 29.54 39.7 25.54C39.55 24.95 38.56 25.12 38.65 25.73C39.08 29.51 40.9 33 40.79 36.86C36.59 33.25 32.49 29.51 28.58 25.53C28.15 25.09 27.54 25.79 27.95 26.22C32.72 31.42 37.85 36.23 43.16 40.83C38.86 39.14 34.11 38.18 29.83 36.62C29.21 36.4 28.75 37.22 29.37 37.55C34.19 40.25 40.25 42.01 45.68 43.02C50.34 46.98 55.09 50.8 59.9 54.59C52.01 52.58 43.97 52.27 36.49 48.26C35.81 47.88 35.35 48.9 35.97 49.31C43.54 54.43 53.16 54.99 62.02 56.28C66.55 59.87 71.11 63.45 75.57 67.13C76.44 67.86 77.3 68.58 78.17 69.32C66.87 69.25 56 67.42 46.21 61.29C45.63 60.92 44.98 61.88 45.53 62.28C54.99 69.32 67.89 71.6 79.51 70.44C85.09 75.14 90.57 79.98 95.94 84.92C81.4 81.92 67.01 80.69 53.99 72.44C53.28 72 52.49 73.15 53.16 73.64C66.13 83.23 82.46 84.59 97.97 86.8C106.32 94.57 114.44 102.6 122.27 110.87C125.75 114.54 129.22 118.22 132.72 121.86C121.77 124.32 111.76 125.62 100.49 124.27C90.1 123.03 80 119.92 70.24 116.25C69.19 115.86 68.4 117.34 69.45 117.83C79.62 122.51 90.51 125.38 101.64 126.62C111.87 127.76 123.92 127.61 133.36 122.99C133.47 122.94 133.54 122.86 133.6 122.77C138.78 128.17 144.02 133.5 149.42 138.65C145.72 138.36 141.96 139.13 138.31 139.71C132.67 140.62 127.05 141.01 121.33 141C109.49 140.99 98.8 137.51 88.72 131.46C87.88 130.96 86.94 132.3 87.74 132.89C96.38 139.34 106.2 142.37 116.88 143.14C128.56 143.97 139.49 140.35 150.97 140.07C156.26 145.04 161.71 149.84 167.46 154.36C168.26 155 169.04 155.66 169.84 156.3C166.54 156.43 163.26 157.03 159.98 157.59C153.68 158.65 147.46 158.64 141.13 157.88C129.44 156.46 118.49 152.03 107.61 147.84C106.62 147.47 105.85 148.87 106.85 149.35C116.96 154.34 127.77 158.03 138.93 159.75C144.22 160.55 149.64 160.72 154.95 160.22C160.49 159.7 165.86 158.21 171.4 157.58C177.19 162.35 182.72 167.34 188.21 172.42C182.04 175.09 173.23 173.6 166.74 173.93C157.56 174.4 148.68 174.02 139.99 170.73C139.09 170.39 138.43 171.61 139.31 172.1C147.8 176.83 157.39 176.99 166.86 176.38C171.68 176.08 176.47 175.95 181.31 175.76C184.16 175.65 187.07 175.15 189.28 173.4C196.13 179.76 202.93 186.18 210.06 192.3C205.93 190.33 201.11 189.28 197.13 188.34C186.59 185.86 175.73 186.06 164.96 185.74C136.14 184.89 109.58 173.3 87.75 154.78C68.03 138.05 51.66 115.49 39.08 93C32.56 81.32 27.85 68.8 25.01 55.74C23.52 48.89 22.29 42.02 20.41 35.26C18.71 29.16 15.55 24.18 13.03 18.56C24.3 17.03 35.72 21.97 47.13 20.97C60.11 19.85 72.86 22.06 85.33 25.5C112.32 32.91 136.58 47.53 156.99 66.55L157.06 66.61Z" fill="#90B87E" fill-opacity="1.000000" fill-rule="nonzero"/>
			<path id="Vector" d="M85.4 25.58C72.93 22.14 60.18 19.93 47.2 21.06C35.78 22.05 24.38 17.11 13.1 18.64C15.63 24.26 18.78 29.24 20.48 35.34C22.36 42.11 23.59 48.97 25.08 55.82C27.92 68.88 32.63 81.4 39.15 93.08C51.75 115.57 68.1 138.13 87.82 154.87C109.67 173.4 136.23 184.97 165.03 185.82C175.78 186.14 186.66 185.94 197.21 188.42C201.18 189.36 206 190.41 210.13 192.38C203.02 186.26 196.22 179.84 189.35 173.48C187.14 175.25 184.23 175.73 181.38 175.84C176.56 176.04 171.77 176.16 166.94 176.46C157.46 177.05 147.87 176.91 139.38 172.18C138.51 171.69 139.16 170.47 140.07 170.81C148.75 174.12 157.63 174.47 166.81 174.01C173.3 173.68 182.12 175.19 188.28 172.5C182.79 167.42 177.26 162.44 171.47 157.67C165.94 158.29 160.57 159.78 155.03 160.3C149.71 160.8 144.29 160.63 139.01 159.83C127.84 158.13 117.03 154.42 106.92 149.43C105.92 148.94 106.69 147.53 107.68 147.92C118.57 152.11 129.52 156.55 141.2 157.96C147.54 158.72 153.75 158.75 160.05 157.67C163.31 157.11 166.61 156.52 169.92 156.38C169.12 155.74 168.33 155.08 167.53 154.44C161.78 149.92 156.33 145.12 151.04 140.15C139.56 140.42 128.62 144.03 116.95 143.22C106.28 142.47 96.44 139.42 87.81 132.98C87.01 132.39 87.95 131.02 88.79 131.54C98.87 137.59 109.57 141.07 121.4 141.08C127.12 141.07 132.75 140.7 138.39 139.8C142.03 139.22 145.79 138.44 149.5 138.73C144.09 133.58 138.85 128.25 133.67 122.86C133.63 122.94 133.55 123.02 133.43 123.07C123.99 127.69 111.94 127.85 101.71 126.7C90.58 125.45 79.7 122.58 69.52 117.91C68.47 117.42 69.27 115.95 70.31 116.34C80.07 119.98 90.17 123.11 100.56 124.35C111.83 125.68 121.82 124.4 132.79 121.95C129.29 118.3 125.83 114.61 122.34 110.95C114.51 102.68 106.4 94.66 98.04 86.88C82.53 84.67 66.21 83.33 53.23 73.72C52.56 73.23 53.35 72.06 54.06 72.52C67.08 80.77 81.47 82 96.02 85C90.64 80.06 85.15 75.22 79.58 70.53C67.96 71.69 55.06 69.4 45.6 62.36C45.05 61.94 45.7 61.01 46.28 61.37C56.07 67.49 66.94 69.32 78.24 69.4C77.37 68.68 76.51 67.94 75.64 67.21C71.18 63.54 66.64 59.95 62.09 56.36C53.23 55.07 43.59 54.51 36.04 49.39C35.44 48.98 35.88 47.96 36.56 48.34C44.04 52.36 52.08 52.66 59.97 54.68C55.18 50.88 50.41 47.06 45.75 43.11C40.32 42.09 34.26 40.33 29.44 37.63C28.84 37.29 29.3 36.48 29.91 36.7C34.19 38.26 38.93 39.22 43.23 40.91C37.93 36.29 32.8 31.5 28.02 26.31C27.63 25.87 28.22 25.17 28.65 25.61C32.56 29.57 36.66 33.32 40.86 36.94C40.95 33.1 39.15 29.61 38.72 25.81C38.65 25.2 39.62 25.03 39.77 25.62C40.79 29.63 42.5 33.6 41.9 37.81C46.57 41.8 51.38 45.63 56.24 49.41C54.78 43 54.43 36.5 49.99 31.15C49.59 30.68 50.37 30.04 50.81 30.46C55.82 35.39 57.18 43.58 57.55 50.43C62.33 54.15 67.13 57.81 71.9 61.55C71.86 61.5 71.81 61.46 71.81 61.39C70.41 50.42 70.07 36.89 61.95 28.44C61.43 27.88 62.15 27.04 62.76 27.54C71.77 35.06 72 50.59 72.89 61.31C72.92 61.74 72.58 61.88 72.27 61.82C73.89 63.09 75.51 64.35 77.1 65.65C81.26 69.02 85.4 72.43 89.49 75.9C89.22 70.42 86.79 63.98 85.26 59.13C83.51 53.54 81.32 48.15 78.74 42.89C78.38 42.15 79.44 41.43 79.87 42.17C83.4 48.42 85.92 55.07 87.67 62.04C88.78 66.52 90.85 71.89 90.45 76.71C97.47 82.69 104.32 88.88 111 95.22C110.98 95.15 110.94 95.09 110.95 94.98C112.78 86.56 108.23 75.45 105.43 67.58C102.46 59.18 98.91 51 95.97 42.59C95.67 41.75 96.92 41.4 97.25 42.18C101.46 52.12 105.68 62.17 108.67 72.55C110.6 79.2 113.95 88.21 111.78 95.16C111.69 95.42 111.46 95.52 111.25 95.48C115.76 99.77 120.18 104.13 124.51 108.6C125.48 109.61 126.44 110.6 127.41 111.61C127.51 92.21 126.95 71.95 115.47 55.34C114.94 54.55 116.13 53.82 116.71 54.56C123.18 62.79 126.3 73.09 127.84 83.33C129.26 92.8 130.05 103.11 128.46 112.68C134.08 118.5 139.71 124.3 145.48 129.98C145.15 127.51 145.57 124.75 145.81 122.44C146.41 116.49 146.4 110.94 145.75 104.99C144.24 91.21 141.11 77.79 133.99 65.77C133.41 64.79 134.81 63.9 135.47 64.82C142.67 75.01 145.79 87.46 147.25 99.69C147.94 105.39 148.83 111.38 148.25 117.13C147.75 122.07 147.23 126.84 147.31 131.76C153.33 137.61 159.53 143.26 166.04 148.61C167.95 127.03 164.05 107.02 157.23 86.55C156.89 85.53 158.38 85.09 158.79 86.06C167.12 105.61 170.83 128.54 167.21 149.59C168.14 150.35 169.05 151.12 169.99 151.86C177.13 157.44 183.83 163.39 190.4 169.52C192 159.58 192.12 149.63 189.96 139.71C187.97 130.54 184.38 122.21 180.91 113.55C180.6 112.78 181.8 112.23 182.23 112.94C192 129.36 196.61 151.84 191.49 170.54C197.66 176.35 203.7 182.32 209.82 188.28C208.08 182.78 207.54 176.82 207.94 171.35C208.9 158.17 205.88 145.28 200.97 133.1C190.89 108.09 176.96 85.19 157.13 66.7C136.73 47.68 112.47 33.06 85.47 25.64L85.4 25.58ZM92.41 106.17C98.19 107.09 103.52 107.21 109.32 106.79C112.64 106.55 115.89 106.4 119 107.79C119.49 108.01 119.21 108.84 118.69 108.68C113.81 107.11 108.59 108.7 103.61 108.93C98.6 109.15 93.39 108.33 88.49 107.33C77.15 105.01 66.36 100.96 56.4 95.09C55.64 94.65 56.23 93.46 57 93.87C68.12 99.62 79.98 104.22 92.41 106.19L92.41 106.17Z" fill="#4D7C43" fill-opacity="1.000000" fill-rule="nonzero"/>
			<path id="Vector" d="M56.38 95.08C66.34 100.95 77.15 105 88.47 107.32C93.37 108.33 98.57 109.13 103.59 108.91C108.57 108.69 113.8 107.09 118.67 108.66C119.19 108.83 119.46 107.99 118.99 107.78C115.89 106.38 112.64 106.53 109.31 106.77C103.51 107.19 98.16 107.07 92.39 106.16C79.96 104.19 68.1 99.59 56.98 93.83C56.19 93.43 55.62 94.6 56.38 95.06L56.38 95.08Z" fill="#90B87E" fill-opacity="1.000000" fill-rule="nonzero"/>
			<path id="Vector" d="M170.01 114.03C168.73 124.37 174.58 134.8 173.1 145.16C172.67 148.17 176.78 148.96 177.65 146.1C179.15 141.27 178.8 135.96 178.85 130.96C178.91 125.05 178.6 118.3 175.98 112.94C174.74 110.37 170.33 111.3 170 114.03L170.01 114.03Z" fill="#71964C" fill-opacity="1.000000" fill-rule="nonzero"/>
			<path id="Vector" d="M174.26 103.06C174.6 103.69 174.77 104.38 174.96 105.06C175.28 106.23 175.79 106.96 176.87 107.57C177.85 108.15 179.38 107.64 179.82 106.58C180.35 105.32 180.22 104.39 179.77 103.15C179.41 102.2 178.97 101.25 178.41 100.41C176.64 97.75 172.79 100.29 174.28 103.04L174.26 103.06Z" fill="#71964C" fill-opacity="1.000000" fill-rule="nonzero"/>
			<path id="Vector" d="M167.51 92.16C167.95 92.74 168.15 93.39 168.75 93.87C169.5 94.45 170.9 94.46 171.29 93.4C171.81 91.96 171.35 90.86 170.21 89.89C168.72 88.62 166.24 90.52 167.51 92.18L167.51 92.16Z" fill="#71964C" fill-opacity="1.000000" fill-rule="nonzero"/>
			<path id="Vector" d="M129.73 162.11C127.77 161.43 125.38 160.75 123.33 161.38C121.53 161.94 121.53 164.27 123.03 165.14C124.68 166.09 126.56 166.8 128.26 167.72C130.39 168.85 132.43 170.11 134.9 169.32C136.9 168.67 137.35 166.16 135.89 164.75C134.28 163.19 131.78 162.83 129.72 162.1L129.73 162.11Z" fill="#71964C" fill-opacity="1.000000" fill-rule="nonzero"/>
			<path id="Vector" d="M164.29 161.39C160.55 160.77 156.88 161.86 153.19 162.44C148.87 163.11 144.59 163.57 140.3 162.51C137.78 161.89 136.3 165.92 138.79 166.87C142.86 168.42 147 168.82 151.33 168.78C155.56 168.75 160.67 168.56 164.56 166.77C166.88 165.72 167.33 161.9 164.29 161.39Z" fill="#71964C" fill-opacity="1.000000" fill-rule="nonzero"/>
			<path id="Vector" d="M174.61 165.56C173.16 165.32 171.64 165.39 170.19 165.43C168.83 165.46 167.77 166.71 167.84 168.04C167.91 169.47 169.1 170.38 170.45 170.39C171.71 170.42 172.97 170.57 174.23 170.58C175.31 170.57 176.44 169.64 176.59 168.56C176.61 168.36 176.63 168.13 176.64 167.91C176.65 166.82 175.69 165.72 174.62 165.56L174.61 165.56Z" fill="#71964C" fill-opacity="1.000000" fill-rule="nonzero"/>
			<path id="Vector" d="M182.38 178.26C180.33 177.67 178.09 178.24 176.02 178.5C173.63 178.81 171.22 179.07 168.8 179.15C166.87 179.21 167.12 181.95 168.95 182.06C171.14 182.2 173.34 182.17 175.54 182.13C177.81 182.06 180.39 182.36 182.53 181.56C184.19 180.95 183.99 178.76 182.36 178.28L182.38 178.26Z" fill="#71964C" fill-opacity="1.000000" fill-rule="nonzero"/>
			<path id="Vector" d="M196.37 144.94C196.01 149.14 196.24 153.39 196.43 157.61C196.59 161.53 197.86 165.59 196.69 169.44C196.03 171.61 199.58 172.82 200.43 170.73C201.92 167.11 201.58 163.32 201.52 159.47C201.44 154.49 202.61 149.46 200.61 144.72C199.85 142.93 196.57 142.5 196.35 144.94L196.37 144.94Z" fill="#71964C" fill-opacity="1.000000" fill-rule="nonzero"/>
			<path id="Vector" d="M195.17 136.78C195.08 136.99 195 137.18 194.91 137.37C194.41 138.56 195.18 139.97 196.56 139.89C197.94 139.82 198.56 138.34 197.94 137.21C197.83 137.03 197.73 136.83 197.62 136.65C197.11 135.74 195.58 135.82 195.17 136.78Z" fill="#71964C" fill-opacity="1.000000" fill-rule="nonzero"/>
			<path id="Vector" d="M143.47 147.06C139.51 146.39 135.3 147.12 131.3 147.33C126.75 147.56 122.26 147.23 117.86 146.04C115.84 145.49 114.64 148.8 116.64 149.55C124.49 152.5 135.52 154.17 143.69 151.64C145.91 150.94 145.83 147.47 143.45 147.06L143.47 147.06Z" fill="#71964C" fill-opacity="1.000000" fill-rule="nonzero"/>
			<path id="Vector" d="M150.32 152.81C148 153.1 148.14 156.48 150.51 156.46C152.22 156.44 154.06 156.48 155.53 155.48C156.49 154.84 156.42 153.42 155.4 152.88C153.75 151.99 152.05 152.59 150.32 152.8L150.32 152.81Z" fill="#71964C" fill-opacity="1.000000" fill-rule="nonzero"/>
			<path id="Vector" d="M151.48 117.57C151.23 118.56 150.99 119.56 150.78 120.56C150.56 121.58 150.88 122.79 150.98 123.81C151.19 125.91 151.41 128.02 151.58 130.13C151.83 133.35 156.53 133.06 156.55 129.87C156.56 127.75 156.54 125.64 156.5 123.53C156.48 122.5 156.66 121.25 156.33 120.28C156.01 119.3 155.67 118.35 155.37 117.37C154.72 115.43 152 115.65 151.52 117.57L151.48 117.57Z" fill="#71964C" fill-opacity="1.000000" fill-rule="nonzero"/>
			<path id="Vector" d="M149.14 82.63C149.62 87.57 151.17 92.17 152.59 96.91C154.07 101.86 155.12 106.89 156.25 111.94C156.51 113.15 158.5 113.03 158.65 111.81C159.89 102.18 157.1 90.75 153.59 81.82C152.69 79.52 148.87 79.93 149.12 82.63L149.14 82.63Z" fill="#71964C" fill-opacity="1.000000" fill-rule="nonzero"/>
			<path id="Vector" d="M84.5 125.42C82.7 125.15 82.16 127.7 83.93 128.18C85.52 128.61 87.07 129.48 88.71 129.62C89.98 129.73 91.16 128.16 89.95 127.18C88.44 125.97 86.41 125.68 84.52 125.4L84.5 125.42Z" fill="#71964C" fill-opacity="1.000000" fill-rule="nonzero"/>
			<path id="Vector" d="M121.09 133.04C117.96 132.31 114.62 132.78 111.43 132.79C107.5 132.78 103.58 132.17 99.73 131.44C98.04 131.12 96.97 133.78 98.71 134.39C105.17 136.67 114.54 140.24 121.31 137.47C123.39 136.61 123.44 133.59 121.09 133.06L121.09 133.04Z" fill="#71964C" fill-opacity="1.000000" fill-rule="nonzero"/>
			<path id="Vector" d="M129.55 130.59C128.8 130.55 127.92 130.8 127.15 130.85C125.13 131.02 124.76 134.13 126.88 134.47C128.46 134.73 130.61 135.35 131.78 133.89C132.23 133.32 132.47 132.35 131.96 131.73C131.24 130.86 130.66 130.64 129.55 130.58L129.55 130.59Z" fill="#71964C" fill-opacity="1.000000" fill-rule="nonzero"/>
			<path id="Vector" d="M108.28 113.45C100.01 111.53 91.56 112.22 83.35 109.56C81.68 109.01 80.76 111.74 82.35 112.44C90.09 115.81 99.54 118.33 108.01 117.08C110.01 116.79 110.41 113.95 108.28 113.46L108.28 113.45Z" fill="#71964C" fill-opacity="1.000000" fill-rule="nonzero"/>
			<path id="Vector" d="M118.79 117.89C117.21 117.68 115.77 117.99 114.22 118.29C112.27 118.67 112.89 121.96 114.84 121.69C116.43 121.47 117.86 121.4 119.31 120.68C120.51 120.07 120.08 118.04 118.79 117.87L118.79 117.89Z" fill="#71964C" fill-opacity="1.000000" fill-rule="nonzero"/>
			<path id="Vector" d="M131.71 86.91C131.41 90.98 132.17 94.95 132.3 99.04C132.42 103.08 132.34 107.11 132.48 111.15C132.55 113.22 135.54 113.36 136.01 111.42C137.94 103.51 139.95 93.1 135.84 85.6C134.64 83.41 131.85 84.94 131.71 86.92L131.71 86.91Z" fill="#71964C" fill-opacity="1.000000" fill-rule="nonzero"/>
			<path id="Vector" d="M133.48 76.56C133.42 77.31 133.32 78.04 133.49 78.78C133.67 79.55 133.85 80.35 134.01 81.12C134.47 83.52 138.62 82.76 138.22 80.36C137.95 78.77 137.75 77.31 136.9 75.92C136.1 74.65 133.63 74.85 133.48 76.54L133.48 76.56Z" fill="#71964C" fill-opacity="1.000000" fill-rule="nonzero"/>
			<path id="Vector" d="M113.56 65.27C114.46 74.77 117.99 83.81 118.74 93.42C118.86 94.97 121.33 95.29 121.54 93.64C122.81 83.87 122.26 72.87 117.84 63.9C116.79 61.77 113.34 63.06 113.56 65.27Z" fill="#71964C" fill-opacity="1.000000" fill-rule="nonzero"/>
			<path id="Vector" d="M107.05 54.49C107.13 56.35 107.86 58.03 107.94 59.91C108.07 63.02 112.83 62.76 112.76 59.66C112.73 58.52 112.56 57.4 112.33 56.29C112.21 55.71 112.05 55.16 111.85 54.62C111.61 53.92 111.04 53.38 110.53 52.85C109.23 51.48 106.99 52.79 107.06 54.49L107.05 54.49Z" fill="#71964C" fill-opacity="1.000000" fill-rule="nonzero"/>
			<path id="Vector" d="M90.03 94.1C86.39 92.63 82.37 92.46 78.56 91.46C74.08 90.31 69.83 88.36 65.66 86.37C63.65 85.42 62.28 88.29 64.13 89.42C71.09 93.69 81.17 100.06 89.71 98.17C91.57 97.75 91.77 94.81 90.03 94.11L90.03 94.1Z" fill="#71964C" fill-opacity="1.000000" fill-rule="nonzero"/>
			<path id="Vector" d="M95.99 89.22C94.78 88.51 93.53 88.47 92.17 88.22C90.88 87.98 89.62 87.7 88.33 87.51C85.95 87.16 85.22 90.57 87.56 91.17C90.08 91.81 93.14 93.49 95.72 92.59C97.3 92.03 97.37 90.04 95.99 89.22Z" fill="#71964C" fill-opacity="1.000000" fill-rule="nonzero"/>
			<path id="Vector" d="M99.74 98.96C97.75 99.11 97.32 102.39 99.46 102.57C100.63 102.66 101.75 102.96 102.77 102.23C103.65 101.6 103.77 100.42 102.98 99.66C102.05 98.77 100.91 98.86 99.72 98.96L99.74 98.96Z" fill="#71964C" fill-opacity="1.000000" fill-rule="nonzero"/>
			<path id="Vector" d="M92.35 55.95C93.31 59.69 94.39 63.3 95.65 66.95C96.67 69.9 98.53 73.39 98.11 76.6C97.9 78.25 99.97 78.98 100.84 77.56C102.65 74.58 101.52 71.14 100.86 67.95C99.85 62.97 99.02 58.45 96.01 54.24C94.64 52.33 91.78 53.71 92.35 55.95Z" fill="#71964C" fill-opacity="1.000000" fill-rule="nonzero"/>
			<path id="Vector" d="M74.75 74.8C73.78 74.19 72.68 74.11 71.58 73.87C70.35 73.61 69.14 73.3 67.94 72.97C65.85 72.39 65.26 75.58 67.28 76.23C69.48 76.95 72.22 78.16 74.55 77.58C75.95 77.23 75.77 75.45 74.77 74.82L74.75 74.8Z" fill="#71964C" fill-opacity="1.000000" fill-rule="nonzero"/>
			<path id="Vector" d="M55.23 57.5C54.08 57.33 52.94 57.14 51.8 56.85C50.59 56.56 49.62 55.81 48.37 55.58C46.24 55.18 44.97 57.39 45.9 59.17C46.98 61.26 49.9 62 52.01 62.58C54.58 63.28 57.41 63.87 60.05 63.51C61.76 63.27 63.27 60.8 61.47 59.53C59.52 58.18 57.55 57.8 55.23 57.5Z" fill="#71964C" fill-opacity="1.000000" fill-rule="nonzero"/>
			<path id="Vector" d="M60.35 33.55C60.42 38.07 61.11 42.52 62.34 46.89C62.92 48.96 65.92 48.26 65.91 46.25C65.89 43.96 65.88 41.7 65.74 39.4C65.58 36.82 64.91 34.73 63.58 32.53C62.65 30.98 60.34 31.88 60.37 33.57L60.35 33.55Z" fill="#71964C" fill-opacity="1.000000" fill-rule="nonzero"/>
			<path id="Vector" d="M57.64 28.56C56.83 28.07 55.62 28.52 55.24 29.34C54.61 30.71 55.03 31.98 56.01 33.04C56.99 34.1 58.96 33.37 59.17 32.01C59.38 30.56 58.92 29.31 57.64 28.54L57.64 28.56Z" fill="#71964C" fill-opacity="1.000000" fill-rule="nonzero"/>
			<path id="Vector" d="M36.27 42.93C34.29 42.36 33.6 45.16 35.15 46.12C36.28 46.82 37.56 47.48 38.88 46.92C40.05 46.44 40.29 45.18 39.46 44.25C38.63 43.34 37.38 43.26 36.25 42.95L36.27 42.93Z" fill="#71964C" fill-opacity="1.000000" fill-rule="nonzero"/>
			<path id="Vector" d="M45.12 30.75C45.28 32.55 45.56 34.74 46.4 36.33C46.83 37.18 48.25 37.3 48.83 36.53C50.27 34.63 49.24 32.64 49.02 30.53C48.74 28.06 44.9 28.2 45.12 30.73L45.12 30.75Z" fill="#71964C" fill-opacity="1.000000" fill-rule="nonzero"/>
			<path id="Vector" d="M28.52 31.37C27.64 30.81 26.6 30.56 25.57 30.48C24.17 30.34 23.24 32.28 24.71 32.96C25.95 33.54 26.97 35.03 28.46 34.52C28.93 34.36 29.37 33.95 29.45 33.43C29.45 33.38 29.46 33.33 29.47 33.28C29.58 32.44 29.26 31.8 28.56 31.36L28.52 31.37Z" fill="#71964C" fill-opacity="1.000000" fill-rule="nonzero"/>
			<path id="Vector" d="M32.55 26.43C33 27.53 33.43 28.95 34.59 29.48C35.32 29.84 36.39 29.29 36.27 28.39C36.13 27.24 35.25 26.43 34.65 25.45C33.98 24.35 32.06 25.19 32.57 26.43L32.55 26.43Z" fill="#71964C" fill-opacity="1.000000" fill-rule="nonzero"/>
			<path id="Vector" d="M23.6 22.54C22.4 21.54 20.87 23.24 21.98 24.33C22.61 24.95 23.09 25.42 23.99 25.58C24.68 25.69 25.25 25.07 25.04 24.41C24.79 23.54 24.27 23.12 23.6 22.54Z" fill="#71964C" fill-opacity="1.000000" fill-rule="nonzero"/>
		</g>
	</g>
	<g opacity="0.500000">
		<rect id="green leaf element" width="160.107819" height="167.248535" transform="translate(219.594360 88.161865) rotate(-7.519667)" fill="#FFFFFF" fill-opacity="0"/>
		<g clip-path="url(#clip92_5015)">
			<path id="Vector" d="M377.28 67.28C372.46 69.7 368.34 72.88 363.25 74.86C358.07 76.87 352.7 78.3 347.36 79.85C337.86 82.61 328.94 87.02 320.56 92.26C311.95 97.65 304.08 104.19 296.44 110.86C288.58 117.73 281.15 124.96 274.66 133.15C261.97 149.15 253.29 169.12 251.94 189.61C251.28 199.82 253 210.01 252.73 220.22C252.58 226.05 252.12 235.14 248.41 240.41C247.2 241.37 246.08 242.46 245.12 243.66C244.22 244.79 246 246.16 246.9 245.03C254.35 235.86 266.08 237.11 276.49 235.76C286.59 234.43 296.14 230.11 305.03 225.31C324.08 215.04 340.23 201.6 353.24 184.24C365.96 167.25 374.57 147.71 378.56 126.89C380.46 117 380.99 107.07 379.51 97.09C378.07 87.41 381.49 77.47 378.9 67.95C378.74 67.33 377.83 67 377.28 67.28Z" fill="#AEBFAC" fill-opacity="1.000000" fill-rule="nonzero"/>
			<path id="Vector" d="M376.19 104.7C374.76 95.01 378.17 85.07 375.59 75.56C375.42 74.94 374.52 74.6 373.97 74.88C369.14 77.3 365.03 80.48 359.94 82.46C354.76 84.48 349.38 85.91 344.05 87.45C334.54 90.22 325.62 94.63 317.25 99.86C308.64 105.25 300.76 111.79 293.13 118.46C285.27 125.34 277.84 132.57 271.34 140.75C258.65 156.75 249.98 176.72 248.63 197.22C247.96 207.42 249.68 217.61 249.42 227.82C249.27 233.66 248.81 242.74 245.09 248.01C243.88 248.97 242.77 250.06 241.81 251.27C240.91 252.4 242.68 253.76 243.59 252.63C251.03 243.46 262.77 244.72 273.18 243.36C283.28 242.04 292.82 237.71 301.72 232.91C320.77 222.64 336.92 209.2 349.92 191.84C362.65 174.85 371.26 155.32 375.25 134.49C377.14 124.6 377.68 114.67 376.19 104.7ZM344.69 194.83C331.31 211.7 314.06 224.15 294.89 233.7C285.55 238.35 275.55 241.55 265.05 241.62C260.7 241.64 256.02 242.45 251.77 244.17C256.11 238.97 260.44 233.81 264.66 228.55C279.79 231.42 297.28 226.37 309.67 217.6C310.21 217.23 309.69 216.3 309.1 216.6C302.46 219.88 296.1 223.25 288.97 225.4C281.25 227.74 273.37 228.27 265.4 227.62C269.84 222.05 274.12 216.37 278.1 210.36C278.62 209.57 279.17 208.8 279.71 208.02C296.6 209.55 314.52 205.17 329.47 197.36C330.2 196.98 329.76 195.82 328.98 196.15C313.2 202.84 297.62 207.18 280.42 207.02C284.23 201.54 288.32 196.28 292.57 191.14C296.48 190.75 300.28 190.88 304.22 190.97C308.8 191.06 313.49 189.98 317.96 189.08C327.56 187.15 337.21 183.9 344.81 177.56C345.5 176.98 344.71 175.93 343.97 176.45C334.91 182.85 324.48 186.18 313.67 188.22C309 189.11 304.61 189.47 299.86 189.37C298.01 189.32 295.81 189.16 293.87 189.58C297.99 184.66 302.24 179.84 306.49 175.02C314.17 175.69 322.28 174.41 329.68 172.68C337.69 170.83 345.65 167.71 351.76 162.07C352.29 161.58 351.64 160.67 351.06 161.14C338.64 171.26 322.65 172.98 307.27 174.13C308.01 173.29 308.74 172.47 309.47 171.64C312.74 167.93 315.91 164.16 319.02 160.32C319.01 160.49 319.09 160.68 319.31 160.72C324.95 162 331.85 158.79 337.02 156.84C345.04 153.82 352.73 149.83 360.33 145.88C360.93 145.57 360.57 144.61 359.93 144.9C353.45 147.76 347.2 151.08 340.75 153.96C334.69 156.67 326.18 160.97 319.4 160.05C319.32 160.05 319.26 160.07 319.21 160.11C323.83 154.42 328.28 148.61 332.58 142.67C336.41 142.68 340.53 140.72 344.01 139.55C349.41 137.73 354.52 135.33 359.25 132.13C359.82 131.74 359.19 130.95 358.6 131.28C354.6 133.65 350.48 135.72 346.17 137.46C342.42 138.98 337.47 141.31 333.15 141.86C335.65 138.41 338.09 134.92 340.49 131.41C341.4 130.06 342.31 128.7 343.21 127.35C343.18 127.6 343.32 127.87 343.66 127.81C352.08 126.42 364.36 125.27 369.75 117.67C370.11 117.17 369.4 116.63 368.99 117.08C362.81 124.04 352.14 125.17 343.53 126.96C343.48 126.96 343.44 127.01 343.4 127.04C346.06 123.03 348.67 119 351.3 114.98C356.71 114.27 363.11 112.68 366.69 108.39C367 108.02 366.44 107.44 366.09 107.78C362.14 111.65 357.01 112.32 352.03 113.88C354.72 109.8 357.45 105.75 360.31 101.8C363.68 102.01 366.72 100.41 369.83 99.35C370.29 99.19 370.09 98.42 369.61 98.53C366.64 99.11 364 100.77 360.93 100.93C363.52 97.38 366.23 93.89 369.14 90.55C369.46 90.18 368.87 89.74 368.54 90.09C364.73 94.2 361.25 98.56 357.94 103.05C359.01 99.54 359.47 95.72 360.43 92.24C360.57 91.73 359.89 91.42 359.67 91.93C357.83 95.91 356.83 100.82 356.36 105.18C353.52 109.12 350.8 113.12 348.1 117.17C349.2 110.8 348.93 104.41 351.64 98.24C351.9 97.67 351.07 97.37 350.78 97.89C347.2 104.2 347.36 111.86 346.9 118.95C344.34 122.77 341.79 126.6 339.16 130.36C338.64 131.09 338.12 131.82 337.59 132.55C336.94 123.6 337.7 114.89 341.94 106.75C342.19 106.27 341.39 105.81 341.11 106.27C336.14 114.2 335.14 124.56 336.79 133.68C333.42 138.4 329.94 143.04 326.36 147.6C327.82 135.9 327.89 124.44 333.6 113.61C333.91 113.02 332.95 112.47 332.6 113.03C325.82 123.9 325.77 136.91 325 149.32C319.37 156.42 313.53 163.35 307.48 170.07C304.79 173.06 302.09 176.04 299.43 179.03C296.8 170.52 295.14 162.68 295.5 153.68C295.83 145.37 297.66 137.19 299.94 129.23C300.19 128.37 298.97 127.84 298.65 128.7C295.58 137.05 293.99 145.85 293.71 154.73C293.45 162.9 294.33 172.43 298.58 179.61C298.63 179.7 298.69 179.75 298.77 179.79C294.82 184.23 290.93 188.71 287.2 193.31C287.19 190.36 286.34 187.43 285.66 184.58C284.59 180.18 283.92 175.75 283.57 171.22C282.83 161.85 284.91 153.17 289.07 144.81C289.41 144.11 288.29 143.45 287.87 144.12C283.31 151.37 281.53 159.33 281.6 167.83C281.67 177.13 285.22 185.56 286.17 194.62C282.57 199.12 279.11 203.74 275.9 208.57C275.44 209.25 274.97 209.91 274.51 210.58C274.2 207.98 273.52 205.42 272.87 202.85C271.63 197.94 271.25 193.02 271.46 187.95C271.84 178.62 274.66 169.67 277.29 160.79C277.53 159.98 276.37 159.47 276.05 160.29C272.73 168.6 270.49 177.39 269.84 186.33C269.53 190.57 269.74 194.87 270.47 199.04C271.23 203.4 272.75 207.55 273.59 211.89C270.18 216.78 266.58 221.47 262.91 226.13C260.41 221.42 261.03 214.35 260.36 209.23C259.41 202 259.15 194.95 261.21 187.86C261.43 187.13 260.41 186.68 260.09 187.41C256.87 194.43 257.35 202.02 258.43 209.49C258.97 213.28 259.37 217.07 259.83 220.88C260.1 223.13 260.67 225.4 262.19 227.04C257.6 232.86 252.94 238.65 248.55 244.67C249.85 241.28 250.37 237.4 250.87 234.2C252.17 225.7 251.32 217.11 250.9 208.57C249.77 185.71 257.26 163.95 270.55 145.51C282.55 128.85 299.38 114.47 316.39 103.1C325.23 97.2 334.84 92.69 345 89.62C350.33 88.01 355.68 86.61 360.92 84.69C365.64 82.97 369.38 80.15 373.67 77.8C375.59 86.63 372.4 95.98 373.91 104.94C375.62 115.15 374.67 125.38 372.73 135.46C368.56 157.3 358.51 177.42 344.74 194.76L344.69 194.83Z" fill="#90B87E" fill-opacity="1.000000" fill-rule="nonzero"/>
			<path id="Vector" d="M372.67 135.53C374.61 125.44 375.56 115.21 373.85 105C372.34 96.03 375.53 86.69 373.61 77.86C369.32 80.22 365.58 83.03 360.86 84.75C355.62 86.67 350.27 88.07 344.94 89.69C334.78 92.75 325.17 97.27 316.33 103.16C299.32 114.55 282.49 128.91 270.49 145.57C257.19 164.03 249.71 185.78 250.84 208.63C251.26 217.16 252.11 225.76 250.81 234.26C250.31 237.47 249.79 241.34 248.49 244.74C252.88 238.73 257.54 232.94 262.13 227.11C260.6 225.46 260.04 223.19 259.77 220.94C259.31 217.14 258.91 213.36 258.37 209.55C257.31 202.08 256.81 194.49 260.03 187.47C260.35 186.75 261.37 187.19 261.15 187.93C259.08 195.01 259.36 202.06 260.3 209.3C260.97 214.41 260.33 221.49 262.85 226.19C266.52 221.53 270.12 216.84 273.53 211.96C272.69 207.61 271.17 203.46 270.41 199.11C269.68 194.93 269.47 190.63 269.78 186.4C270.42 177.45 272.67 168.66 275.99 160.35C276.32 159.53 277.48 160.04 277.23 160.85C274.6 169.73 271.78 178.68 271.4 188.01C271.19 193.08 271.56 198 272.81 202.92C273.46 205.47 274.14 208.04 274.45 210.65C274.91 209.97 275.38 209.31 275.84 208.63C279.05 203.8 282.51 199.18 286.11 194.68C285.18 185.62 281.63 177.18 281.54 167.89C281.46 159.4 283.25 151.42 287.81 144.19C288.23 143.52 289.37 144.17 289.01 144.88C284.85 153.23 282.77 161.92 283.51 171.28C283.87 175.81 284.53 180.24 285.6 184.65C286.28 187.49 287.13 190.43 287.14 193.37C290.87 188.77 294.76 184.29 298.71 179.85C298.63 179.82 298.57 179.76 298.52 179.67C294.27 172.49 293.39 162.96 293.65 154.79C293.95 145.91 295.53 137.11 298.59 128.76C298.91 127.9 300.13 128.44 299.88 129.29C297.61 137.25 295.77 145.43 295.44 153.74C295.09 162.74 296.74 170.57 299.37 179.1C302.03 176.1 304.74 173.12 307.42 170.13C313.47 163.41 319.31 156.49 324.94 149.39C325.71 136.97 325.75 123.97 332.54 113.09C332.89 112.53 333.86 113.08 333.54 113.67C327.83 124.5 327.76 135.96 326.3 147.66C329.88 143.1 333.36 138.45 336.73 133.75C335.08 124.62 336.08 114.27 341.05 106.34C341.35 105.87 342.13 106.33 341.88 106.81C337.65 114.95 336.89 123.66 337.53 132.62C338.05 131.88 338.58 131.15 339.1 130.42C341.73 126.66 344.29 122.84 346.84 119.01C347.3 111.92 347.14 104.25 350.72 97.95C351.01 97.45 351.84 97.74 351.58 98.3C348.87 104.48 349.14 110.86 348.04 117.23C350.74 113.2 353.46 109.18 356.3 105.25C356.77 100.89 357.77 95.97 359.61 91.99C359.85 91.5 360.51 91.8 360.37 92.3C359.41 95.79 358.95 99.6 357.88 103.12C361.2 98.62 364.67 94.26 368.48 90.16C368.81 89.81 369.4 90.24 369.08 90.61C366.19 93.95 363.48 97.44 360.87 100.99C363.92 100.82 366.57 99.17 369.55 98.59C370.03 98.5 370.22 99.25 369.77 99.41C366.66 100.47 363.62 102.07 360.25 101.86C357.39 105.81 354.66 109.86 351.97 113.94C356.95 112.38 362.08 111.7 366.03 107.85C366.38 107.5 366.94 108.08 366.63 108.45C363.04 112.73 356.65 114.32 351.24 115.05C348.61 119.07 346.01 123.09 343.34 127.1C343.38 127.07 343.42 127.02 343.47 127.02C352.06 125.22 362.75 124.1 368.93 117.15C369.34 116.7 370.05 117.22 369.69 117.73C364.3 125.33 352.02 126.49 343.6 127.87C343.26 127.92 343.13 127.66 343.15 127.41C342.25 128.77 341.35 130.14 340.42 131.47C338.02 134.98 335.59 138.47 333.09 141.92C337.41 141.37 342.36 139.04 346.11 137.53C350.42 135.78 354.54 133.71 358.54 131.35C359.11 131.01 359.75 131.8 359.19 132.19C354.46 135.38 349.36 137.79 343.95 139.61C340.47 140.78 336.35 142.75 332.52 142.74C328.22 148.67 323.76 154.48 319.15 160.17C319.21 160.15 319.26 160.11 319.34 160.12C326.12 161.03 334.63 156.73 340.68 154.02C347.14 151.14 353.39 147.82 359.87 144.96C360.51 144.67 360.87 145.64 360.27 145.95C352.67 149.91 344.98 153.88 336.96 156.9C331.81 158.85 324.89 162.06 319.25 160.78C319.04 160.73 318.95 160.55 318.96 160.38C315.85 164.22 312.68 168 309.41 171.7C308.68 172.54 307.95 173.35 307.21 174.19C322.58 173.04 338.58 171.33 351 161.2C351.6 160.73 352.25 161.62 351.7 162.13C345.59 167.77 337.63 170.89 329.62 172.75C322.22 174.47 314.1 175.74 306.43 175.08C302.18 179.9 297.94 184.72 293.81 189.64C295.75 189.23 297.95 189.39 299.8 189.43C304.55 189.53 308.94 189.17 313.61 188.29C324.42 186.22 334.84 182.9 343.91 176.51C344.65 175.99 345.44 177.05 344.75 177.63C337.14 183.97 327.48 187.21 317.9 189.14C313.43 190.04 308.74 191.12 304.16 191.03C300.22 190.95 296.41 190.83 292.51 191.21C288.26 196.34 284.18 201.6 280.35 207.09C297.56 207.24 313.16 202.9 328.92 196.21C329.71 195.88 330.15 197.04 329.41 197.42C314.46 205.24 296.54 209.62 279.65 208.08C279.11 208.86 278.56 209.63 278.04 210.42C274.06 216.42 269.77 222.1 265.33 227.68C273.31 228.33 281.19 227.8 288.91 225.46C296.04 223.31 302.4 219.95 309.04 216.66C309.63 216.36 310.14 217.28 309.61 217.66C297.22 226.43 279.73 231.49 264.6 228.61C260.39 233.86 256.04 239.02 251.71 244.23C255.96 242.51 260.64 241.71 264.99 241.68C275.49 241.61 285.49 238.42 294.83 233.76C313.99 224.21 331.24 211.75 344.63 194.89C358.4 177.54 368.45 157.42 372.62 135.59L372.67 135.53ZM309.32 146.14C308.96 150.78 309.2 155 309.89 159.57C310.29 162.18 310.61 164.74 309.71 167.29C309.57 167.69 308.89 167.52 308.99 167.1C309.93 163.14 308.33 159.1 307.84 155.18C307.35 151.23 307.68 147.05 308.15 143.11C309.28 133.99 311.8 125.2 315.82 116.94C316.12 116.31 317.1 116.7 316.83 117.34C312.97 126.5 310.08 136.18 309.3 146.14L309.32 146.14Z" fill="#4D7C43" fill-opacity="1.000000" fill-rule="nonzero"/>
			<path id="Vector" d="M315.84 116.93C311.82 125.18 309.29 133.99 308.17 143.1C307.67 147.04 307.36 151.2 307.85 155.17C308.34 159.09 309.94 163.13 309 167.09C308.9 167.51 309.58 167.67 309.72 167.28C310.63 164.74 310.3 162.18 309.9 159.55C309.21 154.99 308.97 150.75 309.33 146.13C310.11 136.16 313 126.49 316.86 117.32C317.13 116.67 316.16 116.3 315.85 116.92L315.84 116.93Z" fill="#90B87E" fill-opacity="1.000000" fill-rule="nonzero"/>
			<path id="Vector" d="M307.98 208.06C299.72 207.7 291.83 212.98 283.53 212.46C281.12 212.31 280.75 215.61 283.07 216.12C286.99 217 291.17 216.4 295.13 216.12C299.81 215.79 305.14 215.12 309.22 212.72C311.17 211.57 310.16 208.14 307.98 208.05L307.98 208.06Z" fill="#71964C" fill-opacity="1.000000" fill-rule="nonzero"/>
			<path id="Vector" d="M316.93 210.73C316.45 211.04 315.91 211.22 315.39 211.41C314.48 211.74 313.94 212.19 313.52 213.08C313.13 213.9 313.62 215.07 314.49 215.35C315.52 215.7 316.25 215.53 317.2 215.09C317.93 214.75 318.66 214.34 319.29 213.85C321.28 212.28 319.03 209.39 316.94 210.75L316.93 210.73Z" fill="#71964C" fill-opacity="1.000000" fill-rule="nonzero"/>
			<path id="Vector" d="M325.13 204.7C324.7 205.08 324.19 205.29 323.85 205.8C323.44 206.42 323.52 207.53 324.38 207.77C325.56 208.1 326.4 207.66 327.09 206.69C328.01 205.44 326.35 203.6 325.11 204.7L325.13 204.7Z" fill="#71964C" fill-opacity="1.000000" fill-rule="nonzero"/>
			<path id="Vector" d="M267.39 179.2C267.8 177.6 268.19 175.67 267.56 174.09C267.01 172.7 265.16 172.84 264.57 174.08C263.92 175.45 263.48 176.98 262.86 178.39C262.09 180.14 261.22 181.84 262.01 183.74C262.65 185.29 264.66 185.48 265.69 184.24C266.82 182.87 266.95 180.87 267.4 179.19L267.39 179.2Z" fill="#71964C" fill-opacity="1.000000" fill-rule="nonzero"/>
			<path id="Vector" d="M270.13 206.5C270.39 203.51 269.29 200.67 268.6 197.79C267.8 194.41 267.17 191.05 267.74 187.59C268.07 185.56 264.78 184.64 264.19 186.67C263.22 189.99 263.16 193.29 263.46 196.72C263.75 200.06 264.23 204.1 265.89 207.06C266.87 208.83 269.92 208.95 270.13 206.5Z" fill="#71964C" fill-opacity="1.000000" fill-rule="nonzero"/>
			<path id="Vector" d="M267.48 214.93C267.57 213.78 267.43 212.58 267.31 211.43C267.19 210.36 266.14 209.59 265.09 209.73C263.97 209.88 263.32 210.88 263.39 211.95C263.45 212.95 263.41 213.95 263.49 214.95C263.56 215.81 264.36 216.64 265.23 216.69C265.39 216.7 265.57 216.7 265.75 216.69C266.61 216.63 267.42 215.8 267.48 214.95L267.48 214.93Z" fill="#71964C" fill-opacity="1.000000" fill-rule="nonzero"/>
			<path id="Vector" d="M257.91 221.88C258.26 220.23 257.66 218.49 257.32 216.87C256.93 215 256.57 213.1 256.36 211.19C256.19 209.67 254.04 210.04 254.07 211.49C254.09 213.24 254.25 214.98 254.42 216.72C254.62 218.51 254.55 220.57 255.31 222.21C255.9 223.49 257.62 223.19 257.9 221.87L257.91 221.88Z" fill="#71964C" fill-opacity="1.000000" fill-rule="nonzero"/>
			<path id="Vector" d="M285.17 230.87C281.82 230.84 278.47 231.3 275.14 231.71C272.05 232.08 268.92 233.34 265.8 232.66C264.04 232.28 263.3 235.16 265.01 235.7C267.97 236.65 270.95 236.15 274 235.86C277.93 235.48 281.98 236.09 285.61 234.21C286.98 233.5 287.11 230.87 285.17 230.85L285.17 230.87Z" fill="#71964C" fill-opacity="1.000000" fill-rule="nonzero"/>
			<path id="Vector" d="M291.56 229.4C291.38 229.34 291.23 229.29 291.07 229.23C290.1 228.91 289.03 229.61 289.17 230.7C289.32 231.78 290.53 232.18 291.38 231.62C291.52 231.52 291.67 231.43 291.81 231.33C292.5 230.87 292.34 229.66 291.56 229.4Z" fill="#71964C" fill-opacity="1.000000" fill-rule="nonzero"/>
			<path id="Vector" d="M280.17 189.13C280.44 185.95 279.6 182.66 279.19 179.51C278.72 175.92 278.7 172.35 279.36 168.79C279.67 167.16 276.98 166.42 276.51 168.05C274.66 174.45 274.04 183.28 276.56 189.59C277.24 191.3 279.99 191.02 280.16 189.12L280.17 189.13Z" fill="#71964C" fill-opacity="1.000000" fill-rule="nonzero"/>
			<path id="Vector" d="M276.04 194.91C275.67 193.09 273.01 193.41 273.17 195.29C273.29 196.64 273.38 198.1 274.26 199.2C274.83 199.92 275.94 199.77 276.31 198.93C276.91 197.57 276.33 196.27 276.05 194.91L276.04 194.91Z" fill="#71964C" fill-opacity="1.000000" fill-rule="nonzero"/>
			<path id="Vector" d="M304.01 193.62C303.21 193.47 302.4 193.35 301.6 193.25C300.78 193.14 299.84 193.47 299.04 193.61C297.39 193.91 295.73 194.21 294.08 194.48C291.54 194.88 292.07 198.58 294.59 198.4C296.27 198.28 297.94 198.13 299.61 197.96C300.42 197.88 301.42 197.94 302.17 197.63C302.92 197.31 303.66 196.98 304.41 196.68C305.91 196.04 305.56 193.9 304.01 193.64L304.01 193.62Z" fill="#71964C" fill-opacity="1.000000" fill-rule="nonzero"/>
			<path id="Vector" d="M331.52 189.57C327.64 190.25 324.1 191.77 320.44 193.19C316.6 194.68 312.69 195.82 308.77 197.03C307.82 197.32 308.04 198.89 309.02 198.92C316.72 199.31 325.59 196.38 332.44 193.04C334.21 192.18 333.64 189.18 331.52 189.55L331.52 189.57Z" fill="#71964C" fill-opacity="1.000000" fill-rule="nonzero"/>
			<path id="Vector" d="M293.59 141.09C293.68 139.65 291.63 139.38 291.37 140.81C291.13 142.1 290.53 143.38 290.53 144.69C290.52 145.7 291.83 146.54 292.53 145.52C293.4 144.24 293.5 142.62 293.6 141.1L293.59 141.09Z" fill="#71964C" fill-opacity="1.000000" fill-rule="nonzero"/>
			<path id="Vector" d="M289.85 170.53C290.23 168.01 289.66 165.39 289.45 162.87C289.2 159.76 289.45 156.62 289.78 153.53C289.93 152.17 287.75 151.49 287.37 152.9C285.98 158.16 283.75 165.8 286.37 170.99C287.18 172.57 289.57 172.42 289.84 170.53L289.85 170.53Z" fill="#71964C" fill-opacity="1.000000" fill-rule="nonzero"/>
			<path id="Vector" d="M292.32 177.07C292.31 176.47 292.06 175.8 291.97 175.19C291.7 173.6 289.22 173.51 289.09 175.2C288.98 176.47 288.63 178.21 289.85 179.05C290.33 179.37 291.11 179.5 291.57 179.06C292.21 178.43 292.36 177.96 292.34 177.07L292.32 177.07Z" fill="#71964C" fill-opacity="1.000000" fill-rule="nonzero"/>
			<path id="Vector" d="M304.56 159.16C305.55 152.49 304.47 145.85 306.07 139.18C306.4 137.83 304.18 137.27 303.72 138.57C301.54 144.91 300.14 152.55 301.67 159.17C302.02 160.74 304.29 160.88 304.54 159.16L304.56 159.16Z" fill="#71964C" fill-opacity="1.000000" fill-rule="nonzero"/>
			<path id="Vector" d="M301.7 167.76C301.77 166.49 301.43 165.38 301.09 164.16C300.68 162.65 298.11 163.34 298.44 164.87C298.72 166.12 298.87 167.24 299.53 168.34C300.08 169.25 301.66 168.79 301.72 167.76L301.7 167.76Z" fill="#71964C" fill-opacity="1.000000" fill-rule="nonzero"/>
			<path id="Vector" d="M327.04 176.04C323.79 176.05 320.7 176.91 317.47 177.27C314.28 177.62 311.09 177.8 307.9 178.17C306.26 178.36 306.34 180.73 307.9 180.98C314.29 182.01 322.65 182.95 328.33 179.22C329.99 178.13 328.61 176.02 327.02 176.04L327.04 176.04Z" fill="#71964C" fill-opacity="1.000000" fill-rule="nonzero"/>
			<path id="Vector" d="M335.34 176.79C334.74 176.79 334.16 176.75 333.58 176.94C332.98 177.13 332.36 177.32 331.76 177.49C329.89 178.01 330.75 181.24 332.63 180.78C333.87 180.46 335.01 180.22 336.06 179.45C337.01 178.74 336.7 176.8 335.35 176.79L335.34 176.79Z" fill="#71964C" fill-opacity="1.000000" fill-rule="nonzero"/>
			<path id="Vector" d="M343.03 160.31C335.56 161.62 328.63 164.99 321.06 166.18C319.85 166.37 319.75 168.35 321.07 168.41C328.89 168.8 337.55 167.68 344.37 163.61C345.99 162.65 344.76 160 343.03 160.31Z" fill="#71964C" fill-opacity="1.000000" fill-rule="nonzero"/>
			<path id="Vector" d="M351.14 154.48C349.68 154.66 348.39 155.34 346.91 155.52C344.46 155.82 344.96 159.58 347.41 159.32C348.31 159.23 349.19 159.02 350.06 158.77C350.5 158.64 350.93 158.48 351.34 158.29C351.89 158.05 352.27 157.57 352.66 157.13C353.66 156.02 352.49 154.33 351.14 154.49L351.14 154.48Z" fill="#71964C" fill-opacity="1.000000" fill-rule="nonzero"/>
			<path id="Vector" d="M318.73 143.5C319.66 140.52 319.54 137.33 320.09 134.25C320.72 130.63 322 127.15 323.31 123.73C323.93 122.07 321.58 121.17 320.8 122.7C317.86 128.48 313.45 136.86 315.48 143.5C315.93 144.94 318.27 144.92 318.71 143.5L318.73 143.5Z" fill="#71964C" fill-opacity="1.000000" fill-rule="nonzero"/>
			<path id="Vector" d="M322.96 147.91C323.44 146.91 323.4 145.92 323.51 144.82C323.62 143.78 323.76 142.77 323.83 141.74C323.96 139.83 321.21 139.47 320.89 141.36C320.54 143.4 319.4 145.92 320.27 147.91C320.81 149.12 322.4 149.05 322.96 147.91Z" fill="#71964C" fill-opacity="1.000000" fill-rule="nonzero"/>
			<path id="Vector" d="M315.49 151.49C315.24 149.92 312.62 149.79 312.61 151.5C312.61 152.42 312.44 153.33 313.09 154.1C313.64 154.75 314.58 154.77 315.14 154.1C315.78 153.31 315.64 152.41 315.49 151.47L315.49 151.49Z" fill="#71964C" fill-opacity="1.000000" fill-rule="nonzero"/>
			<path id="Vector" d="M349.07 142.94C346.17 143.94 343.38 145.01 340.56 146.24C338.29 147.24 335.65 148.92 333.08 148.79C331.76 148.74 331.31 150.42 332.5 151.01C334.97 152.26 337.62 151.15 340.1 150.42C343.98 149.32 347.5 148.37 350.65 145.72C352.07 144.52 350.8 142.34 349.07 142.94Z" fill="#71964C" fill-opacity="1.000000" fill-rule="nonzero"/>
			<path id="Vector" d="M333.04 130.19C333.46 129.38 333.46 128.51 333.57 127.62C333.7 126.63 333.88 125.66 334.06 124.69C334.39 123 331.83 122.73 331.44 124.36C331.01 126.16 330.22 128.4 330.83 130.21C331.19 131.29 332.59 131.04 333.03 130.21L333.04 130.19Z" fill="#71964C" fill-opacity="1.000000" fill-rule="nonzero"/>
			<path id="Vector" d="M345.51 113.66C345.56 112.73 345.65 111.82 345.8 110.9C345.96 109.92 346.49 109.1 346.59 108.11C346.78 106.39 344.94 105.52 343.6 106.37C342.01 107.36 341.61 109.72 341.29 111.43C340.89 113.5 340.6 115.77 341.05 117.85C341.35 119.19 343.4 120.23 344.29 118.72C345.24 117.09 345.41 115.51 345.51 113.66Z" fill="#71964C" fill-opacity="1.000000" fill-rule="nonzero"/>
			<path id="Vector" d="M364.78 116.2C361.21 116.54 357.73 117.36 354.35 118.61C352.75 119.2 353.49 121.54 355.08 121.4C356.89 121.24 358.68 121.09 360.49 120.84C362.53 120.54 364.13 119.88 365.79 118.69C366.96 117.86 366.1 116.08 364.77 116.22L364.78 116.2Z" fill="#71964C" fill-opacity="1.000000" fill-rule="nonzero"/>
			<path id="Vector" d="M368.57 113.74C368.9 113.07 368.47 112.14 367.79 111.89C366.67 111.48 365.69 111.89 364.91 112.73C364.14 113.57 364.84 115.09 365.93 115.17C367.09 115.25 368.05 114.8 368.58 113.74L368.57 113.74Z" fill="#71964C" fill-opacity="1.000000" fill-rule="nonzero"/>
			<path id="Vector" d="M355.85 97.73C356.17 96.13 353.91 95.76 353.25 97.05C352.77 97.98 352.32 99.04 352.85 100.05C353.31 100.94 354.32 101.06 355 100.34C355.67 99.62 355.65 98.63 355.83 97.72L355.85 97.73Z" fill="#71964C" fill-opacity="1.000000" fill-rule="nonzero"/>
			<path id="Vector" d="M366.04 103.97C364.63 104.21 362.91 104.57 361.7 105.33C361.06 105.73 361.06 106.86 361.7 107.27C363.29 108.29 364.81 107.35 366.46 107.04C368.4 106.66 368.04 103.64 366.05 103.97L366.04 103.97Z" fill="#71964C" fill-opacity="1.000000" fill-rule="nonzero"/>
			<path id="Vector" d="M364.51 90.87C364.89 90.14 365.03 89.3 365.03 88.48C365.05 87.36 363.45 86.75 363.01 87.95C362.63 88.97 361.51 89.87 362.01 91.02C362.16 91.38 362.52 91.7 362.93 91.73C362.97 91.73 363.02 91.74 363.06 91.74C363.73 91.78 364.21 91.48 364.52 90.9L364.51 90.87Z" fill="#71964C" fill-opacity="1.000000" fill-rule="nonzero"/>
			<path id="Vector" d="M368.67 93.75C367.83 94.18 366.74 94.61 366.38 95.55C366.15 96.16 366.65 96.97 367.35 96.82C368.26 96.63 368.84 95.89 369.58 95.35C370.41 94.75 369.62 93.28 368.67 93.76L368.67 93.75Z" fill="#71964C" fill-opacity="1.000000" fill-rule="nonzero"/>
			<path id="Vector" d="M371.19 86.42C371.9 85.41 370.46 84.3 369.67 85.25C369.22 85.79 368.88 86.2 368.81 86.92C368.76 87.47 369.29 87.88 369.8 87.68C370.47 87.42 370.77 86.99 371.19 86.42Z" fill="#71964C" fill-opacity="1.000000" fill-rule="nonzero"/>
		</g>
	</g>
</svg>
