<svg width="214.931396" height="216.395020" viewBox="0 0 214.931 216.395" fill="none" xmlns="http://www.w3.org/2000/svg" xmlns:xlink="http://www.w3.org/1999/xlink">
	<desc>
			Created with Pixso.
	</desc>
	<defs>
		<clipPath id="clip238_949">
			<rect id="green leaf element" width="205.356964" height="206.895187" transform="translate(9.805176 0.000000) rotate(2.716384)" fill="white" fill-opacity="0"/>
		</clipPath>
	</defs>
	<g opacity="0.500000">
		<rect id="green leaf element" width="205.356964" height="206.895187" transform="translate(9.805176 0.000000) rotate(2.716384)" fill="#FFFFFF" fill-opacity="0"/>
		<g clip-path="url(#clip238_949)">
			<path id="Vector" d="M22.3 175.32C21.16 176.86 20.03 178.44 18.99 180.04C18.12 181.37 20.1 183.1 21.16 181.86C22.57 180.25 24 178.69 25.4 177.08C36.65 182.96 43.81 194.01 56.86 197.05C68.75 199.81 81.08 200.46 93.19 199.08C121.59 195.82 145.2 179.21 165.87 160.52C176.75 150.69 188.69 139.98 195.4 126.72C198.22 121.14 199.66 115.08 201.69 109.2C204.29 101.68 208.13 94.7 210.35 87.04C213.73 75.38 210.04 62.92 205.22 52.24C200.51 41.83 193.29 33.37 197.33 22.13C197.73 21.92 198.1 21.7 198.49 21.46C199.83 20.55 199.17 18.58 197.84 18.6C197.68 18.55 197.5 18.56 197.29 18.68C197.25 18.71 197.19 18.73 197.15 18.77C188.48 23.24 178.97 13.75 171.38 10.36C161.11 5.8 149.64 6.53 138.76 7.81C125.6 9.36 112.2 10.14 99.64 14.71C86.18 19.6 78.48 32.08 67.66 40.67C61.54 45.52 55.4 49.91 50.03 55.65C44.97 61.04 40.71 67.17 36.72 73.35C29.23 84.92 22.05 96.95 16.27 109.46C7.43 128.69 5.68 158.19 21.97 174.23C21.95 174.61 22.1 174.98 22.32 175.3L22.3 175.32Z" fill="#AEBFAC" fill-opacity="1.000000" fill-rule="nonzero"/>
			<path id="Vector" d="M17.46 182.94C21.43 177.88 25.79 173.12 30.37 168.58C26.01 161.79 22.7 154.17 20.91 146.36C19.94 142.08 18.75 137.42 18.94 132.99C19.07 130.34 19.43 127.77 19.72 125.12C19.73 125 20.76 116.78 17.62 119.17C17.6 119.19 17.56 119.17 17.58 119.13C18.36 118.44 19.2 117.79 20.07 117.23C20.35 117.02 20.77 117.1 20.85 117.49C21.69 121.44 21.17 125.15 20.96 129.16C20.73 134.07 21.37 138.9 22.59 143.66C24.09 149.46 26.02 155.16 29 160.38C30.17 162.44 31.39 164.41 32.47 166.46C35.55 163.48 38.71 160.6 41.9 157.77C38.61 151.74 38.17 144.52 37.52 137.79C36.84 130.72 35.94 123.81 36.72 116.69C38.32 102.06 43.51 88 51.97 75.95C52.47 75.27 53.52 75.93 53.09 76.65C45.36 89.42 39.64 103.65 39.15 118.76C38.92 125.57 39.8 132.25 40.55 139C41.16 144.68 41.8 150.48 44.28 155.64C44.47 155.47 44.68 155.3 44.87 155.1C45.08 154.33 45.7 153.73 46.47 153.71C46.63 153.55 46.8 153.42 46.95 153.27C50.91 149.82 54.86 146.4 58.84 142.98C55.01 138.15 53.55 130.2 53 124.5C52.18 116.23 52.73 108.07 54.16 99.9C56.87 84.54 62.88 69.31 71.74 56.46C72.13 55.91 72.97 56.43 72.62 57.02C64.19 70.44 58.35 86.06 56.25 101.8C55.21 109.62 54.75 117.73 56.15 125.52C57.14 131.05 59.58 135.71 61.4 140.78C68.59 134.6 75.77 128.39 82.87 122.09C82.32 122.1 81.81 121.81 81.72 121.14C79.77 107.88 79.78 93.49 83.27 80.49C86.82 67.14 92.45 54.43 98.49 42.03C98.84 41.28 100.15 41.89 99.81 42.64C94.41 55.21 88.67 67.81 85.71 81.25C83.96 89.19 82.95 97.32 83.78 105.45C84.26 110.17 85.8 116.27 84.21 120.9C84.55 120.59 84.89 120.31 85.22 120.02C86.8 118.6 88.4 117.22 89.98 115.83C90.11 115.67 90.24 115.54 90.42 115.44C95.18 111.21 99.94 106.98 104.76 102.81C104.13 102.52 103.63 101.89 103.8 101.03C104.77 95.77 103.17 90.37 104.33 85.18C105.64 79.29 107.41 73.4 109.29 67.68C112.74 57.15 117.1 46.34 125.61 38.86C126.16 38.38 126.82 39.16 126.36 39.68C117.83 48.98 113.53 60.38 110.36 72.41C108.96 77.75 106.65 83.73 106.92 89.29C107.09 93.28 107.55 97.15 106.8 101.05C108.55 99.54 110.31 98.07 112.06 96.58C112.28 96.21 112.59 95.92 112.98 95.8C117.25 92.14 121.48 88.49 125.79 84.88C126.35 84.41 126.94 83.95 127.51 83.47C127.51 83.47 127.51 83.47 127.49 83.43C124.31 76.46 128.27 66.5 131.08 60.02C134.21 52.82 138.7 46.16 144.17 40.55C144.74 39.95 145.56 40.89 145.03 41.49C139.64 47.45 135.03 54.66 132.33 62.26C131.02 65.91 129.83 69.7 129.49 73.58C129.24 76.37 129.55 79.15 129.42 81.93C130.82 80.78 132.25 79.68 133.69 78.56C133.07 77.56 134.52 75.98 135.55 76.83C135.61 76.88 135.66 76.92 135.72 76.96C139.87 73.81 144.07 70.74 148.27 67.65C144.55 64.89 147.35 58.15 148.81 54.95C150.88 50.43 153.99 45.71 157.95 42.59C158.5 42.15 159.23 42.93 158.7 43.41C155.56 46.13 153.12 50.01 151.31 53.71C149.08 58.29 148.26 61.9 149.48 66.78C155.21 62.55 160.88 58.24 166.28 53.62C166.91 53.08 167.74 53.99 167.15 54.57C163.51 58.09 159.66 61.39 155.7 64.62C162.78 66.75 170.62 68.55 177.42 64.66C178.25 64.19 178.84 65.45 178.08 65.96C171.07 70.59 162.27 68.88 154.71 66.61C154.34 66.49 154.13 66.24 154.04 65.95C148.71 70.22 143.25 74.33 137.85 78.52C149.95 86.55 166.88 84.01 179.41 78.01C180.36 77.55 181.1 78.99 180.15 79.47C167.04 86.13 148.33 89.34 135.69 80.19C132.3 82.85 128.94 85.56 125.72 88.37C122.56 91.13 119.43 93.9 116.27 96.68C125.02 99.76 135.2 98.95 144.28 98.49C155.47 97.91 166.42 96.33 177.13 92.99C178.13 92.67 178.42 94.24 177.45 94.56C166.01 98.53 154.11 100.65 142.03 101.41C132.54 102.01 122.32 103.1 113.43 99.17C107.22 104.64 101.04 110.16 94.89 115.72C107.94 117.36 120.52 118.99 133.83 117.67C146.6 116.39 159.19 113.8 171.81 111.52C172.68 111.36 172.96 112.66 172.09 112.86C158.2 116 144.38 119.34 130.18 120.72C117.31 121.97 104.47 120.87 91.79 118.49C90.36 119.8 88.88 121.1 87.45 122.4C83.04 126.45 78.58 130.42 74.11 134.36C81.45 137.03 88.82 140.2 96.65 141.04C101.85 141.59 107.09 141.8 112.32 141.64C124.24 141.3 137.61 140.14 147.68 133.13C148.54 132.55 149.6 133.6 148.8 134.35C140.01 142.57 125.37 144.24 113.92 144.9C107.75 145.26 101.37 145.44 95.21 144.56C87.24 143.42 79.89 140.5 72.36 137.81C71.82 137.62 71.49 137.26 71.29 136.87C64.13 143.15 56.94 149.38 49.82 155.7C56.75 161.11 62.78 166.65 71.74 168.97C79.12 170.87 86.77 171.58 94.38 170.99C109.85 169.81 124.6 164.7 138.64 158.34C139.67 157.89 140.45 159.4 139.43 159.89C124.77 167.17 108.94 173.42 92.42 174.45C84.53 174.94 76.43 174.46 68.81 172.16C59.82 169.43 53.88 164.11 46.93 158.33C42.97 161.93 39.12 165.64 35.35 169.4C53.2 184.75 75.5 188.37 98.4 190.12C99.54 190.22 99.45 191.89 98.31 191.9C77.27 192.07 47.52 189.34 32.79 171.98C28.84 176.03 24.98 180.14 21.17 184.36C31.29 189.42 37.99 200.11 49.42 202.77C62.41 205.79 75.94 206.75 89.15 204.72C118.58 200.16 142.95 181.93 163.9 161.68C175.23 150.72 185.38 140.02 189.91 124.56C194.05 110.44 203.64 97.15 201.22 81.8C199.36 69.96 193.19 60.87 188.87 50.03C186.79 44.83 185.36 38.55 187.42 33.32C181.95 34.25 176.16 30.95 171.49 28.12C162.04 22.39 152.42 19.69 141.27 20.42C128.95 21.2 115.88 22.32 103.83 25.05C96.73 26.67 89.44 28.95 83.71 33.66C78.63 37.84 74.42 42.76 69.73 47.34C64.89 52.06 59.27 55.7 54.1 60.04C48.05 65.12 42.73 70.92 38.14 77.38C30.47 88.23 23.44 99.88 17.21 111.63C5.38 133.88 0.89 161.45 16.83 182.72C16.97 182.73 17.11 182.74 17.27 182.78C17.33 182.79 17.41 182.83 17.46 182.85L17.46 182.94Z" fill="#6B9244" fill-opacity="1.000000" fill-rule="nonzero"/>
			<path id="Vector" d="M154 66.01C148.67 70.27 143.21 74.39 137.81 78.57C145.73 83.83 155.7 84.55 165.16 82.74C164.74 80.28 162.92 78.05 160.56 77.23C162.85 76.58 165.23 75.9 167.06 74.35C168.63 73.02 169.68 70.83 169.29 68.85C164.41 69.22 159.33 68.06 154.69 66.65C154.31 66.53 154.1 66.27 154.02 65.99L154 66.01Z" fill="#8AB15D" fill-opacity="1.000000" fill-rule="nonzero"/>
			<path id="Vector" d="M165.59 49.45C162.34 51.62 158.89 54.3 155.02 53.79C153.92 53.64 152.83 53.24 151.75 52.87C151.6 53.16 151.42 53.46 151.29 53.75C149.05 58.33 148.24 61.94 149.46 66.82C155.19 62.59 160.86 58.28 166.26 53.66C166.89 53.12 167.72 54.03 167.12 54.61C163.49 58.13 159.64 61.43 155.67 64.65C159.79 65.9 164.16 66.99 168.44 66.95C168.06 66.41 167.66 65.87 167.39 65.27C165.9 62.09 168.49 58.56 171.1 56.21C173.72 53.87 176.79 51.15 176.49 47.65C173.25 45.48 168.86 47.28 165.62 49.43L165.59 49.45Z" fill="#8AB15D" fill-opacity="1.000000" fill-rule="nonzero"/>
			<path id="Vector" d="M125.68 88.43C122.52 91.18 119.38 93.96 116.23 96.74C124.98 99.81 135.16 99.01 144.24 98.55C145.74 98.48 147.24 98.33 148.72 98.22C148.45 97.86 148.2 97.51 148.04 97.1C147 94.5 149.86 91.9 152.61 91.38C155.36 90.87 158.32 91.43 160.89 90.36C163.15 89.42 164.81 87.2 165.17 84.79C154.92 86.95 143.96 86.29 135.63 80.27C132.23 82.93 128.88 85.64 125.66 88.45L125.68 88.43Z" fill="#8AB15D" fill-opacity="1.000000" fill-rule="nonzero"/>
			<path id="Vector" d="M132.81 61.03C132.64 61.46 132.46 61.88 132.3 62.31C131 65.97 129.81 69.76 129.47 73.64C129.21 76.43 129.52 79.21 129.39 81.99C130.8 80.84 132.22 79.74 133.67 78.62C133.05 77.62 134.5 76.04 135.52 76.89C135.58 76.94 135.64 76.98 135.7 77.02C139.84 73.87 144.04 70.8 148.25 67.71C144.52 64.95 147.33 58.21 148.79 55.01C149.19 54.14 149.64 53.25 150.12 52.37C149.05 52.09 147.98 51.98 146.94 52.36C143.67 53.49 143.17 58.13 140.3 60.07C138.17 61.5 135.45 61.07 132.81 61.03Z" fill="#8AB15D" fill-opacity="1.000000" fill-rule="nonzero"/>
			<path id="Vector" d="M94.87 115.78C105.53 117.13 115.86 118.43 126.55 118.15C126.42 117.88 126.29 117.61 126.14 117.36C124.94 115.43 123.01 114.09 121.11 112.8C129.48 109.85 137.87 106.92 146.24 103.97C147.86 103.4 149.77 102.38 149.87 100.75C147.25 101.05 144.64 101.29 142 101.47C132.51 102.07 122.3 103.16 113.4 99.22C107.19 104.7 101.02 110.22 94.87 115.78Z" fill="#8AB15D" fill-opacity="1.000000" fill-rule="nonzero"/>
			<path id="Vector" d="M21.12 184.44C29.65 188.7 35.78 196.96 44.32 201.03C45.5 200.85 46.57 200.41 47.32 199.52C48.56 198.05 48.48 195.89 49.39 194.19C50.74 191.7 53.96 190.82 56.8 191.02C59.63 191.21 62.35 192.27 65.18 192.54C67.73 192.78 70.6 192.21 72.27 190.32C57.08 188.04 41.97 182.91 32.75 172.04C28.8 176.09 24.93 180.2 21.12 184.42L21.12 184.44Z" fill="#8AB15D" fill-opacity="1.000000" fill-rule="nonzero"/>
			<path id="Vector" d="M17.26 182.87C17.26 182.87 17.4 182.91 17.46 182.93C21.43 177.88 25.79 173.12 30.37 168.58C26.01 161.79 22.7 154.17 20.91 146.36C20.01 142.42 19 138.18 18.97 134.06C17.03 137.22 16.34 141.18 16.2 144.95C16 149.86 16.51 154.89 15.26 159.65C14.15 163.89 11.71 167.71 10.66 171.98C12.22 175.71 14.22 179.33 16.8 182.78C16.94 182.79 17.08 182.8 17.24 182.84L17.26 182.87Z" fill="#8AB15D" fill-opacity="1.000000" fill-rule="nonzero"/>
			<path id="Vector" d="M68.79 172.24C59.8 169.51 53.86 164.19 46.91 158.41C42.94 162.01 39.1 165.72 35.33 169.48C46.53 179.11 59.51 184.12 73.27 186.95C73.02 185.07 71.67 183.33 69.78 183.52C76.03 183.21 82.22 181.67 87.87 178.97C90.23 177.85 92.55 176.49 94.08 174.39C94.08 174.39 94.08 174.39 94.08 174.37C93.52 174.42 92.95 174.51 92.36 174.55C84.47 175.04 76.36 174.55 68.74 172.25L68.79 172.24Z" fill="#8AB15D" fill-opacity="1.000000" fill-rule="nonzero"/>
			<path id="Vector" d="M82.9 122.15C82.36 122.16 81.85 121.88 81.76 121.21C80.31 111.35 79.96 100.89 81.28 90.8C80.03 91.79 78.97 93.15 78.38 94.62C76.98 98.12 77.24 102.03 76.58 105.73C75.92 109.43 73.76 113.4 70.05 114.09C65.38 108.85 61.55 99.83 56.55 100.26C56.46 100.8 56.35 101.32 56.29 101.86C55.25 109.68 54.79 117.79 56.19 125.58C57.18 131.12 59.62 135.77 61.44 140.84C68.63 134.67 75.81 128.45 82.9 122.15Z" fill="#8AB15D" fill-opacity="1.000000" fill-rule="nonzero"/>
			<path id="Vector" d="M85.24 120.06C86.82 118.64 88.42 117.27 90 115.87C90.13 115.71 90.26 115.58 90.44 115.49C95.2 111.25 99.96 107.02 104.78 102.85C104.15 102.56 103.65 101.93 103.81 101.07C104.79 95.81 103.19 90.41 104.35 85.22C105.42 80.37 106.84 75.53 108.36 70.78C103.11 74.26 101.69 80.88 99.04 86.94C97.79 89.77 96.13 93.4 93.04 93.13C90.74 92.94 89.28 90.56 87.19 89.65C86.26 89.24 85.27 89.17 84.32 89.35C83.56 94.7 83.24 100.09 83.79 105.51C84.28 110.23 85.82 116.34 84.23 120.96C84.57 120.65 84.9 120.37 85.24 120.08L85.24 120.06Z" fill="#8AB15D" fill-opacity="1.000000" fill-rule="nonzero"/>
			<path id="Vector" d="M58.87 143.04C55.05 138.22 53.59 130.26 53.03 124.56C52.27 116.78 52.74 109.1 53.99 101.41C48.76 105.34 47.14 116.01 46.43 124.67C45.35 122 42.03 120.9 39.21 121.57C39.26 127.42 39.95 133.2 40.6 139.04C41.22 144.72 41.86 150.52 44.33 155.68C44.52 155.51 44.73 155.34 44.92 155.15C45.14 154.37 45.76 153.77 46.52 153.75C46.69 153.6 46.86 153.46 47.01 153.31C50.96 149.87 54.92 146.44 58.89 143.02L58.87 143.04Z" fill="#8AB15D" fill-opacity="1.000000" fill-rule="nonzero"/>
			<path id="Vector" d="M49.78 155.76C56.7 161.17 62.73 166.7 71.7 169.03C79.08 170.93 86.73 171.64 94.34 171.05C94.73 171.03 95.11 170.96 95.5 170.92C95.7 169.58 95.5 168.22 94.81 167.06C93.54 164.98 91.04 164.07 88.76 163.24C86.48 162.4 84.01 161.24 83.09 158.98C82.17 156.71 84.72 152.8 87.09 153.31C95.96 155.25 105.66 151.79 111.69 145.08C106.21 145.34 100.62 145.4 95.19 144.64C87.22 143.5 79.87 140.58 72.33 137.89C71.8 137.7 71.47 137.34 71.27 136.95C64.11 143.23 56.91 149.46 49.8 155.78L49.78 155.76Z" fill="#8AB15D" fill-opacity="1.000000" fill-rule="nonzero"/>
			<path id="Vector" d="M87.43 122.48C83.02 126.53 78.55 130.5 74.09 134.44C81.43 137.11 88.8 140.28 96.63 141.12C101.83 141.67 107.06 141.88 112.3 141.72C112.94 141.71 113.59 141.68 114.24 141.65C114.43 141.34 114.65 141.02 114.83 140.69C111.01 137.75 107.18 134.8 103.36 131.85C109.65 129.83 115.96 127.81 122.25 125.79C123.64 125.35 125.12 124.86 126.08 123.73C126.74 122.98 127.05 122 127.1 121C115.26 121.81 103.45 120.72 91.79 118.56C90.35 119.86 88.88 121.16 87.45 122.46L87.43 122.48Z" fill="#8AB15D" fill-opacity="1.000000" fill-rule="nonzero"/>
			<path id="Vector" d="M29.04 160.39C30.21 162.44 31.43 164.41 32.51 166.46C35.59 163.48 38.75 160.6 41.94 157.77C38.65 151.74 38.21 144.52 37.56 137.79C37.09 132.78 36.51 127.88 36.49 122.89C34.18 124.82 33.04 128.01 32.97 131.08C32.91 134.56 34.04 137.95 35.17 141.25C29.72 139.36 24.78 135.91 21.13 131.44C21.07 131.5 21.03 131.56 20.99 131.6C21.01 135.67 21.61 139.68 22.63 143.64C24.13 149.44 26.06 155.14 29.04 160.36L29.04 160.39Z" fill="#8AB15D" fill-opacity="1.000000" fill-rule="nonzero"/>
			<path id="Vector" d="M125.78 84.92C126.35 84.45 126.94 83.99 127.5 83.51C127.5 83.51 127.5 83.51 127.49 83.47C124.47 76.87 127.86 67.59 130.62 61.13C130.01 61.22 129.42 61.33 128.87 61.57C122.03 64.43 123.39 76.74 116.39 79.19C116.24 76.91 112.83 73.48 110.74 71.16C110.62 71.58 110.5 72.01 110.38 72.43C108.98 77.77 106.67 83.75 106.93 89.31C107.11 93.3 107.57 97.17 106.82 101.07C108.57 99.56 110.33 98.09 112.08 96.6C112.3 96.23 112.61 95.94 113 95.82C117.27 92.17 121.5 88.51 125.8 84.9L125.78 84.92Z" fill="#8AB15D" fill-opacity="1.000000" fill-rule="nonzero"/>
			<path id="Vector" d="M105.38 200.78C127.69 193.23 146.9 178.16 163.86 161.78C175.19 150.82 185.34 140.12 189.87 124.66C194.01 110.53 203.59 97.25 201.17 81.9C199.32 70.05 193.15 60.97 188.82 50.13C186.75 44.93 185.31 38.64 187.38 33.42C181.9 34.35 176.11 31.05 171.44 28.22C161.99 22.49 152.38 19.79 141.23 20.51C128.9 21.3 115.84 22.42 103.79 25.15C96.69 26.77 89.4 29.05 83.67 33.76C78.59 37.94 74.38 42.86 69.68 47.44C64.84 52.15 59.22 55.8 54.05 60.14C48 65.21 42.68 71.01 38.1 77.47C36.93 79.11 35.82 80.82 34.69 82.5C37.61 80.62 40.41 78.61 42.63 75.95C45.9 72.03 47.74 66.82 51.94 63.89C56.38 60.79 62.51 60.96 66.93 57.84C72.29 54.06 73.93 46.33 79.6 43.03C84.12 40.4 89.92 41.36 94.83 39.56C100.54 37.47 104.27 31.95 109.52 28.91C116.18 25.05 124.4 25.57 132.08 26.19C144.6 27.21 157.22 28.25 169.3 31.65C173.54 32.84 177.96 34.5 180.64 38.02C182.88 40.95 183.59 44.74 184.22 48.38C185.97 58.35 187.72 68.31 189.44 78.3C190.55 84.67 191.62 91.46 189.18 97.43C187.47 101.63 184.16 105.04 182.74 109.35C180.5 116.27 183.48 124.48 179.77 130.72C177.54 134.49 173.32 136.61 170.42 139.88C167.29 143.4 165.79 148.29 166.37 152.94C150.97 170.61 131.29 185.29 111.12 197.2C109.16 198.36 107.17 199.5 105.32 200.8L105.38 200.78Z" fill="#8AB15D" fill-opacity="1.000000" fill-rule="nonzero"/>
			<path id="Vector" d="M188.53 136.98C191.36 131.41 192.8 125.34 194.83 119.47C197.43 111.95 201.27 104.97 203.49 97.31C206.87 85.64 203.18 73.18 198.36 62.5C193.65 52.09 186.43 43.64 190.47 32.39C190.86 32.19 191.24 31.97 191.63 31.72C192.97 30.82 192.31 28.85 190.98 28.87C190.82 28.82 190.64 28.83 190.43 28.94C190.39 28.98 190.33 29 190.29 29.04C181.62 33.51 172.11 24.02 164.52 20.63C154.25 16.07 142.77 16.79 131.9 18.07C118.73 19.63 105.34 20.41 92.78 24.97C79.31 29.86 71.62 42.35 60.8 50.93C54.68 55.79 48.54 60.18 43.17 65.91C38.11 71.3 33.84 77.43 29.86 83.62C22.37 95.19 15.18 107.21 9.4 119.73C0.56 138.96 -1.18 168.45 15.11 184.5C15.09 184.88 15.23 185.25 15.46 185.56L17.5 182.92C17.5 182.92 17.36 182.87 17.3 182.85C17.14 182.8 17 182.81 16.86 182.79C0.91 161.51 5.42 133.97 17.25 111.69C23.5 99.94 30.51 88.29 38.18 77.44C42.74 70.98 48.06 65.18 54.13 60.1C59.3 55.76 64.9 52.14 69.77 47.4C74.46 42.83 78.67 37.9 83.75 33.72C89.48 29.01 96.75 26.74 103.87 25.12C115.92 22.36 128.99 21.26 141.31 20.48C152.44 19.75 162.05 22.47 171.53 28.19C176.19 31.01 181.99 34.31 187.46 33.38C185.39 38.61 186.83 44.87 188.9 50.09C193.21 60.93 199.4 70.02 201.26 81.87C203.65 97.21 194.09 110.48 189.95 124.62C185.42 140.09 175.29 150.8 163.94 161.74C142.99 181.99 118.62 200.22 89.19 204.78C75.98 206.83 62.43 205.85 49.46 202.83C38.03 200.17 31.33 189.48 21.2 184.42L18.62 187.33C29.86 193.21 37.03 204.26 50.08 207.3C61.97 210.06 74.3 210.71 86.41 209.33C114.81 206.07 138.41 189.46 159.09 170.77C169.97 160.94 181.91 150.23 188.62 136.97L188.53 136.98Z" fill="#517433" fill-opacity="1.000000" fill-rule="nonzero"/>
			<path id="Vector" d="M32.74 172.06C47.48 189.4 77.22 192.15 98.27 191.97C99.4 191.97 99.5 190.3 98.35 190.2C75.46 188.45 53.16 184.83 35.31 169.48C39.06 165.7 42.92 162.01 46.89 158.41C53.84 164.18 59.78 169.51 68.77 172.24C76.38 174.53 84.47 175.04 92.38 174.53C108.87 173.49 124.72 167.22 139.39 159.97C140.4 159.48 139.63 157.95 138.6 158.42C124.56 164.78 109.81 169.87 94.34 171.07C86.73 171.66 79.07 170.95 71.7 169.05C62.75 166.73 56.7 161.19 49.78 155.78C56.89 149.46 64.09 143.23 71.25 136.95C71.45 137.36 71.78 137.7 72.31 137.89C79.87 140.58 87.2 143.49 95.17 144.64C101.32 145.52 107.71 145.34 113.88 144.98C125.31 144.31 139.95 142.67 148.75 134.43C149.55 133.68 148.49 132.62 147.64 133.21C137.58 140.22 124.19 141.38 112.28 141.72C107.04 141.87 101.81 141.67 96.61 141.12C88.78 140.28 81.41 137.09 74.07 134.44C78.55 130.5 83.02 126.53 87.41 122.48C88.84 121.16 90.31 119.88 91.75 118.57C104.43 120.93 117.26 122.04 130.13 120.8C144.32 119.41 158.16 116.1 172.04 112.94C172.92 112.74 172.62 111.44 171.76 111.6C159.15 113.88 146.56 116.47 133.79 117.74C120.45 119.07 107.9 117.44 94.84 115.8C100.98 110.24 107.15 104.72 113.38 99.24C122.27 103.18 132.49 102.09 141.98 101.49C154.06 100.73 165.96 98.61 177.41 94.64C178.37 94.3 178.08 92.75 177.08 93.07C166.37 96.41 155.42 97.99 144.24 98.57C135.18 99.05 124.97 99.83 116.22 96.76C119.38 94 122.5 91.2 125.68 88.45C128.92 85.64 132.25 82.93 135.65 80.27C148.31 89.42 167.02 86.23 180.1 79.55C181.05 79.07 180.32 77.63 179.37 78.08C166.83 84.11 149.91 86.63 137.8 78.59C143.21 74.41 148.67 70.29 153.99 66.03C154.08 66.31 154.29 66.57 154.67 66.68C162.23 68.96 171 70.67 178.04 66.04C178.81 65.53 178.21 64.27 177.38 64.74C170.59 68.63 162.73 66.85 155.65 64.69C159.6 61.47 163.47 58.16 167.1 54.65C167.7 54.07 166.87 53.16 166.24 53.7C160.84 58.32 155.16 62.63 149.44 66.86C148.22 61.98 149.03 58.37 151.27 53.79C153.08 50.09 155.52 46.23 158.65 43.49C159.2 43.01 158.47 42.25 157.91 42.67C153.97 45.79 150.84 50.48 148.77 55.03C147.3 58.23 144.5 64.97 148.22 67.73C144.04 70.82 139.84 73.89 135.68 77.04C135.62 77 135.56 76.95 135.5 76.91C134.48 76.06 133.03 77.62 133.65 78.64C132.22 79.74 130.8 80.86 129.37 82.01C129.5 79.23 129.19 76.47 129.44 73.66C129.79 69.78 130.98 65.98 132.28 62.33C134.98 54.76 139.6 47.53 144.99 41.57C145.54 40.97 144.72 40.03 144.12 40.62C138.65 46.23 134.16 52.88 131.04 60.1C128.23 66.56 124.26 76.54 127.44 83.51C127.44 83.51 127.44 83.51 127.46 83.55C126.9 84.03 126.31 84.48 125.74 84.96C121.43 88.57 117.21 92.22 112.94 95.87C112.55 96 112.23 96.28 112.01 96.66C110.27 98.15 108.5 99.64 106.76 101.13C107.51 97.23 107.05 93.35 106.87 89.37C106.63 83.81 108.91 77.83 110.32 72.49C113.47 60.43 117.78 49.06 126.31 39.76C126.78 39.24 126.11 38.48 125.56 38.94C117.06 46.42 112.69 57.23 109.25 67.76C107.38 73.48 105.59 79.39 104.28 85.26C103.13 90.45 104.73 95.85 103.75 101.11C103.59 101.97 104.09 102.6 104.72 102.89C99.9 107.06 95.14 111.29 90.38 115.52C90.21 115.62 90.07 115.75 89.94 115.91C88.36 117.3 86.76 118.68 85.18 120.1C84.84 120.4 84.51 120.69 84.17 120.98C85.78 116.35 84.21 110.25 83.73 105.52C82.91 97.39 83.92 89.27 85.67 81.33C88.62 67.91 94.37 55.29 99.76 42.72C100.08 41.94 98.8 41.36 98.44 42.11C92.41 54.51 86.78 67.2 83.22 80.56C79.76 93.57 79.72 107.96 81.68 121.22C81.79 121.89 82.3 122.18 82.82 122.16C75.72 128.47 68.55 134.66 61.36 140.86C59.52 135.79 57.1 131.11 56.11 125.6C54.71 117.78 55.17 109.7 56.21 101.88C58.29 86.14 64.13 70.52 72.57 57.1C72.92 56.53 72.08 55.99 71.69 56.53C62.83 69.39 56.82 84.62 54.12 99.98C52.68 108.17 52.15 116.31 52.95 124.58C53.51 130.28 54.99 138.23 58.79 143.05C54.82 146.48 50.86 149.9 46.91 153.34C46.74 153.5 46.57 153.63 46.42 153.78C45.65 153.81 45.04 154.41 44.82 155.18C44.63 155.35 44.42 155.53 44.23 155.72C41.75 150.56 41.12 144.76 40.5 139.08C39.75 132.33 38.88 125.67 39.1 118.84C39.6 103.73 45.32 89.5 53.04 76.73C53.48 76.01 52.42 75.33 51.93 76.03C43.47 88.08 38.28 102.14 36.68 116.77C35.9 123.89 36.8 130.79 37.47 137.87C38.1 144.59 38.57 151.8 41.85 157.85C38.67 160.68 35.51 163.58 32.42 166.54C31.33 164.49 30.13 162.49 28.96 160.46C25.98 155.24 24.07 149.54 22.55 143.74C21.32 138.98 20.66 134.14 20.92 129.23C21.11 125.23 21.63 121.52 20.8 117.57C20.72 117.18 20.3 117.12 20.03 117.31C19.16 117.89 18.32 118.52 17.54 119.21C17.52 119.23 17.54 119.27 17.58 119.25C20.72 116.86 19.7 125.08 19.68 125.2C19.39 127.83 19 130.41 18.9 133.07C18.73 137.5 19.9 142.16 20.87 146.44C22.63 154.25 25.97 161.87 30.32 168.66C25.73 173.2 21.37 177.96 17.42 183.01L15.38 185.66C14.23 187.2 13.11 188.78 12.06 190.39C11.19 191.72 13.17 193.44 14.24 192.2C15.65 190.6 17.07 189.03 18.48 187.42L21.06 184.52C24.87 180.3 28.74 176.17 32.68 172.14L32.74 172.06Z" fill="#517433" fill-opacity="1.000000" fill-rule="nonzero"/>
		</g>
	</g>
</svg>
