<svg width="300.000000" height="299.000000" viewBox="0 0 300 299" fill="none" xmlns="http://www.w3.org/2000/svg" xmlns:xlink="http://www.w3.org/1999/xlink">
	<desc>
			Created with Pixso.
	</desc>
	<defs>
		<clipPath id="clip92_4927">
			<rect id="green leaf element" width="267.000000" height="269.000000" transform="translate(0.000000 264.963135) rotate(-82.918320)" fill="white" fill-opacity="0"/>
		</clipPath>
	</defs>
	<g opacity="0.500000">
		<rect id="green leaf element" width="267.000000" height="269.000000" transform="translate(0.000000 264.963135) rotate(-82.918320)" fill="#FFFFFF" fill-opacity="0"/>
		<g clip-path="url(#clip92_4927)">
			<path id="Vector" d="M228.52 266.1C230.4 267.74 232.34 269.35 234.32 270.86C235.96 272.12 238.39 269.73 236.89 268.22C234.94 266.24 233.06 264.24 231.11 262.25C239.84 248.26 254.88 240.07 260.11 223.46C264.87 208.31 266.93 192.38 266.34 176.55C264.93 139.41 245.73 107.17 223.55 78.51C211.88 63.44 199.17 46.89 182.65 36.89C175.7 32.68 167.98 30.21 160.56 26.99C151.07 22.88 142.4 17.21 132.69 13.58C117.9 8.05 101.38 11.59 87.06 16.78C73.1 21.86 61.43 30.39 47.25 24.03C47.02 23.5 46.77 23 46.49 22.46C45.45 20.64 42.83 21.29 42.72 23.02C42.65 23.22 42.64 23.46 42.77 23.74C42.81 23.8 42.83 23.88 42.87 23.94C47.81 35.61 34.57 47.01 29.43 56.51C22.5 69.38 22.3 84.32 22.89 98.55C23.6 115.77 23.28 133.21 27.96 149.95C32.96 167.89 48.39 179.1 58.45 193.97C64.14 202.38 69.22 210.78 76.12 218.31C82.61 225.4 90.14 231.54 97.76 237.32C112.02 248.17 126.9 258.68 142.55 267.41C166.61 280.77 204.67 285.95 227.08 266.43C227.57 266.49 228.07 266.34 228.5 266.07L228.52 266.1Z" fill="#AEBFAC" fill-opacity="1.000000" fill-rule="nonzero"/>
			<path id="Vector" d="M237.92 273.13C231.75 267.48 226.02 261.36 220.58 254.98C211.36 259.96 201.15 263.49 190.84 265.04C185.2 265.87 179.04 266.95 173.32 266.27C169.89 265.84 166.6 265.12 163.19 264.48C163.03 264.46 152.48 262.31 155.27 266.61C155.29 266.64 155.26 266.69 155.21 266.66C154.39 265.58 153.64 264.43 153 263.24C152.75 262.87 152.9 262.33 153.41 262.26C158.62 261.56 163.37 262.6 168.54 263.27C174.89 264.06 181.21 263.71 187.51 262.59C195.17 261.22 202.75 259.28 209.82 255.94C212.6 254.62 215.28 253.24 218.04 252.05C214.48 247.75 211.07 243.37 207.71 238.96C199.57 242.63 190.16 242.49 181.37 242.66C172.14 242.84 163.1 243.32 153.94 241.6C135.13 238.08 117.42 229.97 102.64 217.81C101.81 217.1 102.76 215.79 103.66 216.43C119.44 227.71 137.33 236.53 156.87 238.67C165.67 239.63 174.42 239.16 183.25 238.86C190.67 238.62 198.25 238.37 205.19 235.67C204.98 235.4 204.78 235.12 204.55 234.85C203.56 234.49 202.85 233.64 202.9 232.64C202.71 232.4 202.56 232.17 202.37 231.97C198.3 226.5 194.25 221.03 190.21 215.54C183.58 220.02 173.12 221.12 165.68 221.28C154.88 221.52 144.35 220 133.91 217.33C114.26 212.31 95.11 203.01 79.32 190.25C78.65 189.69 79.41 188.65 80.14 189.17C96.71 201.41 116.38 210.54 136.57 214.81C146.6 216.93 157.07 218.34 167.31 217.29C174.58 216.55 180.86 213.85 187.61 211.99C180.32 202.06 172.97 192.14 165.5 182.32C165.47 183.03 165.05 183.66 164.17 183.71C146.78 184.93 128.13 183.48 111.61 177.68C94.66 171.75 78.75 163.2 63.26 154.15C62.33 153.61 63.24 151.98 64.18 152.49C79.95 160.73 95.72 169.42 112.84 174.59C122.97 177.64 133.4 179.76 144.02 179.49C150.19 179.33 158.26 177.93 164.1 180.45C163.74 179.99 163.4 179.52 163.06 179.06C161.38 176.87 159.75 174.66 158.09 172.47C157.91 172.29 157.74 172.11 157.64 171.86C152.63 165.27 147.61 158.68 142.68 152.03C142.24 152.82 141.38 153.39 140.28 153.1C133.56 151.32 126.39 152.85 119.78 150.84C112.27 148.57 104.82 145.69 97.59 142.67C84.28 137.17 70.7 130.44 61.84 118.67C61.27 117.91 62.35 117.12 62.98 117.78C74.19 129.76 88.54 136.46 103.83 141.76C110.61 144.11 118.14 147.68 125.37 147.9C130.55 148.06 135.62 147.85 140.6 149.21C138.82 146.79 137.09 144.36 135.33 141.95C134.86 141.63 134.52 141.19 134.4 140.67C130.09 134.78 125.77 128.94 121.52 123C120.96 122.21 120.43 121.41 119.86 120.63C119.86 120.63 119.86 120.63 119.81 120.65C110.46 124.08 97.94 117.95 89.81 113.67C80.79 108.91 72.59 102.42 65.86 94.78C65.14 93.97 66.45 93 67.18 93.75C74.37 101.32 83.25 108.03 92.84 112.28C97.44 114.33 102.24 116.25 107.24 117.08C110.83 117.68 114.46 117.55 118.05 118C116.71 116.06 115.42 114.11 114.11 112.12C112.75 112.83 110.84 110.79 112.05 109.54C112.11 109.47 112.18 109.4 112.24 109.33C108.56 103.65 105 97.9 101.41 92.14C97.46 96.7 89 92.4 84.99 90.18C79.34 87.05 73.53 82.55 69.88 77.11C69.36 76.36 70.45 75.49 71.02 76.22C74.23 80.56 79.02 84.11 83.64 86.82C89.35 90.17 93.95 91.59 100.4 90.49C95.49 82.64 90.46 74.86 85 67.4C84.37 66.53 85.62 65.55 86.31 66.37C90.52 71.44 94.42 76.75 98.21 82.21C101.67 73.25 104.79 63.26 100.41 54.05C99.89 52.93 101.58 52.3 102.17 53.32C107.47 62.88 104.39 74.11 100.69 83.68C100.5 84.16 100.15 84.41 99.77 84.49C104.78 91.82 109.58 99.31 114.46 106.73C126.08 91.83 124.46 69.63 117.91 52.8C117.41 51.52 119.36 50.71 119.89 51.99C127.23 69.64 129.53 94.21 116.42 109.69C119.53 114.35 122.71 118.97 126.04 123.43C129.3 127.79 132.59 132.13 135.87 136.5C140.73 125.46 140.69 112.18 140.99 100.36C141.35 85.81 140.39 71.46 137.11 57.24C136.8 55.91 138.86 55.69 139.18 56.97C143.2 72.2 144.77 87.84 144.56 103.58C144.39 115.94 144.79 129.29 138.82 140.43C145.3 149.02 151.84 157.57 158.44 166.1C161.87 149.34 165.22 133.2 164.82 115.81C164.43 99.13 162.32 82.55 160.61 65.97C160.49 64.82 162.2 64.58 162.38 65.74C165.07 84.05 168.03 102.29 168.42 120.85C168.76 137.66 166.07 154.19 161.73 170.39C163.28 172.38 164.82 174.42 166.37 176.41C171.18 182.52 175.88 188.7 180.55 194.88C184.74 185.63 189.58 176.39 191.44 166.32C192.67 159.64 193.45 152.87 193.77 146.07C194.51 130.59 194.32 113.14 186.24 99.38C185.56 98.21 187.04 96.95 187.93 98.06C197.72 110.26 198.43 129.41 198.16 144.32C198.01 152.35 197.61 160.64 195.86 168.53C193.59 178.76 189.09 187.99 184.85 197.5C184.55 198.18 184.05 198.56 183.52 198.79C190.95 208.69 198.33 218.63 205.81 228.49C213.52 220.04 221.28 212.77 225.18 201.38C228.38 192 230.05 182.15 230.04 172.23C230.04 152.05 224.88 132.43 218.03 113.6C217.54 112.22 219.57 111.36 220.12 112.73C228.09 132.46 234.63 153.6 234.33 175.11C234.19 185.39 232.76 195.85 229.03 205.5C224.6 216.88 217.11 224.05 208.93 232.49C213.21 237.99 217.65 243.34 222.14 248.6C243.81 226.98 250.71 198.42 255.25 168.91C255.48 167.44 257.64 167.73 257.53 169.2C255.67 196.5 249.2 234.8 225.23 252.18C230.09 257.69 235.04 263.11 240.13 268.47C247.7 255.84 262.21 248.22 266.79 233.66C271.99 217.12 274.58 199.67 273.25 182.34C270.25 143.74 249.03 110.35 224.85 81.18C211.76 65.41 198.9 51.19 179.31 43.79C161.4 37.03 145.13 23.28 125 24.9C109.45 26.14 97.06 33.23 82.58 37.77C75.63 39.94 67.35 41.18 60.77 37.99C61.44 45.17 56.58 52.36 52.46 58.13C44.09 69.82 39.65 82.01 39.48 96.54C39.28 112.59 39.43 129.64 41.79 145.54C43.19 154.9 45.42 164.57 50.96 172.47C55.87 179.47 61.84 185.41 67.31 191.95C72.94 198.7 77.11 206.35 82.22 213.47C88.2 221.82 95.2 229.29 103.12 235.87C116.43 246.9 130.83 257.16 145.45 266.4C173.13 283.93 208.42 292.49 237.58 273.93C237.6 273.75 237.62 273.57 237.7 273.37C237.71 273.29 237.78 273.19 237.81 273.12L237.92 273.13Z" fill="#6B9244" fill-opacity="1.000000" fill-rule="nonzero"/>
			<path id="Vector" d="M99.84 84.56C104.85 91.88 109.65 99.37 114.53 106.79C122.13 97.04 124.05 84.18 122.64 71.73C119.4 72.04 116.34 74.17 115.05 77.15C114.42 74.12 113.78 70.97 111.96 68.45C110.38 66.28 107.64 64.69 105.04 65.01C105.05 71.37 103.03 77.85 100.74 83.72C100.55 84.19 100.2 84.44 99.82 84.53L99.84 84.56Z" fill="#8AB15D" fill-opacity="1.000000" fill-rule="nonzero"/>
			<path id="Vector" d="M79.53 67.88C82.01 72.31 85.15 77.05 84.11 82.02C83.8 83.43 83.18 84.81 82.59 86.16C82.96 86.39 83.32 86.65 83.69 86.85C89.4 90.2 94 91.62 100.45 90.52C95.54 82.67 90.51 74.9 85.05 67.43C84.42 66.56 85.67 65.58 86.36 66.41C90.57 71.47 94.47 76.79 98.26 82.25C100.28 77.03 102.13 71.48 102.5 65.93C101.76 66.37 101.02 66.83 100.21 67.12C95.95 68.73 91.63 65.03 88.83 61.41C86.06 57.79 82.84 53.53 78.27 53.57C75.13 57.57 77.04 63.43 79.5 67.85L79.53 67.88Z" fill="#8AB15D" fill-opacity="1.000000" fill-rule="nonzero"/>
			<path id="Vector" d="M126.11 123.49C129.37 127.85 132.66 132.19 135.94 136.56C140.8 125.52 140.76 112.24 141.07 100.42C141.12 98.48 141.08 96.52 141.08 94.59C140.59 94.9 140.11 95.18 139.56 95.35C136.09 96.45 133 92.48 132.6 88.86C132.21 85.25 133.23 81.47 132.1 78.03C131.1 75 128.39 72.63 125.31 71.93C127.09 85.43 125.14 99.58 116.51 109.78C119.63 114.45 122.8 119.06 126.13 123.52L126.11 123.49Z" fill="#8AB15D" fill-opacity="1.000000" fill-rule="nonzero"/>
			<path id="Vector" d="M91.29 111.53C91.84 111.79 92.36 112.06 92.91 112.31C97.51 114.36 102.32 116.28 107.31 117.11C110.91 117.72 114.54 117.59 118.13 118.03C116.78 116.1 115.49 114.14 114.18 112.16C112.83 112.86 110.92 110.83 112.13 109.58C112.19 109.51 112.25 109.44 112.31 109.36C108.64 103.68 105.07 97.93 101.48 92.18C97.54 96.73 89.07 92.43 85.07 90.22C83.98 89.61 82.88 88.94 81.78 88.23C81.32 89.59 81.07 90.96 81.45 92.36C82.6 96.7 88.56 97.81 90.79 101.73C92.44 104.63 91.61 108.11 91.29 111.53Z" fill="#8AB15D" fill-opacity="1.000000" fill-rule="nonzero"/>
			<path id="Vector" d="M158.51 166.14C161.32 152.44 164.03 139.18 164.72 125.3C164.36 125.44 164 125.58 163.66 125.75C161.04 127.11 159.1 129.49 157.26 131.82C154.26 120.67 151.29 109.51 148.29 98.36C147.72 96.21 146.58 93.64 144.48 93.35C144.61 96.77 144.66 100.18 144.63 103.61C144.47 115.97 144.87 129.33 138.89 140.47C145.37 149.06 151.92 157.61 158.51 166.14Z" fill="#8AB15D" fill-opacity="1.000000" fill-rule="nonzero"/>
			<path id="Vector" d="M240.23 268.53C246.6 257.89 257.91 250.77 264.04 240.1C263.91 238.55 263.46 237.13 262.38 236.07C260.59 234.31 257.78 234.2 255.67 232.86C252.57 230.86 251.75 226.59 252.29 222.93C252.82 219.28 254.46 215.86 255.09 212.22C255.66 208.94 255.21 205.16 252.91 202.81C248.46 222.27 240.31 241.35 225.31 252.24C230.16 257.75 235.11 263.17 240.2 268.53L240.23 268.53Z" fill="#8AB15D" fill-opacity="1.000000" fill-rule="nonzero"/>
			<path id="Vector" d="M237.81 273.38C237.81 273.38 237.88 273.21 237.92 273.13C231.75 267.48 226.02 261.36 220.58 254.98C211.36 259.96 201.15 263.49 190.84 265.04C185.65 265.82 180.05 266.71 174.71 266.34C178.61 269.17 183.68 270.46 188.54 271.01C194.9 271.75 201.46 271.59 207.51 273.68C212.91 275.54 217.61 279.08 223.04 280.87C228.03 279.22 232.93 276.97 237.65 273.97C237.68 273.79 237.7 273.6 237.78 273.4L237.81 273.38Z" fill="#8AB15D" fill-opacity="1.000000" fill-rule="nonzero"/>
			<path id="Vector" d="M229.13 205.54C224.7 216.92 217.21 224.09 209.03 232.53C213.32 238.02 217.75 243.38 222.24 248.64C235.83 235.07 243.62 218.74 248.65 201.18C246.18 201.32 243.79 202.9 243.85 205.36C244.07 197.23 242.69 189.06 239.75 181.46C238.53 178.3 236.99 175.15 234.42 172.95C234.42 172.95 234.42 172.95 234.39 172.95C234.4 173.69 234.47 174.44 234.45 175.2C234.31 185.48 232.88 195.94 229.15 205.59L229.13 205.54Z" fill="#8AB15D" fill-opacity="1.000000" fill-rule="nonzero"/>
			<path id="Vector" d="M165.59 182.28C165.55 182.98 165.13 183.62 164.25 183.67C151.34 184.57 137.73 183.99 124.79 181.27C125.95 183 127.61 184.5 129.45 185.42C133.86 187.57 138.95 187.63 143.68 188.85C148.41 190.07 153.35 193.27 153.88 198.14C146.61 203.68 134.54 207.75 134.6 214.28C135.3 214.44 135.96 214.63 136.66 214.77C146.69 216.89 157.15 218.3 167.4 217.24C174.67 216.51 180.95 213.81 187.7 211.95C180.4 202.02 173.06 192.1 165.59 182.28Z" fill="#8AB15D" fill-opacity="1.000000" fill-rule="nonzero"/>
			<path id="Vector" d="M163.11 179.04C161.43 176.85 159.81 174.64 158.15 172.46C157.96 172.27 157.8 172.09 157.7 171.84C152.68 165.25 147.67 158.66 142.74 152.01C142.3 152.8 141.43 153.38 140.33 153.08C133.61 151.3 126.45 152.83 119.83 150.82C113.65 148.95 107.52 146.63 101.52 144.19C105.51 151.34 113.94 153.84 121.55 157.88C125.09 159.77 129.63 162.28 128.98 166.27C128.51 169.22 125.26 170.88 123.88 173.5C123.26 174.67 123.08 175.94 123.21 177.2C130.07 178.71 137.03 179.65 144.1 179.48C150.27 179.32 158.34 177.92 164.18 180.44C163.82 179.97 163.48 179.51 163.14 179.04L163.11 179.04Z" fill="#8AB15D" fill-opacity="1.000000" fill-rule="nonzero"/>
			<path id="Vector" d="M190.29 215.5C183.66 219.98 173.2 221.08 165.77 221.24C155.6 221.46 145.68 220.09 135.84 217.71C140.42 224.88 154.1 228.03 165.26 229.81C161.68 230.95 159.92 235.14 160.51 238.86C168.11 239.38 175.67 239.05 183.31 238.78C190.73 238.54 198.31 238.3 205.25 235.6C205.04 235.33 204.84 235.04 204.61 234.78C203.63 234.42 202.91 233.56 202.96 232.57C202.78 232.33 202.62 232.1 202.43 231.89C198.36 226.42 194.31 220.96 190.27 215.47L190.29 215.5Z" fill="#8AB15D" fill-opacity="1.000000" fill-rule="nonzero"/>
			<path id="Vector" d="M205.89 228.55C213.59 220.11 221.36 212.83 225.25 201.44C228.45 192.07 230.12 182.21 230.12 172.29C230.13 171.79 230.08 171.28 230.07 170.78C228.35 170.38 226.56 170.5 224.99 171.28C222.17 172.73 220.75 175.88 219.44 178.75C218.13 181.62 216.38 184.7 213.35 185.68C210.33 186.65 205.5 182.96 206.41 179.93C209.79 168.63 206.28 155.7 198.17 147.22C197.97 154.35 197.49 161.61 195.96 168.57C193.69 178.8 189.19 188.03 184.95 197.54C184.65 198.21 184.15 198.6 183.63 198.83C191.06 208.73 198.43 218.67 205.92 228.52L205.89 228.55Z" fill="#8AB15D" fill-opacity="1.000000" fill-rule="nonzero"/>
			<path id="Vector" d="M166.47 176.45C171.28 182.56 175.98 188.74 180.65 194.92C184.84 185.67 189.68 176.43 191.54 166.36C192.77 159.67 193.55 152.91 193.87 146.11C193.92 145.27 193.95 144.43 193.97 143.59C193.59 143.3 193.2 142.99 192.79 142.73C188.59 147.38 184.39 152.06 180.2 156.71C178.2 148.36 176.2 139.98 174.21 131.63C173.77 129.78 173.28 127.82 171.92 126.46C171 125.53 169.77 125.03 168.47 124.87C168.35 140.3 165.77 155.5 161.81 170.4C163.36 172.39 164.9 174.43 166.45 176.42L166.47 176.45Z" fill="#8AB15D" fill-opacity="1.000000" fill-rule="nonzero"/>
			<path id="Vector" d="M209.83 255.89C212.61 254.57 215.29 253.19 218.05 252C214.49 247.7 211.07 243.32 207.71 238.91C199.58 242.57 190.17 242.44 181.38 242.61C174.85 242.72 168.42 242.98 161.96 242.52C164.23 245.71 168.26 247.5 172.22 247.89C176.74 248.32 181.23 247.19 185.63 246.04C182.63 252.93 177.68 259 171.53 263.27C171.59 263.36 171.67 263.42 171.71 263.48C177 263.85 182.25 263.47 187.49 262.54C195.15 261.17 202.73 259.23 209.8 255.88L209.83 255.89Z" fill="#8AB15D" fill-opacity="1.000000" fill-rule="nonzero"/>
			<path id="Vector" d="M121.57 123C121.01 122.22 120.48 121.41 119.92 120.63C119.92 120.63 119.92 120.63 119.86 120.65C111.01 123.91 99.31 118.6 91.2 114.37C91.26 115.17 91.35 115.95 91.6 116.69C94.64 125.83 110.73 125.3 113.22 134.61C110.24 134.58 105.45 138.66 102.24 141.14C102.77 141.34 103.33 141.54 103.86 141.74C110.64 144.09 118.17 147.66 125.4 147.87C130.58 148.04 135.65 147.83 140.63 149.18C138.85 146.77 137.12 144.34 135.36 141.93C134.89 141.61 134.55 141.17 134.43 140.65C130.12 134.76 125.8 128.91 121.55 122.97L121.57 123Z" fill="#8AB15D" fill-opacity="1.000000" fill-rule="nonzero"/>
			<path id="Vector" d="M269.76 160.92C262.17 131.25 244.54 104.86 224.98 81.25C211.89 65.47 199.03 51.26 179.43 43.86C161.53 37.09 145.25 23.35 125.12 24.97C109.57 26.2 97.18 33.3 82.7 37.84C75.75 40.01 67.47 41.25 60.9 38.06C61.56 45.24 56.71 52.43 52.58 58.2C44.22 69.88 39.77 82.08 39.6 96.61C39.4 112.66 39.56 129.71 41.91 145.61C43.31 154.97 45.54 164.64 51.08 172.54C55.99 179.54 61.96 185.48 67.43 192.02C73.06 198.77 77.23 206.41 82.34 213.54C88.33 221.89 95.32 229.36 103.24 235.94C105.25 237.61 107.35 239.22 109.42 240.85C107.27 236.89 104.95 233.06 101.72 229.92C96.96 225.29 90.38 222.38 87 216.66C83.42 210.59 84.25 202.66 80.64 196.62C76.27 189.29 66.41 186.4 62.69 178.73C59.73 172.61 61.55 165.18 59.7 158.64C57.55 151.03 50.78 145.65 47.36 138.55C43.01 129.53 44.49 118.92 46.06 109.03C48.62 92.9 51.22 76.64 56.82 61.31C58.78 55.93 61.37 50.37 66.2 47.24C70.22 44.63 75.2 44.08 79.98 43.62C93.07 42.34 106.17 41.07 119.29 39.82C127.65 39.01 136.56 38.3 144.07 42.05C149.34 44.69 153.43 49.32 158.88 51.58C167.62 55.17 178.56 52.12 186.29 57.54C190.95 60.81 193.28 66.49 197.24 70.57C201.49 74.98 207.69 77.41 213.77 77.11C235.15 98.83 252.23 125.8 265.68 153.13C266.99 155.77 268.27 158.47 269.77 161L269.76 160.92Z" fill="#8AB15D" fill-opacity="1.000000" fill-rule="nonzero"/>
			<path id="Vector" d="M195.28 46.8C188.33 42.59 180.61 40.12 173.19 36.91C163.7 32.8 155.03 27.13 145.32 23.49C130.53 17.96 114.01 21.5 99.69 26.69C85.73 31.77 74.06 40.3 59.88 33.94C59.65 33.41 59.4 32.91 59.12 32.37C58.08 30.55 55.46 31.2 55.35 32.93C55.28 33.13 55.27 33.37 55.4 33.65C55.44 33.71 55.46 33.79 55.5 33.85C60.44 45.52 47.2 56.92 42.06 66.42C35.13 79.29 34.93 94.23 35.52 108.46C36.23 125.68 35.91 143.12 40.59 159.86C45.59 177.8 61.02 189.01 71.08 203.88C76.77 212.3 81.85 220.69 88.75 228.23C95.24 235.31 102.77 241.45 110.39 247.23C124.65 258.08 139.53 268.59 155.18 277.32C179.24 290.68 217.3 295.86 239.71 276.34C240.2 276.4 240.7 276.25 241.13 275.99L237.9 273.07C237.9 273.07 237.82 273.25 237.79 273.33C237.71 273.53 237.71 273.71 237.66 273.89C208.51 292.47 173.24 283.89 145.53 266.35C130.92 257.09 116.51 246.85 103.2 235.83C95.28 229.27 88.28 221.8 82.3 213.43C77.19 206.3 73.04 198.69 67.39 191.91C61.92 185.37 55.95 179.43 51.04 172.43C45.5 164.53 43.27 154.88 41.87 145.5C39.49 129.6 39.36 112.55 39.56 96.5C39.73 82 44.2 69.8 52.55 58.09C56.67 52.32 61.52 45.13 60.86 37.95C67.43 41.14 75.69 39.89 82.67 37.73C97.14 33.21 109.54 26.09 125.08 24.86C145.21 23.27 161.46 36.98 179.39 43.75C198.99 51.15 211.88 65.34 224.94 81.14C249.12 110.31 270.34 143.7 273.33 182.3C274.69 199.63 272.07 217.1 266.88 233.62C262.3 248.17 247.78 255.8 240.22 268.43L243.73 272.06C252.46 258.07 267.5 249.88 272.73 233.26C277.49 218.12 279.55 202.19 278.95 186.35C277.55 149.22 258.35 116.97 236.16 88.32C224.49 73.24 211.79 56.7 195.26 46.7L195.28 46.8Z" fill="#517433" fill-opacity="1.000000" fill-rule="nonzero"/>
			<path id="Vector" d="M225.33 252.24C249.27 234.86 255.77 196.57 257.63 169.26C257.74 167.8 255.58 167.5 255.34 168.98C250.81 198.49 243.91 227.04 222.24 248.66C217.71 243.43 213.31 238.05 209.03 232.56C217.21 224.12 224.7 216.94 229.12 205.56C232.86 195.91 234.31 185.48 234.43 175.17C234.72 153.69 228.16 132.52 220.21 112.79C219.67 111.43 217.61 112.28 218.12 113.67C224.97 132.5 230.11 152.12 230.14 172.29C230.15 182.22 228.48 192.07 225.28 201.44C221.39 212.81 213.61 220.11 205.91 228.55C198.42 218.7 191.05 208.75 183.62 198.85C184.18 198.63 184.65 198.24 184.94 197.56C189.19 188.03 193.69 178.82 195.96 168.6C197.71 160.71 198.1 152.42 198.26 144.38C198.52 129.5 197.84 110.35 188.03 98.13C187.14 97.01 185.66 98.28 186.33 99.45C194.42 113.18 194.6 130.65 193.87 146.14C193.55 152.93 192.76 159.7 191.54 166.39C189.68 176.45 184.81 185.69 180.65 194.95C175.98 188.74 171.28 182.56 166.47 176.47C164.89 174.48 163.38 172.44 161.83 170.46C166.14 154.25 168.85 137.72 168.51 120.91C168.12 102.38 165.19 84.12 162.48 65.8C162.3 64.65 160.58 64.91 160.7 66.03C162.42 82.61 164.53 99.19 164.91 115.87C165.31 133.29 161.96 149.41 158.53 166.17C151.93 157.66 145.39 149.12 138.91 140.5C144.89 129.36 144.49 116 144.65 103.64C144.87 87.91 143.3 72.27 139.28 57.03C138.93 55.75 136.9 55.97 137.21 57.31C140.49 71.52 141.45 85.87 141.09 100.43C140.82 112.22 140.83 125.53 135.97 136.57C132.71 132.2 129.39 127.88 126.13 123.49C122.81 119.01 119.63 114.42 116.51 109.75C129.64 94.25 127.35 69.68 119.99 52.05C119.46 50.77 117.51 51.58 118.01 52.86C124.58 69.7 126.18 91.89 114.56 106.79C109.67 99.37 104.87 91.89 99.87 84.56C100.25 84.47 100.6 84.23 100.79 83.75C104.49 74.18 107.57 62.97 102.26 53.39C101.68 52.34 99.99 53 100.51 54.12C104.89 63.3 101.79 73.31 98.3 82.28C94.52 76.85 90.61 71.5 86.41 66.44C85.72 65.61 84.46 66.59 85.1 67.46C90.56 74.93 95.58 82.71 100.5 90.55C94.05 91.65 89.45 90.23 83.74 86.89C79.11 84.17 74.35 80.62 71.12 76.29C70.55 75.53 69.49 76.4 69.98 77.18C73.63 82.59 79.41 87.11 85.09 90.25C89.09 92.46 97.56 96.76 101.51 92.21C105.1 97.93 108.66 103.68 112.34 109.39C112.27 109.47 112.21 109.54 112.15 109.61C110.94 110.86 112.83 112.89 114.21 112.19C115.49 114.14 116.81 116.1 118.15 118.06C114.56 117.62 110.95 117.75 107.33 117.14C102.34 116.31 97.54 114.39 92.93 112.34C83.38 108.09 74.47 101.39 67.27 93.82C66.55 93.04 65.24 94.01 65.96 94.84C72.69 102.49 80.86 108.97 89.91 113.74C98.01 118.02 110.56 124.14 119.91 120.71C119.91 120.71 119.91 120.71 119.96 120.69C120.52 121.47 121.06 122.28 121.62 123.06C125.87 129 130.19 134.84 134.5 140.74C134.62 141.26 134.96 141.69 135.42 142.02C137.18 144.43 138.94 146.86 140.7 149.27C135.72 147.91 130.65 148.13 125.47 147.96C118.24 147.72 110.71 144.17 103.92 141.83C88.61 136.54 74.29 129.83 63.07 117.85C62.44 117.19 61.39 117.98 61.93 118.74C70.8 130.5 84.38 137.23 97.68 142.74C104.92 145.72 112.4 148.63 119.88 150.91C126.49 152.92 133.65 151.38 140.38 153.17C141.47 153.46 142.34 152.88 142.78 152.09C147.71 158.75 152.72 165.34 157.74 171.93C157.84 172.15 158 172.36 158.19 172.54C159.85 174.73 161.47 176.93 163.16 179.12C163.52 179.59 163.86 180.05 164.2 180.52C158.36 177.97 150.29 179.4 144.12 179.56C133.5 179.82 123.07 177.71 112.94 174.65C95.84 169.49 80.05 160.8 64.28 152.56C63.31 152.07 62.43 153.67 63.36 154.21C78.84 163.26 94.73 171.81 111.71 177.75C128.23 183.52 146.88 184.99 164.27 183.78C165.15 183.7 165.57 183.07 165.6 182.38C173.07 192.21 180.39 202.12 187.71 212.06C180.96 213.94 174.66 216.62 167.41 217.35C157.14 218.4 146.7 217 136.67 214.88C116.47 210.63 96.8 201.5 80.24 189.23C79.54 188.72 78.75 189.76 79.42 190.32C95.21 203.08 114.35 212.37 134 217.4C144.47 220.07 154.98 221.56 165.78 221.35C173.22 221.19 183.68 220.06 190.31 215.6C194.35 221.09 198.4 226.56 202.47 232.03C202.65 232.26 202.81 232.49 202.99 232.7C202.95 233.7 203.66 234.55 204.65 234.91C204.85 235.18 205.05 235.47 205.28 235.73C198.35 238.44 190.77 238.68 183.34 238.92C174.51 239.22 165.8 239.7 156.97 238.73C137.43 236.6 119.54 227.77 103.76 216.49C102.86 215.85 101.88 217.16 102.74 217.87C117.52 230.03 135.23 238.14 154.04 241.67C163.2 243.39 172.24 242.9 181.47 242.73C190.26 242.58 199.64 242.69 207.8 239.03C211.17 243.43 214.61 247.82 218.14 252.11C215.37 253.33 212.67 254.68 209.92 256C202.85 259.35 195.27 261.26 187.6 262.66C181.31 263.78 174.98 264.15 168.64 263.34C163.47 262.69 158.71 261.65 153.5 262.33C153 262.4 152.88 262.94 153.09 263.31C153.76 264.5 154.49 265.65 155.31 266.72C155.33 266.75 155.39 266.73 155.37 266.68C152.58 262.37 163.14 264.5 163.29 264.55C166.67 265.18 169.98 265.93 173.42 266.33C179.14 266.99 185.29 265.93 190.94 265.1C201.24 263.59 211.45 260.02 220.68 255.04C226.11 261.45 231.85 267.57 238.01 273.2L241.24 276.1C243.13 277.74 245.06 279.35 247.04 280.87C248.68 282.12 251.12 279.73 249.61 278.23C247.67 276.24 245.78 274.24 243.83 272.26L240.32 268.63C235.23 263.27 230.26 257.84 225.43 252.33L225.33 252.24Z" fill="#517433" fill-opacity="1.000000" fill-rule="nonzero"/>
		</g>
	</g>
</svg>
