<svg width="95" height="175" viewBox="0 0 95 175" fill="none" xmlns="http://www.w3.org/2000/svg">
<g opacity="0.5" clip-path="url(#clip0_478_3717)">
<path d="M153.375 69.3148C154.422 68.7009 155.47 68.0585 156.477 67.3823C157.314 66.8227 156.592 65.3253 155.661 65.7834C154.442 66.3711 153.222 66.9302 152.002 67.5179C146.91 61.3012 145.479 53.0816 138.627 48.071C132.381 43.5089 125.351 40.0709 117.95 37.8713C100.591 32.7192 82.7089 36.5443 66.0184 42.3058C57.2385 45.3381 47.6168 48.6161 40.42 54.6814C37.3888 57.2295 35.0456 60.4077 32.402 63.3274C29.0217 67.068 25.0504 70.1828 21.8552 74.0979C16.9921 80.057 16.0477 88.2349 16.2063 95.6555C16.3681 102.893 18.4812 109.613 13.3329 115.165C13.0534 115.186 12.7798 115.224 12.4892 115.268C11.487 115.465 11.3793 116.774 12.1602 117.094C12.2411 117.161 12.3501 117.2 12.4984 117.186C12.5325 117.175 12.5725 117.18 12.6066 117.168C18.7668 116.712 21.958 124.605 25.5393 128.462C30.3953 133.671 37.2629 136.095 43.9185 138.048C51.9786 140.409 59.9771 143.28 68.4336 143.735C77.4959 144.228 85.0791 138.859 93.5148 136.54C98.2873 135.23 102.955 134.195 107.512 132.186C111.797 130.3 115.805 127.784 119.664 125.167C126.9 120.283 134.074 115.058 140.548 109.196C150.474 100.182 158.809 83.4234 153.299 70.0296C153.404 69.8111 153.412 69.5598 153.358 69.3207L153.375 69.3148Z" fill="#AEBFAC"/>
<path d="M158.087 66.0757C154.516 68.0374 150.794 69.7271 147.001 71.2408C147.858 76.2765 147.895 81.5404 146.999 86.5373C146.499 89.2734 146.038 92.2831 144.828 94.8177C144.095 96.3351 143.247 97.7399 142.422 99.2129C142.388 99.2819 139.744 103.817 142.168 103.202C142.185 103.196 142.202 103.218 142.18 103.236C141.555 103.444 140.906 103.613 140.257 103.725C140.046 103.779 139.821 103.628 139.869 103.382C140.36 100.868 141.583 98.8362 142.699 96.5541C144.054 93.7491 144.881 90.7744 145.347 87.6962C145.913 83.9428 146.203 80.1418 145.763 76.3566C145.589 74.8687 145.369 73.4157 145.252 71.9556C142.713 72.9268 140.156 73.8184 137.598 74.6813C138.017 79.0093 136.483 83.3298 135.192 87.4128C133.829 91.7024 132.642 95.9496 130.418 99.9084C125.853 108.039 119.341 114.946 111.421 119.868C110.962 120.142 110.508 119.497 110.943 119.183C118.616 113.659 125.482 106.782 129.52 98.0993C131.339 94.186 132.487 90.0764 133.727 85.9541C134.776 82.491 135.847 78.9534 135.683 75.3299C135.53 75.3834 135.365 75.4314 135.206 75.4964C134.886 75.8947 134.38 76.0901 133.927 75.9136C133.79 75.9611 133.659 75.9972 133.535 76.0503C130.374 77.0757 127.219 78.0896 124.053 79.0979C125.086 82.8579 123.961 87.858 122.872 91.3159C121.297 96.3392 118.95 100.962 116.087 105.364C110.696 113.648 103.415 121.034 95.0598 126.327C94.6974 126.549 94.3364 126.034 94.6869 125.778C102.927 120.047 110.211 112.393 115.34 103.741C117.885 99.4407 120.168 94.8302 121.283 89.9388C122.081 86.4677 121.813 83.1483 122.012 79.7425C116.287 81.5568 110.562 83.3996 104.862 85.3105C105.183 85.4374 105.41 85.7312 105.296 86.1439C103.141 94.3613 99.5618 102.741 94.3038 109.459C88.9168 116.356 82.4843 122.365 75.8881 128.097C75.4932 128.445 74.8845 127.768 75.2679 127.415C81.5351 121.425 88.0088 115.506 93.0675 108.408C96.0591 104.211 98.6641 99.727 100.201 94.7841C101.092 91.9113 101.706 87.9688 103.782 85.6679C103.509 85.763 103.242 85.8466 102.975 85.9302C101.702 86.3645 100.428 86.7702 99.1607 87.1929C99.0473 87.2516 98.9395 87.2988 98.8083 87.3063C94.9833 88.592 91.1582 89.8777 87.3154 91.1123C87.6111 91.4394 87.7434 91.9287 87.4356 92.3897C85.5615 95.2131 85.1533 98.7588 83.1923 101.498C80.9681 104.606 78.474 107.598 75.9553 110.464C71.3342 115.746 66.107 120.963 59.2919 123.214C58.8542 123.357 58.6573 122.738 59.0601 122.549C66.3404 119.246 71.6712 113.669 76.5077 107.442C78.651 104.678 81.4773 101.761 82.7054 98.4555C83.5923 96.0909 84.2849 93.7175 85.6895 91.6314C84.2968 92.0787 82.9037 92.4975 81.5165 92.9333C81.296 93.0962 81.0403 93.1853 80.783 93.1603C77.389 94.2289 74.0179 95.3086 70.612 96.343C70.1628 96.4805 69.7077 96.6009 69.2585 96.7384C69.2585 96.7384 69.2585 96.7384 69.2589 96.767C69.3823 101.619 64.6008 106.44 61.3542 109.522C57.7468 112.941 53.4739 115.711 48.8923 117.624C48.4098 117.831 48.1654 117.075 48.6249 116.857C53.2434 114.721 57.7236 111.668 61.1837 107.909C62.849 106.105 64.4843 104.187 65.6479 102.012C66.4886 100.448 66.9964 98.7507 67.7627 97.1643C66.6593 97.482 65.5556 97.7713 64.4349 98.0664C64.5477 98.8014 63.3107 99.3665 62.9236 98.6124C62.9002 98.5728 62.8768 98.5331 62.8534 98.4935C59.6556 99.3024 56.4456 100.049 53.23 100.806C54.7149 103.338 51.4076 106.575 49.7609 108.077C47.4319 110.199 44.4499 112.175 41.3667 113.011C40.9401 113.131 40.7087 112.495 41.1349 112.346C43.6362 111.541 46.023 109.887 47.998 108.175C50.4357 106.064 51.8085 104.16 52.3079 101.013C47.92 102.055 43.5444 103.16 39.2464 104.515C38.7461 104.671 38.4905 103.938 38.979 103.748C41.9723 102.599 45.0365 101.627 48.1474 100.733C44.5493 97.7337 40.4258 94.7355 35.4949 95.3169C34.8963 95.3822 34.8672 94.5033 35.4309 94.3928C40.6707 93.436 45.3733 96.6147 49.214 99.8166C49.4046 99.9796 49.4645 100.179 49.4442 100.367C53.6077 99.2026 57.8129 98.1571 62.0002 97.0606C56.939 89.3704 46.4418 86.6536 37.6485 87.0425C36.9809 87.0745 36.9098 86.0477 37.5829 86.0042C46.8753 85.3744 58.5781 88.1488 63.6728 96.6208C66.3124 95.9109 68.9401 95.1669 71.5151 94.3265C74.0389 93.504 76.5568 92.6644 79.0862 91.8304C74.7497 87.8644 68.6122 85.8073 63.2065 83.8202C56.5443 81.3821 49.7709 79.585 42.6983 78.8768C42.0351 78.8117 42.2557 77.8266 42.8959 77.8806C50.554 78.4037 58.0173 80.1229 65.2464 82.6788C70.9264 84.6851 77.1531 86.5867 81.3599 91.0855C86.3389 89.4356 91.3062 87.7517 96.273 86.0392C89.0727 81.8384 82.1484 77.7709 74.0574 75.2382C66.299 72.8093 58.3176 71.1944 50.3966 69.3959C49.8467 69.2721 50.0067 68.442 50.5676 68.5428C59.4397 70.1627 68.3214 71.6454 76.9459 74.3649C84.7563 76.833 91.9685 80.6568 98.7679 85.1885C99.9271 84.7843 101.109 84.3913 102.269 83.9871C105.843 82.722 109.429 81.5194 113.01 80.3284C109.395 76.9521 105.885 73.2717 101.529 70.8419C98.6352 69.2315 95.6354 67.8109 92.547 66.6028C85.515 63.8443 77.4339 61.2029 69.8218 62.7861C69.1783 62.9148 68.8237 62.0347 69.4771 61.7973C76.6355 59.1869 85.5848 61.8506 92.4242 64.3034C96.108 65.629 99.8737 67.1076 103.242 69.1455C107.606 71.7921 111.165 75.312 114.89 78.7553C115.156 78.9972 115.257 79.287 115.278 79.5665C121.007 77.6837 126.749 75.8349 132.466 73.918C129.773 69.0445 127.63 64.3234 122.979 60.7443C119.154 57.8048 114.868 55.494 110.285 53.9466C100.975 50.7968 91.1111 50.1155 81.3505 50.3349C80.637 50.3447 80.5595 49.2723 81.2727 49.234C91.6275 48.6353 102.406 48.9215 112.285 52.4175C117.007 54.0886 121.612 56.3836 125.482 59.6137C130.045 63.4338 132.186 68.0123 134.802 73.1038C138.007 71.9864 141.171 70.7783 144.299 69.5249C137.704 56.1459 125.604 48.5008 112.694 41.7975C112.05 41.458 112.522 40.5094 113.183 40.7859C125.494 45.9101 142.158 54.8801 146.434 68.6563C149.738 67.2749 153.013 65.8369 156.281 64.3247C151.633 58.8613 150.383 50.9704 144.38 46.5819C137.557 41.5995 129.909 37.6789 121.705 35.5874C103.421 30.939 84.6935 35.5179 67.455 42.1206C58.1287 45.6971 49.5579 49.4118 43.0826 57.3C37.1632 64.507 28.2781 69.8703 25.8793 79.4157C24.0217 86.7839 25.3598 93.6116 25.1925 101.002C25.1097 104.549 24.3882 108.567 21.8878 111.103C25.3076 111.918 27.8659 115.28 29.8855 118.084C33.9715 123.772 38.9074 127.73 45.5855 130.077C52.9637 132.676 60.8556 135.269 68.5599 136.665C73.0989 137.482 77.913 137.964 82.4227 136.641C86.4205 135.467 90.0954 133.641 93.9688 132.137C97.9616 130.592 102.142 129.861 106.231 128.618C111.018 127.159 115.558 125.098 119.833 122.47C127.001 118.05 133.989 113.003 140.534 107.701C152.952 97.664 162.414 82.7117 158.405 66.3568C158.324 66.3179 158.244 66.2791 158.163 66.2117C158.128 66.195 158.093 66.1498 158.065 66.1216L158.087 66.0757Z" fill="#6B9244"/>
<path d="M49.484 100.344C53.6475 99.1792 57.8526 98.1338 62.0399 97.0372C58.728 92.0066 53.093 89.1148 47.1259 87.8205C46.7644 89.3614 47.2679 91.1074 48.4415 92.1704C46.943 91.9854 45.393 91.7897 43.9432 92.2378C42.6924 92.6261 41.5358 93.6412 41.2731 94.8895C44.21 95.8827 46.8859 97.8273 49.2367 99.7992C49.4274 99.9622 49.4872 100.161 49.4669 100.35L49.484 100.344Z" fill="#8AB15D"/>
<path d="M38.6139 107.116C41.0457 106.66 43.7253 105.956 45.8551 107.211C46.4595 107.574 46.9974 108.075 47.5293 108.559C47.6931 108.425 47.8683 108.297 48.0206 108.158C50.4582 106.046 51.8311 104.143 52.3304 100.996C47.9426 102.038 43.5669 103.143 39.269 104.498C38.7687 104.653 38.5131 103.92 39.0016 103.731C41.9948 102.582 45.059 101.609 48.17 100.716C46.0792 98.9689 43.806 97.2471 41.3024 96.208C41.388 96.6179 41.485 97.0334 41.4964 97.4501C41.5724 99.6701 39.188 101.085 37.0797 101.81C34.9769 102.524 32.5101 103.346 31.8139 105.462C33.1669 107.534 36.1706 107.567 38.5969 107.122L38.6139 107.116Z" fill="#8AB15D"/>
<path d="M71.5549 94.3031C74.0787 93.4806 76.5966 92.641 79.126 91.8069C74.7895 87.841 68.652 85.7839 63.2464 83.7968C62.3568 83.4664 61.4451 83.182 60.556 82.8801C60.6225 83.1533 60.6776 83.4209 60.67 83.7008C60.6371 85.4713 58.3186 86.2796 56.5891 85.8979C54.8595 85.5162 53.2749 84.4531 51.5104 84.4373C49.9572 84.4243 48.439 85.3073 47.6348 86.6201C54.1443 87.907 60.3703 91.0134 63.7297 96.5915C66.3693 95.8816 68.997 95.1375 71.5719 94.2972L71.5549 94.3031Z" fill="#8AB15D"/>
<path d="M60.5984 108.505C60.801 108.291 61.0096 108.094 61.2122 107.88C62.8776 106.076 64.5129 104.158 65.6764 101.983C66.5172 100.419 67.025 98.7217 67.7912 97.1353C66.6879 97.4531 65.5842 97.7423 64.4634 98.0374C64.5762 98.7724 63.3393 99.3375 62.9521 98.5834C62.9287 98.5438 62.9053 98.5041 62.882 98.4645C59.6842 99.2734 56.4742 100.02 53.2586 100.778C54.7435 103.309 51.4362 106.547 49.7895 108.048C49.3383 108.454 48.8585 108.86 48.3557 109.255C48.9154 109.681 49.508 110.01 50.2109 110.052C52.394 110.199 53.8375 107.621 55.9958 107.203C57.5903 106.896 59.0703 107.824 60.5984 108.505Z" fill="#8AB15D"/>
<path d="M96.301 86.0103C90.4188 82.5737 84.7208 79.2545 78.4232 76.7657C78.4315 76.954 78.4398 77.1423 78.4652 77.3247C78.6845 78.7491 79.4783 80.0115 80.2657 81.2283C74.6539 80.8713 69.0362 80.4972 63.4245 80.1402C62.3387 80.0694 60.9757 80.1909 60.5145 81.1165C62.114 81.5913 63.6968 82.1006 65.2745 82.65C70.9545 84.6562 77.1812 86.5578 81.3879 91.0566C86.367 89.4067 91.3342 87.7228 96.301 86.0103Z" fill="#8AB15D"/>
<path d="M102.975 85.9017C101.702 86.3359 100.429 86.7416 99.1611 87.1644C99.0477 87.2231 98.9399 87.2702 98.8087 87.2777C94.9837 88.5635 91.1586 89.8492 87.3158 91.0838C87.6115 91.4109 87.7438 91.9001 87.436 92.3611C85.5619 95.1846 85.1537 98.7303 83.1928 101.469C81.3607 104.03 79.3333 106.495 77.2705 108.888C81.1945 108.16 83.6646 104.66 86.7142 101.781C88.1404 100.442 90.0127 98.7379 91.7496 99.6619C93.0379 100.341 93.296 102.096 94.2924 103.144C94.7327 103.612 95.2905 103.896 95.8918 104.03C97.6617 101.1 99.1842 98.0355 100.207 94.7441C101.098 91.8713 101.712 87.9288 103.788 85.6279C103.515 85.723 103.248 85.8066 102.981 85.8902L102.975 85.9017Z" fill="#8AB15D"/>
<path d="M132.506 73.8946C129.813 69.0211 127.67 64.2999 123.019 60.7209C119.193 57.7814 114.908 55.4705 110.325 53.9232C110.095 53.8407 109.855 53.7812 109.62 53.7102C109.167 54.4415 108.944 55.2839 109.059 56.1331C109.285 57.6602 110.517 58.8081 111.639 59.8605C112.761 60.9128 113.909 62.2046 113.885 63.7523C113.86 65.3 111.405 66.9495 110.148 66.0589C105.461 62.7315 98.9462 62.3355 93.7664 64.7532C97.026 65.959 100.299 67.313 103.275 69.105C107.64 71.7517 111.199 75.2715 114.923 78.7148C115.189 78.9567 115.29 79.2465 115.311 79.526C121.041 77.6432 126.782 75.7945 132.5 73.8776L132.506 73.8946Z" fill="#8AB15D"/>
<path d="M102.302 83.9467C105.876 82.6815 109.463 81.479 113.043 80.288C109.429 76.9117 105.918 73.2313 101.563 70.8015C98.6688 69.1911 95.6689 67.7705 92.5806 66.5624C92.2017 66.4077 91.8172 66.2645 91.4327 66.1213C91.2404 66.2553 91.0366 66.3837 90.8502 66.5347C92.3426 69.1978 93.8465 71.8665 95.3389 74.5297C91.1713 74.1471 86.9922 73.759 82.8247 73.3765C81.9042 73.2863 80.9211 73.2085 80.0817 73.6254C79.5088 73.9016 79.0873 74.3927 78.8097 74.9675C85.912 77.4338 92.5269 80.9974 98.7844 85.154C99.9436 84.7499 101.126 84.3568 102.285 83.9526L102.302 83.9467Z" fill="#8AB15D"/>
<path d="M70.6233 96.3201C70.1741 96.4576 69.719 96.578 69.2698 96.7155C69.2698 96.7155 69.2698 96.7155 69.2702 96.744C69.3902 101.339 65.1133 105.908 61.8953 108.99C62.2734 109.087 62.6457 109.168 63.0282 109.168C67.7219 109.195 69.9887 101.685 74.6748 101.991C74.1968 103.363 75.332 106.208 75.9742 108.077C76.1483 107.864 76.3279 107.639 76.502 107.425C78.6453 104.661 81.4716 101.744 82.6997 98.4385C83.5866 96.0739 84.2792 93.7006 85.6838 91.6144C84.2911 92.0617 82.8979 92.4805 81.5107 92.9163C81.2903 93.0792 81.0346 93.1683 80.7773 93.1433C77.3833 94.2119 74.0122 95.2916 70.6063 96.326L70.6233 96.3201Z" fill="#8AB15D"/>
<path d="M111.272 33.8518C96.3944 32.7197 81.4557 36.7328 67.5059 42.0742C58.1795 45.6508 49.6088 49.3654 43.1334 57.2537C37.214 64.4606 28.3289 69.824 25.9301 79.3693C24.0725 86.7375 25.4106 93.5652 25.2434 100.956C25.1606 104.503 24.439 108.521 21.9386 111.056C25.3584 111.871 27.9167 115.234 29.9363 118.038C34.0223 123.726 38.9582 127.684 45.6363 130.03C53.0145 132.63 60.9065 135.223 68.6108 136.619C73.1497 137.436 77.9638 137.918 82.4735 136.594C86.4713 135.42 90.1462 133.594 94.0196 132.091C98.0124 130.546 102.193 129.815 106.281 128.571C111.069 127.112 115.609 125.052 119.883 122.424C120.971 121.758 122.04 121.041 123.115 120.341C120.951 120.713 118.822 121.188 116.865 122.185C113.985 123.658 111.617 126.243 108.446 126.908C105.086 127.611 101.559 125.992 98.2054 126.712C94.1407 127.584 91.2677 131.683 87.1467 132.202C83.8578 132.613 80.713 130.612 77.4048 130.446C73.5595 130.247 70.0166 132.534 66.2032 133.003C61.3639 133.6 56.6956 131.261 52.3766 128.99C45.3317 125.29 38.2348 121.55 32.0345 116.57C29.8581 114.825 27.6944 112.759 27.0064 110.045C26.4273 107.78 26.9542 105.398 27.4883 103.118C28.9445 96.8741 30.4007 90.6305 31.8739 84.381C32.8072 80.3942 33.8685 76.1715 36.7753 73.2939C38.8146 71.2733 41.5906 70.1047 43.4852 67.9433C46.5095 64.4702 46.8107 58.9448 50.5191 56.2275C52.7577 54.5866 55.7412 54.3973 58.243 53.2096C60.9433 51.9336 63.0334 49.4555 63.8451 46.6009C77.2085 40.1255 92.3231 36.4525 107.039 34.5151C108.464 34.3243 109.906 34.156 111.312 33.857L111.272 33.8518Z" fill="#8AB15D"/>
<path d="M46.9679 50.4008C43.9366 52.9489 41.5935 56.1271 38.9499 59.0468C35.5695 62.7873 31.5982 65.9022 28.403 69.8172C23.5399 75.7764 22.5955 83.9543 22.7541 91.3748C22.916 98.6126 25.0291 105.333 19.8807 110.885C19.6012 110.905 19.3277 110.943 19.0371 110.987C18.0349 111.184 17.9272 112.493 18.7081 112.813C18.7889 112.881 18.8979 112.919 19.0462 112.906C19.0803 112.894 19.1203 112.899 19.1544 112.887C25.3146 112.432 28.5058 120.324 32.0871 124.181C36.9431 129.39 43.8107 131.814 50.4664 133.767C58.5264 136.129 66.525 139 74.9815 139.455C84.0438 139.947 91.627 134.579 100.063 132.259C104.835 130.949 109.503 129.914 114.06 127.905C118.345 126.019 122.353 123.503 126.212 120.887C133.447 116.003 140.621 110.777 147.096 104.916C157.022 95.901 165.357 79.1428 159.847 65.7489C159.952 65.5305 159.96 65.2792 159.905 65.0401L158.058 66.0761C158.058 66.0761 158.128 66.1379 158.156 66.1661C158.237 66.2335 158.323 66.2608 158.398 66.3112C162.419 82.6717 152.951 97.6069 140.527 107.655C133.971 112.952 126.994 118.004 119.826 122.425C115.563 125.058 111.023 127.119 106.224 128.572C102.136 129.816 97.9723 130.541 93.9625 132.092C90.089 133.595 86.4142 135.421 82.4163 136.595C77.9067 137.919 73.104 137.442 68.5536 136.619C60.8438 135.235 52.9573 132.631 45.5792 130.031C38.9125 127.69 33.9822 123.721 29.8791 118.039C27.8595 115.235 25.3013 111.872 21.8815 111.057C24.3819 108.522 25.0979 104.515 25.1862 100.957C25.365 93.5715 24.0154 86.7383 25.873 79.3701C28.2833 69.8303 37.1513 64.4729 43.0763 57.2544C49.5516 49.3661 58.1164 45.6345 67.4487 42.075C84.6872 35.4723 103.415 30.8934 121.698 35.5418C129.909 37.6218 137.562 41.5594 144.373 46.5363C150.377 50.9248 151.627 58.8157 156.275 64.2791L158.499 63.2265C153.406 57.0099 151.975 48.7903 145.123 43.7797C138.877 39.2175 131.847 35.7795 124.446 33.5799C107.087 28.4278 89.2052 32.2529 72.5147 38.0144C63.7348 41.0468 54.1132 44.3247 46.9163 50.3901L46.9679 50.4008Z" fill="#517433"/>
<path d="M146.479 68.6214C142.197 54.8567 125.539 45.8752 113.227 40.751C112.567 40.4745 112.095 41.4231 112.739 41.7626C125.649 48.4659 137.749 56.111 144.344 69.49C141.221 70.7604 138.052 71.9515 134.847 73.0689C132.23 67.9774 130.09 63.3989 125.527 59.5788C121.657 56.3487 117.069 54.0478 112.33 52.3826C102.462 48.8922 91.6668 48.6119 81.3175 49.1991C80.6043 49.2374 80.6762 50.3213 81.3954 50.3C91.1559 50.0806 101.015 50.7734 110.33 53.9117C114.913 55.4591 119.198 57.7699 123.024 60.7094C127.664 64.2829 129.818 69.0096 132.511 73.8831C126.793 75.8001 121.052 77.6488 115.322 79.5316C115.307 79.2406 115.2 78.9623 114.934 78.7204C111.199 75.2715 107.651 71.7572 103.287 69.1106C99.9186 67.0727 96.1528 65.5941 92.4691 64.2685C85.6411 61.8213 76.6974 59.1461 69.5219 61.7624C68.8685 61.9998 69.2232 62.8799 69.8666 62.7512C77.4673 61.1625 85.5598 63.8094 92.5919 66.5679C95.6802 67.776 98.6801 69.1966 101.574 70.8071C105.93 73.2368 109.434 76.9287 113.055 80.2935C109.462 81.479 105.876 82.6815 102.313 83.9522C101.149 84.3679 99.9719 84.7495 98.8127 85.1536C92.0078 80.6334 84.8011 76.7981 76.9908 74.33C68.3777 71.616 59.4901 70.1163 50.6124 68.5079C50.0515 68.4071 49.9031 69.2428 50.4414 69.361C58.3624 71.1595 66.3438 72.7745 74.1022 75.2033C82.2047 77.7415 89.1175 81.8035 96.3178 86.0043C91.3625 87.7223 86.3953 89.4063 81.4047 91.0506C77.1979 86.5518 70.9712 84.6502 65.2912 82.644C58.0621 80.088 50.5989 78.3689 42.9408 77.8457C42.295 77.8032 42.0799 78.7768 42.7431 78.842C49.8157 79.5501 56.5891 81.3472 63.2514 83.7853C68.6511 85.7554 74.7945 87.8295 79.131 91.7955C76.6072 92.618 74.0952 93.4746 71.5599 94.2916C68.9734 95.1264 66.3572 95.876 63.7177 96.586C58.6114 88.1084 46.9142 85.3225 37.6277 85.9693C36.9546 86.0128 37.0257 87.0396 37.6933 87.0076C46.4921 86.6073 56.9838 89.3355 62.045 97.0257C57.8577 98.1223 53.6526 99.1677 49.489 100.332C49.5093 100.144 49.4495 99.9447 49.2588 99.7818C45.4181 96.5798 40.727 93.4067 35.4757 94.358C34.9005 94.4629 34.9412 95.3474 35.5398 95.2821C40.4592 94.695 44.5996 97.6873 48.1922 100.699C45.0928 101.597 42.0171 102.565 39.0238 103.713C38.5354 103.903 38.7909 104.636 39.2912 104.48C43.5892 103.125 47.9648 102.021 52.3527 100.978C51.8533 104.126 50.4805 106.029 48.0428 108.14C46.0678 109.852 43.6866 111.495 41.1798 112.311C40.7421 112.454 40.979 113.079 41.4115 112.976C44.4832 112.135 47.4711 110.175 49.8058 108.042C51.4524 106.541 54.7597 103.304 53.2748 100.772C56.4789 100.008 59.689 99.262 62.8982 98.4586C62.9216 98.4982 62.945 98.5379 62.9684 98.5775C63.3555 99.3316 64.587 98.778 64.4797 98.0315C65.5834 97.7423 66.6927 97.4416 67.8075 97.1294C67.0413 98.7158 66.539 100.401 65.6927 101.977C64.5291 104.152 62.8939 106.07 61.2285 107.874C57.774 111.621 53.2882 114.686 48.6697 116.822C48.1987 117.034 48.4432 117.79 48.9372 117.589C53.5187 115.676 57.786 112.917 61.399 109.488C64.6401 106.417 69.4272 101.584 69.3037 96.7321C69.3037 96.7321 69.3037 96.7321 69.3033 96.7035C69.7525 96.566 70.2076 96.4456 70.6568 96.3081C74.0627 95.2737 77.4338 94.194 80.8278 93.1254C81.0851 93.1504 81.3408 93.0613 81.5613 92.8984C82.9485 92.4626 84.3472 92.0323 85.7344 91.5965C84.3298 93.6827 83.6371 96.056 82.7502 98.4206C81.5107 101.721 78.6958 104.643 76.5525 107.407C71.7219 113.651 66.3852 119.211 59.1049 122.514C58.7021 122.703 58.9046 123.311 59.3367 123.179C66.1518 120.928 71.379 115.711 76.0001 110.429C78.5073 107.557 81.0185 104.559 83.2372 101.463C85.1981 98.7239 85.6064 95.1783 87.4805 92.3548C87.7882 91.8938 87.6559 91.4046 87.3602 91.0774C91.2031 89.8428 95.0281 88.5571 98.8531 87.2714C98.9728 87.2583 99.0921 87.2167 99.2055 87.1581C100.473 86.7353 101.746 86.3296 103.019 85.8953C103.292 85.8002 103.559 85.7166 103.827 85.633C101.74 87.9284 101.137 91.8764 100.246 94.7492C98.709 99.6921 96.1039 104.176 93.1124 108.373C88.0592 115.46 81.5799 121.39 75.3127 127.38C74.9352 127.75 75.538 128.41 75.933 128.062C82.5291 122.33 88.9561 116.333 94.3486 109.424C99.5951 102.7 103.186 94.3264 105.34 86.109C105.443 85.6908 105.217 85.397 104.907 85.2756C110.607 83.3647 116.326 81.5334 122.056 79.7076C121.869 83.119 122.12 86.4443 121.328 89.9039C120.208 94.8068 117.929 99.4058 115.385 103.706C110.267 112.364 102.984 120.017 94.7317 125.743C94.3868 125.988 94.7422 126.514 95.1046 126.292C103.46 120.999 110.741 113.613 116.132 105.329C119.001 100.916 121.33 96.2988 122.917 91.281C124.006 87.8231 125.119 82.8175 124.097 79.063C127.264 78.0547 130.419 77.0408 133.579 76.0154C133.716 75.9678 133.847 75.9318 133.972 75.8787C134.425 76.0552 134.93 75.8598 135.25 75.4615C135.404 75.408 135.569 75.36 135.728 75.295C135.892 78.9185 134.821 82.4561 133.772 85.9192C132.532 90.0415 131.389 94.1397 129.565 98.0644C125.527 106.747 118.661 113.625 110.988 119.148C110.553 119.463 111.002 120.119 111.466 119.833C119.386 114.911 125.898 108.004 130.463 99.8736C132.687 95.9147 133.873 91.6675 135.237 87.3779C136.54 83.3004 138.056 78.9859 137.643 74.6464C140.201 73.7835 142.763 72.8804 145.297 71.9207C145.425 73.3864 145.628 74.8453 145.808 76.3217C146.248 80.1069 145.946 83.9024 145.392 87.6613C144.926 90.7395 144.11 93.7198 142.744 96.5192C141.639 98.8068 140.417 100.839 139.914 103.347C139.866 103.593 140.096 103.733 140.301 103.69C140.956 103.567 141.599 103.409 142.225 103.201C142.242 103.195 142.241 103.167 142.213 103.167C139.789 103.783 142.422 99.2414 142.466 99.178C143.286 97.7165 144.152 96.3058 144.873 94.7828C146.071 92.2426 146.544 89.2385 147.044 86.5024C147.952 81.511 147.902 76.2416 147.046 71.2059C150.85 69.6977 154.573 68.008 158.132 66.0408L159.979 65.0048C161.027 64.3909 162.074 63.7485 163.081 63.0724C163.919 62.5127 163.196 61.0153 162.266 61.4734C161.046 62.0611 159.826 62.6202 158.607 63.2079L156.383 64.2604C153.115 65.7726 149.834 67.2222 146.536 68.5921L146.479 68.6214Z" fill="#517433"/>
</g>
<defs>
<clipPath id="clip0_478_3717">
<rect width="130.097" height="131.072" fill="white" transform="translate(117.148 174.609) rotate(-154.219)"/>
</clipPath>
</defs>
</svg>
