<svg width="203.000000" height="211.000000" viewBox="0 0 203 211" fill="none" xmlns="http://www.w3.org/2000/svg" xmlns:xlink="http://www.w3.org/1999/xlink">
	<desc>
			Created with Pixso.
	</desc>
	<defs>
		<clipPath id="clip238_793">
			<rect id="green leaf element" width="202.000000" height="210.000000" transform="translate(0.428711 0.000000) rotate(0.116947)" fill="white" fill-opacity="0"/>
		</clipPath>
	</defs>
	<rect id="green leaf element" width="202.000000" height="210.000000" transform="translate(0.428711 0.000000) rotate(0.116947)" fill="#FFFFFF" fill-opacity="0"/>
	<g clip-path="url(#clip238_793)">
		<path id="Vector" d="M200.21 0.47C193.78 2.69 188.12 5.97 181.43 7.59C174.63 9.25 167.68 10.14 160.76 11.18C148.43 13.05 136.57 17.07 125.24 22.21C113.59 27.51 102.67 34.35 92.03 41.41C81.07 48.68 70.6 56.47 61.12 65.61C42.61 83.47 28.46 106.95 23.36 132.31C20.83 144.94 21.28 157.95 19.24 170.65C18.09 177.91 16 189.18 10.49 195.13C8.82 196.13 7.25 197.31 5.85 198.65C4.53 199.91 6.52 201.91 7.84 200.65C18.66 190.44 33.1 193.97 46.32 194.01C59.15 194.04 71.79 190.23 83.69 185.72C109.18 176.07 131.59 161.98 150.71 142.48C169.42 123.39 183.43 100.43 191.88 75.1C195.89 63.07 198.21 50.76 198.02 38.06C197.84 25.73 203.76 13.9 202.11 1.58C202.01 0.78 200.94 0.22 200.21 0.47Z" fill="#AEBFAC" fill-opacity="1.000000" fill-rule="nonzero"/>
		<path id="Vector" d="M192.62 47C192.44 34.67 198.36 22.84 196.71 10.52C196.61 9.72 195.54 9.16 194.81 9.41C188.38 11.63 182.71 14.91 176.03 16.53C169.23 18.19 162.28 19.08 155.36 20.12C143.03 21.99 131.16 26.01 119.84 31.15C108.19 36.45 97.27 43.29 86.62 50.35C75.67 57.62 65.19 65.41 55.72 74.55C37.21 92.41 23.05 115.89 17.96 141.25C15.43 153.88 15.88 166.89 13.84 179.59C12.69 186.85 10.6 198.12 5.08 204.07C3.41 205.07 1.84 206.25 0.44 207.59C-0.87 208.85 1.12 210.85 2.43 209.59C13.26 199.38 27.7 202.91 40.92 202.95C53.75 202.98 66.38 199.17 78.29 194.66C103.78 185.01 126.18 170.92 145.31 151.42C164.02 132.33 178.02 109.37 186.47 84.04C190.49 72.01 192.81 59.7 192.62 47ZM138.28 154.27C118.77 173.1 95.16 185.77 69.63 194.5C57.2 198.76 44.18 201.08 31.06 199.42C25.63 198.73 19.65 198.95 14.05 200.39C20.34 194.62 26.6 188.91 32.75 183.04C51.16 189.15 73.84 185.75 90.76 176.87C91.5 176.49 91 175.25 90.22 175.52C81.39 178.52 72.88 181.65 63.62 183.15C53.6 184.79 43.67 184.13 33.82 182C40.29 175.79 46.59 169.41 52.56 162.57C53.34 161.67 54.16 160.8 54.96 159.91C75.79 164.64 98.89 162.15 118.85 154.89C119.83 154.54 119.47 153.02 118.45 153.31C97.63 159.03 77.45 161.85 56.01 158.79C61.67 152.58 67.67 146.69 73.83 140.99C78.77 141.16 83.49 141.95 88.4 142.71C94.1 143.59 100.14 143.02 105.86 142.64C118.17 141.83 130.76 139.39 141.31 132.74C142.26 132.13 141.45 130.68 140.44 131.21C128.06 137.69 114.49 140.1 100.65 140.86C94.67 141.19 89.13 140.9 83.22 139.99C80.92 139.63 78.2 139.06 75.71 139.26C81.67 133.8 87.78 128.49 93.89 123.18C103.36 125.3 113.7 125.05 123.23 124.13C133.54 123.14 143.99 120.57 152.56 114.56C153.31 114.03 152.64 112.78 151.84 113.28C134.64 123.85 114.4 123.33 95.01 122.2C96.07 121.28 97.11 120.38 98.17 119.46C102.87 115.37 107.46 111.19 111.98 106.92C111.93 107.12 112 107.38 112.27 107.47C119.1 110 128.25 107.14 135.02 105.57C145.54 103.14 155.81 99.44 165.95 95.78C166.75 95.49 166.47 94.23 165.61 94.48C157.06 96.97 148.7 100.07 140.16 102.6C132.14 104.97 120.81 108.92 112.5 106.65C112.39 106.63 112.32 106.65 112.26 106.68C118.97 100.35 125.49 93.84 131.84 87.15C136.63 87.79 142.1 86.03 146.63 85.15C153.67 83.78 160.46 81.63 166.89 78.42C167.68 78.03 167.01 76.94 166.23 77.26C160.84 79.55 155.35 81.45 149.67 82.91C144.75 84.17 138.18 86.26 132.69 86.23C136.38 82.33 140.02 78.38 143.59 74.4C144.96 72.87 146.32 71.32 147.67 69.79C147.59 70.1 147.72 70.45 148.15 70.44C158.9 70.1 174.42 70.71 182.41 62.12C182.94 61.56 182.14 60.77 181.56 61.27C172.69 68.92 159.17 68.55 148.13 69.35C148.06 69.35 148.01 69.4 147.96 69.43C151.94 64.87 155.87 60.28 159.83 55.7C166.7 55.71 174.95 54.79 180.14 50.03C180.58 49.62 179.99 48.8 179.49 49.17C173.91 53.34 167.4 53.33 160.92 54.44C164.96 49.79 169.04 45.2 173.27 40.74C177.45 41.57 181.5 40.07 185.56 39.26C186.16 39.15 186.04 38.16 185.43 38.21C181.63 38.44 178.04 40.07 174.19 39.75C178.02 35.75 181.98 31.86 186.16 28.17C186.62 27.76 185.96 27.11 185.5 27.5C180.05 31.99 174.98 36.85 170.1 41.91C172.02 37.7 173.24 33.01 175.02 28.82C175.27 28.21 174.47 27.71 174.12 28.31C171.16 32.98 169.08 38.94 167.78 44.31C163.58 48.75 159.51 53.29 155.47 57.89C157.9 50.12 158.63 42.11 163.04 34.85C163.45 34.19 162.47 33.67 162.02 34.27C156.5 41.56 155.43 51.14 153.67 59.91C149.85 64.25 146.02 68.61 142.11 72.86C141.34 73.7 140.57 74.52 139.79 75.35C140.46 64.06 142.87 53.31 149.51 43.86C149.91 43.3 148.99 42.6 148.56 43.13C141.03 52.2 138.05 64.96 138.59 76.63C133.61 81.95 128.48 87.16 123.26 92.26C127.04 77.9 129.03 63.6 137.96 51.03C138.44 50.35 137.34 49.5 136.81 50.14C126.54 62.59 124.31 78.81 121.28 94.19C113.07 102.11 104.62 109.79 95.95 117.17C92.09 120.45 88.23 123.72 84.41 127.02C82.54 115.95 81.77 105.89 83.72 94.71C85.52 84.39 89.17 74.48 93.34 64.92C93.79 63.9 92.36 63.03 91.81 64.05C86.59 73.96 83.15 84.68 81.32 95.72C79.63 105.88 79.14 117.92 83.25 127.59C83.3 127.71 83.37 127.78 83.45 127.85C77.78 132.73 72.18 137.68 66.76 142.8C67.24 139.12 66.67 135.32 66.28 131.65C65.68 125.97 65.59 120.33 65.91 114.62C66.55 102.8 70.59 92.31 77.17 82.57C77.72 81.75 76.42 80.74 75.79 81.51C68.89 89.8 65.34 99.44 64.01 110.06C62.56 121.69 65.58 132.79 65.25 144.27C60.01 149.28 54.92 154.47 50.11 159.97C49.42 160.74 48.72 161.49 48.04 162.25C48.08 158.94 47.66 155.64 47.28 152.33C46.56 145.98 46.89 139.78 48 133.49C50.03 121.9 55.05 111.2 59.8 100.56C60.23 99.58 58.87 98.75 58.34 99.72C52.82 109.54 48.55 120.14 46.25 131.2C45.16 136.43 44.71 141.84 44.92 147.17C45.15 152.73 46.35 158.17 46.67 163.73C41.6 169.26 36.33 174.52 30.97 179.73C28.63 173.43 30.59 164.71 30.6 158.21C30.62 149.02 31.47 140.17 35.22 131.67C35.62 130.79 34.42 130.07 33.89 130.92C28.71 139.14 28.05 148.71 28.15 158.2C28.19 163.03 28.06 167.82 28 172.66C27.96 175.51 28.29 178.44 29.92 180.75C23.21 187.25 16.44 193.7 9.95 200.48C12.14 196.47 13.44 191.71 14.59 187.79C17.63 177.4 18.01 166.54 18.9 155.8C21.29 127.07 34.28 101.17 53.93 80.36C71.69 61.55 95.1 46.41 118.23 35.05C130.24 29.16 142.99 25.13 156.18 22.99C163.1 21.86 170.02 21.01 176.88 19.48C183.06 18.12 188.2 15.23 193.95 13.01C194.88 24.35 189.33 35.49 189.72 46.93C190.15 59.95 187.26 72.56 183.17 84.83C174.32 111.39 158.43 134.84 138.35 154.2L138.28 154.27Z" fill="#90B87E" fill-opacity="1.000000" fill-rule="nonzero"/>
		<path id="Vector" d="M183.08 84.9C187.18 72.63 190.07 60.02 189.63 46.99C189.25 35.54 194.79 24.41 193.86 13.07C188.11 15.3 182.98 18.18 176.79 19.55C169.94 21.07 163.02 21.93 156.1 23.06C142.91 25.2 130.15 29.23 118.14 35.12C95.02 46.49 71.61 61.62 53.85 80.42C34.18 101.25 21.21 127.16 18.81 155.87C17.92 166.59 17.54 177.47 14.51 187.86C13.36 191.78 12.05 196.53 9.86 200.55C16.35 193.78 23.13 187.33 29.84 180.82C28.19 178.51 27.87 175.58 27.91 172.73C27.97 167.91 28.1 163.11 28.06 158.27C27.98 148.78 28.63 139.21 33.81 130.99C34.34 130.14 35.53 130.85 35.14 131.74C31.37 140.24 30.55 149.09 30.52 158.28C30.5 164.77 28.53 173.5 30.88 179.79C36.24 174.59 41.52 169.33 46.59 163.8C46.26 158.24 45.06 152.8 44.83 147.24C44.62 141.9 45.08 136.5 46.16 131.27C48.45 120.21 52.73 109.61 58.26 99.79C58.8 98.81 60.16 99.65 59.72 100.62C54.96 111.27 49.95 121.97 47.91 133.56C46.81 139.85 46.46 146.05 47.19 152.39C47.58 155.69 48 159.01 47.96 162.32C48.64 161.55 49.34 160.81 50.02 160.04C54.84 154.54 59.93 149.35 65.17 144.33C65.51 132.86 62.49 121.74 63.93 110.13C65.24 99.51 68.81 89.85 75.71 81.58C76.34 80.81 77.65 81.82 77.09 82.64C70.51 92.38 66.46 102.87 65.82 114.69C65.52 120.4 65.6 126.04 66.2 131.72C66.58 135.39 67.15 139.19 66.67 142.87C72.1 137.75 77.7 132.8 83.37 127.92C83.28 127.87 83.21 127.78 83.16 127.66C79.06 117.99 79.54 105.95 81.23 95.79C83.08 84.75 86.53 74.03 91.73 64.12C92.27 63.1 93.7 63.97 93.26 64.99C89.1 74.55 85.43 84.46 83.64 94.77C81.71 105.95 82.45 116 84.32 127.08C88.14 123.78 92.02 120.52 95.86 117.24C104.53 109.85 112.98 102.18 121.19 94.25C124.22 78.88 126.44 62.65 136.72 50.21C137.25 49.56 138.37 50.42 137.88 51.1C128.94 63.66 126.95 77.97 123.17 92.33C128.4 87.23 133.52 82 138.51 76.69C137.97 65.03 140.94 52.27 148.48 43.19C148.92 42.67 149.82 43.37 149.43 43.93C142.8 53.38 140.39 64.13 139.7 75.42C140.47 74.58 141.26 73.77 142.03 72.93C145.94 68.68 149.76 64.34 153.59 59.98C155.34 51.2 156.42 41.61 161.94 34.34C162.38 33.76 163.37 34.26 162.96 34.92C158.55 42.17 157.82 50.19 155.38 57.96C159.43 53.38 163.49 48.82 167.69 44.38C169 39.01 171.07 33.04 174.03 28.38C174.41 27.8 175.19 28.3 174.93 28.89C173.15 33.08 171.93 37.77 170.02 41.98C174.92 36.92 179.97 32.06 185.41 27.57C185.88 27.19 186.54 27.82 186.08 28.23C181.91 31.92 177.95 35.82 174.11 39.82C177.94 40.12 181.52 38.5 185.34 38.27C185.95 38.24 186.07 39.21 185.48 39.33C181.42 40.14 177.36 41.63 173.19 40.81C168.95 45.26 164.87 49.86 160.84 54.51C167.32 53.39 173.83 53.39 179.41 49.24C179.9 48.87 180.5 49.69 180.05 50.1C174.86 54.84 166.61 55.76 159.75 55.77C155.78 60.34 151.87 64.94 147.88 69.5C147.93 69.47 147.98 69.42 148.05 69.42C159.07 68.6 172.6 68.99 181.48 61.33C182.06 60.84 182.86 61.61 182.33 62.19C174.34 70.78 158.81 70.19 148.06 70.51C147.64 70.51 147.52 70.16 147.59 69.86C146.24 71.41 144.89 72.96 143.5 74.47C139.92 78.45 136.3 82.4 132.61 86.3C138.1 86.33 144.66 84.24 149.59 82.97C155.26 81.52 160.75 79.62 166.14 77.33C166.91 77.01 167.57 78.1 166.81 78.49C160.38 81.68 153.61 83.85 146.55 85.22C142.02 86.09 136.54 87.87 131.75 87.22C125.4 93.9 118.86 100.42 112.17 106.75C112.24 106.73 112.31 106.7 112.41 106.72C120.72 108.98 132.06 105.03 140.07 102.66C148.61 100.14 156.97 97.04 165.53 94.55C166.38 94.29 166.67 95.56 165.87 95.84C155.72 99.52 145.46 103.2 134.94 105.64C128.19 107.21 119.01 110.07 112.19 107.53C111.93 107.43 111.85 107.19 111.9 106.99C107.37 111.26 102.78 115.44 98.09 119.53C97.03 120.44 95.99 121.35 94.93 122.26C114.3 123.39 134.56 123.91 151.76 113.34C152.58 112.85 153.24 114.08 152.47 114.62C143.9 120.64 133.45 123.21 123.14 124.2C113.62 125.12 103.27 125.35 93.8 123.25C87.69 128.56 81.6 133.86 75.62 139.33C78.11 139.13 80.84 139.69 83.14 140.06C89.05 140.97 94.58 141.26 100.57 140.93C114.4 140.15 127.97 137.74 140.36 131.27C141.36 130.75 142.18 132.2 141.22 132.81C130.66 139.45 118.06 141.9 105.78 142.71C100.05 143.09 94.02 143.66 88.31 142.78C83.4 142.02 78.67 141.24 73.75 141.06C67.58 146.76 61.61 152.65 55.92 158.86C77.37 161.92 97.56 159.1 118.36 153.38C119.4 153.09 119.76 154.61 118.77 154.96C98.8 162.24 75.71 164.71 54.88 159.98C54.08 160.87 53.26 161.73 52.47 162.64C46.51 169.46 40.21 175.84 33.74 182.07C43.58 184.2 53.52 184.85 63.54 183.22C72.79 181.72 81.3 178.59 90.13 175.59C90.92 175.31 91.41 176.54 90.68 176.93C73.76 185.82 51.07 189.21 32.66 183.11C26.53 188.96 20.25 194.67 13.97 200.46C19.56 199.02 25.54 198.79 30.98 199.49C44.09 201.15 57.12 198.82 69.55 194.57C95.06 185.84 118.66 173.15 138.2 154.34C158.27 134.98 174.17 111.53 183.01 84.97L183.08 84.9ZM102.23 87.6C101 93.33 100.6 98.64 100.71 104.46C100.77 107.78 100.75 111.04 99.19 114.07C98.95 114.55 98.13 114.22 98.32 113.71C100.15 108.92 98.84 103.62 98.88 98.64C98.92 93.63 100.03 88.46 101.28 83.62C104.2 72.43 108.82 61.87 115.21 52.23C115.69 51.5 116.85 52.15 116.4 52.9C110.06 63.69 104.84 75.29 102.21 87.6L102.23 87.6Z" fill="#4D7C43" fill-opacity="1.000000" fill-rule="nonzero"/>
		<path id="Vector" d="M115.23 52.21C108.84 61.85 104.22 72.43 101.3 83.61C100.03 88.45 98.94 93.59 98.9 98.62C98.85 103.6 100.17 108.91 98.34 113.69C98.15 114.21 98.97 114.51 99.21 114.05C100.76 111.04 100.79 107.78 100.73 104.44C100.62 98.63 101.02 93.29 102.24 87.58C104.87 75.28 110.1 63.68 116.44 52.88C116.88 52.11 115.74 51.48 115.25 52.21L115.23 52.21Z" fill="#90B87E" fill-opacity="1.000000" fill-rule="nonzero"/>
		<path id="Vector" d="M90.24 164.67C79.99 162.85 69.26 168.13 58.99 166.09C56.01 165.51 55 169.56 57.8 170.59C62.55 172.34 67.87 172.28 72.86 172.6C78.76 172.97 85.52 173.02 91.01 170.69C93.64 169.59 92.95 165.14 90.24 164.66L90.24 164.67Z" fill="#71964C" fill-opacity="1.000000" fill-rule="nonzero"/>
		<path id="Vector" d="M100.97 169.5C100.32 169.81 99.62 169.94 98.94 170.1C97.75 170.35 96.99 170.83 96.33 171.86C95.7 172.82 96.12 174.37 97.16 174.87C98.38 175.47 99.32 175.38 100.58 174.99C101.55 174.69 102.53 174.3 103.4 173.79C106.14 172.16 103.82 168.18 100.98 169.52L100.97 169.5Z" fill="#71964C" fill-opacity="1.000000" fill-rule="nonzero"/>
		<path id="Vector" d="M112.21 163.34C111.61 163.75 110.95 163.91 110.43 164.49C109.82 165.21 109.73 166.61 110.77 167.05C112.18 167.65 113.31 167.24 114.33 166.16C115.68 164.74 113.92 162.16 112.19 163.34L112.21 163.34Z" fill="#71964C" fill-opacity="1.000000" fill-rule="nonzero"/>
		<path id="Vector" d="M44.37 121.89C45.16 119.96 45.97 117.61 45.44 115.53C44.99 113.71 42.65 113.58 41.71 115.03C40.67 116.63 39.87 118.47 38.86 120.12C37.61 122.18 36.24 124.16 36.9 126.66C37.44 128.69 39.93 129.28 41.41 127.9C43.05 126.37 43.55 123.9 44.39 121.87L44.37 121.89Z" fill="#71964C" fill-opacity="1.000000" fill-rule="nonzero"/>
		<path id="Vector" d="M43.25 156.43C44.07 152.73 43.18 149.01 42.79 145.29C42.36 140.95 42.13 136.65 43.42 132.42C44.17 129.93 40.22 128.24 39.14 130.67C37.38 134.66 36.76 138.77 36.56 143.1C36.37 147.33 36.29 152.44 37.86 156.42C38.8 158.79 42.58 159.44 43.25 156.43Z" fill="#71964C" fill-opacity="1.000000" fill-rule="nonzero"/>
		<path id="Vector" d="M38.54 166.51C38.85 165.08 38.87 163.56 38.91 162.11C38.95 160.75 37.75 159.62 36.43 159.62C34.99 159.62 34.02 160.76 33.93 162.1C33.85 163.37 33.62 164.61 33.55 165.87C33.5 166.94 34.36 168.12 35.44 168.33C35.64 168.36 35.86 168.4 36.08 168.42C37.17 168.49 38.32 167.59 38.54 166.53L38.54 166.51Z" fill="#71964C" fill-opacity="1.000000" fill-rule="nonzero"/>
		<path id="Vector" d="M25.44 173.59C26.14 171.58 25.69 169.32 25.54 167.24C25.36 164.83 25.23 162.41 25.28 159.99C25.32 158.06 22.58 158.16 22.37 159.98C22.11 162.16 22.02 164.36 21.95 166.56C21.89 168.83 21.46 171.39 22.14 173.57C22.66 175.26 24.86 175.18 25.42 173.58L25.44 173.59Z" fill="#71964C" fill-opacity="1.000000" fill-rule="nonzero"/>
		<path id="Vector" d="M57.97 189.35C53.8 188.76 49.54 188.77 45.31 188.72C41.39 188.68 37.27 189.73 33.49 188.36C31.36 187.59 29.95 191.06 32 192.02C35.54 193.7 39.34 193.57 43.19 193.72C48.16 193.9 53.12 195.34 57.96 193.59C59.79 192.93 60.39 189.68 57.97 189.33L57.97 189.35Z" fill="#71964C" fill-opacity="1.000000" fill-rule="nonzero"/>
		<path id="Vector" d="M66.19 188.58C65.98 188.48 65.79 188.39 65.61 188.29C64.45 187.72 63 188.42 63 189.8C62.99 191.18 64.44 191.88 65.6 191.32C65.79 191.22 65.99 191.14 66.18 191.03C67.12 190.58 67.12 189.04 66.19 188.58Z" fill="#71964C" fill-opacity="1.000000" fill-rule="nonzero"/>
		<path id="Vector" d="M58.68 136.41C59.55 132.49 59.05 128.24 59.06 124.24C59.07 119.68 59.64 115.22 61.06 110.89C61.71 108.9 58.48 107.53 57.62 109.49C54.25 117.17 52 128.09 54.09 136.38C54.67 138.63 58.14 138.74 58.68 136.39L58.68 136.41Z" fill="#71964C" fill-opacity="1.000000" fill-rule="nonzero"/>
		<path id="Vector" d="M52.56 142.94C52.4 140.61 49.02 140.57 48.92 142.94C48.84 144.64 48.7 146.48 49.62 148C50.22 148.99 51.63 148.99 52.23 148.01C53.2 146.41 52.69 144.68 52.58 142.94L52.56 142.94Z" fill="#71964C" fill-opacity="1.000000" fill-rule="nonzero"/>
		<path id="Vector" d="M87.69 145.98C86.72 145.67 85.73 145.38 84.74 145.12C83.74 144.85 82.51 145.1 81.49 145.15C79.38 145.25 77.26 145.35 75.15 145.41C71.91 145.49 71.95 150.2 75.14 150.39C77.25 150.51 79.37 150.6 81.48 150.67C82.5 150.71 83.74 150.95 84.73 150.68C85.72 150.41 86.69 150.12 87.68 149.87C89.66 149.33 89.58 146.6 87.69 146.02L87.69 145.98Z" fill="#71964C" fill-opacity="1.000000" fill-rule="nonzero"/>
		<path id="Vector" d="M122.71 145.51C117.75 145.72 113.08 147.02 108.27 148.19C103.24 149.41 98.16 150.18 93.06 151.04C91.84 151.24 91.85 153.24 93.06 153.44C102.62 155.2 114.17 153.03 123.28 149.99C125.63 149.21 125.42 145.38 122.71 145.49L122.71 145.51Z" fill="#71964C" fill-opacity="1.000000" fill-rule="nonzero"/>
		<path id="Vector" d="M83.43 78.68C83.79 76.89 81.27 76.22 80.71 77.96C80.19 79.52 79.24 81.02 79.01 82.66C78.84 83.92 80.33 85.18 81.38 84.03C82.67 82.58 83.07 80.57 83.45 78.7L83.43 78.68Z" fill="#71964C" fill-opacity="1.000000" fill-rule="nonzero"/>
		<path id="Vector" d="M73.87 114.8C74.76 111.72 74.48 108.36 74.64 105.17C74.85 101.25 75.67 97.37 76.6 93.57C77.01 91.9 74.41 90.68 73.71 92.38C71.09 98.72 67.03 107.89 69.44 114.8C70.18 116.91 73.2 117.12 73.85 114.8L73.87 114.8Z" fill="#71964C" fill-opacity="1.000000" fill-rule="nonzero"/>
		<path id="Vector" d="M75.86 123.38C75.95 122.63 75.74 121.75 75.73 120.98C75.66 118.95 72.58 118.42 72.13 120.51C71.79 122.08 71.05 124.19 72.45 125.44C72.99 125.92 73.95 126.21 74.59 125.73C75.5 125.05 75.76 124.49 75.88 123.38L75.86 123.38Z" fill="#71964C" fill-opacity="1.000000" fill-rule="nonzero"/>
		<path id="Vector" d="M94.12 103.06C96.47 94.9 96.23 86.43 99.33 78.37C99.96 76.73 97.29 75.67 96.5 77.22C92.72 84.77 89.7 94.07 90.51 102.6C90.69 104.61 93.5 105.16 94.1 103.06L94.12 103.06Z" fill="#71964C" fill-opacity="1.000000" fill-rule="nonzero"/>
		<path id="Vector" d="M89.12 113.32C89.41 111.75 89.18 110.3 88.96 108.73C88.69 106.77 85.37 107.21 85.53 109.17C85.67 110.77 85.66 112.2 86.31 113.69C86.85 114.92 88.9 114.6 89.14 113.32L89.12 113.32Z" fill="#71964C" fill-opacity="1.000000" fill-rule="nonzero"/>
		<path id="Vector" d="M119.37 127.87C115.32 127.35 111.31 127.91 107.22 127.81C103.18 127.72 99.16 127.42 95.12 127.35C93.04 127.31 92.75 130.29 94.66 130.86C102.46 133.21 112.74 135.77 120.45 132.07C122.7 130.98 121.33 128.11 119.35 127.87L119.37 127.87Z" fill="#71964C" fill-opacity="1.000000" fill-rule="nonzero"/>
		<path id="Vector" d="M129.61 130.19C128.86 130.09 128.14 129.95 127.39 130.09C126.61 130.22 125.81 130.36 125.02 130.47C122.6 130.81 123.14 134.99 125.56 134.72C127.16 134.54 128.63 134.42 130.06 133.64C131.37 132.91 131.31 130.44 129.62 130.19L129.61 130.19Z" fill="#71964C" fill-opacity="1.000000" fill-rule="nonzero"/>
		<path id="Vector" d="M141.95 110.9C132.4 111.29 123.2 114.34 113.55 114.58C112 114.61 111.55 117.06 113.19 117.36C122.88 119.15 133.89 119.19 143.08 115.25C145.26 114.32 144.16 110.8 141.95 110.9Z" fill="#71964C" fill-opacity="1.000000" fill-rule="nonzero"/>
		<path id="Vector" d="M153.05 104.97C151.19 104.95 149.47 105.6 147.6 105.58C144.48 105.54 144.49 110.31 147.59 110.4C148.73 110.44 149.85 110.32 150.98 110.15C151.56 110.07 152.12 109.93 152.67 109.76C153.38 109.56 153.95 109.02 154.51 108.54C155.94 107.32 154.75 105.01 153.05 104.99L153.05 104.97Z" fill="#71964C" fill-opacity="1.000000" fill-rule="nonzero"/>
		<path id="Vector" d="M114.41 85.87C116.07 82.31 116.45 78.3 117.66 74.55C119.04 70.14 121.22 66 123.42 61.95C124.48 59.99 121.69 58.47 120.46 60.25C115.83 66.98 108.93 76.7 110.36 85.33C110.68 87.21 113.61 87.57 114.39 85.87L114.41 85.87Z" fill="#71964C" fill-opacity="1.000000" fill-rule="nonzero"/>
		<path id="Vector" d="M118.97 92.08C119.73 90.91 119.84 89.66 120.17 88.32C120.48 87.04 120.82 85.8 121.08 84.52C121.56 82.17 118.19 81.26 117.47 83.56C116.69 86.04 114.85 89.01 115.61 91.63C116.08 93.24 118.08 93.41 118.97 92.08Z" fill="#71964C" fill-opacity="1.000000" fill-rule="nonzero"/>
		<path id="Vector" d="M109.04 95.3C109 93.31 105.74 92.7 105.45 94.83C105.29 95.99 104.93 97.1 105.61 98.16C106.19 99.06 107.36 99.25 108.17 98.51C109.11 97.62 109.07 96.48 109.04 95.29L109.04 95.3Z" fill="#71964C" fill-opacity="1.000000" fill-rule="nonzero"/>
		<path id="Vector" d="M152.38 90.22C148.6 90.98 144.93 91.86 141.22 92.93C138.22 93.79 134.63 95.46 131.45 94.87C129.81 94.58 128.98 96.6 130.35 97.55C133.23 99.51 136.72 98.56 139.95 98.08C144.97 97.34 149.52 96.75 153.89 93.96C155.87 92.7 154.65 89.77 152.38 90.22Z" fill="#71964C" fill-opacity="1.000000" fill-rule="nonzero"/>
		<path id="Vector" d="M134.5 71.64C135.16 70.7 135.3 69.61 135.59 68.52C135.92 67.31 136.3 66.12 136.69 64.94C137.38 62.88 134.23 62.12 133.47 64.1C132.63 66.26 131.28 68.94 131.74 71.29C132.01 72.71 133.8 72.63 134.48 71.66L134.5 71.64Z" fill="#71964C" fill-opacity="1.000000" fill-rule="nonzero"/>
		<path id="Vector" d="M152.82 53.07C153.04 51.93 153.3 50.81 153.64 49.68C154 48.49 154.8 47.55 155.1 46.33C155.61 44.21 153.47 42.83 151.64 43.66C149.49 44.63 148.6 47.51 147.92 49.59C147.08 52.11 146.34 54.9 146.55 57.56C146.7 59.29 149.09 60.93 150.45 59.19C151.91 57.32 152.39 55.38 152.82 53.07Z" fill="#71964C" fill-opacity="1.000000" fill-rule="nonzero"/>
		<path id="Vector" d="M176.45 59.47C171.94 59.29 167.46 59.74 163.03 60.73C160.93 61.21 161.47 64.24 163.48 64.33C165.76 64.44 168.03 64.55 170.33 64.53C172.92 64.5 175.03 63.95 177.3 62.74C178.9 61.89 178.12 59.54 176.44 59.48L176.45 59.47Z" fill="#71964C" fill-opacity="1.000000" fill-rule="nonzero"/>
		<path id="Vector" d="M181.59 57.02C182.12 56.24 181.73 55.01 180.93 54.58C179.6 53.88 178.31 54.23 177.2 55.15C176.09 56.07 176.71 58.08 178.06 58.36C179.49 58.65 180.77 58.26 181.61 57.02L181.59 57.02Z" fill="#71964C" fill-opacity="1.000000" fill-rule="nonzero"/>
		<path id="Vector" d="M168.38 34.91C169.05 32.97 166.29 32.13 165.24 33.63C164.49 34.72 163.76 35.96 164.25 37.31C164.67 38.5 165.92 38.81 166.89 38.03C167.84 37.25 167.98 36 168.36 34.9L168.38 34.91Z" fill="#71964C" fill-opacity="1.000000" fill-rule="nonzero"/>
		<path id="Vector" d="M180.06 44.4C178.26 44.47 176.06 44.63 174.42 45.38C173.55 45.77 173.36 47.18 174.09 47.8C175.91 49.34 177.96 48.42 180.07 48.31C182.56 48.16 182.62 44.32 180.08 44.4L180.06 44.4Z" fill="#71964C" fill-opacity="1.000000" fill-rule="nonzero"/>
		<path id="Vector" d="M180.34 27.8C180.93 26.94 181.24 25.92 181.38 24.9C181.59 23.5 179.7 22.47 178.95 23.9C178.3 25.11 176.76 26.05 177.18 27.57C177.32 28.04 177.71 28.51 178.22 28.61C178.27 28.61 178.32 28.63 178.37 28.64C179.21 28.8 179.86 28.51 180.34 27.83L180.34 27.8Z" fill="#71964C" fill-opacity="1.000000" fill-rule="nonzero"/>
		<path id="Vector" d="M185.05 32.08C183.92 32.47 182.49 32.83 181.89 33.95C181.5 34.67 181.99 35.76 182.89 35.69C184.05 35.61 184.91 34.78 185.91 34.23C187.05 33.62 186.31 31.66 185.05 32.1L185.05 32.08Z" fill="#71964C" fill-opacity="1.000000" fill-rule="nonzero"/>
		<path id="Vector" d="M189.41 23.35C190.47 22.21 188.85 20.58 187.71 21.64C187.06 22.23 186.57 22.69 186.36 23.58C186.2 24.26 186.8 24.86 187.46 24.69C188.35 24.49 188.8 23.99 189.41 23.35Z" fill="#71964C" fill-opacity="1.000000" fill-rule="nonzero"/>
	</g>
</svg>
