<svg width="132" height="137" viewBox="0 0 132 137" fill="none" xmlns="http://www.w3.org/2000/svg">
<g opacity="0.5" clip-path="url(#clip0_478_3634)">
<path d="M0.0743417 51.2232C1.16036 53.9249 2.68283 56.2772 3.51885 59.1004C4.37188 61.9738 4.89992 64.9285 5.49289 67.8655C6.55315 73.0955 8.52277 78.0849 10.9625 82.8183C13.4745 87.687 16.635 92.2107 19.8775 96.6137C23.2211 101.143 26.7737 105.459 30.8818 109.316C38.914 116.851 49.2562 122.406 60.2086 124.046C65.6626 124.86 71.2163 124.391 76.6894 124.992C79.8188 125.332 84.6804 125.984 87.3445 128.217C87.8087 128.91 88.3437 129.557 88.9482 130.127C89.5145 130.662 90.327 129.769 89.7607 129.233C85.1658 124.822 86.3663 118.571 86.1043 112.916C85.8429 107.429 83.9452 102.108 81.7634 97.1136C77.0958 86.4171 70.5955 77.1372 61.8508 69.3737C53.2894 61.7768 43.1763 56.2768 32.1629 53.2007C26.9339 51.7407 21.6226 51.0077 16.195 51.3611C10.9275 51.6996 5.73983 49.4197 0.509417 50.3845C0.168801 50.4445 -0.049953 50.9151 0.0743417 51.2232Z" fill="#AEBFAC"/>
<path d="M20.1325 53.4815C14.865 53.82 9.67733 51.54 4.44692 52.5049C4.1063 52.5649 3.88755 53.0355 4.01184 53.3436C5.09786 56.0453 6.62033 58.3976 7.45635 61.2207C8.30938 64.0942 8.83742 67.0489 9.43039 69.9859C10.4907 75.2159 12.4603 80.2053 14.9 84.9387C17.412 89.8074 20.5725 94.3311 23.815 98.7341C27.1586 103.264 30.7112 107.579 34.8193 111.437C42.8515 118.971 53.1937 124.526 64.1461 126.166C69.6001 126.98 75.1538 126.511 80.6269 127.112C83.7563 127.453 88.6179 128.105 91.282 130.337C91.7462 131.031 92.2812 131.677 92.8857 132.247C93.452 132.782 94.2645 131.889 93.6982 131.354C89.1033 126.942 90.3038 120.692 90.0418 115.037C89.7804 109.55 87.8827 104.228 85.7009 99.234C81.0333 88.5375 74.533 79.2576 65.7883 71.4941C57.2269 63.8972 47.1138 58.3972 36.1004 55.3211C30.8714 53.8611 25.5601 53.1281 20.1325 53.4815ZM67.1562 74.438C75.6246 82.3826 81.5443 92.2088 85.8189 102.939C87.9021 108.164 89.1734 113.683 88.7407 119.327C88.5597 121.666 88.7836 124.219 89.5172 126.579C86.9177 124.015 84.3404 121.458 81.6999 118.954C83.9205 110.953 81.9857 101.324 77.828 94.2774C77.6527 93.9717 77.1305 94.2084 77.2631 94.538C78.7335 98.2512 80.2556 101.823 81.0929 105.749C82.0043 110 81.9368 114.261 81.2333 118.516C78.4404 115.881 75.578 113.323 72.5257 110.919C72.1233 110.602 71.7348 110.27 71.3393 109.946C72.9201 100.938 71.3634 91.1161 67.8363 82.7316C67.6633 82.3236 67.0217 82.5075 67.1665 82.9388C70.0547 91.7189 71.6906 100.288 70.8369 109.524C68.0603 107.232 65.4157 104.794 62.8478 102.28C62.8127 100.163 63.052 98.1289 63.2729 96.015C63.5285 93.5561 63.1577 90.9883 62.8734 88.5479C62.2656 83.3037 60.9519 77.9689 57.8864 73.6014C57.6045 73.2058 57.0014 73.5851 57.2479 74.0042C60.2852 79.162 61.6041 84.9128 62.2213 90.8138C62.489 93.3646 62.4851 95.7385 62.2191 98.2855C62.1128 99.2765 61.9277 100.454 62.0659 101.514C59.6042 99.0819 57.205 96.5815 54.8058 94.0811C55.5097 89.9868 55.1824 85.5692 54.5874 81.5148C53.9472 77.1267 52.6262 72.7125 49.8708 69.1774C49.6295 68.8675 49.1108 69.1771 49.3385 69.5095C54.2236 76.6388 54.4318 85.3055 54.36 93.6203C53.9448 93.1873 53.5372 92.7612 53.1219 92.3281C51.2765 90.4075 49.3895 88.5328 47.4674 86.6889C47.5559 86.7065 47.6639 86.6722 47.6948 86.5539C48.6348 83.5804 47.2161 79.7259 46.4002 76.8653C45.1362 72.4192 43.3377 68.1081 41.5563 63.8474C41.416 63.5108 40.8823 63.6604 41.009 64.0195C42.2551 67.6266 43.7595 71.1336 45.0198 74.7327C46.2037 78.109 48.1334 82.8739 47.3403 86.4758C47.3351 86.5199 47.3437 86.5487 47.3597 86.5771C44.5109 83.8425 41.5857 81.1919 38.5911 78.6176C38.7633 76.5571 37.8936 74.2541 37.4222 72.3338C36.6882 69.3524 35.6241 66.4963 34.1152 63.8147C33.9315 63.4875 33.4784 63.7939 33.6329 64.1225C34.7269 66.3783 35.6553 68.6858 36.3979 71.0825C37.0451 73.1624 38.0755 75.9252 38.18 78.272C36.4353 76.7775 34.6698 75.3059 32.891 73.8642C32.207 73.3125 31.5157 72.7612 30.8321 72.2167C30.9651 72.2469 31.1154 72.1813 31.0995 71.9995C30.7273 67.4087 30.6591 60.7584 26.8145 57.5235C26.5631 57.309 26.244 57.6675 26.4673 57.9052C29.9289 61.5382 30.0583 67.3237 30.6331 72.029C30.6345 72.0582 30.6575 72.079 30.6731 72.1001C28.6381 70.4953 26.5896 68.9131 24.5477 67.3159C24.4078 64.3792 23.8388 60.8714 21.6917 58.7534C21.5077 58.5723 21.1699 58.844 21.3403 59.0477C23.2402 61.3455 23.3728 64.1291 23.9859 66.8752C21.9134 65.2503 19.8618 63.6025 17.8654 61.8863C18.1303 60.0843 17.4061 58.3805 16.9735 56.6629C16.9103 56.4103 16.4899 56.4814 16.5242 56.7427C16.7037 58.3629 17.4765 59.8598 17.4237 61.5129C15.6325 59.9622 13.8822 58.3512 12.215 56.6412C12.0306 56.4528 11.7671 56.7502 11.9441 56.9389C13.9798 59.1718 16.1682 61.2368 18.433 63.2177C16.5932 62.4873 14.5634 62.0654 12.7336 61.393C12.4659 61.2962 12.2708 61.6488 12.5333 61.7897C14.5912 62.9552 17.1852 63.7153 19.5083 64.1598C21.4968 65.8617 23.5262 67.5033 25.5771 69.1366C22.2029 68.2602 18.7614 68.1173 15.5657 66.3852C15.273 66.2239 15.0744 66.6569 15.3386 66.8343C18.5714 69.0393 22.6908 69.296 26.4812 69.8604C28.4183 71.4041 30.3626 72.9475 32.265 74.5294C32.6379 74.8403 33.0035 75.1516 33.3767 75.4698C28.5366 75.4228 23.8871 74.6217 19.7054 71.9798C19.4568 71.8236 19.1766 72.2314 19.4113 72.4028C23.4507 75.4313 28.972 76.4318 33.9479 75.9538C36.3314 77.9729 38.6667 80.0528 40.9604 82.1784C34.7373 80.868 28.5799 80.3214 23.0173 76.7665C22.7159 76.5764 22.3739 77.0674 22.6618 77.2801C28.2004 81.4058 35.1866 82.0152 41.8246 82.9845C45.3893 86.3277 48.8495 89.7782 52.1903 93.3292C53.676 94.9091 55.1544 96.4893 56.6467 98.0542C51.953 99.0884 47.6671 99.6285 42.8447 99.0329C38.3972 98.4851 34.0797 97.1351 29.9045 95.5519C29.458 95.3832 29.1153 96.0131 29.5639 96.2254C33.9134 98.2459 38.5694 99.4921 43.3311 100.04C47.7108 100.547 52.8679 100.498 56.9182 98.5379C56.9682 98.5136 56.996 98.4831 57.0234 98.4453C59.2312 100.765 61.4669 103.054 63.772 105.267C62.1873 105.138 60.5731 105.463 59.0134 105.705C56.5979 106.083 54.1865 106.242 51.7376 106.227C46.6721 106.205 42.0987 104.699 37.7944 102.093C37.4333 101.876 37.0295 102.45 37.3704 102.704C41.0616 105.479 45.2604 106.791 49.8297 107.136C54.8316 107.511 59.5162 105.981 64.4296 105.878C66.6871 108.013 69.0144 110.078 71.4674 112.021C71.8094 112.297 72.1445 112.58 72.4865 112.856C71.0712 112.909 69.6654 113.159 68.2588 113.394C65.5613 113.836 62.9006 113.824 60.1879 113.486C55.1887 112.862 50.508 110.945 45.8544 109.136C45.4301 108.974 45.1006 109.574 45.527 109.78C49.8462 111.933 54.4679 113.532 59.2466 114.283C61.5069 114.635 63.8273 114.715 66.105 114.511C68.4772 114.296 70.7785 113.668 73.1486 113.409C75.6214 115.46 77.9817 117.605 80.3218 119.787C77.6792 120.92 73.9064 120.268 71.1283 120.4C67.1983 120.587 63.397 120.41 59.6826 118.988C59.2954 118.838 59.0135 119.363 59.3888 119.571C63.0157 121.612 67.1194 121.694 71.1783 121.449C73.2408 121.329 75.2921 121.282 77.3639 121.206C78.5823 121.162 79.8295 120.957 80.7805 120.21C83.7022 122.942 86.6034 125.703 89.6446 128.333C87.8794 127.483 85.8187 127.026 84.1184 126.617C79.6092 125.539 74.9573 125.608 70.346 125.455C58.0123 125.041 46.6586 120.039 37.3417 112.076C28.9238 104.881 21.951 95.193 16.6024 85.5441C13.8279 80.5346 11.833 75.1666 10.6383 69.5705C10.0089 66.6353 9.49616 63.6944 8.70041 60.7963C7.98383 58.1793 6.63982 56.0449 5.56769 53.6347C10.3971 52.9957 15.2781 55.1296 20.1623 54.7217C25.7236 54.2596 31.1776 55.2269 36.5104 56.7184C48.0568 59.9372 58.4199 66.2359 67.1257 74.4102L67.1562 74.438Z" fill="#90B87E"/>
<path d="M36.5408 56.7535C31.2081 55.2619 25.7541 54.2946 20.1928 54.7567C15.3013 55.165 10.4275 53.0307 5.59813 53.6697C6.67026 56.0799 8.01427 58.2143 8.73085 60.8314C9.52659 63.7295 10.0394 66.6703 10.6688 69.6056C11.8634 75.2016 13.8584 80.5696 16.6328 85.5792C21.9887 95.2277 28.9542 104.916 37.3722 112.111C46.6967 120.081 58.0501 125.076 70.3764 125.49C74.9804 125.643 79.6397 125.574 84.1489 126.652C85.8491 127.061 87.9098 127.518 89.675 128.368C86.6412 125.738 83.7399 122.976 80.8109 120.245C79.8602 120.999 78.6127 121.197 77.3943 121.241C75.3298 121.317 73.2785 121.364 71.2088 121.484C67.1495 121.721 63.0462 121.647 59.4192 119.606C59.0439 119.398 59.3259 118.873 59.713 119.023C63.4278 120.453 67.2284 120.615 71.1588 120.435C73.9368 120.303 77.71 120.963 80.3523 119.822C78.0121 117.64 75.6518 115.496 73.179 113.444C70.8089 113.703 68.5076 114.331 66.1355 114.546C63.8578 114.75 61.5373 114.67 59.277 114.318C54.4987 113.574 49.8767 111.968 45.5574 109.815C45.1307 109.602 45.4602 109.002 45.8848 109.171C50.5385 110.98 55.2192 112.897 60.2183 113.521C62.9311 113.859 65.5921 113.879 68.2892 113.429C69.6885 113.194 71.1017 112.944 72.5169 112.891C72.1749 112.616 71.8399 112.332 71.4979 112.056C69.0448 110.113 66.7175 108.048 64.46 105.913C59.5463 106.008 54.8544 107.539 49.8601 107.171C45.2912 106.833 41.0847 105.515 37.4009 102.739C37.0599 102.485 37.4634 101.904 37.8248 102.128C42.1292 104.734 46.7026 106.24 51.7681 106.262C54.2166 106.27 56.6283 106.118 59.0439 105.74C60.6036 105.498 62.2177 105.173 63.8024 105.302C61.4973 103.089 59.2617 100.8 57.0538 98.4803C57.0337 98.5178 56.9986 98.5487 56.9486 98.5729C52.8984 100.533 47.7412 100.582 43.3615 100.075C38.5995 99.5199 33.9434 98.2736 29.5943 96.2605C29.1457 96.0481 29.4884 95.4183 29.935 95.5869C34.1098 97.1628 38.4277 98.5202 42.8751 99.0679C47.6972 99.6563 51.9762 99.1238 56.6771 98.0892C55.1848 96.5243 53.7061 94.9368 52.2208 93.3643C48.88 89.8132 45.4197 86.3627 41.855 83.0195C35.217 82.0502 28.2312 81.4481 22.6922 77.3151C22.4044 77.1024 22.746 76.6041 23.0477 76.8016C28.6103 80.3564 34.7678 80.9031 40.9908 82.2135C38.6972 80.0878 36.3546 78.0083 33.9783 75.9889C29.0024 76.4668 23.4811 75.4663 19.4417 72.4378C19.2067 72.2591 19.4872 71.8587 19.7358 72.0148C23.9172 74.6494 28.5667 75.4505 33.4072 75.5048C33.0343 75.1939 32.6683 74.8754 32.2954 74.5645C30.3931 72.9826 28.456 71.4388 26.5117 69.8954C22.7212 69.331 18.5946 69.0747 15.369 66.8693C15.1121 66.6916 15.3034 66.2589 15.5961 66.4203C18.7918 68.1524 22.2334 68.2952 25.6076 69.1716C23.5639 67.538 21.5272 65.8968 19.5388 64.1948C17.2156 63.7504 14.6216 62.9902 12.5637 61.8247C12.3082 61.6762 12.5036 61.3309 12.764 61.4281C14.5938 62.1005 16.6236 62.5224 18.4635 63.2527C16.1983 61.2645 14.0102 59.2069 11.9746 56.974C11.8048 56.7849 12.0611 56.4878 12.2454 56.6762C13.9123 58.3789 15.6626 59.99 17.4542 61.5479C17.5 59.9025 16.7345 58.4052 16.5547 56.7778C16.5276 56.5161 16.9408 56.4453 17.0039 56.6979C17.4365 58.4156 18.1608 60.1193 17.8958 61.9213C19.8922 63.6375 21.9439 65.2853 24.0163 66.9103C23.4032 64.1641 23.2634 61.3808 21.3708 59.0827C21.2003 58.879 21.5381 58.6073 21.7222 58.7885C23.862 60.9068 24.431 64.4146 24.5781 67.3509C26.62 68.9481 28.6682 70.5231 30.7035 72.1352C30.6879 72.114 30.665 72.0932 30.6636 72.064C30.0818 67.3664 29.9593 61.5732 26.4977 57.9402C26.2745 57.7025 26.5863 57.3444 26.8449 57.5585C30.6895 60.7935 30.7651 67.4434 31.1299 72.0345C31.1386 72.2167 30.9952 72.2747 30.8625 72.2518C31.5535 72.7958 32.2444 73.3399 32.9215 73.8993C34.7005 75.3483 36.4657 76.8125 38.2104 78.307C38.106 75.9603 37.0755 73.1975 36.4284 71.1176C35.6857 68.7209 34.7573 66.4133 33.6633 64.1575C33.5092 63.8362 33.9623 63.5298 34.1456 63.8497C35.6472 66.5316 36.7183 69.3801 37.4526 72.3688C37.9241 74.2891 38.8011 76.5918 38.6215 78.6526C41.6162 81.2269 44.5417 83.8848 47.3902 86.6122C47.3815 86.5834 47.3655 86.5549 47.3707 86.5108C48.1638 82.9089 46.2341 78.144 45.0502 74.7677C43.7899 71.1687 42.2855 67.6616 41.0395 64.0545C40.9128 63.6954 41.4464 63.5458 41.5867 63.8824C43.3754 68.1428 45.1666 72.4543 46.4307 76.9003C47.2462 79.7537 48.6652 83.6154 47.7252 86.5889C47.6867 86.7003 47.5863 86.7416 47.4978 86.7239C49.4199 88.5678 51.307 90.4426 53.1524 92.3631C53.5676 92.7962 53.9752 93.2223 54.3905 93.6553C54.4625 85.3478 54.2541 76.6738 49.369 69.5445C49.1409 69.2048 49.6523 68.8956 49.9012 69.2124C52.6566 72.7476 53.9777 77.1617 54.6178 81.5499C55.2129 85.6042 55.5329 90.0222 54.8363 94.1161C57.2355 96.6165 59.6343 99.1097 62.0963 101.549C61.9581 100.489 62.1432 99.3115 62.2495 98.3205C62.5155 95.7735 62.5194 93.3997 62.2518 90.8489C61.6273 84.9481 60.3083 79.1973 57.2783 74.0393C57.0318 73.6201 57.6349 73.2408 57.9169 73.6364C60.9826 78.0113 62.2964 83.346 62.9039 88.5829C63.1882 91.0234 63.5589 93.5912 63.3033 96.05C63.0825 98.164 62.8508 100.205 62.8782 102.315C65.4461 104.829 68.0904 107.259 70.8674 109.559C71.721 100.323 70.0848 91.7466 67.1969 82.9739C67.0518 82.5352 67.6934 82.3513 67.8667 82.7667C71.4011 91.1508 72.9505 100.973 71.3698 109.981C71.7652 110.305 72.1538 110.637 72.5562 110.954C75.6012 113.358 78.4635 115.917 81.2637 118.551C81.9673 114.296 82.0347 110.035 81.1234 105.784C80.286 101.858 78.7639 98.2862 77.2936 94.573C77.1609 94.2434 77.6758 94.0071 77.8585 94.3124C82.0162 101.36 83.951 110.988 81.7304 118.989C84.3632 121.486 86.9408 124.051 89.5476 126.614C88.814 124.254 88.5902 121.701 88.7711 119.362C89.2039 113.718 87.9325 108.199 85.8493 102.974C81.5751 92.2511 75.6481 82.4253 67.1867 74.473C58.4809 66.2987 48.1178 59.9999 36.5714 56.7812L36.5408 56.7535ZM39.4125 91.272C41.8871 91.6727 44.17 91.7319 46.654 91.5625C48.0744 91.4656 49.4674 91.4066 50.7969 92.0079C51.0059 92.1002 50.884 92.4566 50.6615 92.3868C48.5754 91.7047 46.3349 92.3811 44.2051 92.4679C42.0607 92.5554 39.8292 92.1943 37.7331 91.761C32.8836 90.7503 28.2692 88.9981 24.0124 86.4693C23.6892 86.2802 23.9427 85.7715 24.2725 85.9457C29.024 88.429 34.0954 90.4151 39.4129 91.2793L39.4125 91.272Z" fill="#4D7C43"/>
<path d="M24.005 86.4624C28.2618 88.9912 32.8835 90.743 37.7256 91.754C39.8221 92.1946 42.046 92.5488 44.1976 92.461C46.3274 92.3741 48.568 91.6978 50.654 92.3799C50.8766 92.4496 50.9912 92.0936 50.7895 92.001C49.4673 91.3993 48.0743 91.4583 46.6466 91.5556C44.1626 91.725 41.8724 91.6661 39.4051 91.265C34.0876 90.4008 29.0163 88.4148 24.2647 85.9315C23.9276 85.7576 23.6811 86.2587 24.0047 86.4551L24.005 86.4624Z" fill="#90B87E"/>
<path d="M72.6254 94.7589C72.0614 99.1825 74.5474 103.658 73.8962 108.093C73.7091 109.38 75.4649 109.727 75.8451 108.504C76.492 106.436 76.3546 104.164 76.3841 102.022C76.4172 99.4936 76.294 96.5999 75.1833 94.3011C74.6559 93.2015 72.7671 93.5909 72.6181 94.7592L72.6254 94.7589Z" fill="#71964C"/>
<path d="M74.4636 90.0701C74.608 90.3408 74.6806 90.6368 74.7601 90.9251C74.8937 91.43 75.1132 91.7409 75.5715 92.0039C75.9926 92.2541 76.6475 92.0403 76.8377 91.5857C77.068 91.0489 77.0124 90.6499 76.819 90.1186C76.668 89.7095 76.4805 89.3021 76.2441 88.9409C75.4882 87.801 73.8369 88.8803 74.4705 90.0625L74.4636 90.0701Z" fill="#71964C"/>
<path d="M71.5876 85.3941C71.7747 85.6408 71.8612 85.9215 72.1195 86.1283C72.4382 86.376 73.0379 86.384 73.2063 85.9305C73.4327 85.3135 73.2348 84.8409 72.7473 84.4259C72.1147 83.879 71.0498 84.6893 71.5879 85.4014L71.5876 85.3941Z" fill="#71964C"/>
<path d="M55.304 115.281C54.4641 114.985 53.4415 114.691 52.5628 114.959C51.7919 115.193 51.7884 116.194 52.4273 116.565C53.1339 116.977 53.9377 117.282 54.6654 117.678C55.573 118.168 56.4466 118.711 57.5049 118.376C58.3615 118.101 58.5587 117.025 57.9379 116.42C57.2484 115.751 56.181 115.59 55.2963 115.274L55.304 115.281Z" fill="#71964C"/>
<path d="M70.0977 115.03C68.4987 114.755 66.9276 115.217 65.3461 115.46C63.4958 115.738 61.6632 115.928 59.8289 115.468C58.749 115.198 58.1077 116.923 59.1722 117.332C60.9142 118.001 62.6839 118.18 64.5398 118.172C66.3519 118.166 68.5407 118.091 70.2073 117.332C71.2017 116.883 71.4018 115.252 70.0977 115.03Z" fill="#71964C"/>
<path d="M74.51 116.828C73.8913 116.726 73.242 116.75 72.6215 116.765C72.0375 116.778 71.5806 117.311 71.6077 117.879C71.6368 118.491 72.1451 118.883 72.7229 118.892C73.2642 118.903 73.801 118.973 74.3419 118.976C74.8023 118.976 75.2877 118.58 75.3534 118.117C75.3638 118.029 75.3739 117.934 75.3766 117.839C75.3836 117.371 74.9739 116.901 74.5173 116.828L74.51 116.828Z" fill="#71964C"/>
<path d="M77.8168 122.28C76.9422 122.022 75.9818 122.265 75.0953 122.373C74.0711 122.502 73.0385 122.609 72.002 122.637C71.1774 122.662 71.277 123.833 72.0614 123.883C72.9999 123.948 73.9422 123.939 74.8842 123.924C75.855 123.9 76.9574 124.03 77.8768 123.694C78.5879 123.433 78.5067 122.495 77.8098 122.287L77.8168 122.28Z" fill="#71964C"/>
<path d="M83.8616 108.035C83.6987 109.832 83.7927 111.653 83.8642 113.461C83.9295 115.138 84.4655 116.88 83.9592 118.525C83.6745 119.452 85.1904 119.978 85.5571 119.085C86.1995 117.535 86.0637 115.913 86.0436 114.263C86.0152 112.132 86.5267 109.982 85.6771 107.948C85.3556 107.182 83.9508 106.993 83.8543 108.035L83.8616 108.035Z" fill="#71964C"/>
<path d="M83.3593 104.538C83.3197 104.628 83.2871 104.71 83.2472 104.792C83.0301 105.299 83.3586 105.904 83.9492 105.876C84.5398 105.848 84.8093 105.214 84.545 104.73C84.4975 104.652 84.4568 104.566 84.4093 104.488C84.1933 104.097 83.5371 104.128 83.3593 104.538Z" fill="#71964C"/>
<path d="M61.21 108.858C59.5152 108.566 57.7101 108.871 55.9966 108.953C54.0498 109.046 52.1279 108.896 50.2471 108.379C49.3808 108.143 48.8634 109.555 49.7193 109.88C53.0761 111.159 57.7954 111.891 61.296 110.818C62.2467 110.525 62.2196 109.036 61.2027 108.858L61.21 108.858Z" fill="#71964C"/>
<path d="M64.1335 111.333C63.138 111.454 63.1922 112.897 64.2078 112.893C64.9383 112.887 65.7286 112.908 66.3588 112.484C66.7695 112.208 66.7407 111.604 66.3057 111.369C65.6005 110.986 64.8745 111.24 64.1332 111.326L64.1335 111.333Z" fill="#71964C"/>
<path d="M64.6872 96.2471C64.5758 96.6687 64.4719 97.0972 64.3827 97.5251C64.2865 97.9606 64.4209 98.48 64.4636 98.9162C64.5504 99.8177 64.6371 100.719 64.7093 101.621C64.8117 103.004 66.8231 102.887 66.8384 101.52C66.8464 100.614 66.8399 99.7087 66.826 98.8037C66.8198 98.3658 66.8965 97.829 66.7597 97.4119C66.6229 96.9948 66.4792 96.5853 66.3497 96.1679C66.0761 95.3337 64.9112 95.4257 64.7018 96.2464L64.6872 96.2471Z" fill="#71964C"/>
<path d="M63.7408 81.2834C63.9366 83.3994 64.5931 85.3693 65.1941 87.4003C65.8215 89.5249 66.2603 91.6805 66.7359 93.8416C66.8484 94.3621 67.7012 94.3142 67.764 93.7926C68.3131 89.6692 67.1372 84.7734 65.6467 80.9443C65.2634 79.9547 63.6273 80.1275 63.7335 81.2837L63.7408 81.2834Z" fill="#71964C"/>
<path d="M35.9968 99.4977C35.2239 99.3812 34.9909 100.473 35.7461 100.678C36.4273 100.865 37.0884 101.242 37.7929 101.304C38.3359 101.351 38.845 100.684 38.328 100.263C37.6818 99.7388 36.8135 99.6122 36.0038 99.4901L35.9968 99.4977Z" fill="#71964C"/>
<path d="M51.648 102.82C50.3102 102.504 48.8797 102.697 47.513 102.696C45.8318 102.688 44.1527 102.418 42.508 102.102C41.7851 101.961 41.3205 103.1 42.0639 103.365C44.8294 104.35 48.8345 105.89 51.7382 104.715C52.6271 104.351 52.6531 103.057 51.6483 102.828L51.648 102.82Z" fill="#71964C"/>
<path d="M55.2749 101.786C54.9524 101.765 54.5774 101.87 54.2496 101.893C53.3833 101.964 53.2201 103.293 54.126 103.44C54.8037 103.554 55.7228 103.824 56.2266 103.201C56.4197 102.958 56.5242 102.544 56.3069 102.277C55.9968 101.905 55.751 101.807 55.2746 101.779L55.2749 101.786Z" fill="#71964C"/>
<path d="M46.198 94.4107C42.6579 93.5787 39.0392 93.8606 35.5276 92.7059C34.8147 92.4696 34.4172 93.6352 35.0966 93.9388C38.4034 95.3954 42.4457 96.4883 46.0747 95.9649C46.9313 95.8438 47.1074 94.6303 46.1984 94.418L46.198 94.4107Z" fill="#71964C"/>
<path d="M50.6889 96.3295C50.0122 96.2375 49.3973 96.3691 48.731 96.4957C47.898 96.6523 48.1553 98.0642 48.9903 97.9514C49.6729 97.8605 50.2854 97.8313 50.9066 97.5242C51.4205 97.266 51.2403 96.3981 50.6886 96.3222L50.6889 96.3295Z" fill="#71964C"/>
<path d="M56.2698 83.0853C56.1336 84.83 56.4558 86.531 56.5026 88.2816C56.5484 90.0104 56.5064 91.736 56.5594 93.4644C56.5872 94.3541 57.8691 94.4173 58.0709 93.5897C58.9108 90.2046 59.7876 85.7515 58.0412 82.5335C57.5288 81.5939 56.3319 82.2424 56.2701 83.0926L56.2698 83.0853Z" fill="#71964C"/>
<path d="M57.0456 78.6589C57.0171 78.9816 56.9734 79.2905 57.047 79.6083C57.1213 79.9407 57.1959 80.2805 57.2629 80.6132C57.458 81.641 59.2333 81.3228 59.0674 80.2936C58.9546 79.6124 58.8737 78.9882 58.5091 78.392C58.1689 77.8459 57.113 77.9254 57.0453 78.6516L57.0456 78.6589Z" fill="#71964C"/>
<path d="M48.534 73.7911C48.9034 77.8635 50.4033 81.736 50.7091 85.8552C50.7552 86.5176 51.8142 86.6571 51.9048 85.9516C52.4657 81.7692 52.2488 77.0615 50.3701 73.2143C49.9247 72.3007 48.4452 72.8459 48.534 73.7911Z" fill="#71964C"/>
<path d="M45.7635 69.1685C45.794 69.9631 46.1061 70.6859 46.137 71.4878C46.1859 72.822 48.2272 72.7175 48.2005 71.3895C48.1918 70.9006 48.1179 70.4221 48.0221 69.9446C47.9738 69.6986 47.904 69.4609 47.82 69.2312C47.7179 68.9293 47.4731 68.7 47.2575 68.4692C46.7034 67.8821 45.7433 68.4391 45.7708 69.1681L45.7635 69.1685Z" fill="#71964C"/>
<path d="M38.4134 86.0975C36.8558 85.4633 35.1347 85.3845 33.5062 84.9509C31.5897 84.4505 29.7738 83.6095 27.9936 82.7521C27.1336 82.3402 26.5416 83.5662 27.3322 84.0544C30.3063 85.892 34.6099 88.6377 38.2699 87.8426C39.0654 87.6659 39.1588 86.4053 38.4137 86.1048L38.4134 86.0975Z" fill="#71964C"/>
<path d="M40.975 84.0182C40.4563 83.7142 39.922 83.6959 39.3393 83.5849C38.7862 83.4797 38.247 83.3593 37.695 83.2761C36.679 83.12 36.3613 84.5812 37.3602 84.8404C38.4404 85.1176 39.7466 85.8442 40.8538 85.4628C41.5295 85.2261 41.5618 84.37 40.975 84.0182Z" fill="#71964C"/>
<path d="M42.562 88.1933C41.71 88.2558 41.5211 89.6598 42.4384 89.7402C42.9373 89.7822 43.4186 89.9127 43.8568 89.5997C44.2314 89.3335 44.2877 88.8269 43.9505 88.4997C43.5523 88.1169 43.0645 88.1548 42.5547 88.1936L42.562 88.1933Z" fill="#71964C"/>
<path d="M39.4703 69.7677C39.8755 71.3698 40.3293 72.9184 40.8643 74.4851C41.2972 75.7499 42.0847 77.2461 41.9016 78.6206C41.811 79.3261 42.6957 79.6418 43.0686 79.0325C43.8485 77.761 43.369 76.2866 43.092 74.9195C42.6688 72.7851 42.3209 70.8516 41.0363 69.0431C40.4564 68.2235 39.2273 68.8079 39.4703 69.7677Z" fill="#71964C"/>
<path d="M31.9026 77.8114C31.4881 77.5463 31.0186 77.5102 30.5461 77.4085C30.0218 77.2947 29.5038 77.1587 28.9927 77.0151C28.0965 76.7656 27.8399 78.129 28.701 78.4094C29.644 78.7223 30.8162 79.2435 31.813 78.9988C32.4127 78.8534 32.3398 78.09 31.9103 77.8183L31.9026 77.8114Z" fill="#71964C"/>
<path d="M23.5747 70.3713C23.0816 70.2998 22.5952 70.2134 22.107 70.0906C21.5893 69.9619 21.172 69.6385 20.6411 69.5396C19.7266 69.3641 19.1797 70.3104 19.5741 71.0731C20.0334 71.9714 21.2837 72.2917 22.1872 72.5408C23.2833 72.8465 24.494 73.1029 25.627 72.954C26.3603 72.8533 27.0117 71.7998 26.2402 71.2522C25.4086 70.671 24.5677 70.5066 23.5747 70.3713Z" fill="#71964C"/>
<path d="M25.8061 60.1277C25.8251 62.0623 26.1132 63.9694 26.6337 65.8435C26.8805 66.7301 28.1673 66.4351 28.1628 65.5735C28.16 64.5949 28.1576 63.6237 28.1035 62.6403C28.0362 61.5334 27.7525 60.6412 27.1887 59.6967C26.7915 59.0291 25.8012 59.4122 25.8137 60.1347L25.8061 60.1277Z" fill="#71964C"/>
<path d="M24.6513 57.9844C24.3051 57.7745 23.7881 57.9671 23.6221 58.3182C23.3502 58.9009 23.5297 59.4474 23.946 59.9023C24.3623 60.3572 25.2099 60.0466 25.2991 59.4654C25.3939 58.8473 25.2002 58.3088 24.6509 57.9771L24.6513 57.9844Z" fill="#71964C"/>
<path d="M15.4792 64.1033C14.6344 63.8587 14.3334 65.0562 14.9962 65.4702C15.4781 65.7686 16.0253 66.0566 16.5913 65.8178C17.093 65.6113 17.1989 65.0731 16.8437 64.6737C16.4889 64.2816 15.9538 64.2487 15.4723 64.111L15.4792 64.1033Z" fill="#71964C"/>
<path d="M19.2869 58.9044C19.3528 59.6755 19.4705 60.612 19.8247 61.2963C20.0101 61.6599 20.6191 61.7113 20.8666 61.3854C21.4857 60.5745 21.0503 59.7188 20.9563 58.8176C20.84 57.7569 19.1984 57.8131 19.2865 58.8972L19.2869 58.9044Z" fill="#71964C"/>
<path d="M12.1804 59.1406C11.8037 58.9029 11.3599 58.7926 10.9197 58.7552C10.3176 58.6962 9.91866 59.5259 10.5464 59.8173C11.0773 60.0696 11.5096 60.7063 12.1498 60.4932C12.3512 60.4252 12.5401 60.2482 12.5734 60.0276C12.5724 60.0057 12.5786 59.9835 12.5849 59.9613C12.6335 59.6011 12.4964 59.3301 12.195 59.1399L12.1804 59.1406Z" fill="#71964C"/>
<path d="M13.9143 57.035C14.1049 57.5079 14.2872 58.1128 14.7806 58.3449C15.0948 58.4979 15.5514 58.2644 15.5038 57.8795C15.4438 57.3857 15.0691 57.0384 14.8153 56.6196C14.5296 56.1439 13.7063 56.5044 13.9216 57.0346L13.9143 57.035Z" fill="#71964C"/>
<path d="M10.0857 55.3549C9.57562 54.9264 8.9159 55.6517 9.39123 56.1184C9.65961 56.3831 9.86655 56.5851 10.2499 56.6545C10.5446 56.7061 10.7877 56.4389 10.7013 56.1582C10.5957 55.7835 10.3752 55.6041 10.0857 55.3549Z" fill="#71964C"/>
</g>
<g clip-path="url(#clip1_478_3634)">
<path d="M124.719 0.0244998C123.114 0.830119 121.747 1.88611 120.054 2.5443C118.332 3.21551 116.543 3.69113 114.768 4.20576C111.608 5.12484 108.642 6.5905 105.858 8.33201C102.994 10.1248 100.375 12.2986 97.8351 14.5166C95.2222 16.8032 92.7517 19.2073 90.5908 21.9294C86.3709 27.2513 83.4858 33.8916 83.0377 40.7068C82.8164 44.1005 83.3887 47.4898 83.2991 50.8843C83.2499 52.825 83.0977 55.8463 81.8621 57.5978C81.4595 57.9186 81.0895 58.2805 80.7701 58.6811C80.47 59.0565 81.0605 59.5102 81.3606 59.1348C83.837 56.0852 87.74 56.5034 91.2022 56.0531C94.5612 55.6119 97.7347 54.1735 100.692 52.5772C107.028 49.1615 112.399 44.6919 116.723 38.9204C120.954 33.2701 123.818 26.7734 125.145 19.8472C125.775 16.5588 125.954 13.257 125.459 9.9393C124.982 6.71918 126.118 3.41427 125.257 0.249007C125.203 0.0427361 124.902 -0.0676481 124.719 0.0244998Z" fill="#AEBFAC"/>
<path d="M124.078 11.3305C123.601 8.11035 124.737 4.80545 123.876 1.64018C123.822 1.43391 123.522 1.32353 123.339 1.41567C121.734 2.22129 120.366 3.27729 118.673 3.93547C116.951 4.60668 115.162 5.08231 113.387 5.59693C110.227 6.51601 107.261 7.98168 104.477 9.72319C101.613 11.516 98.9945 13.6898 96.4542 15.9078C93.8413 18.1944 91.3709 20.5984 89.2099 23.3206C84.99 28.6424 82.1049 35.2828 81.6569 42.098C81.4356 45.4916 82.0078 48.8809 81.9182 52.2754C81.8691 54.2162 81.7169 57.2375 80.4812 58.989C80.0786 59.3097 79.7087 59.6716 79.3892 60.0723C79.0891 60.4477 79.6796 60.9014 79.9797 60.526C82.4561 57.4764 86.3591 57.8945 89.8213 57.4443C93.1803 57.0031 96.3539 55.5646 99.3116 53.9684C105.647 50.5526 111.018 46.083 115.342 40.3116C119.574 34.6613 122.437 28.1645 123.764 21.2384C124.394 17.95 124.573 14.6482 124.078 11.3305ZM113.603 41.3028C109.153 46.9137 103.417 51.0544 97.0408 54.2303C93.936 55.7778 90.6088 56.8414 87.1177 56.8641C85.6712 56.8724 84.1137 57.1406 82.7004 57.7122C84.1432 55.9834 85.5834 54.2686 86.987 52.5178C92.0179 53.4734 97.8368 51.7919 101.955 48.8762C102.134 48.7528 101.962 48.444 101.766 48.5424C99.5593 49.6359 97.4418 50.754 95.0718 51.4695C92.5057 52.2469 89.8833 52.4234 87.2323 52.2086C88.7089 50.3573 90.1351 48.4673 91.4563 46.4684C91.6304 46.2049 91.8146 45.9491 91.9938 45.6895C97.6106 46.2004 103.568 44.7414 108.54 42.1449C108.782 42.0177 108.637 41.6328 108.379 41.7438C103.13 43.9679 97.9472 45.4115 92.2272 45.3592C93.4942 43.5354 94.8571 41.7854 96.2711 40.0786C97.57 39.9488 98.8326 39.9919 100.143 40.0195C101.667 40.0509 103.227 39.6917 104.712 39.3922C107.904 38.7504 111.116 37.6702 113.643 35.5628C113.872 35.3693 113.608 35.0181 113.363 35.191C110.348 37.3215 106.881 38.4261 103.286 39.1072C101.732 39.4022 100.273 39.5212 98.6938 39.4879C98.0793 39.4733 97.3462 39.4197 96.702 39.5588C98.0706 37.9216 99.4847 36.3192 100.899 34.7168C103.451 34.94 106.149 34.5129 108.611 33.9399C111.275 33.3221 113.92 32.2845 115.952 30.4102C116.13 30.2461 115.913 29.9431 115.721 30.1001C111.589 33.467 106.273 34.0381 101.159 34.4192C101.404 34.1419 101.645 33.8695 101.89 33.5922C102.976 32.3598 104.032 31.1042 105.067 29.8285C105.06 29.8839 105.087 29.9485 105.161 29.9614C107.037 30.3871 109.333 29.3181 111.05 28.6704C113.718 27.6661 116.275 26.3403 118.803 25.0276C119.002 24.9241 118.883 24.6038 118.669 24.7C116.516 25.6503 114.437 26.7543 112.29 27.7129C110.275 28.6132 107.445 30.0428 105.191 29.7395C105.164 29.7386 105.147 29.7454 105.13 29.7567C106.665 27.866 108.144 25.9326 109.573 23.9605C110.849 23.961 112.22 23.3087 113.376 22.9207C115.17 22.3172 116.871 21.5171 118.442 20.4526C118.634 20.323 118.423 20.0602 118.229 20.1719C116.898 20.9597 115.527 21.6482 114.092 22.2272C112.847 22.7313 111.202 23.5059 109.765 23.6901C110.594 22.5414 111.408 21.3811 112.203 20.2141C112.507 19.7655 112.811 19.3125 113.111 18.8645C113.099 18.9477 113.147 19.0368 113.258 19.0177C116.06 18.5542 120.144 18.1722 121.936 15.6439C122.055 15.4784 121.818 15.3007 121.683 15.45C119.627 17.7633 116.078 18.1387 113.216 18.7326C113.198 18.7349 113.186 18.7501 113.174 18.7608C114.056 17.428 114.924 16.0881 115.801 14.7515C117.599 14.5153 119.726 13.9863 120.918 12.5583C121.02 12.436 120.835 12.2422 120.719 12.3574C119.404 13.6426 117.7 13.8664 116.043 14.3837C116.936 13.0268 117.844 11.6816 118.797 10.3669C119.918 10.4376 120.928 9.90534 121.961 9.55164C122.113 9.49989 122.048 9.2451 121.889 9.27959C120.903 9.47274 120.022 10.0243 119.004 10.0764C119.865 8.89617 120.766 7.73808 121.731 6.62594C121.838 6.503 121.641 6.35623 121.534 6.47471C120.266 7.84 119.109 9.2906 118.007 10.7838C118.362 9.61573 118.518 8.34665 118.837 7.18768C118.883 7.0182 118.657 6.9163 118.583 7.08483C117.972 8.4092 117.638 10.0423 117.483 11.4929C116.539 12.802 115.634 14.1332 114.735 15.4773C115.101 13.3587 115.013 11.2362 115.914 9.18356C115.998 8.99542 115.722 8.8955 115.626 9.06695C114.436 11.1666 114.489 13.7115 114.336 16.07C113.487 17.3394 112.637 18.6133 111.762 19.8634C111.59 20.1085 111.418 20.3491 111.241 20.5948C111.023 17.6176 111.277 14.7191 112.687 12.0139C112.771 11.8531 112.506 11.7017 112.412 11.8548C110.758 14.4922 110.425 17.9368 110.973 20.9705C109.854 22.5387 108.695 24.0803 107.506 25.5987C107.993 21.707 108.014 17.8947 109.915 14.2942C110.016 14.0992 109.697 13.9141 109.581 14.1019C107.328 17.7169 107.311 22.0418 107.055 26.1711C105.182 28.5329 103.239 30.836 101.227 33.0708C100.332 34.0647 99.4365 35.0541 98.551 36.0513C97.6753 33.2195 97.1242 30.613 97.2437 27.6187C97.3529 24.8573 97.9619 22.1347 98.7214 19.4877C98.8022 19.2046 98.3976 19.0262 98.29 19.3127C97.2707 22.0892 96.7428 25.0146 96.6499 27.9691C96.5622 30.6868 96.8556 33.8539 98.2676 36.2429C98.2851 36.2724 98.3053 36.2879 98.3299 36.3028C97.0172 37.7784 95.7246 39.2695 94.4826 40.7993C94.4808 39.8188 94.1984 38.8434 93.9698 37.8972C93.6139 36.4319 93.3931 34.958 93.277 33.4521C93.0313 30.3378 93.7229 27.45 95.105 24.6712C95.2196 24.4382 94.846 24.2194 94.7073 24.442C93.1906 26.8524 92.5991 29.5001 92.6209 32.326C92.646 35.4194 93.8261 38.2202 94.1404 41.2348C92.9439 42.7314 91.7934 44.2674 90.7248 45.8743C90.5727 46.0986 90.4156 46.3191 90.2636 46.5434C90.1588 45.6763 89.9335 44.825 89.7172 43.9725C89.3073 42.3373 89.1786 40.7014 89.2478 39.0169C89.3755 35.9125 90.3143 32.9377 91.188 29.9851C91.2661 29.716 90.8805 29.5442 90.7756 29.8168C89.6731 32.5815 88.927 35.5037 88.7097 38.4791C88.6087 39.8863 88.6786 41.3165 88.9201 42.706C89.1736 44.1529 89.6774 45.5352 89.9577 46.9786C88.8234 48.6032 87.6262 50.1635 86.4049 51.7134C85.5729 50.1472 85.7813 47.795 85.5579 46.0944C85.2419 43.6886 85.1562 41.3433 85.8406 38.9876C85.9127 38.742 85.5758 38.5956 85.4668 38.8369C84.3984 41.1704 84.5578 43.6967 84.9156 46.1788C85.0949 47.4402 85.2284 48.6986 85.3815 49.968C85.4705 50.7146 85.6605 51.4706 86.1679 52.0169C84.6388 53.9523 83.09 55.8766 81.6288 57.8802C82.0615 56.7518 82.2369 55.4619 82.4009 54.396C82.8329 51.5696 82.5531 48.714 82.4112 45.872C82.0345 38.2707 84.5285 31.0369 88.9459 24.9036C92.9374 19.362 98.5353 14.5811 104.192 10.8004C107.129 8.83908 110.326 7.33848 113.704 6.3181C115.476 5.78116 117.257 5.31563 118.998 4.67837C120.57 4.10413 121.813 3.16896 123.239 2.38678C123.879 5.32223 122.817 8.43124 123.317 11.4122C123.886 14.8066 123.57 18.208 122.926 21.5618C121.538 28.8228 118.197 35.5141 113.618 41.2826L113.603 41.3028Z" fill="#90B87E"/>
<path d="M122.906 21.5826C123.55 18.2288 123.866 14.8274 123.298 11.433C122.797 8.44758 123.859 5.34304 123.219 2.40758C121.793 3.18976 120.55 4.12493 118.978 4.69917C117.238 5.33643 115.456 5.80196 113.685 6.3389C110.306 7.35928 107.109 8.85988 104.172 10.8212C98.5161 14.6063 92.9176 19.3828 88.9262 24.9244C84.5049 31.0627 82.0153 38.2959 82.3915 45.8928C82.5327 48.7303 82.8131 51.5904 82.3812 54.4168C82.2171 55.4827 82.0417 56.7726 81.6091 57.901C83.0708 55.9018 84.6196 53.9775 86.1482 52.0377C85.6363 51.492 85.4507 50.7354 85.3617 49.9888C85.2092 48.7238 85.0757 47.4655 84.8958 46.1996C84.5425 43.7169 84.3786 41.1912 85.4471 38.8577C85.556 38.6164 85.8929 38.7628 85.8208 39.0084C85.132 41.3646 85.2266 43.7088 85.5381 46.1152C85.7615 47.8158 85.5487 50.1685 86.3851 51.7342C87.6064 50.1843 88.8036 48.624 89.938 46.9994C89.6576 45.556 89.1539 44.1737 88.9003 42.7268C88.6588 41.3373 88.5889 39.9071 88.69 38.4999C88.9028 35.5251 89.6533 32.6023 90.7559 29.8376C90.8652 29.5644 91.2508 29.7362 91.1682 30.0059C90.2945 32.9585 89.3557 35.9333 89.228 39.0377C89.1588 40.7222 89.283 42.3587 89.6974 43.9933C89.9132 44.8413 90.139 45.6971 90.2438 46.5642C90.3959 46.3399 90.553 46.1194 90.705 45.8951C91.7736 44.2882 92.9241 42.7522 94.1206 41.2556C93.8108 38.2405 92.6301 35.4351 92.6011 32.3468C92.5748 29.5215 93.1703 26.8688 94.6875 24.4628C94.8262 24.2402 95.2043 24.4584 95.0852 24.692C93.7031 27.4708 93.0115 30.3586 93.2572 33.4729C93.3778 34.9782 93.5942 36.4527 93.95 37.918C94.1786 38.8642 94.461 39.8396 94.4628 40.8201C95.7049 39.2903 96.9974 37.7992 98.3101 36.3236C98.2861 36.3132 98.2653 36.2932 98.2478 36.2637C96.8359 33.8747 96.5424 30.7076 96.6301 27.9899C96.7275 25.0348 97.2554 22.1095 98.2703 19.3335C98.3778 19.047 98.7825 19.2254 98.7016 19.5085C97.9466 22.1549 97.3332 24.8781 97.2239 27.6395C97.1089 30.6332 97.655 33.2358 98.5312 36.0721C99.4167 35.0749 100.317 34.0849 101.207 33.0916C103.219 30.8568 105.163 28.5537 107.035 26.1919C107.291 22.0626 107.304 17.7383 109.561 14.1227C109.677 13.9349 110.001 14.1194 109.895 14.315C107.995 17.9155 107.973 21.7278 107.486 25.6195C108.675 24.1011 109.834 22.5551 110.953 20.9913C110.405 17.9576 110.738 14.513 112.392 11.8756C112.49 11.722 112.751 11.8739 112.667 12.0347C111.262 14.7393 111.007 17.6378 111.222 20.6156C111.394 20.3705 111.571 20.1293 111.743 19.8842C112.618 18.6341 113.467 17.3647 114.317 16.0908C114.47 13.7323 114.416 11.1829 115.607 9.08775C115.703 8.92076 115.978 9.01622 115.894 9.20436C114.993 11.257 115.081 13.3795 114.715 15.4981C115.615 14.1585 116.519 12.8228 117.464 11.5137C117.618 10.0631 117.952 8.43001 118.564 7.10563C118.642 6.94097 118.864 7.04346 118.818 7.20848C118.498 8.36745 118.342 9.63653 117.988 10.8047C119.094 9.31081 120.246 7.8608 121.515 6.49551C121.622 6.3815 121.818 6.5238 121.712 6.64674C120.75 7.7583 119.85 8.91639 118.984 10.0972C119.997 10.0412 120.878 9.49412 121.869 9.30039C122.029 9.27037 122.094 9.52069 121.942 9.57244C120.908 9.92614 119.898 10.4584 118.777 10.3877C117.824 11.7024 116.916 13.0476 116.024 14.4045C117.68 13.8872 119.383 13.6589 120.699 12.3782C120.816 12.263 121 12.4568 120.898 12.5791C119.705 14.0026 117.579 14.5317 115.782 14.7723C114.904 16.1089 114.041 17.4482 113.154 18.7816C113.167 18.7709 113.178 18.7557 113.196 18.7534C116.053 18.1556 119.608 17.7841 121.663 15.4708C121.798 15.3215 122.034 15.4948 121.916 15.6647C120.124 18.193 116.041 18.5795 113.238 19.0385C113.126 19.0531 113.084 18.968 113.091 18.8853C112.792 19.3377 112.493 19.7902 112.184 20.2349C111.384 21.4025 110.574 22.5622 109.745 23.7109C111.182 23.5267 112.827 22.7521 114.073 22.248C115.508 21.669 116.878 20.9805 118.209 20.1927C118.398 20.0816 118.61 20.3444 118.423 20.4734C116.851 21.5334 115.155 22.3374 113.356 22.9415C112.2 23.3295 110.829 23.9862 109.554 23.9813C108.125 25.9534 106.641 27.8873 105.11 29.7775C105.127 29.7707 105.144 29.7594 105.171 29.7603C107.426 30.0636 110.256 28.634 112.27 27.7337C114.418 26.7751 116.496 25.6711 118.649 24.7208C118.863 24.6246 118.983 24.9449 118.783 25.0484C116.256 26.3656 113.698 27.6869 111.03 28.6912C109.318 29.3383 107.017 30.4079 105.142 29.9822C105.071 29.9642 105.041 29.9047 105.047 29.8493C104.012 31.125 102.956 32.3806 101.87 33.613C101.625 33.8903 101.384 34.1627 101.139 34.44C106.249 34.0595 111.569 33.4878 115.701 30.1209C115.898 29.9633 116.114 30.2618 115.932 30.431C113.901 32.3053 111.255 33.3429 108.591 33.9607C106.13 34.5337 103.431 34.9564 100.879 34.7376C99.4649 36.34 98.0553 37.9418 96.6822 39.5796C97.3264 39.4405 98.0595 39.4941 98.674 39.5087C100.253 39.542 101.712 39.423 103.266 39.128C106.861 38.4425 110.328 37.3378 113.343 35.2118C113.588 35.0389 113.852 35.3901 113.623 35.5836C111.091 37.6916 107.88 38.7718 104.692 39.413C103.207 39.7125 101.648 40.0717 100.123 40.0403C98.8128 40.0127 97.5463 39.9747 96.2513 40.0994C94.8373 41.8062 93.4789 43.5557 92.2074 45.38C97.9274 45.4323 103.115 43.9881 108.359 41.7646C108.621 41.653 108.767 42.038 108.521 42.1657C103.549 44.7667 97.5908 46.2212 91.974 45.7103C91.7948 45.9699 91.6106 46.2257 91.4365 46.4892C90.1148 48.4836 88.6886 50.3736 87.2125 52.2294C89.8635 52.4442 92.4859 52.2677 95.052 51.4903C97.4221 50.7748 99.5396 49.6567 101.747 48.5632C101.942 48.4648 102.114 48.7692 101.936 48.897C97.817 51.8127 91.9981 53.4942 86.9672 52.5386C85.5675 54.2844 84.1229 55.9997 82.6806 57.733C84.0939 57.1614 85.6515 56.8932 87.0979 56.8849C90.5891 56.8622 93.9162 55.7986 97.021 54.2511C103.393 51.0758 109.128 46.9306 113.583 41.3236C118.162 35.5551 121.503 28.8638 122.891 21.6028L122.906 21.5826ZM101.838 25.1127C101.719 26.6541 101.799 28.0602 102.03 29.5781C102.162 30.4462 102.27 31.2993 101.968 32.1472C101.922 32.2803 101.697 32.2237 101.728 32.0833C102.041 30.7663 101.511 29.4239 101.348 28.1194C101.185 26.8059 101.293 25.4159 101.452 24.1055C101.825 21.0734 102.666 18.1477 104.002 15.4022C104.102 15.1939 104.428 15.3237 104.338 15.5353C103.054 18.5826 102.093 21.801 101.834 25.1133L101.838 25.1127Z" fill="#4D7C43"/>
<path d="M104.007 15.3972C102.67 18.1427 101.83 21.0727 101.456 24.1004C101.292 25.4114 101.188 26.7964 101.352 28.1143C101.515 29.4188 102.045 30.7613 101.732 32.0782C101.701 32.2186 101.926 32.2708 101.972 32.1421C102.274 31.2987 102.167 30.4456 102.034 29.5731C101.803 28.0551 101.722 26.6445 101.842 25.1076C102.102 21.7953 103.063 18.5769 104.346 15.5296C104.436 15.3135 104.115 15.1876 104.011 15.3966L104.007 15.3972Z" fill="#90B87E"/>
<path d="M101.394 45.7036C98.6462 45.5831 96.0227 47.3399 93.2636 47.1665C92.463 47.1172 92.3394 48.2141 93.1106 48.3853C94.415 48.6771 95.8044 48.4764 97.122 48.3851C98.6777 48.2761 100.45 48.0524 101.806 47.2522C102.455 46.8719 102.119 45.7309 101.393 45.6991L101.394 45.7036Z" fill="#71964C"/>
<path d="M104.369 46.5931C104.21 46.6957 104.032 46.7554 103.858 46.8191C103.555 46.927 103.375 47.0778 103.237 47.3729C103.105 47.6445 103.27 48.0361 103.559 48.1298C103.9 48.2438 104.143 48.1893 104.459 48.0433C104.703 47.9295 104.944 47.7935 105.154 47.6297C105.816 47.1068 105.068 46.1471 104.374 46.597L104.369 46.5931Z" fill="#71964C"/>
<path d="M107.096 44.5868C106.954 44.7144 106.786 44.7819 106.672 44.9512C106.536 45.1598 106.562 45.5287 106.849 45.609C107.24 45.7166 107.52 45.5708 107.75 45.25C108.054 44.8332 107.501 44.2202 107.091 44.5873L107.096 44.5868Z" fill="#71964C"/>
<path d="M87.8942 36.107C88.0332 35.5757 88.1619 34.9322 87.9521 34.4058C87.769 33.944 87.1537 33.993 86.9582 34.4046C86.7412 34.86 86.5949 35.3696 86.3885 35.8371C86.1338 36.42 85.845 36.9846 86.1051 37.6179C86.3177 38.1303 86.9889 38.1965 87.3295 37.784C87.7049 37.326 87.7493 36.6618 87.8981 36.102L87.8942 36.107Z" fill="#71964C"/>
<path d="M88.8054 45.1865C88.8923 44.1898 88.5281 43.2478 88.2977 42.2882C88.0322 41.1652 87.822 40.0486 88.0111 38.8977C88.1218 38.2202 87.0289 37.9143 86.8317 38.5895C86.5094 39.6943 86.4901 40.7911 86.5899 41.9313C86.6863 43.0447 86.8443 44.3861 87.3958 45.3716C87.7226 45.9599 88.7352 45.9994 88.8054 45.1865Z" fill="#71964C"/>
<path d="M87.9263 47.99C87.9573 47.6046 87.9096 47.2067 87.8687 46.8261C87.8307 46.4679 87.4798 46.2143 87.1318 46.26C86.7571 46.3092 86.5421 46.6417 86.5661 46.9972C86.5872 47.3305 86.572 47.6639 86.5976 47.9966C86.6211 48.2795 86.8891 48.5576 87.1771 48.5743C87.2318 48.5762 87.291 48.5775 87.3496 48.5743C87.6374 48.5547 87.9052 48.2789 87.9269 47.9945L87.9263 47.99Z" fill="#71964C"/>
<path d="M84.7445 50.3014C84.8582 49.7507 84.6598 49.1728 84.5482 48.6335C84.4164 48.0106 84.2975 47.3815 84.2276 46.7459C84.1703 46.2404 83.4556 46.3615 83.4648 46.8461C83.4729 47.4262 83.5263 48.005 83.584 48.5831C83.6486 49.1785 83.6251 49.8627 83.8785 50.4106C84.0749 50.8343 84.6474 50.7364 84.7395 50.2975L84.7445 50.3014Z" fill="#71964C"/>
<path d="M93.8086 53.2881C92.6958 53.2799 91.5812 53.4309 90.4737 53.5672C89.4465 53.6931 88.4034 54.1116 87.3662 53.8846C86.7822 53.757 86.536 54.7156 87.1041 54.8952C88.0894 55.2108 89.0795 55.0444 90.0923 54.9477C91.4008 54.8213 92.7481 55.0257 93.9546 54.3996C94.4091 54.1628 94.4532 53.2897 93.808 53.2837L93.8086 53.2881Z" fill="#71964C"/>
<path d="M95.9319 52.8004C95.8749 52.7807 95.8229 52.7648 95.7703 52.7445C95.4476 52.637 95.0925 52.8698 95.1399 53.2314C95.1874 53.5929 95.5906 53.7261 95.8746 53.539C95.9202 53.5058 95.9708 53.4764 96.0163 53.4432C96.2458 53.2904 96.1931 52.8887 95.9319 52.8004Z" fill="#71964C"/>
<path d="M92.1448 39.4083C92.2375 38.3518 91.9577 37.2579 91.8199 36.209C91.6634 35.0172 91.657 33.8284 91.8783 32.646C91.9792 32.1015 91.0848 31.8558 90.9292 32.3984C90.3148 34.5269 90.1062 37.4648 90.9443 39.5614C91.1733 40.1307 92.0869 40.0379 92.1443 39.4038L92.1448 39.4083Z" fill="#71964C"/>
<path d="M90.7724 41.332C90.6475 40.7264 89.7631 40.8335 89.8178 41.4574C89.8586 41.9061 89.8862 42.3929 90.1793 42.7585C90.3694 42.9969 90.7397 42.9482 90.8618 42.6688C91.0609 42.2159 90.8679 41.7826 90.7769 41.3314L90.7724 41.332Z" fill="#71964C"/>
<path d="M100.072 40.9006C99.8076 40.8536 99.5389 40.8117 99.2714 40.7788C98.9988 40.7419 98.6864 40.851 98.4205 40.8996C97.8709 40.999 97.3213 41.0985 96.7705 41.189C95.9258 41.3226 96.101 42.5528 96.9417 42.4923C97.4989 42.4509 98.055 42.4006 98.6105 42.3458C98.8793 42.3196 99.2131 42.3393 99.4625 42.2339C99.7118 42.1285 99.9561 42.0192 100.206 41.9183C100.705 41.7075 100.589 40.9962 100.074 40.9095L100.072 40.9006Z" fill="#71964C"/>
<path d="M109.221 39.5536C107.93 39.7822 106.753 40.2864 105.536 40.7596C104.262 41.2539 102.96 41.6338 101.656 42.0366C101.342 42.1324 101.415 42.654 101.738 42.666C104.301 42.7926 107.25 41.8195 109.527 40.7076C110.115 40.4215 109.926 39.4248 109.22 39.5492L109.221 39.5536Z" fill="#71964C"/>
<path d="M96.608 23.434C96.6401 22.953 95.9571 22.8657 95.8697 23.3403C95.7898 23.7685 95.5916 24.1941 95.5899 24.6303C95.5886 24.9664 96.0246 25.2452 96.2568 24.9059C96.546 24.482 96.5794 23.9418 96.6131 23.4379L96.608 23.434Z" fill="#71964C"/>
<path d="M95.3657 33.2231C95.4915 32.3848 95.3002 31.5154 95.2307 30.6754C95.1494 29.6418 95.2298 28.596 95.34 27.569C95.3896 27.1175 94.6655 26.8902 94.5412 27.3606C94.0768 29.1107 93.335 31.6509 94.2059 33.3755C94.4748 33.9032 95.2714 33.853 95.3612 33.2237L95.3657 33.2231Z" fill="#71964C"/>
<path d="M96.1875 35.3992C96.184 35.1999 96.1 34.9748 96.0692 34.7745C95.9815 34.2457 95.156 34.2134 95.1121 34.7776C95.0768 35.2 94.9577 35.7787 95.3663 36.0565C95.5254 36.1627 95.7852 36.2058 95.9383 36.0585C96.1513 35.8489 96.1988 35.6928 96.192 35.3986L96.1875 35.3992Z" fill="#71964C"/>
<path d="M100.256 29.4434C100.587 27.225 100.228 25.0154 100.758 22.7981C100.867 22.3479 100.131 22.1632 99.9787 22.5963C99.2526 24.7032 98.7876 27.2434 99.2948 29.4471C99.4131 29.9673 100.168 30.0135 100.252 29.4439L100.256 29.4434Z" fill="#71964C"/>
<path d="M99.3063 32.3015C99.3282 31.8809 99.2159 31.5097 99.104 31.1067C98.9652 30.6027 98.1106 30.833 98.2226 31.3405C98.3134 31.7554 98.3626 32.1303 98.5832 32.4964C98.7681 32.799 99.2923 32.6439 99.3108 32.3009L99.3063 32.3015Z" fill="#71964C"/>
<path d="M107.731 35.0543C106.652 35.0599 105.623 35.3449 104.55 35.4632C103.49 35.5797 102.427 35.6421 101.367 35.7631C100.822 35.8257 100.849 36.6168 101.368 36.6984C103.491 37.0416 106.273 37.3528 108.161 36.1149C108.712 35.7518 108.253 35.0494 107.727 35.0549L107.731 35.0543Z" fill="#71964C"/>
<path d="M110.492 35.3047C110.292 35.3037 110.1 35.2926 109.909 35.3541C109.708 35.4168 109.503 35.48 109.302 35.5382C108.68 35.7107 108.967 36.7855 109.591 36.6309C110.004 36.5267 110.383 36.4451 110.731 36.1906C111.049 35.9535 110.946 35.3086 110.497 35.3042L110.492 35.3047Z" fill="#71964C"/>
<path d="M113.048 29.8245C110.564 30.2597 108.261 31.3796 105.745 31.7782C105.34 31.8404 105.309 32.4984 105.747 32.518C108.346 32.6489 111.228 32.2748 113.497 30.9235C114.035 30.603 113.625 29.7216 113.048 29.8245Z" fill="#71964C"/>
<path d="M115.748 27.8853C115.261 27.9447 114.833 28.1735 114.342 28.2335C113.524 28.3318 113.693 29.581 114.508 29.4967C114.808 29.4663 115.098 29.3964 115.386 29.3131C115.535 29.2709 115.678 29.2158 115.815 29.1524C115.995 29.0743 116.123 28.9121 116.254 28.7678C116.587 28.3972 116.195 27.8356 115.749 27.8898L115.748 27.8853Z" fill="#71964C"/>
<path d="M104.967 24.234C105.277 23.2443 105.238 22.1824 105.421 21.1594C105.63 19.9559 106.054 18.7969 106.49 17.659C106.699 17.1093 105.916 16.8082 105.656 17.319C104.679 19.2409 103.211 22.0263 103.887 24.2351C104.036 24.7149 104.816 24.7079 104.963 24.2346L104.967 24.234Z" fill="#71964C"/>
<path d="M106.376 25.7017C106.536 25.3673 106.52 25.038 106.559 24.6742C106.595 24.3289 106.642 23.9914 106.665 23.6478C106.709 23.0154 105.794 22.8949 105.686 23.5221C105.571 24.2001 105.191 25.04 105.482 25.7011C105.662 26.1042 106.19 26.0803 106.376 25.7017Z" fill="#71964C"/>
<path d="M103.891 26.8908C103.809 26.3703 102.936 26.326 102.934 26.8939C102.934 27.2027 102.878 27.5052 103.093 27.7585C103.276 27.9751 103.59 27.9838 103.774 27.7599C103.989 27.4955 103.94 27.1976 103.89 26.8864L103.891 26.8908Z" fill="#71964C"/>
<path d="M115.058 24.0484C114.094 24.3793 113.165 24.7374 112.23 25.1463C111.474 25.4771 110.595 26.0375 109.741 25.9954C109.303 25.9757 109.154 26.5356 109.547 26.7336C110.369 27.1479 111.25 26.7778 112.076 26.5377C113.367 26.1684 114.537 25.8558 115.583 24.9737C116.057 24.5755 115.635 23.8499 115.058 24.0484Z" fill="#71964C"/>
<path d="M109.727 19.8084C109.868 19.54 109.867 19.2497 109.905 18.9541C109.948 18.626 110.005 18.3007 110.067 17.9792C110.175 17.4157 109.324 17.3277 109.195 17.8712C109.051 18.4668 108.791 19.2139 108.992 19.814C109.112 20.1751 109.578 20.0913 109.723 19.8134L109.727 19.8084Z" fill="#71964C"/>
<path d="M113.873 14.3099C113.892 14.0033 113.92 13.6999 113.971 13.3936C114.023 13.0688 114.201 12.7958 114.234 12.4644C114.296 11.8934 113.686 11.6056 113.237 11.8871C112.709 12.2153 112.576 13.0001 112.469 13.5681C112.337 14.2574 112.241 15.0146 112.391 15.7033C112.49 16.1489 113.171 16.4954 113.468 15.9932C113.783 15.4524 113.841 14.9272 113.873 14.3099Z" fill="#71964C"/>
<path d="M120.283 15.1571C119.095 15.2678 117.938 15.5424 116.813 15.9581C116.28 16.1551 116.527 16.9309 117.057 16.8841C117.658 16.8323 118.255 16.7812 118.856 16.6976C119.533 16.5996 120.067 16.3797 120.619 15.9849C121.009 15.7066 120.723 15.1176 120.279 15.1622L120.283 15.1571Z" fill="#71964C"/>
<path d="M121.542 14.338C121.653 14.1145 121.508 13.8066 121.284 13.7226C120.912 13.5853 120.585 13.7235 120.327 14.0027C120.069 14.2818 120.303 14.7868 120.665 14.8119C121.049 14.8386 121.37 14.692 121.546 14.3374L121.542 14.338Z" fill="#71964C"/>
<path d="M117.312 9.01358C117.419 8.48188 116.668 8.35809 116.447 8.78662C116.289 9.09807 116.14 9.4491 116.315 9.78473C116.468 10.0825 116.804 10.1201 117.031 9.88139C117.254 9.64325 117.247 9.31272 117.307 9.0097L117.312 9.01358Z" fill="#71964C"/>
<path d="M120.702 11.0883C120.231 11.1682 119.662 11.2885 119.259 11.5411C119.045 11.6736 119.045 12.0506 119.258 12.1861C119.788 12.5251 120.291 12.2137 120.84 12.1098C121.486 11.9841 121.368 10.9781 120.706 11.0877L120.702 11.0883Z" fill="#71964C"/>
<path d="M120.193 6.7326C120.32 6.48891 120.365 6.21055 120.366 5.93805C120.371 5.56501 119.841 5.36223 119.694 5.76295C119.566 6.10213 119.197 6.40036 119.36 6.78297C119.413 6.90326 119.531 7.0103 119.668 7.0195C119.682 7.01774 119.696 7.02045 119.71 7.02315C119.934 7.03462 120.093 6.93647 120.195 6.74152L120.193 6.7326Z" fill="#71964C"/>
<path d="M121.576 7.69065C121.295 7.83198 120.933 7.97494 120.816 8.29004C120.738 8.49098 120.904 8.75966 121.139 8.71075C121.439 8.64859 121.633 8.40058 121.878 8.22318C122.155 8.02323 121.892 7.5357 121.577 7.69511L121.576 7.69065Z" fill="#71964C"/>
<path d="M122.413 5.25141C122.651 4.91603 122.171 4.54765 121.909 4.86365C121.76 5.04214 121.646 5.17965 121.623 5.41878C121.606 5.6026 121.783 5.73832 121.951 5.67083C122.176 5.5868 122.275 5.44212 122.413 5.25141Z" fill="#71964C"/>
</g>
<defs>
<clipPath id="clip0_478_3634">
<rect width="86.4854" height="89.9105" fill="white" transform="translate(4.11426 136.665) rotate(-92.7267)"/>
</clipPath>
<clipPath id="clip1_478_3634">
<rect width="53.2437" height="55.6183" fill="white" transform="matrix(0.9914 -0.130866 0.129596 0.991567 72 6.96783)"/>
</clipPath>
</defs>
</svg>
