<svg width="206.000000" height="205.000000" viewBox="0 0 206 205" fill="none" xmlns="http://www.w3.org/2000/svg" xmlns:xlink="http://www.w3.org/1999/xlink">
	<desc>
			Created with Pixso.
	</desc>
	<defs>
		<clipPath id="clip92_4838">
			<rect id="green leaf element" width="152.305771" height="153.446609" transform="translate(67.495850 204.534790) rotate(-116.305687)" fill="white" fill-opacity="0"/>
		</clipPath>
	</defs>
	<g opacity="0.500000">
		<rect id="green leaf element" width="152.305771" height="153.446609" transform="translate(67.495850 204.534790) rotate(-116.305687)" fill="#FFFFFF" fill-opacity="0"/>
		<g clip-path="url(#clip92_4838)">
			<path id="Vector" d="M176.7 133.34C178.1 133.53 179.53 133.69 180.95 133.79C182.13 133.87 182.54 131.97 181.35 131.72C179.8 131.39 178.27 131.03 176.72 130.69C176.49 121.29 181.08 112.67 178.36 103.11C175.87 94.4 171.85 86.17 166.6 78.81C154.27 61.57 135 52.24 115.44 45.55C105.15 42.04 93.91 38.14 82.9 38.57C78.26 38.74 73.81 39.99 69.27 40.79C63.46 41.81 57.55 41.83 51.78 43.15C43 45.15 36.25 52.03 31.06 58.99C26 65.79 23.12 73.52 14.37 74.95C14.09 74.76 13.81 74.6 13.51 74.43C12.45 73.89 11.41 75.03 11.9 75.88C11.92 76 12 76.12 12.14 76.21C12.18 76.23 12.22 76.26 12.26 76.27C18.27 80.28 15.54 89.87 16.08 96.01C16.81 104.31 21.41 111.49 26.16 118.08C31.9 126.06 37.22 134.47 44.71 140.97C52.72 147.95 63.59 148.44 73.05 152.37C78.4 154.59 83.45 156.99 89.11 158.42C94.42 159.76 99.93 160.32 105.38 160.67C115.58 161.37 125.96 161.7 136.16 160.95C151.81 159.76 171.57 150.28 176.11 133.95C176.37 133.82 176.55 133.59 176.68 133.33L176.7 133.34Z" fill="#AEBFAC" fill-opacity="1.000000" fill-rule="nonzero"/>
			<path id="Vector" d="M183.38 133.74C178.67 132.98 174.02 131.86 169.42 130.53C166.59 135.8 162.84 140.69 158.42 144.66C155.99 146.83 153.4 149.28 150.46 150.75C148.69 151.62 146.89 152.31 145.07 153.07C144.99 153.11 139.28 155.4 141.97 156.58C141.99 156.58 141.99 156.62 141.95 156.62C141.23 156.36 140.5 156.05 139.83 155.68C139.59 155.58 139.49 155.28 139.71 155.09C141.98 153.12 144.57 152.12 147.24 150.82C150.51 149.2 153.41 147.05 156.06 144.54C159.28 141.48 162.28 138.18 164.6 134.37C165.51 132.87 166.35 131.37 167.29 129.94C164.25 129 161.25 127.99 158.26 126.95C155.54 131.25 151.01 134.13 146.88 136.97C142.54 139.96 138.39 143.03 133.48 145.08C123.42 149.31 112.44 151 101.58 149.85C100.96 149.77 101 148.85 101.63 148.87C112.69 149.29 123.98 147.88 133.96 142.76C138.45 140.46 142.47 137.49 146.58 134.57C150.04 132.13 153.57 129.63 156.03 126.17C155.85 126.11 155.66 126.03 155.47 125.98C154.89 126.12 154.28 125.93 153.99 125.44C153.83 125.39 153.68 125.33 153.53 125.29C149.87 123.96 146.23 122.63 142.58 121.28C140.83 125.5 136.19 129.31 132.7 131.72C127.63 135.22 122.13 137.81 116.32 139.81C105.39 143.58 93.35 145.17 81.82 144.05C81.33 143.99 81.36 143.25 81.87 143.27C93.61 143.91 105.84 142.08 116.8 137.77C122.24 135.63 127.67 133.02 132.22 129.3C135.45 126.67 137.59 123.41 140.23 120.41C133.63 117.97 127.02 115.55 120.38 113.21C120.59 113.56 120.58 114 120.18 114.3C112.28 120.34 102.95 125.5 93.26 127.92C83.32 130.42 73.06 131.34 62.84 131.89C62.23 131.93 62.15 130.86 62.76 130.81C72.86 129.79 83.09 128.98 92.87 126.06C98.65 124.34 104.29 122.07 109.26 118.61C112.15 116.6 115.55 113.4 119.13 112.77C118.81 112.66 118.5 112.54 118.19 112.43C116.7 111.91 115.24 111.37 113.76 110.85C113.61 110.82 113.48 110.79 113.35 110.7C108.9 109.14 104.44 107.58 100 105.95C100.04 106.47 99.81 107.01 99.19 107.22C95.43 108.48 92.5 111.46 88.72 112.58C84.43 113.85 79.98 114.82 75.59 115.65C67.52 117.21 58.94 118.26 51.03 115.44C50.52 115.26 50.78 114.54 51.29 114.66C60.39 116.85 69.33 115.53 78.27 113.26C82.24 112.25 86.95 111.59 90.46 109.42C92.98 107.87 95.33 106.18 98.13 105.26C96.52 104.67 94.93 104.06 93.34 103.46C93.01 103.45 92.71 103.35 92.49 103.14C88.59 101.69 84.7 100.26 80.81 98.77C80.3 98.57 79.79 98.35 79.28 98.16C79.28 98.16 79.28 98.16 79.26 98.18C75.88 102.75 68 103.77 62.78 104.28C56.99 104.84 51.05 104.33 45.44 102.8C44.85 102.64 45.17 101.77 45.75 101.9C51.55 103.25 57.88 103.65 63.78 102.67C66.62 102.2 69.51 101.6 72.15 100.43C74.05 99.59 75.74 98.39 77.59 97.47C76.34 96.97 75.11 96.45 73.87 95.91C73.44 96.67 71.89 96.31 72.08 95.33C72.08 95.28 72.09 95.22 72.1 95.17C68.56 93.62 65.06 92 61.55 90.38C61.1 93.79 55.71 94.4 53.11 94.6C49.43 94.89 45.26 94.57 41.81 93.12C41.33 92.93 41.57 92.17 42.07 92.34C44.96 93.4 48.36 93.59 51.41 93.43C55.18 93.23 57.82 92.46 60.55 89.91C55.74 87.72 50.91 85.59 45.96 83.75C45.39 83.53 45.68 82.67 46.27 82.85C49.86 83.94 53.39 85.25 56.9 86.66C55.74 81.3 54.09 75.57 49.11 72.56C48.51 72.19 49.12 71.35 49.72 71.66C55.25 74.54 57.3 80.86 58.55 86.58C58.61 86.87 58.52 87.1 58.37 87.26C63.05 89.17 67.68 91.23 72.34 93.23C73.2 82.49 65.46 72.43 57.06 66.46C56.42 66.01 57.09 65.01 57.74 65.46C66.78 71.56 75.59 82.54 74.2 94.03C77.15 95.27 80.11 96.48 83.1 97.55C86.02 98.61 88.95 99.64 91.88 100.69C90.73 93.91 86.54 87.6 82.98 81.87C78.58 74.83 73.62 68.3 67.59 62.55C67.03 62.02 67.94 61.27 68.49 61.78C75.19 67.77 80.85 74.72 85.68 82.29C89.49 88.22 93.87 94.46 94.52 101.64C100.31 103.7 106.11 105.72 111.92 107.71C108.3 98.65 104.83 89.91 99.18 81.75C93.76 73.93 87.55 66.69 81.52 59.33C81.11 58.82 81.85 58.17 82.3 58.67C89.33 66.55 96.46 74.31 102.47 83.02C107.91 90.92 111.82 99.64 114.84 108.72C116.2 109.18 117.58 109.67 118.94 110.13C123.15 111.53 127.33 113 131.49 114.47C130.58 108.76 129.99 102.83 127.71 97.45C126.2 93.88 124.45 90.41 122.46 87.08C117.95 79.47 112.39 71.22 104.22 67.2C103.53 66.86 103.84 65.79 104.61 66.04C113.1 68.78 119.45 77.68 124.01 84.86C126.45 88.74 128.87 92.81 130.51 97.12C132.64 102.7 133.4 108.51 134.36 114.37C134.43 114.79 134.32 115.13 134.13 115.4C140.78 117.78 147.41 120.21 154.07 122.55C155.09 116.11 156.51 110.21 154.79 103.56C153.37 98.09 151.07 92.87 147.95 88.15C141.62 78.54 133 70.82 123.83 64C123.16 63.49 123.86 62.45 124.55 62.92C134.54 69.82 144.29 77.84 150.9 88.17C154.06 93.11 156.66 98.55 157.91 104.31C159.38 111.12 158.06 116.89 156.82 123.48C160.58 124.75 164.37 125.91 168.16 127.01C171.7 109.9 166.02 94.14 158.92 78.66C158.57 77.88 159.69 77.35 160.1 78.08C167.78 91.67 176.72 111.94 170.76 127.74C174.8 128.84 178.86 129.87 182.97 130.82C182.61 122.43 187.13 114.24 184.74 105.87C182.02 96.36 177.78 87.24 171.71 79.41C158.16 61.96 137.57 52.72 116.9 46.41C105.71 43.01 95.13 40.27 83.47 42.9C72.82 45.3 60.75 43.86 51.67 50.95C44.66 56.42 40.98 63.69 35.51 70.4C32.88 73.61 29.32 76.8 25.19 77.35C27.76 80.56 27.71 85.51 27.56 89.55C27.24 97.74 28.95 104.95 33.43 111.92C38.37 119.63 43.8 127.7 49.91 134.53C53.51 138.55 57.61 142.46 62.73 144.48C67.27 146.27 71.98 147.23 76.63 148.63C81.43 150.07 85.82 152.41 90.49 154.2C95.96 156.3 101.64 157.66 107.48 158.31C117.28 159.38 127.36 159.75 137.22 159.56C155.91 159.22 175.41 152.22 183.47 134.23C183.42 134.13 183.38 134.04 183.35 133.92C183.33 133.88 183.33 133.81 183.32 133.76L183.38 133.74Z" fill="#6B9244" fill-opacity="1.000000" fill-rule="nonzero"/>
			<path id="Vector" d="M58.42 87.26C63.1 89.18 67.74 91.24 72.39 93.24C72.95 86.21 69.83 79.49 65.25 74C63.81 75.16 63.02 77.14 63.34 78.96C62.08 77.71 60.79 76.42 59.13 75.79C57.7 75.25 55.9 75.35 54.76 76.32C56.76 79.35 57.83 83.07 58.58 86.58C58.64 86.87 58.55 87.1 58.4 87.26L58.42 87.26Z" fill="#8AB15D" fill-opacity="1.000000" fill-rule="nonzero"/>
			<path id="Vector" d="M43.51 85.7C46.08 87.03 49.06 88.3 50.13 90.99C50.42 91.76 50.56 92.61 50.7 93.44C50.95 93.44 51.21 93.45 51.45 93.43C55.22 93.23 57.85 92.46 60.58 89.91C55.78 87.72 50.94 85.59 46 83.75C45.42 83.53 45.71 82.67 46.3 82.85C49.89 83.94 53.42 85.25 56.94 86.66C56.26 83.54 55.4 80.32 53.84 77.56C53.62 78 53.41 78.45 53.12 78.84C51.6 80.95 48.38 80.54 45.91 79.69C43.45 78.84 40.58 77.82 38.42 79.28C38.18 82.16 40.93 84.36 43.49 85.69L43.51 85.7Z" fill="#8AB15D" fill-opacity="1.000000" fill-rule="nonzero"/>
			<path id="Vector" d="M83.15 97.56C86.07 98.62 89 99.65 91.94 100.7C90.79 93.92 86.6 87.6 83.03 81.88C82.45 80.93 81.81 80.02 81.21 79.1C81.07 79.4 80.93 79.68 80.72 79.94C79.42 81.55 76.7 80.63 75.37 79.03C74.05 77.43 73.35 75.31 71.73 74.03C70.31 72.9 68.27 72.62 66.58 73.26C71.67 79.13 75.19 86.48 74.28 94.04C77.22 95.29 80.19 96.49 83.17 97.57L83.15 97.56Z" fill="#8AB15D" fill-opacity="1.000000" fill-rule="nonzero"/>
			<path id="Vector" d="M62.81 102.8C63.15 102.74 63.49 102.71 63.83 102.66C66.67 102.19 69.56 101.6 72.19 100.42C74.1 99.58 75.79 98.38 77.64 97.47C76.39 96.97 75.16 96.44 73.91 95.91C73.49 96.67 71.94 96.3 72.12 95.32C72.13 95.27 72.14 95.22 72.14 95.16C68.61 93.61 65.11 91.99 61.59 90.38C61.14 93.78 55.76 94.4 53.16 94.6C52.45 94.65 51.71 94.68 50.97 94.68C51.18 95.48 51.49 96.21 52.11 96.75C54.02 98.46 57.2 97.12 59.5 98.28C61.19 99.14 61.89 101.07 62.81 102.8Z" fill="#8AB15D" fill-opacity="1.000000" fill-rule="nonzero"/>
			<path id="Vector" d="M111.97 107.7C109.01 100.3 106.14 93.13 102.11 86.3C101.98 86.48 101.85 86.66 101.75 86.85C100.92 88.32 100.75 90.06 100.6 91.75C95.67 87.38 90.75 83 85.83 78.63C84.88 77.78 83.53 76.92 82.44 77.44C83.57 79.03 84.67 80.64 85.73 82.28C89.53 88.22 93.92 94.45 94.57 101.64C100.35 103.69 106.15 105.71 111.97 107.7Z" fill="#8AB15D" fill-opacity="1.000000" fill-rule="nonzero"/>
			<path id="Vector" d="M183.04 130.82C182.73 123.76 185.88 116.81 185.45 109.81C184.91 109.11 184.24 108.57 183.39 108.41C181.99 108.13 180.62 108.96 179.19 108.98C177.09 109.01 175.36 107.23 174.46 105.32C173.57 103.41 173.28 101.27 172.44 99.33C171.68 97.59 170.27 95.93 168.45 95.54C172.43 106.2 174.54 117.85 170.81 127.75C174.86 128.85 178.92 129.87 183.02 130.83L183.04 130.82Z" fill="#8AB15D" fill-opacity="1.000000" fill-rule="nonzero"/>
			<path id="Vector" d="M183.4 133.89C183.4 133.89 183.38 133.78 183.38 133.74C178.67 132.98 174.02 131.86 169.42 130.53C166.59 135.8 162.84 140.69 158.42 144.66C156.19 146.66 153.8 148.84 151.14 150.34C153.89 150.47 156.7 149.49 159.2 148.23C162.45 146.58 165.53 144.44 169.07 143.54C172.22 142.74 175.58 142.95 178.72 142.09C180.58 139.74 182.21 137.13 183.52 134.22C183.47 134.13 183.42 134.03 183.4 133.91L183.4 133.89Z" fill="#8AB15D" fill-opacity="1.000000" fill-rule="nonzero"/>
			<path id="Vector" d="M157.97 104.3C159.44 111.11 158.12 116.88 156.88 123.47C160.64 124.74 164.43 125.9 168.22 126.99C170.44 116.26 169.02 106.04 165.9 96.1C164.77 96.94 164.13 98.44 164.93 99.59C162.48 95.65 159.26 92.2 155.47 89.5C153.9 88.37 152.18 87.36 150.26 87.12C150.26 87.12 150.26 87.12 150.25 87.13C150.49 87.48 150.75 87.81 150.99 88.18C154.14 93.12 156.75 98.55 158 104.32L157.97 104.3Z" fill="#8AB15D" fill-opacity="1.000000" fill-rule="nonzero"/>
			<path id="Vector" d="M120.41 113.17C120.61 113.52 120.61 113.95 120.21 114.25C114.34 118.74 107.68 122.73 100.66 125.5C101.76 125.96 103.02 126.15 104.18 126.01C106.96 125.65 109.4 124.08 112.03 123.18C114.67 122.27 118.03 122.25 119.81 124.4C118.09 129.32 113.62 135.05 115.7 138.14C116.08 138 116.45 137.88 116.83 137.73C122.27 135.59 127.7 132.97 132.25 129.25C135.48 126.62 137.62 123.36 140.25 120.36C133.66 117.92 127.05 115.5 120.41 113.17Z" fill="#8AB15D" fill-opacity="1.000000" fill-rule="nonzero"/>
			<path id="Vector" d="M118.21 112.4C116.72 111.89 115.26 111.35 113.78 110.83C113.63 110.8 113.5 110.76 113.37 110.68C108.92 109.11 104.46 107.55 100.02 105.92C100.06 106.44 99.83 106.99 99.21 107.19C95.45 108.45 92.52 111.43 88.74 112.55C85.21 113.6 81.56 114.42 77.94 115.14C82.08 117.29 86.88 115.84 91.77 115.37C94.05 115.16 97.01 114.93 97.95 117.04C98.65 118.59 97.62 120.4 97.79 122.08C97.86 122.83 98.17 123.49 98.63 124.05C102.37 122.62 105.98 120.88 109.29 118.58C112.18 116.57 115.59 113.37 119.16 112.73C118.84 112.63 118.53 112.51 118.23 112.4L118.21 112.4Z" fill="#8AB15D" fill-opacity="1.000000" fill-rule="nonzero"/>
			<path id="Vector" d="M142.6 121.24C140.85 125.45 136.22 129.26 132.72 131.67C127.95 134.96 122.8 137.43 117.36 139.38C121.79 141.36 129.3 138.57 135.17 135.91C133.83 137.58 134.3 140.13 135.75 141.71C139.53 139.57 143.03 137.04 146.59 134.52C150.05 132.08 153.58 129.58 156.03 126.11C155.85 126.05 155.67 125.98 155.47 125.93C154.89 126.06 154.28 125.88 153.99 125.39C153.83 125.34 153.69 125.28 153.53 125.23C149.88 123.91 146.23 122.57 142.58 121.23L142.6 121.24Z" fill="#8AB15D" fill-opacity="1.000000" fill-rule="nonzero"/>
			<path id="Vector" d="M154.13 122.56C155.14 116.12 156.56 110.22 154.84 103.56C153.42 98.1 151.13 92.88 148 88.15C147.85 87.91 147.67 87.68 147.51 87.45C146.56 87.8 145.75 88.42 145.25 89.28C144.36 90.86 144.67 92.8 144.95 94.58C145.23 96.36 145.36 98.38 144.22 99.79C143.09 101.21 139.63 100.96 139.11 99.24C137.18 92.79 131.45 87.74 124.92 86.25C127.06 89.7 129.11 93.31 130.57 97.11C132.7 102.69 133.46 108.5 134.42 114.36C134.49 114.78 134.38 115.12 134.19 115.39C140.84 117.77 147.47 120.19 154.13 122.54L154.13 122.56Z" fill="#8AB15D" fill-opacity="1.000000" fill-rule="nonzero"/>
			<path id="Vector" d="M119 110.11C123.21 111.52 127.39 112.99 131.55 114.46C130.64 108.74 130.05 102.82 127.77 97.44C126.26 93.87 124.51 90.4 122.53 87.06C122.29 86.65 122.03 86.24 121.78 85.83C121.51 85.82 121.23 85.79 120.95 85.79C120.41 89.33 119.88 92.87 119.34 96.41C115.77 93.06 112.19 89.69 108.61 86.34C107.83 85.59 106.98 84.81 105.9 84.6C105.17 84.44 104.43 84.59 103.76 84.92C108.55 92.31 112.09 100.36 114.88 108.7C116.24 109.16 117.62 109.65 118.98 110.11L119 110.11Z" fill="#8AB15D" fill-opacity="1.000000" fill-rule="nonzero"/>
			<path id="Vector" d="M164.59 134.34C165.5 132.84 166.34 131.34 167.28 129.91C164.24 128.98 161.23 127.96 158.25 126.92C155.52 131.22 151 134.11 146.87 136.95C143.79 139.05 140.81 141.19 137.59 143C139.67 143.81 142.15 143.4 144.16 142.34C146.45 141.12 148.24 139.17 149.97 137.25C150.7 141.47 150.25 145.91 148.66 149.88C148.72 149.9 148.77 149.91 148.82 149.92C151.45 148.44 153.83 146.61 156.03 144.52C159.25 141.46 162.26 138.16 164.57 134.35L164.59 134.34Z" fill="#8AB15D" fill-opacity="1.000000" fill-rule="nonzero"/>
			<path id="Vector" d="M80.84 98.75C80.32 98.56 79.82 98.34 79.3 98.14C79.3 98.14 79.3 98.14 79.28 98.17C76.09 102.5 68.85 103.64 63.66 104.18C63.94 104.54 64.23 104.88 64.58 105.16C68.9 108.56 76.39 103.25 80.5 106.91C79.07 107.83 78.07 111.27 77.32 113.46C77.64 113.39 77.96 113.31 78.28 113.24C82.25 112.23 86.96 111.57 90.47 109.4C92.99 107.85 95.33 106.16 98.13 105.24C96.52 104.65 94.94 104.04 93.34 103.44C93.02 103.43 92.72 103.33 92.5 103.12C88.6 101.67 84.71 100.24 80.82 98.75L80.84 98.75Z" fill="#8AB15D" fill-opacity="1.000000" fill-rule="nonzero"/>
			<path id="Vector" d="M163.32 70.3C150.39 58.55 133.71 51.51 116.98 46.41C105.79 43 95.21 40.27 83.55 42.9C72.9 45.29 60.83 43.86 51.75 50.95C44.74 56.41 41.06 63.68 35.59 70.39C32.96 73.61 29.4 76.8 25.27 77.34C27.84 80.55 27.79 85.5 27.64 89.54C27.32 97.74 29.03 104.94 33.51 111.91C38.45 119.62 43.88 127.69 49.99 134.53C53.59 138.55 57.69 142.45 62.81 144.48C67.35 146.27 72.06 147.22 76.71 148.62C81.51 150.07 85.9 152.4 90.57 154.19C96.04 156.29 101.72 157.65 107.56 158.3C109.04 158.47 110.54 158.57 112.04 158.7C109.77 157.49 107.47 156.39 104.94 155.91C101.22 155.2 97.17 155.88 93.77 154.21C90.16 152.45 88.06 148.41 84.45 146.67C80.07 144.55 74.47 146.27 70.29 143.78C66.95 141.79 65.49 137.68 62.55 135.15C59.14 132.2 54.23 131.76 50.37 129.45C45.47 126.52 42.84 121.01 40.48 115.8C36.64 107.32 32.77 98.76 30.63 89.7C29.87 86.52 29.36 83.05 30.68 80.05C31.77 77.54 33.97 75.72 36.11 74C41.94 69.28 47.78 64.56 53.64 59.85C57.37 56.84 61.38 53.7 66.14 53.14C69.48 52.74 72.88 53.65 76.19 53.02C81.48 51.99 85.73 47.1 91.11 47.26C94.36 47.36 97.25 49.33 100.42 50.03C103.83 50.79 107.54 50.01 110.34 47.96C127.34 51.59 143.95 59.07 158.93 67.87C160.39 68.71 161.84 69.6 163.35 70.33L163.32 70.3Z" fill="#8AB15D" fill-opacity="1.000000" fill-rule="nonzero"/>
			<path id="Vector" d="M92.02 39.32C87.39 39.5 82.94 40.75 78.4 41.54C72.58 42.56 66.68 42.59 60.91 43.9C52.13 45.91 45.37 52.78 40.18 59.75C35.13 66.55 32.24 74.28 23.49 75.7C23.22 75.52 22.94 75.36 22.64 75.19C21.57 74.65 20.53 75.78 21.02 76.64C21.05 76.76 21.12 76.87 21.27 76.97C21.31 76.98 21.34 77.02 21.38 77.03C27.4 81.04 24.67 90.63 25.2 96.76C25.94 105.07 30.54 112.25 35.28 118.84C41.03 126.82 46.35 135.22 53.83 141.73C61.85 148.7 72.71 149.2 82.17 153.12C87.53 155.35 92.58 157.75 98.24 159.17C103.55 160.51 109.06 161.07 114.51 161.43C124.7 162.13 135.09 162.46 145.28 161.7C160.94 160.52 180.69 151.04 185.24 134.7C185.49 134.58 185.68 134.35 185.8 134.09L183.35 133.72C183.35 133.72 183.37 133.82 183.38 133.87C183.4 133.99 183.46 134.08 183.5 134.18C175.44 152.18 155.95 159.17 137.25 159.51C127.38 159.69 117.3 159.33 107.5 158.26C101.67 157.62 96 156.26 90.52 154.15C85.85 152.36 81.48 150.03 76.66 148.58C72 147.18 67.29 146.23 62.76 144.44C57.64 142.41 53.55 138.52 49.94 134.49C43.81 127.66 38.4 119.58 33.46 111.87C28.98 104.92 27.28 97.7 27.58 89.5C27.73 85.46 27.79 80.51 25.22 77.3C29.35 76.76 32.89 73.57 35.54 70.35C41.01 63.66 44.68 56.37 51.7 50.91C60.79 43.83 72.83 45.26 83.5 42.85C95.15 40.23 105.75 42.94 116.93 46.37C137.6 52.67 158.19 61.91 171.73 79.36C177.82 87.19 182.06 96.33 184.77 105.83C187.16 114.2 182.63 122.39 183 130.77L185.81 131.4C185.58 122 190.17 113.38 187.44 103.82C184.96 95.11 180.94 86.88 175.68 79.52C163.36 62.28 144.09 52.95 124.53 46.26C114.24 42.75 102.99 38.85 91.98 39.28L92.02 39.32Z" fill="#517433" fill-opacity="1.000000" fill-rule="nonzero"/>
			<path id="Vector" d="M170.83 127.74C176.77 111.95 167.85 91.67 160.16 78.08C159.75 77.35 158.63 77.88 158.98 78.66C166.09 94.14 171.76 109.9 168.23 127.01C164.43 125.93 160.65 124.75 156.88 123.48C158.13 116.89 159.44 111.13 157.98 104.31C156.73 98.55 154.14 93.12 150.97 88.17C144.36 77.85 134.59 69.83 124.61 62.92C123.93 62.45 123.21 63.5 123.89 64C133.07 70.82 141.67 78.55 148.02 88.15C151.14 92.87 153.43 98.09 154.85 103.56C156.57 110.2 155.16 116.11 154.14 122.55C147.48 120.21 140.85 117.79 134.2 115.4C134.39 115.12 134.5 114.79 134.42 114.37C133.46 108.5 132.71 102.7 130.58 97.12C128.94 92.81 126.52 88.74 124.07 84.86C119.53 77.69 113.19 68.79 104.68 66.04C103.91 65.79 103.6 66.86 104.29 67.2C112.45 71.2 118.02 79.47 122.53 87.08C124.52 90.41 126.26 93.88 127.78 97.45C130.05 102.83 130.63 108.76 131.56 114.47C127.39 112.99 123.21 111.52 119.01 110.13C117.63 109.67 116.27 109.18 114.91 108.72C111.87 99.65 107.98 90.92 102.54 83.02C96.54 74.32 89.41 66.54 82.36 58.67C81.92 58.17 81.18 58.84 81.59 59.34C87.61 66.69 93.82 73.93 99.24 81.75C104.9 89.92 108.36 98.65 111.99 107.71C106.18 105.73 100.38 103.71 94.59 101.64C93.94 94.46 89.55 88.22 85.75 82.29C80.91 74.72 75.26 67.77 68.56 61.78C67.99 61.27 67.1 62.02 67.66 62.55C73.68 68.3 78.65 74.83 83.05 81.87C86.62 87.58 90.8 93.91 91.95 100.69C89.03 99.64 86.09 98.62 83.16 97.55C80.17 96.46 77.22 95.27 74.27 94.03C75.65 82.53 66.85 71.54 57.81 65.46C57.16 65.01 56.48 66.01 57.12 66.46C65.54 72.42 73.26 82.49 72.41 93.23C67.75 91.23 63.12 89.17 58.43 87.26C58.59 87.1 58.67 86.87 58.62 86.58C57.37 80.86 55.32 74.56 49.79 71.66C49.18 71.34 48.58 72.19 49.18 72.56C54.15 75.55 55.82 81.3 56.97 86.66C53.46 85.26 49.92 83.94 46.33 82.85C45.75 82.67 45.46 83.53 46.03 83.75C50.97 85.59 55.81 87.72 60.61 89.91C57.89 92.46 55.25 93.23 51.48 93.43C48.42 93.59 45.04 93.39 42.14 92.34C41.63 92.16 41.4 92.91 41.88 93.12C45.32 94.56 49.49 94.89 53.18 94.6C55.78 94.4 61.16 93.79 61.61 90.38C65.12 91.98 68.62 93.6 72.16 95.17C72.16 95.22 72.15 95.28 72.14 95.33C71.96 96.31 73.49 96.68 73.93 95.91C75.16 96.44 76.4 96.96 77.66 97.47C75.81 98.39 74.13 99.58 72.21 100.43C69.58 101.6 66.69 102.2 63.85 102.67C57.96 103.64 51.62 103.25 45.81 101.9C45.23 101.75 44.91 102.63 45.51 102.8C51.12 104.33 57.04 104.85 62.85 104.28C68.05 103.77 75.95 102.75 79.32 98.18C79.32 98.18 79.32 98.18 79.34 98.16C79.86 98.35 80.36 98.57 80.88 98.77C84.77 100.26 88.66 101.69 92.56 103.14C92.78 103.35 93.08 103.45 93.4 103.46C95 104.06 96.6 104.67 98.19 105.26C95.39 106.18 93.05 107.87 90.53 109.42C87.01 111.57 82.31 112.25 78.34 113.26C69.39 115.55 60.46 116.85 51.36 114.66C50.85 114.55 50.6 115.25 51.09 115.44C59.01 118.26 67.59 117.21 75.65 115.65C80.04 114.8 84.51 113.84 88.79 112.58C92.57 111.46 95.5 108.48 99.26 107.22C99.88 107.01 100.11 106.47 100.07 105.95C104.51 107.58 108.96 109.14 113.42 110.7C113.54 110.78 113.68 110.82 113.83 110.85C115.3 111.37 116.77 111.92 118.26 112.43C118.58 112.54 118.89 112.65 119.19 112.77C115.61 113.39 112.22 116.6 109.33 118.61C104.35 122.07 98.72 124.34 92.94 126.06C83.17 128.97 72.92 129.79 62.83 130.81C62.21 130.88 62.29 131.93 62.91 131.89C73.12 131.34 83.37 130.42 93.32 127.92C103.01 125.49 112.35 120.34 120.25 114.3C120.65 113.98 120.65 113.55 120.45 113.21C127.09 115.55 133.69 117.97 140.29 120.41C137.67 123.43 135.5 126.68 132.28 129.3C127.72 133.03 122.31 135.63 116.87 137.78C105.91 142.09 93.68 143.92 81.94 143.27C81.44 143.25 81.39 143.99 81.89 144.05C93.41 145.17 105.45 143.59 116.39 139.81C122.21 137.8 127.69 135.21 132.76 131.72C136.25 129.31 140.89 125.49 142.64 121.28C146.29 122.63 149.94 123.96 153.59 125.29C153.75 125.34 153.9 125.4 154.05 125.44C154.34 125.93 154.95 126.12 155.53 125.98C155.71 126.04 155.9 126.11 156.09 126.17C153.64 129.63 150.11 132.13 146.64 134.57C142.53 137.49 138.53 140.45 134.02 142.77C124.05 147.88 112.76 149.29 101.7 148.88C101.07 148.85 101.01 149.78 101.65 149.85C112.5 151 123.49 149.31 133.55 145.08C138.45 143.03 142.6 139.96 146.95 136.98C151.09 134.15 155.59 131.25 158.33 126.95C161.31 127.99 164.33 129 167.36 129.94C166.42 131.38 165.56 132.88 164.67 134.37C162.35 138.18 159.34 141.47 156.12 144.54C153.48 147.05 150.58 149.22 147.31 150.82C144.64 152.14 142.05 153.13 139.78 155.09C139.56 155.28 139.67 155.58 139.89 155.68C140.59 156.04 141.29 156.36 142.02 156.62C142.04 156.62 142.06 156.6 142.03 156.58C139.35 155.4 145.05 153.1 145.14 153.07C146.95 152.31 148.76 151.63 150.52 150.75C153.46 149.26 156.05 146.83 158.48 144.66C162.91 140.7 166.66 135.8 169.49 130.53C174.09 131.88 178.74 132.99 183.44 133.74L185.9 134.11C187.31 134.3 188.73 134.46 190.15 134.56C191.33 134.64 191.74 132.74 190.55 132.49C189 132.16 187.47 131.8 185.92 131.46L183.11 130.84C179 129.88 174.93 128.86 170.9 127.75L170.83 127.74Z" fill="#517433" fill-opacity="1.000000" fill-rule="nonzero"/>
		</g>
	</g>
</svg>
