<svg width="111" height="56" viewBox="0 0 111 56" fill="none" xmlns="http://www.w3.org/2000/svg">
<g clip-path="url(#clip0_478_3810)">
<path fill-rule="evenodd" clip-rule="evenodd" d="M56.0169 0.84946C56.0136 0.848279 56.01 0.848279 56.0067 0.84946L40.7204 6.33686L56.0067 11.8243C56.01 11.8254 56.0136 11.8254 56.0169 11.8243L71.3032 6.33686L56.0169 0.84946ZM55.72 0.0507861C55.9086 -0.0169286 56.1149 -0.0169288 56.3036 0.050786L72.1264 5.73077C72.6949 5.93485 72.6949 6.73886 72.1264 6.94295L56.3036 12.6229C56.1149 12.6906 55.9086 12.6906 55.72 12.6229L39.8972 6.94295C39.3287 6.73887 39.3287 5.93485 39.8972 5.73077L55.72 0.0507861ZM8.42276 31.3994V33.3683H2.50678H1.75018H0V20.0961H2.50678V31.3994H8.42276ZM12.7709 20.0961V33.3683H10.2641V20.0961H12.7709ZM17.6021 20.0961H18.7416L22.3695 30.0867L25.9884 20.0961H27.1279H28.167H29.2609V33.3683H26.7541V29.2754L27 23.237L23.2355 33.3683H21.4945L17.7326 23.2253L17.985 29.2754V33.3683H15.4782V20.0961H16.5721H17.6021ZM42.5605 26.3949V27.0786C42.5605 28.0813 42.4268 28.9837 42.1594 29.7859C41.892 30.582 41.5122 31.2596 41.02 31.8187C40.5277 32.3778 39.9413 32.8062 39.2607 33.104C38.58 33.4017 37.8234 33.5506 36.9909 33.5506C36.1705 33.5506 35.4169 33.4017 34.7302 33.104C34.0496 32.8062 33.4601 32.3778 32.9618 31.8187C32.4635 31.2596 32.0776 30.582 31.8041 29.7859C31.5307 28.9837 31.3939 28.0813 31.3939 27.0786V26.3949C31.3939 25.3861 31.5307 24.4837 31.8041 23.6876C32.0776 22.8915 32.4605 22.2139 32.9527 21.6548C33.4449 21.0897 34.0314 20.6582 34.712 20.3604C35.3987 20.0627 36.1523 19.9138 36.9727 19.9138C37.8052 19.9138 38.5618 20.0627 39.2424 20.3604C39.9231 20.6582 40.5095 21.0897 41.0017 21.6548C41.5 22.2139 41.8829 22.8915 42.1503 23.6876C42.4238 24.4837 42.5605 25.3861 42.5605 26.3949ZM40.0264 27.0786V26.3767C40.0264 25.6535 39.9595 25.0185 39.8258 24.4715C39.6921 23.9185 39.4946 23.4536 39.2333 23.0769C38.972 22.7001 38.6499 22.4175 38.2671 22.2291C37.8842 22.0346 37.4527 21.9374 36.9727 21.9374C36.4865 21.9374 36.055 22.0346 35.6782 22.2291C35.3075 22.4175 34.9915 22.7001 34.7302 23.0769C34.4689 23.4536 34.2684 23.9185 34.1286 24.4715C33.9949 25.0185 33.9281 25.6535 33.9281 26.3767V27.0786C33.9281 27.7957 33.9949 28.4307 34.1286 28.9837C34.2684 29.5367 34.4689 30.0047 34.7302 30.3875C34.9976 30.7643 35.3197 31.0499 35.6965 31.2444C36.0733 31.4389 36.5047 31.5361 36.9909 31.5361C37.4771 31.5361 37.9085 31.4389 38.2853 31.2444C38.6621 31.0499 38.9781 30.7643 39.2333 30.3875C39.4946 30.0047 39.6921 29.5367 39.8258 28.9837C39.9595 28.4307 40.0264 27.7957 40.0264 27.0786ZM55.3496 20.0961V33.3683H52.8337L47.1912 24.1616V33.3683H44.6844V20.0961H47.1912L52.8519 29.3119V20.0961H55.3496ZM65.6684 29.002H68.1752C68.1083 29.8892 67.8622 30.6762 67.4368 31.3629C67.0114 32.0435 66.4189 32.5783 65.6593 32.9672C64.8997 33.3562 63.979 33.5506 62.8973 33.5506C62.0647 33.5506 61.3142 33.4048 60.6457 33.1131C59.9833 32.8153 59.4151 32.3929 58.9411 31.846C58.4732 31.293 58.1146 30.6306 57.8655 29.8588C57.6163 29.081 57.4917 28.2089 57.4917 27.2427V26.2308C57.4917 25.2646 57.6194 24.3925 57.8746 23.6147C58.1298 22.8368 58.4945 22.1744 58.9685 21.6275C59.4486 21.0745 60.0228 20.6491 60.6913 20.3513C61.3659 20.0535 62.1194 19.9046 62.952 19.9046C64.0337 19.9046 64.9483 20.1052 65.6957 20.5063C66.4432 20.9013 67.0236 21.4452 67.4368 22.138C67.85 22.8307 68.0992 23.6268 68.1843 24.5262H65.6775C65.6289 23.9671 65.5074 23.4931 65.3129 23.1042C65.1245 22.7153 64.8389 22.4205 64.456 22.22C64.0792 22.0134 63.5779 21.9101 62.952 21.9101C62.4658 21.9101 62.0374 22.0012 61.6667 22.1835C61.302 22.3658 60.9982 22.6393 60.7551 23.0039C60.512 23.3625 60.3297 23.8122 60.2082 24.353C60.0866 24.8878 60.0259 25.5077 60.0259 26.2126V27.2427C60.0259 27.9172 60.0806 28.5219 60.1899 29.0567C60.2993 29.5914 60.4695 30.0442 60.7004 30.4149C60.9313 30.7856 61.2291 31.0682 61.5937 31.2626C61.9584 31.4571 62.3929 31.5543 62.8973 31.5543C63.511 31.5543 64.0094 31.4571 64.3922 31.2626C64.7812 31.0682 65.0759 30.7825 65.2764 30.4058C65.483 30.029 65.6137 29.5611 65.6684 29.002ZM78.9133 31.3994V33.3683H72.6236H71.8578H70.1168V20.0961H71.8578H72.6236H78.8859V22.0742H72.6236V25.5745H77.9926V27.4979H72.6236V31.3994H78.9133ZM89.0771 31.3994V33.3683H83.1611H82.4045H80.6544V20.0961H83.1611V31.3994H89.0771ZM99.1771 31.3994V33.3683H93.2612H92.5046H90.7544V20.0961H93.2612V31.3994H99.1771ZM111 26.3949V27.0786C111 28.0813 110.866 28.9837 110.599 29.7859C110.332 30.582 109.952 31.2596 109.459 31.8187C108.967 32.3778 108.381 32.8062 107.7 33.104C107.02 33.4017 106.263 33.5506 105.43 33.5506C104.61 33.5506 103.856 33.4017 103.17 33.104C102.489 32.8062 101.9 32.3778 101.401 31.8187C100.903 31.2596 100.517 30.582 100.244 29.7859C99.9702 28.9837 99.8335 28.0813 99.8335 27.0786V26.3949C99.8335 25.3861 99.9702 24.4837 100.244 23.6876C100.517 22.8915 100.9 22.2139 101.392 21.6548C101.884 21.0897 102.471 20.6582 103.152 20.3604C103.838 20.0627 104.592 19.9138 105.412 19.9138C106.245 19.9138 107.001 20.0627 107.682 20.3604C108.363 20.6582 108.949 21.0897 109.441 21.6548C109.94 22.2139 110.322 22.8915 110.59 23.6876C110.863 24.4837 111 25.3861 111 26.3949ZM108.466 27.0786V26.3767C108.466 25.6535 108.399 25.0185 108.265 24.4715C108.132 23.9185 107.934 23.4536 107.673 23.0769C107.412 22.7001 107.089 22.4175 106.707 22.2291C106.324 22.0346 105.892 21.9374 105.412 21.9374C104.926 21.9374 104.495 22.0346 104.118 22.2291C103.747 22.4175 103.431 22.7001 103.17 23.0769C102.908 23.4536 102.708 23.9185 102.568 24.4715C102.434 25.0185 102.368 25.6535 102.368 26.3767V27.0786C102.368 27.7957 102.434 28.4307 102.568 28.9837C102.708 29.5367 102.908 30.0047 103.17 30.3875C103.437 30.7643 103.759 31.0499 104.136 31.2444C104.513 31.4389 104.944 31.5361 105.43 31.5361C105.917 31.5361 106.348 31.4389 106.725 31.2444C107.102 31.0499 107.418 30.7643 107.673 30.3875C107.934 30.0047 108.132 29.5367 108.265 28.9837C108.399 28.4307 108.466 27.7957 108.466 27.0786ZM17.4198 52.6314H16.5712H4.74043H4.63576H4.24158H4.04409C3.84271 52.6314 3.74747 52.383 3.89723 52.2483L4.04409 52.1163L4.33723 51.8528L4.41507 51.7828L9.68702 47.0433C9.7841 46.956 9.7841 46.8038 9.68702 46.7166L4.41507 41.977L4.33723 41.9071L4.04409 41.6435L3.89723 41.5115C3.74747 41.3769 3.84271 41.1285 4.04409 41.1285H4.24158H4.63576H4.74043H19.0327H19.8813V41.977V43.5665V44.415H20.7299H89.5963H90.4449V43.5665V41.977V41.1285H91.2934H105.586H105.69H106.085H106.282C106.483 41.1285 106.579 41.3769 106.429 41.5115L106.282 41.6435L105.989 41.9071L105.911 41.977L100.639 46.7166C100.542 46.8038 100.542 46.956 100.639 47.0433L105.911 51.7828L105.989 51.8528L106.282 52.1163L106.429 52.2483C106.579 52.383 106.483 52.6314 106.282 52.6314H106.085H105.69H105.586H93.7549H92.9063V53.4799V55.0694V55.9179H92.0578H18.2684H17.4198V55.0694V53.4799V52.6314ZM17.4198 51.7828H5.68433L10.2543 47.6743C10.7264 47.2499 10.7264 46.5099 10.2543 46.0855L5.68433 41.977H19.0327V44.415V45.2636H19.8813H90.4449H91.2934V44.415V41.977H104.642L100.072 46.0855C99.5997 46.5099 99.5997 47.2499 100.072 47.6743L104.642 51.7828H92.9063H92.0578V52.6314V55.0694H18.2684V52.6314V51.7828H17.4198ZM31.4926 51.4933H32.2086C32.1713 51.8364 32.0731 52.1434 31.914 52.4144C31.7549 52.6854 31.5299 52.9004 31.239 53.0595C30.9482 53.2161 30.5852 53.2944 30.1501 53.2944C29.8319 53.2944 29.5423 53.2348 29.2813 53.1154C29.0227 52.9961 28.8002 52.8271 28.6137 52.6083C28.4273 52.387 28.2831 52.1223 28.1812 51.814C28.0817 51.5032 28.032 51.1577 28.032 50.7773V50.2366C28.032 49.8562 28.0817 49.5119 28.1812 49.2036C28.2831 48.8929 28.4285 48.6269 28.6175 48.4056C28.8089 48.1844 29.0389 48.0141 29.3074 47.8947C29.5759 47.7754 29.8779 47.7157 30.2135 47.7157C30.6237 47.7157 30.9705 47.7928 31.2539 47.9469C31.5374 48.1011 31.7574 48.3149 31.914 48.5883C32.0731 48.8593 32.1713 49.1738 32.2086 49.5318H31.4926C31.4578 49.2782 31.3932 49.0607 31.2987 48.8792C31.2042 48.6952 31.07 48.5535 30.8959 48.4541C30.7219 48.3546 30.4944 48.3049 30.2135 48.3049C29.9724 48.3049 29.7598 48.3509 29.5759 48.4429C29.3944 48.5349 29.2415 48.6654 29.1172 48.8345C28.9954 49.0035 28.9034 49.2061 28.8412 49.4423C28.7791 49.6785 28.748 49.9408 28.748 50.2291V50.7773C28.748 51.0433 28.7753 51.2932 28.83 51.5269C28.8872 51.7605 28.973 51.9656 29.0873 52.1422C29.2017 52.3187 29.3471 52.4579 29.5236 52.5598C29.7002 52.6593 29.909 52.709 30.1501 52.709C30.4559 52.709 30.6995 52.6605 30.881 52.5635C31.0625 52.4666 31.1992 52.3274 31.2912 52.1459C31.3857 51.9644 31.4528 51.7469 31.4926 51.4933ZM35.3671 47.7903H35.2105H34.8935H34.7369L32.6673 53.2199H33.4019L33.918 51.7991H36.1887L36.7059 53.2199H37.4442L35.3671 47.7903ZM35.9743 51.2099H34.132L35.0522 48.6765L35.9743 51.2099ZM38.8911 47.7903V50.468L39.4803 49.8189L41.3038 47.7903H42.169L40.0341 50.1863L42.3331 53.2199H41.4754L39.5566 50.6923L38.8911 51.3832V53.2199H38.1714V47.7903H38.8911ZM46.4164 52.6344V53.2199H43.6867H43.5413H42.967V47.7903H43.5413H43.6867H46.3791V48.3795H43.6867V50.1247H46.036V50.7102H43.6867V52.6344H46.4164ZM49.8621 50.0986C49.9078 50.1552 49.9554 50.2135 50.005 50.2737C49.8199 50.4052 49.6529 50.5358 49.5041 50.6654C49.3326 50.8171 49.1971 50.9799 49.0976 51.1539C49.0007 51.328 48.9522 51.5293 48.9522 51.7581C48.9522 52.0564 49.023 52.3212 49.1647 52.5524C49.3065 52.7836 49.5078 52.965 49.7689 53.0968C50.0324 53.2286 50.3444 53.2944 50.7049 53.2944C50.9783 53.2944 51.2505 53.2447 51.5215 53.1453C51.7474 53.0611 51.9437 52.9429 52.1102 52.7909L52.4687 53.2199H53.2966L52.5221 52.2914C52.5845 52.2059 52.6401 52.1164 52.6887 52.0228C52.7882 51.8339 52.8615 51.63 52.9088 51.4113C52.956 51.1925 52.9796 50.96 52.9796 50.7139H52.3606C52.3606 51.0147 52.3133 51.2894 52.2189 51.538C52.1855 51.6273 52.1479 51.7122 52.106 51.7926L50.8987 50.3452L51.3052 50.0427C51.4519 49.9333 51.58 49.8214 51.6893 49.7071C51.8012 49.5927 51.8882 49.4672 51.9504 49.3304C52.0125 49.1912 52.0436 49.0346 52.0436 48.8606C52.0436 48.6542 51.9914 48.4653 51.887 48.2937C51.7826 48.1197 51.6334 47.9805 51.4395 47.8761C51.2481 47.7692 51.0193 47.7157 50.7533 47.7157C50.4799 47.7157 50.2412 47.7667 50.0374 47.8686C49.8335 47.9706 49.6744 48.1197 49.56 48.3161C49.4482 48.51 49.3922 48.7487 49.3922 49.0321C49.3922 49.2161 49.4332 49.3938 49.5153 49.5654C49.5998 49.7369 49.7154 49.9146 49.8621 50.0986ZM50.2275 50.8444L50.3853 50.7271L51.711 52.3132C51.5893 52.4249 51.4565 52.5158 51.3127 52.5859C51.1163 52.6804 50.9137 52.7276 50.7049 52.7276C50.4662 52.7276 50.2673 52.6841 50.1082 52.5971C49.9516 52.5076 49.8347 52.3895 49.7577 52.2428C49.6806 52.0962 49.6421 51.9346 49.6421 51.7581C49.6421 51.7034 49.6533 51.63 49.6756 51.538C49.7005 51.4461 49.7539 51.3404 49.836 51.2211C49.918 51.1017 50.0485 50.9762 50.2275 50.8444ZM50.9137 49.6288L50.5294 49.902C50.4821 49.8431 50.4374 49.7856 50.3953 49.7294C50.2984 49.6002 50.2226 49.4759 50.1679 49.3565C50.1132 49.2372 50.0858 49.1216 50.0858 49.0097C50.0858 48.878 50.1107 48.7574 50.1604 48.648C50.2101 48.5361 50.2847 48.4466 50.3842 48.3795C50.4836 48.3124 50.6054 48.2788 50.7496 48.2788C50.9584 48.2788 51.12 48.3397 51.2344 48.4615C51.3488 48.5809 51.4059 48.7139 51.4059 48.8606C51.4059 49.0495 51.3624 49.1987 51.2754 49.3081C51.1909 49.415 51.0703 49.5219 50.9137 49.6288ZM56.7572 50.6804H56.567V52.6344H57.7491C57.9778 52.6344 58.1717 52.5946 58.3308 52.5151C58.4924 52.4355 58.6155 52.3236 58.7 52.1794C58.7845 52.0328 58.8268 51.86 58.8268 51.6611C58.8268 51.4597 58.7908 51.2857 58.7187 51.139C58.6466 50.9924 58.5335 50.8792 58.3793 50.7997C58.2252 50.7201 58.0263 50.6804 57.7827 50.6804H56.7572ZM56.567 48.3795V50.1023H56.7646H57.6484C57.8548 50.1023 58.035 50.0675 58.1891 49.9979C58.3433 49.9283 58.4626 49.8289 58.5471 49.6996C58.6341 49.5678 58.6777 49.4112 58.6777 49.2297C58.6777 49.0309 58.6391 48.8693 58.562 48.745C58.4875 48.6182 58.3719 48.5262 58.2152 48.469C58.0611 48.4093 57.8647 48.3795 57.626 48.3795H56.567ZM58.7485 50.2851C58.7009 50.3121 58.6514 50.3368 58.5999 50.3593C58.743 50.3977 58.8709 50.4563 58.9834 50.5349C59.1649 50.6592 59.3029 50.8183 59.3974 51.0122C59.4943 51.2062 59.5428 51.42 59.5428 51.6536C59.5428 51.9918 59.4682 52.2776 59.3191 52.5113C59.1724 52.7425 58.9648 52.9191 58.6963 53.0409C58.4278 53.1602 58.1121 53.2199 57.7491 53.2199H56.567H56.1232H55.8473V47.7903H57.626C57.9045 47.7903 58.1531 47.8189 58.3719 47.8761C58.5906 47.9308 58.7758 48.0178 58.9275 48.1371C59.0816 48.254 59.1985 48.4031 59.278 48.5846C59.3576 48.7661 59.3974 48.9836 59.3974 49.2372C59.3974 49.4609 59.3402 49.6636 59.2258 49.845C59.1115 50.024 58.9524 50.1707 58.7485 50.2851ZM62.7834 47.7903H62.6268H62.3098H62.1532L60.0835 53.2199H60.8181L61.3342 51.7991H63.605L64.1221 53.2199H64.8605L62.7834 47.7903ZM63.3905 51.2099H61.5482L62.4684 48.6765L63.3905 51.2099ZM66.3074 47.7903V50.468L66.8966 49.8189L68.7201 47.7903H69.5852L67.4504 50.1863L69.7493 53.2199H68.8916L66.9728 50.6923L66.3074 51.3832V53.2199H65.5876V47.7903H66.3074ZM73.8327 52.6344V53.2199H71.103H70.9575H70.3833V47.7903H70.9575H71.103H73.7954V48.3795H71.103V50.1247H73.4523V50.7102H71.103V52.6344H73.8327ZM74.7239 47.7903H76.5213C76.929 47.7903 77.2734 47.8525 77.5543 47.9768C77.8377 48.1011 78.0527 48.285 78.1994 48.5287C78.3486 48.7698 78.4232 49.0669 78.4232 49.4199C78.4232 49.6685 78.3722 49.896 78.2703 50.1023C78.1708 50.3062 78.0266 50.4802 77.8377 50.6244C77.7069 50.7238 77.5577 50.8055 77.3902 50.8695L78.6656 53.1751V53.2199H77.8974L76.7173 51.0197H75.4436V53.2199H74.7239V47.7903ZM76.5437 50.4342H75.4436V48.3795H76.5213C76.7973 48.3795 77.0223 48.423 77.1963 48.51C77.3728 48.5946 77.5021 48.7151 77.5841 48.8717C77.6662 49.0284 77.7072 49.2111 77.7072 49.4199C77.7072 49.6064 77.6637 49.7767 77.5767 49.9308C77.4896 50.0849 77.3604 50.208 77.1888 50.3C77.0173 50.3895 76.8023 50.4342 76.5437 50.4342ZM79.5009 47.7903L80.9105 50.5163L82.3238 47.7903H83.1405L81.2685 51.1912V53.2199H80.5487V51.1912L78.6767 47.7903H79.5009ZM53.1959 7.79117V7.31384H51.5253L52.3084 6.45118C52.4178 6.33848 52.518 6.22744 52.6092 6.11805C52.7003 6.00701 52.7791 5.89679 52.8454 5.7874C52.9133 5.67636 52.9655 5.56532 53.002 5.45427C53.0384 5.34323 53.0567 5.23136 53.0567 5.11865C53.0567 4.9148 53.0119 4.73829 52.9224 4.58912C52.8346 4.43996 52.7061 4.32477 52.5371 4.24356C52.368 4.16235 52.1625 4.12174 51.9205 4.12174C51.6637 4.12174 51.4441 4.17395 51.2617 4.27837C51.0794 4.38112 50.9402 4.52034 50.8441 4.69602C50.748 4.87005 50.6999 5.0623 50.6999 5.27279H51.299C51.299 5.14186 51.3222 5.02584 51.3686 4.92474C51.4151 4.82198 51.4838 4.7416 51.575 4.68359C51.6661 4.62559 51.7788 4.59658 51.9131 4.59658C52.0291 4.59658 52.1277 4.62227 52.2089 4.67365C52.2901 4.72337 52.3515 4.79215 52.3929 4.87999C52.436 4.96618 52.4575 5.06645 52.4575 5.18081C52.4575 5.26202 52.4418 5.34571 52.4103 5.4319C52.3805 5.51642 52.3283 5.61172 52.2537 5.71779C52.1791 5.82387 52.0772 5.94983 51.9479 6.09567L50.7695 7.38097V7.79117H53.1959ZM56.0225 6.2697V5.67802C56.0225 5.45096 56.0043 5.25207 55.9678 5.08136C55.9314 4.909 55.8784 4.76232 55.8087 4.64133C55.7408 4.51869 55.6579 4.41924 55.5601 4.343C55.464 4.26677 55.3546 4.21124 55.232 4.17644C55.111 4.13998 54.9784 4.12174 54.8342 4.12174C54.6552 4.12174 54.4928 4.14992 54.3469 4.20627C54.2027 4.26262 54.0784 4.35295 53.974 4.47725C53.8696 4.5999 53.7892 4.75983 53.7329 4.95706C53.6765 5.15263 53.6484 5.39295 53.6484 5.67802V6.2697C53.6484 6.49676 53.6666 6.69647 53.7031 6.86884C53.7412 7.04121 53.7942 7.18954 53.8622 7.31384C53.9318 7.43649 54.0155 7.53676 54.1133 7.61466C54.211 7.69255 54.3204 7.74973 54.4414 7.78619C54.5641 7.82266 54.6966 7.84089 54.8392 7.84089C55.0182 7.84089 55.1798 7.81188 55.324 7.75388C55.4698 7.69587 55.5949 7.60471 55.6994 7.48041C55.8038 7.35611 55.8833 7.19451 55.938 6.99563C55.9944 6.79509 56.0225 6.55311 56.0225 6.2697ZM55.4234 5.58852V6.35423C55.4234 6.53488 55.411 6.68984 55.3861 6.81912C55.3613 6.94839 55.324 7.05364 55.2742 7.13485C55.2245 7.2144 55.1632 7.27241 55.0903 7.30887C55.0173 7.34533 54.9337 7.36356 54.8392 7.36356C54.7646 7.36356 54.6958 7.35196 54.6328 7.32876C54.5715 7.30556 54.5168 7.26909 54.4688 7.21937C54.4224 7.16799 54.3826 7.10336 54.3494 7.02546C54.3163 6.94591 54.2914 6.85061 54.2748 6.73956C54.2583 6.62852 54.25 6.50007 54.25 6.35423V5.58852C54.25 5.40787 54.2624 5.25456 54.2873 5.1286C54.3138 5.00098 54.3519 4.89822 54.4016 4.82033C54.4514 4.74243 54.5127 4.68608 54.5856 4.65128C54.6585 4.61481 54.7414 4.59658 54.8342 4.59658C54.9104 4.59658 54.9792 4.60818 55.0406 4.63139C55.1019 4.65293 55.1566 4.68857 55.2046 4.73829C55.2527 4.78635 55.2925 4.84933 55.324 4.92723C55.3571 5.00347 55.382 5.09711 55.3985 5.20815C55.4151 5.31754 55.4234 5.44433 55.4234 5.58852ZM58.1929 7.79117V4.15904H58.1208L56.7062 4.67614V5.17086L57.5937 4.87005V7.79117H58.1929ZM61.3353 4.14909H61.2607C60.9458 4.14909 60.6748 4.20296 60.4477 4.31069C60.2207 4.41676 60.0342 4.56343 59.8884 4.75072C59.7442 4.938 59.6373 5.15429 59.5677 5.39958C59.4981 5.64321 59.4632 5.90259 59.4632 6.17771V6.42632C59.4632 6.61692 59.4906 6.79757 59.5453 6.96828C59.6 7.13899 59.6795 7.28981 59.784 7.42074C59.89 7.55168 60.0185 7.65443 60.1693 7.72901C60.3218 7.8036 60.495 7.84089 60.6889 7.84089C60.8728 7.84089 61.0369 7.8094 61.1811 7.74642C61.327 7.68344 61.4504 7.5956 61.5515 7.4829C61.6543 7.37019 61.7322 7.23926 61.7852 7.0901C61.8383 6.93928 61.8648 6.77685 61.8648 6.60283C61.8648 6.44538 61.8432 6.29456 61.8001 6.15037C61.7587 6.00452 61.6949 5.87524 61.6087 5.76254C61.5242 5.64818 61.4173 5.55786 61.288 5.49156C61.1587 5.42527 61.0063 5.39212 60.8306 5.39212C60.6864 5.39212 60.5538 5.41532 60.4328 5.46173C60.3135 5.50648 60.2082 5.57195 60.1171 5.65813C60.1025 5.67189 60.0884 5.68614 60.0747 5.70083C60.0864 5.60363 60.1063 5.50984 60.1345 5.41947C60.1842 5.26367 60.2588 5.12777 60.3582 5.01175C60.4577 4.89574 60.5845 4.80458 60.7386 4.73829C60.8944 4.67199 61.0792 4.63884 61.293 4.63884H61.3353V4.14909ZM60.0624 6.2799V6.48101C60.0624 6.62521 60.0781 6.75282 60.1096 6.86387C60.1411 6.97325 60.185 7.06524 60.2414 7.13982C60.2994 7.21274 60.3657 7.26827 60.4403 7.30639C60.5149 7.3445 60.5952 7.36356 60.6814 7.36356C60.7709 7.36356 60.8521 7.34533 60.925 7.30887C60.998 7.27075 61.0601 7.21854 61.1115 7.15225C61.1629 7.08595 61.2018 7.00723 61.2283 6.91607C61.2549 6.82492 61.2681 6.72548 61.2681 6.61775C61.2681 6.51499 61.2549 6.41886 61.2283 6.32936C61.2035 6.23821 61.1662 6.15866 61.1165 6.0907C61.0668 6.02109 61.0046 5.96723 60.93 5.92911C60.8571 5.88933 60.7726 5.86944 60.6764 5.86944C60.5571 5.86944 60.4486 5.89762 60.3508 5.95397C60.2546 6.01032 60.1767 6.08407 60.1171 6.17523C60.095 6.20928 60.0768 6.24417 60.0624 6.2799ZM75.653 6.22613C75.8234 6.10786 75.9957 5.96439 76.1613 5.79906C76.8472 5.11416 77.1581 4.31343 76.8557 4.01058C76.5533 3.70773 75.7521 4.01745 75.0662 4.70235C74.5307 5.237 74.2238 5.84225 74.2588 6.22613C74.2238 6.61001 74.5307 7.21525 75.0662 7.74991C75.7521 8.43481 76.5533 8.74452 76.8557 8.44167C77.1581 8.13882 76.8472 7.33809 76.1613 6.65319C75.9957 6.48786 75.8234 6.34439 75.653 6.22613ZM78.3508 5.77323C78.1853 5.93856 78.013 6.08203 77.8426 6.2003C78.013 6.31856 78.1853 6.46203 78.3508 6.62736C79.0367 7.31226 79.3476 8.11299 79.0452 8.41584C78.7428 8.71869 77.9416 8.40898 77.2557 7.72408C76.7203 7.18942 76.4134 6.58417 76.4483 6.2003C76.4134 5.81642 76.7203 5.21117 77.2557 4.67651C77.9416 3.99161 78.7428 3.6819 79.0452 3.98475C79.3476 4.2876 79.0367 5.08833 78.3508 5.77323ZM80.0315 6.17438C80.2019 6.05611 80.3741 5.91264 80.5397 5.74731C81.2256 5.06241 81.5365 4.26168 81.2341 3.95883C80.9317 3.65598 80.1305 3.9657 79.4446 4.65059C78.9092 5.18525 78.6023 5.7905 78.6372 6.17438C78.6023 6.55826 78.9092 7.1635 79.4446 7.69816C80.1305 8.38306 80.9317 8.69277 81.2341 8.38992C81.5365 8.08707 81.2256 7.28634 80.5397 6.60144C80.3741 6.43611 80.2019 6.29264 80.0315 6.17438ZM82.7296 5.72157C82.564 5.88692 82.3917 6.0304 82.2213 6.14867C82.3917 6.26695 82.564 6.41043 82.7296 6.57578C83.4155 7.26068 83.7264 8.06141 83.424 8.36426C83.1216 8.66711 82.3204 8.3574 81.6345 7.6725C81.099 7.13782 80.7921 6.53255 80.8271 6.14867C80.7921 5.7648 81.099 5.15953 81.6345 4.62485C82.3204 3.93995 83.1216 3.63024 83.424 3.93309C83.7264 4.23594 83.4155 5.03667 82.7296 5.72157ZM84.4109 6.12292C84.5813 6.00465 84.7536 5.86117 84.9192 5.69582C85.6051 5.01092 85.916 4.21019 85.6136 3.90734C85.3111 3.60449 84.51 3.9142 83.8241 4.5991C83.2886 5.13378 82.9817 5.73905 83.0167 6.12292C82.9817 6.5068 83.2886 7.11207 83.8241 7.64675C84.51 8.33165 85.3111 8.64136 85.6136 8.33851C85.916 8.03566 85.6051 7.23493 84.9192 6.55003C84.7536 6.38468 84.5813 6.2412 84.4109 6.12292ZM87.43 5.11653C87.3515 5.07765 87.2593 5.07765 87.1808 5.11653L85.3346 6.03067C85.2305 6.08223 85.2305 6.23076 85.3346 6.28232L87.1808 7.19646C87.2593 7.23534 87.3515 7.23534 87.43 7.19646L89.2762 6.28232C89.3804 6.23076 89.3804 6.08223 89.2762 6.03067L87.43 5.11653ZM36.37 6.22613C36.1997 6.10786 36.0274 5.96439 35.8618 5.79906C35.1759 5.11416 34.865 4.31343 35.1674 4.01058C35.4698 3.70773 36.271 4.01745 36.9569 4.70235C37.4924 5.237 37.7993 5.84225 37.7643 6.22613C37.7993 6.61001 37.4924 7.21525 36.9569 7.74991C36.271 8.43481 35.4698 8.74452 35.1674 8.44167C34.865 8.13882 35.1759 7.33809 35.8618 6.65319C36.0274 6.48786 36.1997 6.34439 36.37 6.22613ZM33.6728 5.77322C33.8384 5.93855 34.0107 6.08202 34.1811 6.20028C34.0107 6.31855 33.8384 6.46202 33.6728 6.62735C32.9869 7.31225 32.676 8.11298 32.9784 8.41583C33.2808 8.71868 34.082 8.40897 34.7679 7.72407C35.3034 7.18941 35.6103 6.58416 35.5753 6.20028C35.6103 5.8164 35.3034 5.21116 34.7679 4.6765C34.082 3.9916 33.2808 3.68189 32.9784 3.98474C32.676 4.28759 32.9869 5.08832 33.6728 5.77322ZM31.9914 6.17438C31.821 6.05611 31.6487 5.91264 31.4832 5.74731C30.7973 5.06241 30.4864 4.26168 30.7888 3.95883C31.0912 3.65598 31.8924 3.9657 32.5783 4.65059C33.1137 5.18525 33.4206 5.7905 33.3857 6.17438C33.4206 6.55826 33.1137 7.1635 32.5783 7.69816C31.8924 8.38306 31.0912 8.69277 30.7888 8.38992C30.4864 8.08707 30.7973 7.28634 31.4832 6.60144C31.6487 6.43611 31.821 6.29264 31.9914 6.17438ZM29.2935 5.72148C29.4591 5.88683 29.6314 6.03031 29.8018 6.14859C29.6314 6.26686 29.4591 6.41034 29.2935 6.57569C28.6076 7.26059 28.2967 8.06132 28.5991 8.36417C28.9015 8.66702 29.7027 8.35731 30.3886 7.67241C30.9241 7.13773 31.231 6.53246 31.196 6.14859C31.231 5.76471 30.9241 5.15944 30.3886 4.62476C29.7027 3.93986 28.9015 3.63015 28.5991 3.933C28.2967 4.23585 28.6076 5.03658 29.2935 5.72148ZM27.6124 6.12288C27.442 6.00462 27.2697 5.86115 27.1041 5.69582C26.4182 5.01092 26.1073 4.21019 26.4097 3.90734C26.7121 3.60449 27.5133 3.9142 28.1992 4.5991C28.7347 5.13376 29.0416 5.739 29.0066 6.12288C29.0416 6.50676 28.7347 7.11201 28.1992 7.64667C27.5133 8.33156 26.7121 8.64128 26.4097 8.33843C26.1073 8.03558 26.4182 7.23485 27.1041 6.54995C27.2697 6.38462 27.442 6.24115 27.6124 6.12288ZM24.5932 5.11653C24.6718 5.07765 24.7639 5.07765 24.8425 5.11653L26.6886 6.03067C26.7928 6.08223 26.7928 6.23076 26.6886 6.28232L24.8425 7.19646C24.7639 7.23534 24.6718 7.23534 24.5932 7.19646L22.7471 6.28232C22.6429 6.23076 22.6429 6.08223 22.7471 6.03067L24.5932 5.11653Z" fill="white"/>
</g>
<defs>
<clipPath id="clip0_478_3810">
<rect width="111" height="56" fill="white"/>
</clipPath>
</defs>
</svg>
