<svg width="23.000000" height="18.000000" viewBox="0 0 23 18" fill="none" xmlns="http://www.w3.org/2000/svg" xmlns:xlink="http://www.w3.org/1999/xlink">
	<desc>
			Created with Pixso.
	</desc>
	<defs/>
	<path id="RU" d="M3.17 9.82L6.17 9.82L8.95 15L10.76 15L10.76 14.89L7.76 9.46Q8.73 9.09 9.34 8.4Q9.45 8.27 9.55 8.13Q9.74 7.88 9.87 7.61Q10.2 6.91 10.2 6.05Q10.2 4.58 9.49 3.66Q9.29 3.4 9.03 3.18Q7.87 2.2 5.71 2.2L1.47 2.2L1.47 15L3.17 15L3.17 9.82ZM21.57 10.9L21.57 2.2L19.88 2.2L19.88 10.87Q19.88 12.12 19.27 12.86Q19.19 12.95 19.12 13.03Q19.06 13.08 19 13.13Q18.25 13.79 16.92 13.79Q15.64 13.79 14.89 13.16Q14.81 13.09 14.74 13.02Q14.66 12.94 14.58 12.84Q13.98 12.1 13.98 10.86L13.98 2.2L12.31 2.2L12.31 10.92Q12.32 12.4 13.02 13.41Q13.26 13.75 13.57 14.04Q13.71 14.16 13.86 14.27Q15.05 15.17 16.92 15.17L17.37 15.15Q19.01 15.03 20.07 14.19Q20.26 14.04 20.43 13.86Q20.77 13.52 21.01 13.11Q21.57 12.17 21.57 10.9ZM5.76 8.44L3.17 8.44L3.17 3.59L5.75 3.59Q7.09 3.6 7.8 4.23Q7.93 4.35 8.03 4.48Q8.5 5.08 8.5 6.05Q8.5 6.75 8.2 7.27Q8.03 7.56 7.76 7.79Q7.72 7.83 7.67 7.86Q6.94 8.44 5.76 8.44Z" fill="#0F0F0F" fill-opacity="1.000000" fill-rule="evenodd"/>
</svg>
