<svg width="920.000000" height="440.000000" viewBox="0 0 920 440" fill="none" xmlns="http://www.w3.org/2000/svg" xmlns:xlink="http://www.w3.org/1999/xlink">
	<desc>
			Created with Pixso.
	</desc>
	<defs/>
	<path id="Union" d="M430.334 0.404999Q431.462 9.15527e-05 432.59 0L432.59 0Q433.719 3.05176e-05 434.847 0.404999L557.209 44.3299Q558.858 44.9218 559.682 46.0936Q560.506 47.2653 560.506 49.017Q560.506 50.7686 559.682 51.9404Q558.858 53.1122 557.209 53.704L434.847 97.6289Q433.719 98.0339 432.591 98.0339Q431.462 98.034 430.334 97.6289L307.972 53.704Q306.323 53.1122 305.499 51.9404Q304.674 50.7687 304.674 49.017Q304.674 47.2653 305.499 46.0935Q306.323 44.9218 307.972 44.3299L430.334 0.404999ZM432.551 6.58139L314.338 49.017L432.551 91.4526Q432.57 91.4595 432.59 91.4597L432.59 91.4597Q432.61 91.4596 432.63 91.4526L550.843 49.017L432.63 6.58139Q432.61 6.5744 432.591 6.57431Q432.571 6.57428 432.551 6.58139ZM203.671 30.2284C206.009 27.8864 212.205 30.2815 217.509 35.578C221.437 39.4994 223.774 43.9117 223.774 46.889C223.774 47.051 223.767 47.2088 223.753 47.3621C223.767 47.5153 223.774 47.673 223.774 47.835C223.774 50.8124 221.437 55.2247 217.509 59.1461C212.205 64.4426 206.009 66.8376 203.671 64.4956C203.064 63.8876 202.776 63.0199 202.776 61.9758C202.776 58.9985 205.113 54.5862 209.041 50.6648C210.321 49.3862 211.654 48.2767 212.971 47.3621C211.654 46.4474 210.321 45.3379 209.041 44.0592C205.113 40.1379 202.776 35.7255 202.776 32.7482C202.776 31.7041 203.064 30.8365 203.671 30.2284ZM647.671 35.578C652.976 30.2815 659.172 27.8864 661.51 30.2284C662.117 30.8365 662.405 31.7041 662.405 32.7482C662.405 35.7255 660.067 40.1379 656.14 44.0592C654.86 45.3379 653.527 46.4474 652.21 47.3621C653.527 48.2767 654.86 49.3862 656.14 50.6648C660.067 54.5862 662.405 58.9985 662.405 61.9758C662.405 63.02 662.117 63.8876 661.51 64.4956C659.172 66.8376 652.976 64.4426 647.671 59.1461C643.744 55.2247 641.407 50.8123 641.407 47.835C641.407 47.673 641.414 47.5153 641.428 47.3621C641.414 47.2088 641.407 47.051 641.407 46.889C641.407 43.9117 643.744 39.4994 647.671 35.578ZM220.603 30.4279C222.941 28.0859 229.137 30.481 234.441 35.7775C238.368 39.6989 240.706 44.1111 240.706 47.0885C240.706 47.2505 240.699 47.4083 240.685 47.5615C240.699 47.7147 240.706 47.8725 240.706 48.0345C240.706 51.0118 238.368 55.4241 234.441 59.3455C229.137 64.642 222.941 67.0371 220.603 64.6951C219.995 64.087 219.708 63.2194 219.708 62.1753C219.708 59.198 222.045 54.7856 225.973 50.8643C227.253 49.5856 228.585 48.4761 229.903 47.5615C228.585 46.6469 227.253 45.5374 225.973 44.2587C222.045 40.3373 219.708 35.925 219.708 32.9477C219.708 31.9036 219.995 31.0359 220.603 30.4279ZM630.74 35.7775C636.044 30.481 642.24 28.0859 644.578 30.4279C645.185 31.0359 645.473 31.9036 645.473 32.9477C645.473 35.925 643.135 40.3373 639.208 44.2587C637.928 45.5374 636.595 46.6469 635.278 47.5615C636.595 48.4761 637.928 49.5856 639.208 50.8643C643.135 54.7856 645.473 59.198 645.473 62.1753C645.473 63.2194 645.185 64.087 644.578 64.6951C642.24 67.0371 636.044 64.642 630.74 59.3455C626.812 55.4241 624.475 51.0118 624.475 48.0345C624.475 47.8724 624.482 47.7147 624.496 47.5615C624.482 47.4083 624.475 47.2505 624.475 47.0885C624.475 44.1112 626.812 39.6989 630.74 35.7775ZM237.535 30.6277C239.873 28.2857 246.069 30.6808 251.373 35.9773C255.3 39.8987 257.638 44.311 257.638 47.2883C257.638 47.4503 257.631 47.608 257.617 47.7611C257.631 47.9143 257.638 48.072 257.638 48.2339C257.638 51.2112 255.3 55.6236 251.373 59.5449C246.069 64.8415 239.873 67.2366 237.535 64.8945C236.927 64.2865 236.64 63.4188 236.64 62.3748C236.64 59.3974 238.977 54.9851 242.904 51.0637C244.185 49.7852 245.517 48.6757 246.835 47.7611C245.517 46.8466 244.185 45.7371 242.904 44.4586C238.977 40.5372 236.64 36.1249 236.64 33.1475C236.64 32.1035 236.927 31.2358 237.535 30.6277ZM613.808 35.9773C619.112 30.6808 625.308 28.2857 627.646 30.6277C628.253 31.2358 628.541 32.1035 628.541 33.1475C628.541 36.1249 626.203 40.5372 622.276 44.4586C620.996 45.7371 619.664 46.8466 618.346 47.7611C619.664 48.6757 620.996 49.7852 622.276 51.0637C626.203 54.9851 628.541 59.3975 628.541 62.3748C628.541 63.4188 628.253 64.2865 627.646 64.8945C625.308 67.2366 619.112 64.8415 613.808 59.5449C609.88 55.6236 607.543 51.2112 607.543 48.2339C607.543 48.072 607.55 47.9143 607.564 47.7611C607.55 47.608 607.543 47.4503 607.543 47.2883C607.543 44.311 609.88 39.8987 613.808 35.9773ZM254.466 30.8272C256.805 28.4852 263.001 30.8802 268.305 36.1768C272.232 40.0981 274.57 44.5105 274.57 47.4878C274.57 47.6497 274.563 47.8074 274.549 47.9606C274.563 48.1138 274.57 48.2715 274.57 48.4334C274.57 51.4107 272.232 55.8231 268.305 59.7444C263.001 65.041 256.805 67.436 254.466 65.094C253.859 64.486 253.572 63.6183 253.572 62.5742C253.572 59.5969 255.909 55.1846 259.836 51.2632C261.117 49.9847 262.449 48.8752 263.767 47.9606C262.449 47.046 261.117 45.9365 259.836 44.658C255.909 40.7366 253.572 36.3243 253.572 33.347C253.572 32.3029 253.859 31.4352 254.466 30.8272ZM596.876 36.1768C602.18 30.8802 608.376 28.4852 610.714 30.8272C611.321 31.4352 611.609 32.3029 611.609 33.347C611.609 36.3243 609.271 40.7366 605.344 44.658C604.064 45.9365 602.732 47.046 601.414 47.9606C602.732 48.8752 604.064 49.9847 605.344 51.2632C609.271 55.1846 611.609 59.5969 611.609 62.5742C611.609 63.6183 611.321 64.486 610.714 65.094C608.376 67.436 602.18 65.041 596.876 59.7444C592.948 55.8231 590.611 51.4107 590.611 48.4334C590.611 48.2714 590.618 48.1138 590.632 47.9606C590.618 47.8074 590.611 47.6498 590.611 47.4878C590.611 44.5105 592.948 40.0981 596.876 36.1768ZM271.398 31.0267C273.737 28.6847 279.933 31.0798 285.237 36.3763C289.164 40.2977 291.502 44.71 291.502 47.6873C291.502 47.8492 291.495 48.007 291.481 48.1602C291.495 48.3133 291.502 48.471 291.502 48.6329C291.502 51.6103 289.164 56.0226 285.237 59.944C279.933 65.2405 273.737 67.6356 271.398 65.2935C270.791 64.6854 270.504 63.8178 270.504 62.7737C270.504 59.7964 272.841 55.384 276.768 51.4627C278.049 50.1842 279.381 49.0747 280.699 48.1602C279.381 47.2455 278.049 46.136 276.768 44.8575C272.841 40.9362 270.504 36.5239 270.504 33.5465C270.504 32.5024 270.791 31.6348 271.398 31.0267ZM579.944 36.3763C585.248 31.0798 591.444 28.6847 593.782 31.0267C594.39 31.6348 594.677 32.5024 594.677 33.5465C594.677 36.5238 592.34 40.9362 588.412 44.8575C587.132 46.136 585.8 47.2455 584.482 48.1602C585.8 49.0747 587.132 50.1842 588.412 51.4627C592.34 55.3841 594.677 59.7964 594.677 62.7737C594.677 63.8178 594.39 64.6854 593.782 65.2935C591.444 67.6356 585.248 65.2405 579.944 59.944C576.017 56.0226 573.679 51.6102 573.679 48.6329C573.679 48.4709 573.686 48.3133 573.7 48.1602C573.686 48.007 573.679 47.8493 573.679 47.6873C573.679 44.71 576.017 40.2977 579.944 36.3763ZM410.853 62.3301L392.031 62.3301L392.031 59.1195L401.355 48.9493Q403.374 46.6999 404.23 45.1907Q405.068 43.7116 405.085 42.2233L405.085 42.1627Q405.085 40.5065 404.314 39.3779L404.313 39.3766Q404.153 39.1435 403.961 38.9329Q403.622 38.5625 403.213 38.3036Q402.263 37.7025 400.933 37.7025Q399.158 37.7025 398.006 38.5499L398.006 38.5503Q397.686 38.7858 397.414 39.0867Q397.343 39.1655 397.276 39.2477L397.273 39.251Q396.165 40.6106 396.165 42.8741L391.493 42.8741Q391.493 40.8083 392.252 39.0751Q392.433 38.6629 392.656 38.2696Q393.104 37.4801 393.702 36.8264Q394.653 35.7847 395.982 35.0878Q398.145 33.9535 400.971 33.9535Q404.967 33.9535 407.309 35.9216Q407.356 35.9609 407.402 36.001Q408.09 36.5993 408.577 37.3315Q409.757 39.1047 409.757 41.6628Q409.757 43.7584 408.575 46.0558Q407.392 48.3533 404.701 51.2756L397.856 58.6004L410.853 58.6004L410.853 62.3301ZM432.654 50.545Q432.654 56.5818 430.395 59.6482Q429.778 60.4857 428.986 61.0945Q426.876 62.7147 423.522 62.7147Q420.218 62.7147 418.102 61.129Q417.312 60.5375 416.688 59.7251Q414.39 56.7355 414.333 50.8718L414.333 46.027Q414.333 39.9902 416.592 36.9719Q417.166 36.205 417.893 35.6329Q420.028 33.9535 423.484 33.9535Q426.979 33.9535 429.123 35.6558Q429.797 36.1912 430.338 36.895Q432.597 39.8364 432.654 45.7002L432.654 50.545ZM473.701 34.2034L473.701 38.0677L473.124 38.0677Q469.54 38.1204 467.273 39.8744Q467.059 40.0401 466.856 40.2209Q466.576 40.4712 466.323 40.7463Q464.458 42.7756 464.069 46.1616Q464.943 45.2423 466.006 44.6804Q467.678 43.7969 469.817 43.7969Q472.139 43.7969 473.847 44.8206Q474.869 45.4329 475.671 46.4115Q475.864 46.6467 476.039 46.8942L476.041 46.8968Q477.815 49.4 477.815 53.1597Q477.815 56.4721 476.304 58.806L476.303 58.8065Q475.867 59.4795 475.306 60.0712Q474.494 60.9269 473.517 61.5056Q471.478 62.7147 468.721 62.7147Q466.418 62.7147 464.594 61.7799Q463.099 61.0137 461.925 59.6194Q461.721 59.3764 461.532 59.1216L461.526 59.1138Q459.32 56.1241 459.32 51.5062L459.32 49.9105Q459.32 42.5472 462.906 38.3753Q463.712 37.4374 464.677 36.7103Q468.004 34.2034 473.22 34.2034L473.701 34.2034ZM449.438 62.3301L444.786 62.3301L444.786 39.8557L437.922 42.2012L437.922 38.2599L448.842 34.2419L449.438 34.2419L449.438 62.3301ZM427.983 45.3157Q427.983 41.3745 426.906 39.5385Q426.473 38.7994 425.834 38.3579Q424.885 37.7025 423.484 37.7025Q422.073 37.7025 421.123 38.3639Q420.532 38.7753 420.119 39.4423Q419.043 41.1823 418.985 44.8735L418.985 51.2179Q418.985 55.1398 420.081 57.0624Q420.566 57.9131 421.296 58.3875Q422.215 58.9849 423.522 58.9849Q424.83 58.9849 425.741 58.384Q426.398 57.9512 426.848 57.2066Q427.925 55.4282 427.983 51.6408L427.983 45.3157ZM175.346 46.6489L189.623 39.5796C190.23 39.2789 190.943 39.2789 191.55 39.5796L205.827 46.6489C206.23 46.8482 206.431 47.235 206.431 47.6219C206.431 48.0087 206.23 48.3956 205.827 48.595L191.55 55.6642C190.943 55.9649 190.23 55.9649 189.623 55.6642L175.346 48.595C174.943 48.3956 174.742 48.0087 174.742 47.6219C174.742 47.235 174.943 46.8482 175.346 46.6489ZM675.558 39.5796L689.835 46.6489C690.237 46.8482 690.439 47.235 690.439 47.6219C690.439 48.0087 690.237 48.3956 689.835 48.595L675.558 55.6642C674.95 55.9649 674.238 55.9649 673.63 55.6642L659.353 48.595C658.951 48.3956 658.749 48.0087 658.749 47.6219C658.749 47.235 658.951 46.8482 659.353 46.6489L673.63 39.5796C674.238 39.2789 674.95 39.2789 675.558 39.5796ZM468.683 47.5651Q467.93 47.5651 467.24 47.7722L467.239 47.7723Q466.519 47.9885 465.866 48.4302Q465.268 48.835 464.819 49.3661Q464.309 49.9701 463.992 50.7372L463.992 52.1599Q463.992 55.2744 465.299 57.1105Q466.08 58.2067 467.134 58.6484Q467.846 58.9465 468.683 58.9465Q469.858 58.9465 470.756 58.4475Q471.445 58.065 471.97 57.3892Q473.182 55.832 473.182 53.2942Q473.182 50.7678 471.962 49.175L471.951 49.1608Q471.354 48.386 470.566 47.9875Q469.731 47.5651 468.683 47.5651ZM297.811 152.882C325.338 152.882 346.063 172.902 346.063 206.844C346.063 240.752 325.338 260.771 297.811 260.771C270.213 260.771 249.558 240.716 249.558 206.844C249.558 172.902 270.213 152.882 297.811 152.882ZM516.48 152.882C539.743 152.882 557.684 166.417 560.926 189.75L541.752 189.75C539.532 177.202 529.522 169.976 516.762 169.976C499.597 169.976 487.508 183.159 487.508 206.844C487.508 230.918 499.703 243.677 516.727 243.677C529.275 243.677 539.32 236.769 541.752 224.468L560.926 224.573C558.001 244.629 541.435 260.771 516.48 260.771C488.777 260.771 468.369 240.716 468.369 206.844C468.369 172.902 489.023 152.882 516.48 152.882ZM871.035 152.882C898.562 152.882 919.287 172.902 919.287 206.844C919.287 240.752 898.562 260.771 871.035 260.771C843.437 260.771 822.782 240.716 822.782 206.844C822.782 172.902 843.437 152.882 871.035 152.882ZM65.2413 259.326L0 259.326L0 154.327L18.9979 154.327L18.9979 243.395L65.2413 243.395L65.2413 259.326ZM81.7207 154.327L100.719 154.327L100.719 259.326L81.7207 259.326L81.7207 154.327ZM121.402 259.326L121.402 154.327L144.665 154.327L175.858 230.424L177.056 230.424L208.249 154.327L231.512 154.327L231.512 259.326L213.254 259.326L213.254 187.177L212.303 187.177L183.26 259.009L169.654 259.009L140.611 187.036L139.66 187.036L139.66 259.326L121.402 259.326ZM431.459 154.327L450.387 154.327L450.387 259.326L433.468 259.326L383.982 187.811L383.101 187.811L383.101 259.326L364.103 259.326L364.103 154.327L381.127 154.327L430.543 225.913L431.459 225.913L431.459 154.327ZM647.098 259.326L578.402 259.326L578.402 154.327L646.675 154.327L646.675 170.258L597.4 170.258L597.4 198.773L643.15 198.773L643.15 214.74L597.4 214.74L597.4 243.395L647.098 243.395L647.098 259.326ZM731.362 259.326L666.121 259.326L666.121 154.327L685.119 154.327L685.119 243.395L731.362 243.395L731.362 259.326ZM813.083 259.326L747.842 259.326L747.842 154.327L766.84 154.327L766.84 243.395L813.083 243.395L813.083 259.326ZM297.811 243.677C314.941 243.677 326.924 230.706 326.924 206.844C326.924 182.947 314.941 169.976 297.811 169.976C280.751 169.976 268.697 182.947 268.697 206.844C268.697 230.706 280.751 243.677 297.811 243.677ZM871.035 243.677C888.165 243.677 900.148 230.706 900.148 206.844C900.148 182.947 888.165 169.976 871.035 169.976C853.976 169.976 841.921 182.947 841.921 206.844C841.921 230.706 853.976 243.677 871.035 243.677ZM65.9413 362.547L69.9644 366.164Q69.1584 365.44 68.7554 364.535Q68.3524 363.631 68.3524 362.547Q68.3524 361.464 68.7554 360.559Q69.1584 359.655 69.9644 358.931L65.9413 362.547L25.1903 325.912Q23.0784 324.013 22.5307 321.738L22.5307 321.738Q22.339 320.942 22.339 320.099Q22.339 318.535 22.9998 316.811Q24.0165 314.159 25.9449 312.833Q27.8733 311.508 30.7133 311.508L159.749 311.508L159.749 336.924L153.187 336.924L153.187 343.486L159.749 343.486L159.749 336.924L692.312 336.924L692.312 343.486L698.874 343.486L698.874 336.924L692.312 336.924L692.312 311.508L821.347 311.508Q824.187 311.508 826.116 312.833Q828.044 314.159 829.061 316.811Q829.722 318.535 829.722 320.099Q829.722 320.942 829.53 321.738Q828.982 324.013 826.87 325.912L786.119 362.547L782.096 358.931Q782.902 359.655 783.305 360.559Q783.708 361.464 783.708 362.547Q783.708 363.631 783.305 364.536Q782.902 365.44 782.096 366.164L786.119 362.547L826.87 399.183Q828.982 401.082 829.53 403.357Q829.722 404.153 829.722 404.996Q829.722 406.56 829.061 408.284Q828.044 410.935 826.116 412.261Q824.187 413.587 821.347 413.587L724.472 413.587L724.472 407.025L717.91 407.025L717.91 413.587L724.472 413.587L724.472 439.003L127.589 439.003L127.589 413.587L134.151 413.587L134.151 407.025L127.589 407.025L127.589 413.587L30.7133 413.587Q27.8733 413.587 25.9449 412.261Q24.0165 410.935 22.9998 408.284Q22.339 406.56 22.339 404.996Q22.339 404.153 22.5307 403.357L22.5307 403.357Q23.0783 401.081 25.1903 399.183L65.9413 362.547ZM78.7389 356.404Q80.1079 357.635 80.7924 359.171Q81.4769 360.706 81.4769 362.547Q81.4769 364.388 80.7925 365.924Q80.108 367.46 78.7389 368.691L43.3977 400.463L30.7133 400.463Q32.3853 400.463 33.5206 401.243Q34.6558 402.024 35.2544 403.585Q35.6434 404.6 35.6434 405.521Q35.6434 406.017 35.5306 406.486Q35.2082 407.825 33.9648 408.943L43.3977 400.463L140.713 400.463L140.713 425.879L134.151 425.879L134.151 432.441L140.713 432.441L140.713 425.879L711.347 425.879L711.347 432.441L717.91 432.441L717.91 425.879L711.347 425.879L711.347 400.463L808.663 400.463L818.096 408.943Q816.853 407.825 816.53 406.485Q816.417 406.017 816.417 405.521Q816.417 404.6 816.806 403.585Q817.405 402.024 818.54 401.243Q819.676 400.463 821.347 400.463L808.663 400.463L773.322 368.691Q771.953 367.46 771.268 365.924Q770.584 364.388 770.584 362.547Q770.584 360.706 771.268 359.17Q771.953 357.635 773.322 356.404L808.663 324.632L821.347 324.632Q819.675 324.632 818.54 323.851Q817.405 323.071 816.806 321.51Q816.417 320.495 816.417 319.574Q816.417 319.078 816.53 318.609Q816.852 317.27 818.096 316.152L808.663 324.632L705.436 324.632L705.436 318.07L698.874 318.07L698.874 324.632L705.436 324.632L705.436 350.048L146.624 350.048L146.624 324.632L153.187 324.632L153.187 318.07L146.624 318.07L146.624 324.632L43.3977 324.632L33.9648 316.152Q35.2082 317.27 35.5306 318.609Q35.6434 319.078 35.6434 319.574Q35.6434 320.495 35.2544 321.51Q34.6558 323.071 33.5206 323.852Q32.3853 324.632 30.7133 324.632L43.3977 324.632L78.7389 356.404ZM248.514 394.12Q247.845 399.844 244.695 403.322L244.692 403.325Q244.177 403.893 243.597 404.401Q243.232 404.72 242.846 405.011L242.841 405.015Q238.85 408.02 232.595 408.02Q228.196 408.02 224.831 406.156Q222.504 404.866 220.671 402.685Q220.552 402.544 220.436 402.4Q216.186 397.113 216.186 388.41L216.186 384.373Q216.186 378.519 218.277 374.078Q219.856 370.724 222.43 368.546L222.43 368.546Q223.265 367.84 224.203 367.258Q224.749 366.919 225.32 366.628Q228.757 364.878 233.085 364.878Q238.744 364.878 242.505 367.55Q243.191 368.037 243.813 368.613Q244.411 369.166 244.935 369.782Q247.949 373.326 248.514 378.951L242.948 378.951Q242.227 373.934 239.819 371.684Q239.697 371.57 239.571 371.463Q237.192 369.435 233.085 369.435Q229.958 369.435 227.626 370.798Q226.003 371.747 224.766 373.357Q221.752 377.279 221.752 384.517L221.752 388.583Q221.752 395.418 224.607 399.455Q225.908 401.296 227.683 402.297Q229.802 403.493 232.595 403.493Q237.209 403.493 239.675 401.402Q242.141 399.311 242.948 394.12L248.514 394.12ZM377.853 396.168Q377.853 394.711 378.243 393.368Q378.664 391.919 379.54 390.602Q381.227 388.064 385.985 384.69Q383.188 381.287 382.236 379.211Q381.284 377.135 381.284 375.087Q381.284 371.218 383.13 368.705Q383.568 368.109 384.11 367.589Q384.516 367.2 384.963 366.867L384.965 366.865Q387.633 364.878 391.781 364.878Q395.038 364.878 397.445 366.309Q398.235 366.778 398.933 367.402Q400.294 368.617 401 370.137Q401.759 371.772 401.759 373.761Q401.759 375.154 401.372 376.431L401.372 376.431Q401.054 377.479 400.476 378.447Q399.193 380.595 395.992 382.96L392.906 385.238L402.25 396.398Q402.556 395.813 402.815 395.206Q404.211 391.933 404.211 388.064L409.026 388.064Q409.026 395.252 405.638 400.042Q405.56 400.153 405.479 400.263L411.478 407.443L405.076 407.443L402.278 404.127Q402.029 404.349 401.77 404.559Q399.809 406.147 397.275 407.025Q395.266 407.722 393.207 407.931Q392.325 408.02 391.435 408.02Q385.892 408.02 382.321 405.366L382.318 405.364Q381.934 405.078 381.573 404.761Q380.123 403.492 379.238 401.906Q377.853 399.424 377.853 396.168ZM279.255 396.485L261.664 396.485L257.713 407.443L252.003 407.443L268.037 365.455L272.882 365.455L288.945 407.443L283.264 407.443L279.255 396.485ZM305.267 387.92L300.134 393.255L300.134 407.443L294.597 407.443L294.597 365.455L300.134 365.455L300.134 386.219L318.792 365.455L325.483 365.455L308.958 383.998L326.78 407.443L320.148 407.443L305.267 387.92ZM355.359 388.035L337.162 388.035L337.162 402.916L358.3 402.916L358.3 407.443L331.625 407.443L331.625 365.455L358.012 365.455L358.012 370.012L337.162 370.012L337.162 383.508L355.359 383.508L355.359 388.035ZM431.145 407.443L431.145 365.455L444.872 365.455Q451.707 365.455 455.153 368.281Q455.908 368.901 456.498 369.65L456.498 369.651Q458.599 372.321 458.599 376.644Q458.599 378.445 457.973 379.991Q457.575 380.972 456.927 381.85Q456.734 382.11 456.526 382.357L456.522 382.361Q454.919 384.257 452.37 385.353Q454.573 385.969 456.177 387.304L456.178 387.305Q457.052 388.032 457.748 388.973Q458.216 389.604 458.573 390.292Q459.724 392.514 459.724 395.331Q459.724 399.345 457.877 402.138Q457.123 403.277 456.061 404.214Q452.399 407.443 445.708 407.443L431.145 407.443ZM491.1 396.485L473.508 396.485L469.558 407.443L463.848 407.443L479.882 365.455L484.726 365.455L500.789 407.443L495.108 407.443L491.1 396.485ZM517.112 387.92L511.978 393.255L511.978 407.443L506.441 407.443L506.441 365.455L511.978 365.455L511.978 386.219L530.637 365.455L537.327 365.455L520.803 383.998L538.625 407.443L531.992 407.443L517.112 387.92ZM567.203 388.035L549.007 388.035L549.007 402.916L570.145 402.916L570.145 407.443L543.47 407.443L543.47 365.455L569.856 365.455L569.856 370.012L549.007 370.012L549.007 383.508L567.203 383.508L567.203 388.035ZM592.437 390.458L582.574 390.458L582.574 407.443L577.008 407.443L577.008 365.455L590.908 365.455Q598.002 365.455 601.823 368.685Q602.661 369.393 603.316 370.243Q605.644 373.268 605.644 378.086Q605.644 380.903 604.551 383.199Q604.122 384.1 603.525 384.921Q603.193 385.377 602.821 385.797Q600.814 388.059 597.628 389.275L607.49 407.097L607.49 407.443L601.549 407.443L592.437 390.458ZM624.822 386.536L635.78 365.455L642.067 365.455L627.59 391.784L627.59 407.443L622.053 407.443L622.053 391.784L607.577 365.455L613.921 365.455L624.822 386.536ZM386.619 374.914Q386.619 377.682 390.022 381.835L393.425 379.442Q395.386 378.057 396.107 376.803Q396.828 375.549 396.828 373.761Q396.828 372.792 396.465 371.986Q396.105 371.185 395.386 370.545Q395.017 370.217 394.598 369.972Q393.383 369.262 391.752 369.262Q390.196 369.262 389.064 369.955Q388.477 370.315 388.004 370.862Q387.713 371.198 387.483 371.572Q386.619 372.978 386.619 374.914ZM436.682 383.364L445.045 383.364Q448.592 383.364 450.751 381.633Q450.804 381.59 450.856 381.547Q451.663 380.873 452.172 380.021Q453.033 378.575 453.033 376.615Q453.033 373.656 451.557 372.078Q451.307 371.811 451.015 371.583Q448.996 370.012 444.872 370.012L436.682 370.012L436.682 383.364ZM582.574 385.93L591.081 385.93Q594.958 385.93 597.344 384.044L597.349 384.04Q597.499 383.922 597.642 383.796Q598.511 383.035 599.071 382.089Q600.079 380.386 600.079 378.086Q600.079 374.917 598.541 372.952Q598.189 372.503 597.757 372.117Q595.436 370.04 591.052 370.012L582.574 370.012L582.574 385.93ZM263.337 391.929L277.611 391.929L270.46 372.29L263.337 391.929ZM475.181 391.929L489.456 391.929L482.304 372.29L475.181 391.929ZM436.682 387.805L436.682 402.916L445.824 402.916Q449.471 402.916 451.666 401.131Q451.797 401.024 451.923 400.912Q452.524 400.372 452.964 399.724Q454.158 397.961 454.158 395.389Q454.158 391.914 452.427 390.031Q450.379 387.805 445.91 387.805L436.682 387.805ZM391.435 403.666Q392.618 403.666 393.745 403.414Q396.656 402.764 399.193 400.436L388.955 388.18L388.004 388.872Q383.344 392.303 383.193 395.924Q383.188 396.046 383.188 396.168Q383.188 398.509 384.232 400.208Q384.705 400.979 385.394 401.618Q385.585 401.796 385.789 401.958L385.791 401.96Q387.935 403.666 391.435 403.666Z" clip-rule="evenodd" fill="#262626" fill-opacity="1.000000" fill-rule="evenodd"/>
</svg>
