<svg width="539.000000" height="633.000000" viewBox="0 0 539 633" fill="none" xmlns="http://www.w3.org/2000/svg" xmlns:xlink="http://www.w3.org/1999/xlink">
	<desc>
			Created with Pixso.
	</desc>
	<defs>
		<linearGradient x1="98.668091" y1="15.681305" x2="429.889313" y2="611.432739" id="paint_linear_92_4789_0" gradientUnits="userSpaceOnUse">
			<stop stop-color="#FED632"/>
			<stop offset="1.000000" stop-color="#F2CD34"/>
		</linearGradient>
	</defs>
	<path id="Vector" d="M131.31 543.9L138.8 550.27C140.63 551.82 141.79 553.75 141.24 554.64C141.18 554.71 141.11 554.76 141.03 554.81C140.17 555.28 138.31 554.63 136.36 553.14L126.89 544.96C123.69 542.05 120.61 539.2 117.38 536.08C114.01 532.7 110.7 529.27 107.47 525.68C101 518.63 94.72 510.66 88.93 502.76C83.65 495.17 77.91 486.43 73.84 479.1C71.63 475.29 69.61 471.5 67.61 467.58C65.49 463.61 64.17 460.6 62.5 456.97C61 453.48 59.43 450.02 57.99 446.49L54.53 437.42L51.37 428.41L49.53 422.41C48.38 418.61 47.25 414.67 46.28 410.88C40.83 390.17 37.84 370.35 36.48 352.66C35.14 350.39 33.82 348 32.41 345.47C30.86 342.36 29.1 338.89 27.43 335.25C24.13 328.2 20.5 318.98 17.22 309.46C10.51 289.79 6.07 268.86 3.76 251.89C1.4 234.37 0.75 222.45 0.29 212.29C0.18 208.14 0.05 204.11 -0.13 200C-0.21 196.54 -0.24 193.16 -0.16 189.84C0.03 183.06 0.44 176.52 1.28 169.97C4.48 143.97 13.32 117.65 30.46 93.96C28.4 94.99 26.27 96.06 24.2 97.09C32.15 79.92 43.15 63.98 60.74 46.47C48.15 57.33 38.44 68 30.32 77.89C39.63 64.29 51.26 49.64 68.64 35.06C73.13 31.28 76.82 28.76 80.77 26.21C84.66 23.58 88.71 21.21 92.74 18.97C96.76 16.73 100.82 14.71 104.87 12.81C108.94 11.13 113 9.58 117.16 8.2C125.33 5.53 133.86 3.01 141.7 1.93C149.53 0.85 157.32 0.15 164.97 -0.01C172.88 -0.32 179.27 0.58 186.22 1.39C192.84 2.39 199.96 3.35 205.61 5.12C205.91 5.21 206.22 5.3 206.55 5.38C208.78 4.82 211.05 4.33 213.34 3.86C228.64 0.86 249.23 0.29 271.94 6.04C294.68 11.53 317.6 23.35 334.76 35.57C352.11 47.81 365.02 60.28 374.45 70.13C377 72.81 378.87 74.93 381.14 77.41C383.4 79.9 385.26 82.14 387.02 84.2L395.51 94.58C413.52 117.32 423.7 133.42 427.6 138.86C428.52 139.86 428.7 140.57 428.47 141.32C433.27 146.06 439.08 151.76 445.66 158.54C457.9 171.39 474.08 188.48 492.63 217.25C494.96 220.98 497.1 224.35 499.46 228.43L506.61 241.3L509.99 247.84L513.44 255.16C515.67 260.13 517.84 265.12 519.87 270.2C523.99 280.77 527.76 292.13 530.65 303.51C533.5 315.26 535.91 327.03 537 338.47C537.57 344.24 538.02 349.96 538.24 355.57L538.32 359.5L538.29 361.51L538.12 365.46C537.89 370.74 537.51 376.22 536.9 380.65C535.75 390.29 533.97 398.31 531.84 405.69C531.39 408.05 530.84 410.22 530.31 412.27C531.21 439.5 529.8 461.46 524.46 479.52C527.2 474.02 529.86 468.21 532.66 461.39C530.96 478.72 528.24 492.16 524.03 502.46C523.08 504.86 522.1 507.04 521.15 508.97L518.07 514.66C515.78 518.75 513.16 522.42 510.38 525.96C506.73 530.31 502.07 535.83 498.12 538.03C496.3 539.04 494.63 539.34 493.28 538.51C492.13 538.33 491.02 538.24 489.87 538.07C489.59 538.02 489.32 537.93 489.05 537.84C488.34 537.61 487.61 537.36 486.63 537.91C486.42 538.02 486.21 538.17 485.99 538.35C482.83 540.11 479.61 541.43 476.23 542.14L475.12 546.62L472.65 556.41L465.8 569.23C458.64 582.57 449.37 594.51 438.81 603.66C433.61 608.07 427.94 612.4 422.68 615.43L414.42 620.02C411.69 621.43 409.26 622.43 406.51 623.49C385.26 631.91 367.41 632.83 353.15 632.8C347.77 632.75 344.09 632.45 339.84 632.24C335.68 631.87 331.58 631.45 327.38 630.86C319.04 629.77 310.65 628.11 302.23 626.24C253.77 615.74 205.23 590.08 156.91 566.4C152.64 564.1 149.45 560.26 149.52 558C149.61 557.46 149.9 557.06 150.37 556.81C151.68 556.07 154.35 556.49 157.43 558.16C206.12 578.71 254.04 601.68 301.42 610.55C312.71 612.69 324.01 614.37 335.09 615C323.8 612.73 312.48 609.43 301.16 605.66C282.42 599.46 263.73 591.14 245.31 581.72C226.81 572.47 208.74 561.46 190.22 551.86C183.98 549.01 177.78 545.91 171.59 542.69C165.51 539.51 159.88 535.39 154.46 530.68C152.64 529.47 150.91 528.09 149.04 526.79L146.41 524.74L144.96 523.56L140.96 520.17C138.3 517.9 135.77 515.57 133.14 513.05C130.41 510.36 127.63 507.57 124.99 504.71C119.68 499.12 114.5 492.64 109.73 486.28C90.66 460.5 80.76 434.65 75.88 419.7C67.13 393.21 62.91 367.13 61.44 345.36C60.19 327.36 60.47 312 60.95 298.84C59.86 294.97 58.87 291.07 58.04 287.23C53.17 265.84 52.18 249.19 51.8 237.93L51.71 230.03L51.76 226.46C51.05 228.93 50.35 231.85 49.66 235.5C48.01 243.91 46.63 256.13 46.77 270.92C46.82 285.4 48.8 303.02 51.62 317.59C53 325.13 54.27 331.21 55.68 337.21C56.74 342.12 57.82 346.91 58.84 351.6C59.56 355.41 60.03 358.31 60.38 361.16C60.83 364.18 60.82 366.06 60.61 367.58C60.31 370.39 59.48 372.23 58.11 372.99C56.38 373.95 53.79 373.2 50.29 370.51C48.81 369.58 46.58 366.84 44.45 364.28C43.34 362.91 42.18 361.45 40.98 359.78C40.95 359.73 40.91 359.68 40.88 359.63C42.46 375.77 45.42 393.49 50.36 411.89C52.66 419.97 53.86 425.15 58.92 438.84C63.26 450.58 69.75 465.11 78.58 480.2C83.11 487.87 88.38 495.93 93.98 503.47C99.79 511.23 105.94 518.81 112.32 525.56C118.96 532.75 125 538.4 131.31 543.9ZM210.44 40.78C202.38 42.92 193.58 45.65 184.45 49.25C182.87 50.38 181.29 51.55 179.71 52.75C179.39 52.99 179.06 53.24 178.74 53.48C181.32 52.98 183.91 52.54 186.49 52.14C190.77 51.63 194.77 51.39 198.89 51.21C203.01 51.03 207.22 51.02 211.31 51.09C215.25 51.24 218.91 51.66 222.76 52.1C253.3 55.82 277.24 66.62 296.61 78.08C317.28 88.23 334.65 99.4 351.16 111.39C350.57 110.32 349.84 109.32 349.24 108.25C353.47 111.75 357.5 115.36 361.51 119.1L362.86 120.1C360.26 116.05 357.67 111.87 355 107.86L348.46 101.78C328.61 88.37 308.31 74.62 283.17 62.27C277.21 59.15 270.1 56.31 263.22 53.59C256.66 50.8 248.49 48.44 240.86 46.24C231.52 43.72 221.3 41.76 210.44 40.78ZM145.59 124.87C144.64 125.23 143.67 125.61 142.64 126.12C140.4 127.17 139.57 125.7 138.9 124.53C138.43 123.72 138.05 123.04 137.34 123.44C137.28 123.47 137.23 123.51 137.17 123.55C125.46 132.52 117.39 142.03 110.88 151.03C104.42 160.12 99.54 169.04 95.49 177.73C93.05 183.1 90.88 188.36 88.93 193.65C88.37 196.16 87.84 198.65 87.35 201.13C87.53 202.74 87.78 204.27 88.13 205.68C87.83 206.47 87.52 207.27 87.21 208.07C87.3 209.41 87.42 210.74 87.56 212.04C88.09 210.97 88.62 209.91 89.16 208.85C89.51 209.71 89.92 210.5 90.38 211.22L89.91 207.4C91.71 203.93 93.58 200.53 95.55 197.14C96.42 194.51 97.36 191.88 98.37 189.23C100.12 184.63 102.36 179.64 104.69 174.83C107.08 170.11 109.63 165.54 112.26 161.26C117.71 152.73 123.71 145.19 130.14 138.57C135.12 133.5 140.29 128.96 145.59 124.87ZM75.36 336.68C75.42 340.6 75.55 344.66 75.77 348.86C76.38 360.69 77.88 373.66 80.54 387.15C81.85 393.92 83.5 400.84 85.45 407.83C86.4 411.28 87.47 414.78 88.53 418.28L89.36 420.86L90.64 424.6L93.49 432.25C93.82 431.69 94.15 431.12 94.61 430.87C94.71 430.81 94.82 430.77 94.94 430.75C97.45 430.05 101.02 432.98 106.22 439.33C103.26 432.91 101.38 427.63 99.45 422.27C98.33 419.15 97.92 417.62 97.38 415.7L95.74 410.06C93.79 402.6 91.98 395.07 90.8 387.89C88.84 376.83 87.88 366.36 87.55 356.63C85.12 353.49 82.38 349.39 79.25 343.88C78 341.77 76.69 339.34 75.36 336.68ZM89.91 207.4C89.66 207.88 89.41 208.37 89.16 208.85C88.75 207.87 88.41 206.81 88.13 205.68C88.53 204.66 88.93 203.66 89.33 202.68L89.91 207.4ZM204.13 400.15L204.18 400.07C203.93 400.26 203.73 400.43 203.56 400.57L203.47 400.71C203.43 400.76 203.4 400.8 203.37 400.83L203.89 400.36C203.98 400.27 204.05 400.21 204.13 400.15ZM160.22 245.97C160.23 245.4 160.27 244.83 160.35 244.27C158.45 244.97 157.58 245.3 156.01 246.17L155.94 246.22C157.33 245.95 158.76 245.87 160.22 245.97ZM254.29 271.42L250.27 266.12L250.56 266.65L251.39 267.83C252.38 269.19 253.38 270.36 254.29 271.42ZM285.73 262.72L285.85 262.48L285.61 262.03L285.73 262.72ZM219.88 108.74C221.3 112.32 221.51 116.18 220.76 119.93C222.05 120.55 223.32 121.17 224.57 121.81C225.3 121.45 226.03 121.11 226.76 120.77C229.41 119.54 230.95 118.68 235.98 116.82C241.58 114.87 247.93 116.02 248.55 118.72C248.82 119.76 248.45 120.79 247.66 121.77C248.21 121.86 248.74 121.96 249.27 122.06C251.39 122.45 253.48 122.88 255.53 123.35C261.15 122.79 267.63 123.14 274.63 125.16C286.44 128.5 297.22 136.01 304.62 142.76C304.25 141.65 304.36 141.11 304.73 140.9C305.3 140.58 306.48 141.03 307.59 141.45C308.06 141.63 308.51 141.8 308.9 141.91C310.97 142.63 312.97 143.39 315.04 144.11C298.73 133.41 280.68 123.08 257.92 115.5C246.85 111.78 233.74 109.3 219.88 108.74ZM275.58 202.43C275.81 203.13 276.03 203.77 276.27 204.41C276.02 203.72 275.79 203.06 275.58 202.43ZM360.29 320.34L360.4 320.36L360.64 320.36C360.58 320.36 360.51 320.35 360.46 320.33L360.29 320.34Z" fill="url(#paint_linear_92_4789_0)" fill-opacity="1.000000" fill-rule="evenodd"/>
</svg>
