<svg width="512.000000" height="500.000000" viewBox="0 0 512 500" fill="none" xmlns="http://www.w3.org/2000/svg" xmlns:xlink="http://www.w3.org/1999/xlink">
	<desc>
			Created with Pixso.
	</desc>
	<defs>
		<linearGradient x1="362.654358" y1="30.896606" x2="148.733582" y2="475.983948" id="paint_linear_92_5063_0" gradientUnits="userSpaceOnUse">
			<stop stop-color="#FED632"/>
			<stop offset="1.000000" stop-color="#F2CD34"/>
		</linearGradient>
	</defs>
	<path id="Vector" d="M261.96 3.33L254.23 3.45C252.35 3.48 250.79 2.81 250.84 1.82C250.86 1.73 250.89 1.65 250.93 1.56C251.35 0.68 252.92 -0.02 254.86 -0.17L264.69 -0.22C268.06 -0.14 271.32 -0.02 274.79 0.2C278.48 0.52 282.12 0.91 285.77 1.48C293.04 2.5 300.52 4.3 307.63 6.36C314.26 8.52 321.65 11.22 327.33 13.95C330.34 15.31 333.22 16.78 336.13 18.35C339.14 19.88 341.22 21.22 343.79 22.8C346.18 24.37 348.61 25.88 350.97 27.53L356.88 31.9L362.55 36.42L366.14 39.59C368.4 41.62 370.7 43.74 372.83 45.88C384.58 57.4 394.25 69.84 401.97 81.76C403.77 82.56 405.62 83.45 407.58 84.39C409.87 85.66 412.43 87.06 415 88.64C420.03 91.65 426.11 96.02 432.06 100.84C444.31 110.82 455.42 123.15 463.53 133.95C471.88 145.12 476.89 153.32 481.08 160.37C482.74 163.3 484.37 166.12 486.06 168.98C487.44 171.43 488.75 173.85 489.95 176.31C492.4 181.32 494.61 186.3 496.51 191.56C504.16 212.36 507.94 236.94 504.84 264.84C505.91 262.8 507.01 260.69 508.07 258.65C509 276.05 507.29 294.49 501.52 318.21C506.28 302.44 509.09 288.62 511.06 276.36C509.66 292.05 507.02 309.95 500.28 331.42C498.55 336.98 496.89 341.13 495.07 345.45C493.32 349.81 491.36 354.06 489.36 358.21L489.36 358.22C487.36 362.37 485.26 366.39 483.13 370.31C480.88 374.09 478.6 377.76 476.19 381.37C471.42 388.46 466.34 395.65 461.21 401.36C456.08 407.07 450.84 412.48 445.49 417.41C440 422.61 435.14 425.99 429.91 429.78C424.85 433.22 419.45 437.02 414.77 439.29C414.53 439.42 414.27 439.55 414.01 439.7C412.64 441.51 411.22 443.3 409.78 445.07C400.11 456.87 385.75 470.25 367.49 480.4C349.31 490.74 328.58 496.63 311.78 498.61C294.84 500.7 280.95 499.82 270.52 498.64C267.7 498.31 265.57 497.96 263.02 497.59C260.47 497.22 258.3 496.77 256.26 496.39L246.3 494.24C224.89 489.15 211.55 483.93 206.72 482.46C205.69 482.31 205.29 481.92 205.16 481.23C199.96 480.83 193.68 480.37 186.44 479.62C172.88 478.04 154.91 475.88 130.82 466.78C127.75 465.55 124.95 464.46 121.73 463L111.76 458.21L106.88 455.61L101.64 452.5C98.17 450.32 94.74 448.07 91.37 445.68C84.42 440.64 77.42 434.8 71.03 428.41C64.54 421.71 58.35 414.73 53.22 407.15C50.61 403.34 48.11 399.5 45.82 395.58L44.27 392.79L43.52 391.33L42.13 388.36C40.29 384.4 38.47 380.21 37.21 376.62C34.34 368.93 32.55 362.02 31.24 355.34C30.66 353.36 30.22 351.44 29.82 349.63C18.8 330.53 11.43 313.78 8.32 297.37C8.48 303.07 8.81 308.94 9.43 315.63C4.03 302.04 0.83 290.62 -0.12 280.53C-0.36 278.2 -0.5 276 -0.57 274.01L-0.56 267.96C-0.49 263.57 -0.04 259.26 0.58 254.96C1.51 249.51 2.7 242.6 4.66 238.52C5.56 236.65 6.62 235.37 7.9 235.13C8.78 234.53 9.59 233.9 10.48 233.3C10.69 233.16 10.92 233.05 11.15 232.94C11.74 232.67 12.34 232.39 12.83 231.37C12.93 231.16 13.03 230.92 13.12 230.65C14.68 227.39 16.45 224.41 18.58 221.77L17.66 217.83L15.67 209.21L15.63 195.64C15.61 181.48 17.62 167.02 21.6 153.77C23.6 147.31 25.97 140.61 28.53 135.11L32.62 126.6C34.02 123.86 35.36 121.61 36.9 119.11C48.72 99.65 61.01 87.74 71.1 78.79C74.93 75.43 77.65 73.33 80.74 70.81C83.82 68.46 86.88 66.18 90.08 63.96C96.4 59.5 102.96 55.42 109.63 51.46C147.92 28.54 192.05 16.51 235.27 3.19C239.17 2.17 242.89 2.94 243.71 4.61C243.85 5.05 243.79 5.52 243.56 6C242.91 7.36 240.86 8.74 238.04 9.47C195.76 25.28 153.1 38.86 116.19 62.29C107.38 67.85 98.75 73.76 90.67 80.27C99.52 74.81 108.79 70.06 118.24 65.65C133.86 58.33 150.26 52.58 166.88 47.79C183.5 42.82 200.48 39.39 217.24 34.67C222.74 32.79 228.32 31.13 233.93 29.56C239.43 28.03 244.99 27.47 250.62 27.45C252.37 27.18 254.12 27.08 255.94 26.85L258.58 26.67L260.06 26.61L264.18 26.55C266.93 26.5 269.61 26.6 272.43 26.76C275.39 26.99 278.41 27.25 281.37 27.65C287.26 28.35 293.4 29.77 299.19 31.36C322.52 37.97 339.37 50.42 348.53 58.14C364.82 71.77 377.75 87.95 387.08 102.75C394.83 114.97 400.49 126.24 405.16 136.04C407.42 138.15 409.6 140.35 411.65 142.59C423.25 154.99 430.3 166.38 434.85 174.28L437.93 179.94L439.26 182.55C438.82 180.31 438.2 177.76 437.3 174.69C435.27 167.58 431.58 157.88 425.84 147.28C420.29 136.86 412.17 125.37 404.62 116.63C400.77 112.05 397.55 108.46 394.27 105.01C391.64 102.13 389.06 99.35 386.54 96.61C384.58 94.3 383.15 92.5 381.81 90.67C380.34 88.77 379.63 87.41 379.2 86.18C378.34 83.96 378.23 82.11 378.91 80.69C379.76 78.91 381.88 77.82 385.39 77.56C386.79 77.3 389.41 77.87 391.89 78.39C393.2 78.67 394.58 79 396.07 79.45C396.11 79.47 396.15 79.48 396.19 79.49C388.92 68.83 380.07 57.9 369.56 47.71C364.86 43.32 362.03 40.34 353.23 33.64C345.69 27.89 335.56 21.48 323.55 16.14C317.43 13.45 310.62 10.95 303.79 9.03C296.72 7.08 289.48 5.47 282.39 4.62C274.95 3.6 268.52 3.33 261.96 3.33ZM397.76 416.57C402.65 409.96 407.83 402.44 412.92 394.1C413.61 392.28 414.28 390.44 414.94 388.58C415.08 388.2 415.21 387.82 415.35 387.44C413.72 389.43 412.05 391.38 410.38 393.29C407.54 396.36 404.8 399.05 401.96 401.77C399.12 404.49 396.13 407.15 393.22 409.67C390.37 412.05 387.62 414.05 384.73 416.16C361.7 432.7 340.65 439.97 322.57 443.89C304.08 449.57 287.53 452.44 271.27 454.17C272.1 454.57 273 454.83 273.83 455.23C269.5 455.37 265.28 455.3 261.01 455.13L259.68 455.25C263.06 456.54 266.49 457.93 269.91 459.14L276.85 459.41C296.01 456.61 315.62 453.76 338.11 446.84C343.52 445.35 349.63 442.92 355.53 440.56C361.24 438.44 367.92 435.01 374.15 431.78C381.73 427.72 389.7 422.71 397.76 416.57ZM411.6 315.01C412.13 314.14 412.67 313.26 413.2 312.24C414.39 310.08 415.54 310.61 416.46 311.04C417.1 311.33 417.62 311.57 417.98 310.84C418 310.78 418.03 310.72 418.06 310.65C422.92 296.8 425 284.85 426.18 274.25C427.28 263.62 427.34 254.1 426.89 245.28C426.57 239.86 426.1 234.69 425.47 229.65C424.91 227.48 424.33 225.35 423.73 223.25C422.99 222.2 422.23 221.26 421.44 220.45C421.36 219.69 421.27 218.92 421.19 218.14C420.61 217.23 420.02 216.35 419.43 215.5C419.46 216.6 419.49 217.71 419.51 218.81C418.93 218.42 418.34 218.1 417.74 217.87L419.53 220.33C419.58 223.97 419.55 227.61 419.45 231.29C419.83 233.74 420.17 236.24 420.47 238.78C420.99 243.21 421.31 248.22 421.49 253.16C421.6 258.07 421.54 262.99 421.3 267.73C420.7 277.32 419.33 286.55 417.3 295.38C415.71 302.17 413.79 308.71 411.6 315.01ZM380.54 117.79C379.01 114.99 377.37 112.14 375.61 109.25C370.67 101.08 364.67 92.65 357.64 84.59C354.14 80.52 350.33 76.56 346.29 72.74C344.3 70.85 342.21 68.99 340.12 67.14L338.55 65.79L336.22 63.9L331.28 60.16C331.26 60.78 331.25 61.4 331.02 61.87C330.97 61.97 330.91 62.07 330.83 62.16C329.32 64.25 325.68 64.37 319.58 63.06C324.12 65.84 327.46 68.47 330.87 71.13C332.85 72.68 333.72 73.52 334.84 74.57L338.15 77.61C342.37 81.77 346.53 86.07 350.1 90.51C355.7 97.27 360.37 104.22 364.31 111.05C367.23 111.79 370.73 113.03 375.05 115.03C376.74 115.77 378.59 116.7 380.54 117.79ZM419.53 220.33C419.52 219.82 419.52 219.32 419.51 218.81C420.17 219.26 420.81 219.81 421.44 220.45C421.55 221.44 421.65 222.41 421.74 223.37L419.53 220.33ZM265.24 153.01L265.23 153.11C265.33 152.81 265.41 152.56 265.48 152.35L265.49 152.19C265.5 152.14 265.5 152.09 265.51 152.04L265.32 152.71C265.29 152.83 265.27 152.93 265.24 153.01ZM278.82 277.58L283.68 278.88L283.27 278.68L282.23 278.35C281.02 277.99 279.86 277.78 278.82 277.58ZM259.89 303.66L259.89 303.92L260.24 304.08L259.89 303.66ZM365.18 373.43C362.81 371.74 361.19 369.08 360.29 365.9C359.14 366.27 358.01 366.61 356.87 366.95C356.49 367.66 356.11 368.37 355.72 369.07C354.32 371.63 353.56 373.22 350.71 377.73C347.48 382.66 342.55 385.83 341.09 384.27C340.5 383.69 340.37 382.72 340.55 381.51C340.13 381.79 339.72 382.05 339.3 382.31C337.65 383.37 336.01 384.37 334.38 385.33C330.62 389.27 325.9 393.1 320.18 396.04C310.55 401.06 300.05 402.42 292.25 402.21C292.93 402.78 293.06 403.24 292.88 403.63C292.6 404.21 291.59 404.63 290.65 405.02C290.25 405.19 289.86 405.35 289.54 405.52C287.8 406.3 286.1 407.02 284.36 407.8C299.98 405.25 316.69 401.35 335.68 392.5C344.94 388.21 355.16 381.75 365.18 373.43ZM290.05 340.82C289.62 340.46 289.22 340.14 288.81 339.83C289.24 340.17 289.66 340.5 290.05 340.82ZM185.16 308.99L185.08 309.04L184.91 309.2C184.95 309.16 185 309.12 185.05 309.11L185.16 308.99Z" fill="url(#paint_linear_92_5063_0)" fill-opacity="1.000000" fill-rule="evenodd"/>
</svg>
