<svg width="508.000000" height="492.000000" viewBox="0 0 508 492" fill="none" xmlns="http://www.w3.org/2000/svg" xmlns:xlink="http://www.w3.org/1999/xlink">
	<desc>
			Created with Pixso.
	</desc>
	<defs>
		<linearGradient x1="317.669922" y1="14.784119" x2="160.758087" y2="444.387695" id="paint_linear_238_768_0" gradientUnits="userSpaceOnUse">
			<stop stop-color="#FED632"/>
			<stop offset="1.000000" stop-color="#F2CD34"/>
		</linearGradient>
	</defs>
	<path id="Vector" d="M213.73 4.99L206.14 6.44C204.29 6.8 202.64 6.41 202.52 5.42C202.52 5.33 202.54 5.25 202.56 5.16C202.83 4.22 204.25 3.26 206.14 2.77L215.81 1.03C219.14 0.53 222.38 0.09 225.84 -0.3C229.52 -0.62 233.18 -0.86 236.87 -0.94C244.2 -1.19 251.88 -0.7 259.24 0.1C266.14 1.09 273.89 2.47 279.95 4.18C283.15 5 286.24 5.95 289.38 7C292.61 7.99 294.89 8.95 297.69 10.06C300.32 11.2 302.97 12.27 305.58 13.48L312.16 16.77L318.52 20.24L322.6 22.75C325.18 24.35 327.82 26.05 330.28 27.78C343.84 37.11 355.51 47.69 365.17 58.1C367.09 58.58 369.06 59.14 371.15 59.73C373.62 60.59 376.39 61.52 379.19 62.63C384.66 64.73 391.41 67.99 398.1 71.71C411.88 79.43 424.96 89.66 434.81 98.89C444.96 108.46 451.3 115.67 456.65 121.89C458.8 124.49 460.88 126.99 463.04 129.52C464.82 131.69 466.53 133.85 468.14 136.06C471.42 140.57 474.45 145.1 477.23 149.95C488.35 169.13 496.32 192.68 498.07 220.7C498.77 218.51 499.49 216.24 500.19 214.04C504.1 231.02 505.6 249.48 504 273.85C505.98 257.49 506.36 243.39 506.19 230.97C507.51 246.67 508 264.76 505.06 287.07C504.32 292.85 503.4 297.22 502.35 301.79C501.38 306.38 500.18 310.91 498.93 315.34L498.93 315.35C497.68 319.79 496.3 324.1 494.87 328.33C493.32 332.44 491.71 336.45 489.95 340.43C486.47 348.23 482.71 356.18 478.64 362.7C474.57 369.21 470.35 375.44 465.92 381.22C461.42 387.29 457.22 391.45 452.72 396.09C448.32 400.36 443.65 405.03 439.44 408.07C439.22 408.24 439 408.41 438.76 408.6C437.73 410.62 436.64 412.63 435.52 414.62C428.03 427.91 416.19 443.57 399.96 456.71C383.84 470.04 364.44 479.42 348.23 484.27C331.9 489.24 318.07 490.77 307.59 491.41C304.75 491.57 302.59 491.59 300.02 491.67C297.44 491.74 295.23 491.67 293.16 491.65L282.98 491.25C261.01 489.93 246.96 487.09 241.95 486.47C240.91 486.51 240.45 486.19 240.21 485.53C235.01 486.03 228.74 486.66 221.48 487.17C207.86 487.96 189.79 488.93 164.49 484.12C161.25 483.44 158.3 482.85 154.88 481.97L144.24 478.97L138.98 477.24L133.28 475.08C129.49 473.53 125.72 471.91 121.99 470.14C114.27 466.37 106.37 461.83 98.98 456.64C91.43 451.16 84.12 445.35 77.76 438.77C74.54 435.47 71.42 432.11 68.48 428.65L66.47 426.17L65.48 424.85L63.61 422.17C61.1 418.59 58.59 414.77 56.73 411.45C52.58 404.38 49.62 397.88 47.18 391.53C46.27 389.67 45.5 387.86 44.79 386.14C30.64 369.23 20.49 354 14.6 338.37C15.74 343.96 17.08 349.69 18.84 356.17C11.18 343.72 6.06 333.01 3.39 323.24C2.74 320.99 2.23 318.85 1.82 316.9L0.79 310.94C0.1 306.6 -0.2 302.28 -0.34 297.94C-0.36 292.41 -0.38 285.39 0.85 281.04C1.41 279.04 2.24 277.6 3.45 277.14C4.22 276.4 4.91 275.63 5.68 274.89C5.87 274.71 6.07 274.57 6.28 274.43C6.81 274.06 7.36 273.67 7.67 272.59C7.73 272.36 7.78 272.11 7.82 271.83C8.8 268.35 10.03 265.11 11.67 262.14L10.08 258.42L6.64 250.27L4.26 236.91C1.8 222.97 1.28 208.38 2.92 194.64C3.77 187.93 4.95 180.92 6.52 175.06L9.09 165.97C9.99 163.03 10.92 160.58 12.01 157.86C20.3 136.65 30.35 122.8 38.75 112.25C41.94 108.28 44.25 105.74 46.86 102.72C49.5 99.87 52.11 97.1 54.88 94.37C60.34 88.88 66.1 83.72 71.99 78.68C105.75 49.49 147.14 30.04 187.41 9.46C191.08 7.78 194.88 7.9 195.97 9.4C196.19 9.81 196.21 10.29 196.07 10.8C195.66 12.25 193.88 13.96 191.23 15.17C152.31 38.04 112.63 58.77 80.32 88.21C72.6 95.21 65.11 102.52 58.28 110.33C66.05 103.42 74.37 97.15 82.91 91.17C97.03 81.27 112.2 72.77 127.74 65.19C143.25 57.43 159.39 51.12 175.09 43.58C180.18 40.78 185.39 38.18 190.64 35.67C195.8 33.21 201.18 31.7 206.72 30.71C208.4 30.14 210.11 29.74 211.86 29.2L214.43 28.57L215.87 28.26L219.92 27.48C222.62 26.97 225.28 26.6 228.08 26.27C231.04 25.99 234.06 25.72 237.05 25.61C242.97 25.28 249.26 25.62 255.24 26.19C279.36 28.67 298.11 38.03 308.46 44.06C326.85 54.67 342.38 68.38 354.13 81.34C363.86 92.04 371.38 102.17 377.68 111.02C380.26 112.71 382.79 114.5 385.2 116.36C398.76 126.56 407.67 136.57 413.52 143.57L417.52 148.61L419.28 150.95C418.46 148.82 417.42 146.42 416 143.55C412.77 136.89 407.46 127.98 399.99 118.53C392.72 109.22 382.74 99.3 373.79 91.99C369.21 88.15 365.42 85.17 361.59 82.33C358.51 79.95 355.49 77.66 352.53 75.39C350.21 73.46 348.48 71.93 346.85 70.36C345.07 68.74 344.14 67.52 343.5 66.38C342.28 64.34 341.84 62.54 342.27 61.03C342.8 59.13 344.71 57.69 348.11 56.83C349.45 56.33 352.13 56.44 354.66 56.52C356 56.58 357.41 56.66 358.96 56.85C359 56.86 359.04 56.86 359.09 56.87C350.09 47.62 339.48 38.38 327.38 30.16C321.98 26.64 318.68 24.19 308.86 19.11C300.44 14.74 289.35 10.18 276.61 6.99C270.11 5.4 262.98 4.11 255.92 3.39C248.61 2.69 241.21 2.36 234.08 2.74C226.58 3.02 220.2 3.86 213.73 4.99ZM418.77 388.63C422.44 381.27 426.25 372.97 429.83 363.87C430.19 361.97 430.53 360.04 430.87 358.09C430.93 357.69 431 357.29 431.07 356.9C429.8 359.14 428.5 361.34 427.18 363.52C424.92 367.03 422.68 370.15 420.35 373.32C418.02 376.49 415.54 379.63 413.1 382.61C410.71 385.45 408.34 387.89 405.86 390.47C386.03 410.73 366.55 421.52 349.42 428.5C332.18 437.29 316.37 442.97 300.66 447.48C301.55 447.73 302.48 447.83 303.36 448.08C299.12 448.96 294.95 449.62 290.72 450.18L289.42 450.54C292.98 451.22 296.59 452 300.17 452.61L307.06 451.68C325.45 445.61 344.27 439.42 365.23 428.73C370.3 426.33 375.9 422.88 381.31 419.54C386.56 416.47 392.55 411.93 398.14 407.68C404.9 402.37 411.89 396.06 418.77 388.63ZM414.88 286.2C415.26 285.25 415.63 284.29 415.98 283.19C416.78 280.86 418 281.18 418.99 281.45C419.66 281.63 420.23 281.78 420.45 280.99C420.46 280.93 420.48 280.86 420.49 280.79C422.9 266.31 422.89 254.18 422.21 243.53C421.47 232.87 419.88 223.49 417.92 214.87C416.67 209.59 415.31 204.58 413.82 199.73C412.89 197.68 411.95 195.68 411.01 193.72C410.1 192.81 409.18 192.02 408.27 191.36C408.06 190.62 407.84 189.88 407.62 189.13C406.89 188.33 406.16 187.57 405.43 186.83C405.65 187.91 405.87 188.99 406.08 190.07C405.45 189.79 404.81 189.58 404.18 189.45L406.37 191.57C407.04 195.15 407.64 198.73 408.18 202.38C408.98 204.73 409.74 207.13 410.48 209.58C411.75 213.85 412.92 218.73 413.95 223.57C414.91 228.39 415.7 233.24 416.29 237.95C417.34 247.51 417.59 256.83 417.11 265.88C416.72 272.84 415.95 279.62 414.88 286.2ZM350.28 97.29C348.28 94.8 346.18 92.27 343.94 89.73C337.67 82.53 330.3 75.27 321.99 68.54C317.84 65.13 313.41 61.89 308.76 58.82C306.48 57.3 304.1 55.83 301.72 54.37L299.94 53.31L297.32 51.85L291.82 49.02C291.9 49.63 291.99 50.24 291.85 50.75C291.82 50.86 291.78 50.97 291.72 51.07C290.59 53.38 287.02 54.13 280.79 53.89C285.74 55.85 289.48 57.86 293.3 59.89C295.52 61.08 296.53 61.76 297.8 62.6L301.59 65.02C306.47 68.39 311.3 71.91 315.59 75.67C322.27 81.36 328.07 87.4 333.13 93.45C336.13 93.68 339.79 94.29 344.39 95.52C346.18 95.96 348.16 96.55 350.28 97.29ZM406.37 191.57C406.27 191.07 406.18 190.57 406.08 190.07C406.81 190.4 407.54 190.84 408.27 191.36C408.55 192.31 408.82 193.26 409.07 194.18L406.37 191.57ZM242.78 151.87L242.79 151.96C242.84 151.66 242.87 151.39 242.9 151.18L242.88 151.02C242.88 150.96 242.88 150.91 242.88 150.87L242.81 151.56C242.8 151.68 242.79 151.78 242.78 151.87ZM277.63 272.23L282.65 272.67L282.21 272.54L281.13 272.4C279.88 272.25 278.7 272.24 277.63 272.23ZM263.49 301.19L263.53 301.44L263.9 301.54L263.49 301.19ZM379.23 351.74C376.6 350.49 374.55 348.16 373.12 345.17C372.05 345.73 370.99 346.27 369.93 346.79C369.68 347.56 369.43 348.33 369.17 349.08C368.23 351.85 367.75 353.55 365.72 358.48C363.4 363.89 359.09 367.87 357.37 366.59C356.69 366.12 356.39 365.18 356.37 363.96C356 364.3 355.64 364.63 355.28 364.96C353.83 366.28 352.39 367.56 350.95 368.78C347.93 373.31 343.93 377.89 338.8 381.78C330.19 388.39 320.09 391.54 312.36 392.67C313.13 393.12 313.34 393.55 313.22 393.96C313.05 394.59 312.13 395.18 311.27 395.72C310.9 395.96 310.55 396.18 310.26 396.4C308.69 397.47 307.13 398.47 305.55 399.54C320.5 394.34 336.28 387.61 353.47 375.62C361.85 369.8 370.8 361.67 379.23 351.74ZM299.61 332.59C299.12 332.3 298.67 332.06 298.21 331.82C298.7 332.08 299.16 332.34 299.61 332.59ZM190.8 319.32L190.73 319.38L190.58 319.57C190.62 319.52 190.67 319.48 190.71 319.46L190.8 319.32Z" fill="url(#paint_linear_238_768_0)" fill-opacity="1.000000" fill-rule="evenodd"/>
</svg>
