<svg width="675.000000" height="667.000000" viewBox="0 0 675 667" fill="none" xmlns="http://www.w3.org/2000/svg" xmlns:xlink="http://www.w3.org/1999/xlink">
	<desc>
			Created with Pixso.
	</desc>
	<defs>
		<linearGradient x1="443.654358" y1="110.896606" x2="229.733582" y2="555.983948" id="paint_linear_92_5063_0" gradientUnits="userSpaceOnUse">
			<stop stop-color="#FED632"/>
			<stop offset="1.000000" stop-color="#F2CD34"/>
		</linearGradient>
	</defs>
	<path id="Vector" d="M342.96 83.33L335.23 83.45C333.35 83.48 331.79 82.81 331.84 81.82C331.86 81.73 331.89 81.65 331.93 81.56C332.35 80.68 333.92 79.98 335.86 79.83L345.69 79.78C349.06 79.86 352.32 79.98 355.8 80.2C359.48 80.52 363.12 80.91 366.77 81.48C374.04 82.5 381.52 84.3 388.63 86.36C395.26 88.52 402.65 91.22 408.33 93.95C411.34 95.31 414.22 96.78 417.13 98.35C420.14 99.88 422.22 101.22 424.79 102.8C427.18 104.37 429.61 105.88 431.97 107.53L437.88 111.9L443.55 116.42L447.14 119.59C449.4 121.62 451.7 123.74 453.83 125.88C465.58 137.4 475.25 149.84 482.97 161.76C484.77 162.56 486.62 163.45 488.58 164.39C490.87 165.66 493.43 167.07 496 168.64C501.03 171.65 507.11 176.02 513.06 180.84C525.31 190.82 536.42 203.15 544.53 213.95C552.88 225.12 557.89 233.32 562.08 240.37C563.74 243.3 565.37 246.12 567.06 248.98C568.44 251.43 569.75 253.85 570.95 256.31C573.4 261.32 575.61 266.3 577.51 271.56C585.16 292.36 588.94 316.94 585.84 344.84C586.91 342.8 588.01 340.69 589.07 338.65C590 356.05 588.29 374.49 582.52 398.21C587.28 382.44 590.09 368.62 592.06 356.36C590.66 372.05 588.02 389.95 581.28 411.42C579.55 416.98 577.89 421.13 576.07 425.45C574.32 429.81 572.36 434.06 570.36 438.21L570.36 438.22C568.36 442.37 566.26 446.39 564.13 450.31C561.88 454.09 559.6 457.76 557.19 461.37C552.42 468.46 547.34 475.65 542.21 481.36C537.08 487.07 531.84 492.48 526.49 497.41C521 502.61 516.14 505.99 510.91 509.78C505.85 513.22 500.45 517.02 495.77 519.29C495.53 519.42 495.27 519.55 495.01 519.7C493.64 521.51 492.22 523.3 490.78 525.07C481.11 536.87 466.75 550.25 448.49 560.4C430.31 570.74 409.58 576.63 392.78 578.61C375.84 580.7 361.95 579.82 351.52 578.64C348.7 578.31 346.57 577.96 344.02 577.59C341.47 577.22 339.3 576.77 337.27 576.39L327.3 574.24C305.89 569.15 292.55 563.93 287.72 562.46C286.69 562.31 286.29 561.92 286.16 561.23C280.96 560.83 274.68 560.37 267.44 559.62C253.88 558.04 235.91 555.88 211.82 546.78C208.75 545.55 205.95 544.46 202.73 543L192.76 538.21L187.88 535.61L182.64 532.5C179.17 530.32 175.74 528.07 172.37 525.68C165.42 520.64 158.42 514.8 152.03 508.41C145.54 501.71 139.35 494.73 134.22 487.15C131.61 483.34 129.12 479.5 126.82 475.58L125.27 472.79L124.52 471.33L123.14 468.36C121.29 464.4 119.47 460.21 118.21 456.62C115.34 448.93 113.55 442.02 112.24 435.34C111.66 433.36 111.22 431.44 110.82 429.63C99.8 410.53 92.43 393.78 89.32 377.37C89.48 383.07 89.81 388.94 90.43 395.63C85.03 382.04 81.83 370.62 80.88 360.53C80.64 358.2 80.5 356 80.43 354.01L80.44 347.96C80.51 343.57 80.96 339.26 81.58 334.96C82.51 329.51 83.7 322.6 85.66 318.52C86.56 316.65 87.62 315.37 88.9 315.13C89.78 314.53 90.59 313.9 91.48 313.3C91.69 313.16 91.92 313.05 92.15 312.94C92.74 312.67 93.34 312.39 93.83 311.37C93.93 311.16 94.03 310.92 94.12 310.65C95.68 307.39 97.45 304.41 99.58 301.77L98.66 297.83L96.67 289.21L96.63 275.64C96.61 261.48 98.62 247.02 102.6 233.77C104.6 227.31 106.97 220.61 109.53 215.11L113.62 206.6C115.02 203.86 116.36 201.61 117.9 199.11C129.72 179.65 142.01 167.75 152.1 158.79C155.93 155.44 158.65 153.33 161.74 150.81C164.83 148.46 167.88 146.18 171.08 143.96C177.4 139.5 183.96 135.42 190.63 131.46C228.92 108.54 273.05 96.51 316.27 83.19C320.17 82.17 323.89 82.94 324.71 84.61C324.85 85.05 324.79 85.52 324.56 86C323.91 87.36 321.86 88.74 319.04 89.47C276.76 105.28 234.1 118.86 197.19 142.29C188.38 147.85 179.75 153.76 171.67 160.27C180.52 154.81 189.79 150.06 199.24 145.66C214.86 138.33 231.26 132.58 247.88 127.79C264.5 122.82 281.48 119.4 298.24 114.67C303.74 112.8 309.32 111.13 314.93 109.56C320.43 108.03 325.99 107.47 331.62 107.45C333.37 107.18 335.12 107.08 336.94 106.85L339.58 106.67L341.06 106.61L345.18 106.55C347.93 106.51 350.61 106.6 353.43 106.76C356.39 106.99 359.41 107.25 362.37 107.65C368.26 108.35 374.4 109.77 380.19 111.36C403.52 117.97 420.37 130.42 429.53 138.14C445.82 151.77 458.75 167.95 468.08 182.75C475.83 194.97 481.49 206.24 486.16 216.04C488.42 218.15 490.6 220.35 492.65 222.59C504.25 234.99 511.3 246.38 515.85 254.28L518.93 259.94L520.26 262.55C519.82 260.31 519.2 257.76 518.3 254.69C516.27 247.58 512.58 237.88 506.84 227.28C501.29 216.86 493.17 205.37 485.62 196.63C481.77 192.05 478.55 188.46 475.27 185.01C472.64 182.13 470.06 179.35 467.54 176.61C465.58 174.3 464.15 172.5 462.81 170.67C461.34 168.77 460.63 167.41 460.2 166.18C459.34 163.96 459.23 162.11 459.91 160.69C460.76 158.91 462.88 157.83 466.39 157.56C467.79 157.3 470.41 157.87 472.89 158.39C474.2 158.67 475.58 159 477.07 159.45C477.11 159.47 477.15 159.48 477.19 159.49C469.92 148.83 461.07 137.9 450.56 127.71C445.86 123.32 443.03 120.34 434.23 113.64C426.69 107.89 416.56 101.48 404.55 96.14C398.43 93.45 391.62 90.95 384.79 89.03C377.72 87.08 370.48 85.47 363.39 84.62C355.95 83.6 349.52 83.33 342.96 83.33ZM478.76 496.57C483.65 489.96 488.83 482.44 493.92 474.1C494.61 472.28 495.28 470.44 495.94 468.58C496.08 468.2 496.21 467.82 496.35 467.44C494.72 469.43 493.05 471.38 491.38 473.29C488.54 476.36 485.8 479.05 482.96 481.77C480.12 484.49 477.13 487.15 474.22 489.67C471.37 492.05 468.62 494.05 465.73 496.16C442.7 512.7 421.65 519.97 403.57 523.89C385.08 529.57 368.53 532.44 352.27 534.17C353.1 534.57 354 534.83 354.83 535.23C350.5 535.37 346.28 535.3 342.01 535.13L340.68 535.25C344.06 536.53 347.49 537.93 350.91 539.14L357.85 539.41C377.01 536.61 396.62 533.76 419.11 526.84C424.52 525.35 430.63 522.92 436.53 520.56C442.24 518.44 448.92 515.01 455.15 511.78C462.73 507.72 470.7 502.71 478.76 496.57ZM492.6 395.01C493.13 394.14 493.67 393.26 494.2 392.24C495.39 390.08 496.54 390.61 497.46 391.04C498.1 391.33 498.62 391.58 498.98 390.84C499 390.78 499.03 390.72 499.06 390.65C503.92 376.8 506 364.85 507.18 354.25C508.28 343.62 508.34 334.1 507.89 325.28C507.57 319.86 507.1 314.69 506.47 309.65C505.91 307.48 505.33 305.35 504.73 303.25C503.99 302.2 503.23 301.26 502.44 300.45C502.36 299.69 502.27 298.92 502.19 298.14C501.61 297.23 501.02 296.35 500.43 295.5C500.46 296.6 500.49 297.71 500.51 298.81C499.93 298.42 499.34 298.1 498.74 297.87L500.53 300.33C500.58 303.97 500.55 307.61 500.45 311.29C500.83 313.74 501.17 316.24 501.47 318.78C501.99 323.21 502.31 328.22 502.49 333.16C502.6 338.07 502.54 342.99 502.3 347.73C501.7 357.32 500.33 366.55 498.3 375.38C496.71 382.17 494.79 388.71 492.6 395.01ZM461.54 197.79C460.01 194.99 458.37 192.14 456.61 189.25C451.67 181.08 445.67 172.66 438.64 164.59C435.14 160.52 431.33 156.56 427.29 152.74C425.3 150.85 423.21 148.99 421.12 147.14L419.55 145.79L417.22 143.9L412.28 140.16C412.26 140.78 412.25 141.4 412.02 141.87C411.97 141.97 411.91 142.07 411.83 142.16C410.32 144.25 406.68 144.37 400.58 143.06C405.12 145.84 408.46 148.47 411.87 151.13C413.85 152.68 414.72 153.52 415.84 154.57L419.15 157.61C423.37 161.77 427.53 166.07 431.1 170.51C436.7 177.27 441.37 184.22 445.31 191.05C448.23 191.79 451.73 193.03 456.05 195.03C457.74 195.77 459.59 196.7 461.54 197.79ZM500.53 300.33C500.52 299.82 500.52 299.32 500.51 298.81C501.17 299.26 501.81 299.81 502.44 300.45C502.55 301.44 502.65 302.41 502.74 303.37L500.53 300.33ZM346.24 233.01L346.23 233.11C346.33 232.81 346.41 232.56 346.48 232.35L346.49 232.19C346.5 232.14 346.5 232.09 346.51 232.04L346.33 232.71C346.3 232.83 346.27 232.93 346.24 233.01ZM359.82 357.58L364.68 358.88L364.27 358.68L363.23 358.35C362.02 357.99 360.86 357.78 359.82 357.58ZM340.89 383.66L340.89 383.92L341.24 384.08L340.89 383.66ZM446.18 453.43C443.81 451.74 442.19 449.08 441.29 445.9C440.14 446.27 439.01 446.61 437.87 446.95C437.49 447.66 437.11 448.37 436.72 449.07C435.32 451.63 434.56 453.22 431.71 457.73C428.48 462.66 423.55 465.83 422.09 464.27C421.5 463.69 421.37 462.72 421.55 461.51C421.13 461.79 420.72 462.05 420.3 462.31C418.65 463.37 417.01 464.37 415.38 465.33C411.62 469.27 406.9 473.1 401.18 476.04C391.55 481.06 381.05 482.42 373.25 482.21C373.93 482.78 374.06 483.24 373.88 483.63C373.6 484.21 372.59 484.63 371.65 485.02C371.25 485.19 370.86 485.35 370.54 485.52C368.8 486.3 367.1 487.02 365.36 487.8C380.98 485.25 397.69 481.35 416.68 472.5C425.94 468.21 436.16 461.75 446.18 453.43ZM371.05 420.82C370.62 420.46 370.22 420.14 369.81 419.83C370.24 420.17 370.66 420.5 371.05 420.82ZM266.16 388.99L266.08 389.04L265.91 389.2C265.95 389.16 266 389.12 266.04 389.11L266.16 388.99Z" fill="url(#paint_linear_92_5063_0)" fill-opacity="1.000000" fill-rule="evenodd"/>
</svg>
