<svg width="805.000000" height="806.000000" viewBox="0 0 805 806" fill="none" xmlns="http://www.w3.org/2000/svg" xmlns:xlink="http://www.w3.org/1999/xlink">
	<desc>
			Created with Pixso.
	</desc>
	<defs/>
	<path id="Vector" d="M505.15 139.04L496.88 136.17C494.86 135.47 493.46 134.17 493.9 133.13C493.95 133.04 494.02 132.96 494.09 132.89C494.89 132.12 496.82 131.98 498.95 132.57L509.43 136.32C512.98 137.71 516.41 139.11 520.02 140.69C523.81 142.45 527.54 144.28 531.21 146.29C538.55 150.19 545.81 155.01 552.58 159.95C558.8 164.82 565.62 170.56 570.61 175.66C573.28 178.27 575.77 180.95 578.26 183.74C580.88 186.54 582.57 188.78 584.7 191.45C586.63 194.05 588.63 196.6 590.51 199.26L595.1 206.21L599.39 213.21L601.98 217.97C603.61 221.01 605.23 224.16 606.67 227.25C614.71 244.07 620.19 261.05 623.78 276.73C625.4 278.28 627.02 279.94 628.74 281.7C630.68 283.94 632.87 286.43 634.99 289.1C639.17 294.25 643.95 301.26 648.42 308.69C657.59 324.05 664.65 341.48 669.09 356.11C673.65 371.23 675.81 381.9 677.54 391.02C678.18 394.78 678.81 398.42 679.51 402.12C680.03 405.26 680.48 408.34 680.81 411.42C681.48 417.7 681.9 423.86 681.89 430.2C681.97 455.29 676.48 482.91 662.37 511.41C664.3 509.65 666.29 507.83 668.22 506.07C662.46 524.95 653.51 543.91 638.17 566.93C649.35 551.98 657.69 538.36 664.54 526.08C656.97 542.23 647.23 560.26 631.74 580.51C627.74 585.75 624.37 589.53 620.76 593.42C617.21 597.38 613.48 601.15 609.74 604.8C606.01 608.44 602.22 611.91 598.43 615.25C594.58 618.4 590.73 621.43 586.76 624.34C578.94 630.03 570.75 635.72 563.08 639.81C555.4 643.9 547.73 647.63 540.13 650.8C532.28 654.22 525.8 655.93 518.76 657.94C512.04 659.64 504.82 661.59 498.97 662.2C498.66 662.24 498.33 662.28 498 662.33C495.84 663.73 493.64 665.08 491.42 666.42C476.55 675.22 456.09 683.91 432.73 687.63C409.37 691.61 385.03 689.85 366.39 685.45C347.55 681.11 333.11 674.79 322.47 669.5C319.59 668.06 317.45 666.86 314.88 665.48C312.32 664.1 310.18 662.78 308.16 661.59L298.39 655.45C277.57 641.73 265.4 631.01 260.82 627.58C259.78 627.02 259.51 626.44 259.64 625.67C254.27 623.22 247.76 620.3 240.34 616.7C226.52 609.77 208.23 600.52 186.13 581.5C183.32 579.01 180.77 576.76 177.91 573.96L169.15 565L164.96 560.34L160.6 555C157.75 551.34 154.96 547.61 152.3 543.77C146.86 535.71 141.67 526.79 137.35 517.51C133.03 507.87 129.15 498.04 126.62 487.99C125.32 482.93 124.15 477.87 123.23 472.81L122.65 469.24L122.43 467.39L122.1 463.7C121.67 458.77 121.36 453.6 121.41 449.3C121.33 440.01 122.1 431.96 123.29 424.34C123.44 422.01 123.72 419.8 123.99 417.71C119.66 393.11 118.3 372.43 121.34 353.76C119.3 359.89 117.39 366.27 115.45 373.63C114.97 357.07 115.99 343.68 118.88 332.58C119.53 330 120.23 327.61 120.93 325.46L123.28 319.03C125.06 314.38 127.2 309.97 129.53 305.63C132.62 300.19 136.57 293.29 140.23 289.72C141.92 288.07 143.54 287.13 145 287.36C146.17 287.06 147.28 286.71 148.45 286.41C148.74 286.34 149.02 286.32 149.3 286.29C150.03 286.23 150.79 286.16 151.7 285.27C151.89 285.09 152.08 284.87 152.29 284.61C155.21 281.76 158.25 279.27 161.54 277.28L162.08 272.73L163.3 262.78L168.52 248.32C173.98 233.26 181.72 218.64 191.09 206.08C195.71 199.98 200.83 193.77 205.68 188.9L213.33 181.42C215.88 179.06 218.18 177.17 220.79 175.11C240.91 158.98 258.59 151.07 272.8 145.45C278.18 143.36 281.88 142.17 286.14 140.68C290.34 139.38 294.48 138.14 298.74 137.02C307.19 134.72 315.76 132.91 324.39 131.28C374.02 121.71 425.64 126 476.79 128.56C481.34 128.98 485 131.24 485.22 133.33C485.2 133.86 484.96 134.34 484.53 134.76C483.31 135.95 480.59 136.63 477.32 136.32C426.19 136.77 375.53 134.71 327.18 145.34C315.65 147.85 304.17 150.8 293.06 154.61C304.59 152.22 316.29 150.75 328.05 149.72C347.51 147.98 367.19 148.21 386.74 149.54C406.35 150.69 425.75 153.62 445.42 155.08C452 155.22 458.58 155.6 465.15 156.11C471.61 156.61 477.74 158.16 483.74 160.32C485.71 160.71 487.61 161.29 489.63 161.74L492.51 162.57L494.11 163.08L498.52 164.61C501.46 165.63 504.28 166.77 507.21 168.03C510.27 169.42 513.39 170.87 516.39 172.45C522.38 175.47 528.37 179.35 533.92 183.29C556.18 199.36 569.3 219.13 576.06 230.9C588.12 251.71 595.61 273.94 599.82 293.3C603.33 309.3 604.99 323.49 606.16 335.74C607.74 338.85 609.22 342.03 610.53 345.22C618.08 362.9 621.17 377.76 622.96 387.93L624.04 395.14L624.44 398.43C624.84 395.88 625.17 392.93 625.4 389.31C625.99 380.95 625.82 369.2 623.82 355.71C621.95 342.46 617.76 327.1 613.1 314.86C610.77 308.5 608.74 303.43 606.58 298.49C604.91 294.41 603.23 290.45 601.62 286.56C600.42 283.34 599.59 280.87 598.88 278.4C598.05 275.81 597.82 274.09 597.84 272.61C597.79 269.92 598.38 267.9 599.65 266.66C601.25 265.1 603.93 264.76 607.76 265.84C609.36 266.1 611.92 267.73 614.37 269.23C615.65 270.05 616.99 270.93 618.39 271.99C618.43 272.02 618.47 272.05 618.51 272.08C614.9 257.92 609.72 242.85 602.48 227.94C599.17 221.45 597.31 217.18 590.55 206.65C584.75 197.6 576.44 186.86 565.74 176.52C560.26 171.29 553.99 165.99 547.46 161.3C540.69 156.49 533.6 151.98 526.39 148.33C518.87 144.36 512.13 141.58 505.15 139.04ZM489.66 631.43C497.42 626.28 505.85 620.29 514.5 613.38C515.93 611.72 517.36 610.02 518.78 608.29C519.08 607.94 519.37 607.59 519.66 607.24C517.15 608.72 514.63 610.15 512.1 611.54C507.9 613.71 503.94 615.5 499.86 617.3C495.78 619.1 491.58 620.77 487.5 622.33C483.54 623.76 479.84 624.82 475.95 625.95C445.03 634.63 419.82 634.21 399.06 631.39C377.17 630.28 358.45 626.92 340.48 622.47C341.21 623.22 342.06 623.84 342.79 624.59C338.14 623.06 333.66 621.34 329.2 619.51L327.72 619.12C330.83 621.8 333.93 624.61 337.1 627.23L344.39 630.2C365.87 634.64 387.84 639.2 414.45 640.55C420.78 641.05 428.23 640.83 435.43 640.61C442.32 640.57 450.76 639.49 458.65 638.48C468.28 637.09 478.71 634.84 489.66 631.43ZM543.71 528.69C544.62 527.98 545.53 527.25 546.49 526.37C548.59 524.53 549.61 525.54 550.43 526.35C550.99 526.91 551.46 527.38 552.12 526.73C552.17 526.68 552.22 526.63 552.27 526.56C562.82 513.71 569.66 501.79 575.01 490.96C580.31 480.08 584.05 469.97 586.99 460.41C588.75 454.51 590.25 448.83 591.53 443.22C591.77 440.7 591.98 438.2 592.16 435.74C591.78 434.33 591.33 433.04 590.81 431.88C591.01 431.03 591.22 430.17 591.43 429.32C591.16 428.13 590.88 426.96 590.58 425.82C590.18 427.01 589.79 428.2 589.38 429.38C588.92 428.74 588.42 428.17 587.86 427.69L588.82 431.01C587.46 434.9 586.02 438.76 584.49 442.64C583.95 445.39 583.34 448.18 582.67 451.01C581.51 455.92 579.91 461.37 578.19 466.7C576.4 471.97 574.44 477.18 572.35 482.14C567.99 492.11 562.96 501.4 557.39 510.01C553.06 516.63 548.48 522.85 543.71 528.69ZM587.03 306.77C586.48 303.2 585.84 299.54 585.09 295.78C582.99 285.17 579.87 273.88 575.51 262.57C573.36 256.89 570.84 251.2 568.01 245.57C566.63 242.78 565.13 240 563.62 237.21L562.47 235.17L560.72 232.26L556.92 226.37C556.66 227.02 556.4 227.67 555.98 228.08C555.88 228.18 555.78 228.26 555.66 228.32C553.25 229.96 549.32 228.68 543.34 224.92C547.1 229.64 549.64 233.73 552.23 237.88C553.74 240.3 554.34 241.53 555.12 243.08L557.47 247.6C560.35 253.66 563.11 259.84 565.19 265.96C568.53 275.32 570.82 284.53 572.37 293.32C575.18 295.24 578.43 297.91 582.25 301.71C583.76 303.15 585.37 304.85 587.03 306.77ZM588.82 431.01C589.01 430.46 589.2 429.92 589.38 429.38C589.91 430.11 590.38 430.95 590.81 431.88C590.54 432.97 590.27 434.04 589.99 435.1L588.82 431.01ZM450.68 299.61L450.63 299.71C450.86 299.44 451.04 299.2 451.18 299L451.26 298.84C451.29 298.78 451.32 298.73 451.34 298.69L450.89 299.33C450.81 299.44 450.74 299.53 450.68 299.61ZM513.87 423.51C513.93 424.03 513.96 424.57 513.96 425.11C515.76 423.73 516.58 423.08 518.03 421.66L518.11 421.59C516.75 422.38 515.33 423.03 513.87 423.51ZM416.89 437.45L421.57 440.71L421.2 440.34L420.23 439.59C419.08 438.74 417.93 438.06 416.89 437.45ZM386.64 457.88L386.55 458.15L386.85 458.46L386.64 457.88ZM471.69 572.89C469.82 570.18 469.12 566.73 469.4 562.99C468.04 562.94 466.69 562.87 465.36 562.78C464.68 563.39 464 564 463.31 564.59C460.83 566.78 459.4 568.18 454.62 571.87C449.28 575.87 442.81 577.34 441.85 575.11C441.45 574.27 441.68 573.17 442.35 571.96C441.8 572.09 441.25 572.22 440.71 572.33C438.54 572.81 436.41 573.25 434.3 573.63C428.78 576.37 422.27 578.62 415.04 579.53C402.85 581.15 391.15 578.54 382.93 575.29C383.43 576.16 383.39 576.7 383.05 577.04C382.52 577.55 381.29 577.61 380.13 577.66C379.64 577.68 379.17 577.71 378.77 577.76C376.61 577.92 374.52 578.02 372.36 578.18C389.98 581.52 409.27 583.84 432.91 581.77C444.42 580.79 457.8 577.88 471.69 572.89ZM404.36 509.1C404.04 508.55 403.74 508.06 403.42 507.57C403.75 508.09 404.06 508.61 404.36 509.1ZM305.05 434.61L304.95 434.63L304.7 434.73C304.77 434.71 304.84 434.69 304.88 434.69L305.05 434.61Z" fill="#FFD525" fill-opacity="0.400000" fill-rule="evenodd"/>
</svg>
