<svg width="194.583618" height="193.322754" viewBox="0 0 194.584 193.323" fill="none" xmlns="http://www.w3.org/2000/svg" xmlns:xlink="http://www.w3.org/1999/xlink">
	<desc>
			Created with Pixso.
	</desc>
	<defs>
		<clipPath id="clip350_2131">
			<rect id="green leaf element" width="181.213318" height="182.570694" transform="translate(12.443848 193.322754) rotate(-93.937584)" fill="white" fill-opacity="0"/>
		</clipPath>
	</defs>
	<g opacity="0.500000">
		<rect id="green leaf element" width="181.213318" height="182.570694" transform="translate(12.443848 193.322754) rotate(-93.937584)" fill="#FFFFFF" fill-opacity="0"/>
		<g clip-path="url(#clip350_2131)">
			<path id="Vector" d="M164.83 164.43C166.29 165.28 167.79 166.1 169.31 166.85C170.56 167.48 171.88 165.57 170.68 164.76C169.13 163.69 167.61 162.6 166.05 161.53C170.06 151.08 179.01 143.67 180.34 131.92C181.55 121.22 180.85 110.34 178.4 99.87C172.65 75.31 155.67 56.32 137.18 40.11C127.45 31.58 116.84 22.21 104.53 17.69C99.36 15.78 93.9 15.14 88.54 13.96C81.68 12.45 75.17 9.8 68.23 8.64C57.66 6.87 47.11 11.37 38.25 16.69C29.6 21.88 22.93 29.08 12.66 26.69C12.44 26.36 12.21 26.06 11.96 25.74C11.03 24.66 9.37 25.43 9.52 26.6C9.49 26.74 9.52 26.9 9.64 27.07C9.68 27.11 9.7 27.16 9.74 27.19C14.54 34.33 7.2 43.64 5.01 50.63C2.06 60.1 3.87 70.09 6.1 79.49C8.81 90.87 10.86 102.53 16.15 113.07C21.81 124.37 33.54 129.84 42.17 138.44C47.05 143.31 51.53 148.24 57.1 152.37C62.34 156.25 68.16 159.36 73.98 162.22C84.89 167.6 96.16 172.67 107.73 176.46C125.49 182.24 151.51 180.75 163.91 164.84C164.25 164.81 164.56 164.65 164.81 164.42L164.83 164.43Z" fill="#AEBFAC" fill-opacity="1.000000" fill-rule="nonzero"/>
			<path id="Vector" d="M172 167.9C167.16 164.93 162.55 161.6 158.1 158.05C152.6 162.57 146.25 166.25 139.59 168.61C135.94 169.9 131.98 171.42 128.08 171.71C125.73 171.87 123.45 171.81 121.1 171.83C120.99 171.84 113.68 171.77 116.1 174.28C116.12 174.29 116.1 174.33 116.06 174.32C115.38 173.7 114.73 173.03 114.14 172.33C113.93 172.11 113.96 171.73 114.29 171.62C117.67 170.48 120.97 170.55 124.51 170.33C128.83 170.03 133 168.98 137.05 167.42C141.98 165.51 146.78 163.24 151.05 160.09C152.73 158.85 154.34 157.58 156.02 156.43C153.1 154.03 150.25 151.55 147.44 149.06C142.5 152.55 136.21 153.68 130.38 154.94C124.25 156.25 118.29 157.75 111.97 157.79C98.98 157.88 86.13 154.77 74.7 148.59C74.06 148.22 74.52 147.23 75.2 147.54C87.18 153.01 100.24 156.56 113.54 155.45C119.53 154.95 125.29 153.5 131.13 152.16C136.05 151.03 141.06 149.89 145.34 147.19C145.16 147.04 144.99 146.87 144.8 146.72C144.1 146.61 143.52 146.14 143.42 145.46C143.26 145.33 143.13 145.2 142.98 145.09C139.56 141.97 136.15 138.85 132.75 135.72C128.91 139.57 122.09 141.66 117.15 142.73C109.99 144.29 102.77 144.64 95.47 144.22C81.73 143.42 67.77 139.71 55.59 133.26C55.07 132.97 55.45 132.18 56 132.43C68.62 138.44 82.91 141.97 96.92 142.2C103.88 142.3 111.03 141.88 117.72 139.85C122.47 138.42 126.3 135.81 130.56 133.7C124.41 128.02 118.23 122.37 111.98 116.79C112.05 117.27 111.85 117.75 111.27 117.89C99.84 120.96 87.23 122.42 75.48 120.7C63.41 118.94 51.7 115.31 40.21 111.29C39.52 111.05 39.92 109.85 40.61 110.07C52.18 113.51 63.81 117.26 75.89 118.48C83.04 119.2 90.26 119.25 97.3 117.7C101.39 116.79 106.58 114.81 110.8 115.73C110.5 115.47 110.21 115.2 109.93 114.94C108.52 113.7 107.15 112.44 105.77 111.2C105.62 111.1 105.48 111 105.38 110.85C101.19 107.11 96.99 103.37 92.84 99.57C92.65 100.16 92.15 100.66 91.38 100.6C86.67 100.28 82.1 102.24 77.43 101.76C72.14 101.21 66.8 100.26 61.59 99.19C52.01 97.25 42.09 94.53 34.66 87.84C34.18 87.41 34.8 86.74 35.3 87.1C44.33 93.63 54.75 96.22 65.63 97.78C70.45 98.46 75.93 99.86 80.78 99.07C84.25 98.51 87.6 97.71 91.09 97.97C89.59 96.59 88.12 95.19 86.64 93.82C86.29 93.66 86 93.41 85.86 93.09C82.22 89.72 78.59 86.39 74.98 82.98C74.51 82.53 74.05 82.06 73.57 81.61C73.57 81.61 73.57 81.61 73.54 81.64C67.75 85.13 58.62 82.68 52.65 80.88C46.02 78.88 39.72 75.62 34.24 71.4C33.66 70.96 34.4 70.14 34.98 70.55C40.76 74.66 47.54 77.97 54.48 79.56C57.81 80.33 61.26 80.98 64.7 80.89C67.17 80.83 69.57 80.27 72.02 80.1C70.88 78.98 69.76 77.85 68.63 76.7C67.82 77.34 66.28 76.23 66.93 75.25C66.96 75.19 66.99 75.13 67.02 75.08C63.84 71.77 60.72 68.4 57.58 65.03C55.54 68.58 49.34 66.81 46.39 65.86C42.22 64.51 37.77 62.26 34.63 59.11C34.19 58.68 34.8 57.96 35.27 58.37C37.97 60.84 41.62 62.59 45.05 63.79C49.29 65.28 52.54 65.63 56.69 64.06C52.4 59.47 48.05 54.94 43.44 50.68C42.91 50.18 43.62 49.37 44.18 49.83C47.64 52.65 50.93 55.69 54.16 58.84C55.3 52.41 56.08 45.35 51.98 39.79C51.48 39.11 52.53 38.47 53.05 39.07C57.82 44.75 57.23 52.64 56.01 59.49C55.94 59.84 55.74 60.05 55.5 60.15C59.78 64.38 63.95 68.75 68.17 73.06C73.98 61.62 70.01 47.05 63.47 36.68C62.97 35.9 64.17 35.1 64.68 35.88C71.86 46.69 76.59 62.76 69.86 74.78C72.54 77.48 75.25 80.14 78.05 82.68C80.78 85.16 83.54 87.63 86.29 90.11C88.1 82.13 86.35 73.29 85.02 65.37C83.37 55.63 80.86 46.2 76.84 37.15C76.46 36.3 77.8 35.89 78.18 36.7C82.83 46.33 85.91 56.54 87.81 67.05C89.3 75.31 91.3 84.16 88.76 92.35C94.2 97.23 99.67 102.08 105.17 106.91C105.28 95.3 105.42 84.11 102.89 72.57C100.47 61.51 96.92 50.74 93.62 39.92C93.39 39.17 94.51 38.79 94.77 39.54C98.94 51.39 103.28 63.15 105.94 75.47C108.35 86.62 108.71 97.98 107.92 109.34C109.21 110.46 110.5 111.62 111.79 112.74C115.79 116.19 119.72 119.7 123.63 123.21C125.22 116.51 127.25 109.72 127.18 102.77C127.13 98.16 126.78 93.55 126.11 88.98C124.59 78.57 122.2 66.97 115.03 58.85C114.43 58.16 115.25 57.13 115.99 57.75C124.09 64.61 127.05 77.27 128.8 87.24C129.74 92.61 130.56 98.19 130.42 103.67C130.23 110.78 128.43 117.52 126.83 124.4C126.72 124.89 126.44 125.21 126.12 125.43C132.35 131.06 138.55 136.73 144.82 142.32C148.86 135.7 153.09 129.84 154.21 121.75C155.12 115.09 154.96 108.31 153.67 101.7C151.05 88.26 145.06 75.86 138.05 64.2C137.55 63.34 138.79 62.51 139.33 63.35C147.21 75.46 154.3 88.7 156.9 103.06C158.14 109.93 158.54 117.08 157.3 123.99C155.83 132.15 151.77 137.9 147.42 144.58C150.98 147.69 154.63 150.68 158.31 153.6C169.94 136.39 170.83 116.47 170.03 96.22C169.99 95.21 171.46 95.12 171.59 96.11C173.89 114.55 174.54 140.9 160.83 155.58C164.78 158.63 168.79 161.6 172.87 164.51C176.27 155.11 184.95 148.15 186.12 137.86C187.43 126.16 186.89 114.2 183.76 102.83C176.76 77.51 158.29 58.01 138.4 41.72C127.63 32.91 117.22 25.1 103.2 22.72C90.4 20.53 77.77 13.49 64.57 17.18C54.38 20.02 47.04 26.35 37.98 31.25C33.64 33.6 28.28 35.5 23.48 34.23C24.86 38.93 22.56 44.35 20.56 48.73C16.5 57.6 15.12 66.3 16.89 76C18.84 86.72 21.16 98.06 24.79 108.34C26.93 114.4 29.67 120.55 34.39 125.09C38.57 129.12 43.32 132.3 47.81 135.95C52.44 139.71 56.21 144.27 60.54 148.35C65.61 153.14 71.23 157.21 77.36 160.56C87.66 166.18 98.59 171.15 109.53 175.41C130.24 183.5 154.86 184.62 171.88 168.48C171.87 168.35 171.86 168.23 171.89 168.08C171.88 168.03 171.91 167.96 171.93 167.9L172 167.9Z" fill="#6B9244" fill-opacity="1.000000" fill-rule="nonzero"/>
			<path id="Vector" d="M55.55 60.18C59.84 64.42 64.01 68.78 68.22 73.09C72.02 65.61 71.63 56.79 69.08 48.68C66.96 49.31 65.2 51.12 64.72 53.28C63.91 51.34 63.08 49.33 61.53 47.88C60.2 46.64 58.17 45.94 56.48 46.48C57.31 50.72 56.8 55.3 56.04 59.51C55.98 59.85 55.78 60.06 55.53 60.17L55.55 60.18Z" fill="#8AB15D" fill-opacity="1.000000" fill-rule="nonzero"/>
			<path id="Vector" d="M39.86 51.71C42.09 54.34 44.79 57.09 44.74 60.54C44.72 61.52 44.48 62.51 44.27 63.49C44.54 63.6 44.82 63.72 45.09 63.81C49.33 65.3 52.58 65.65 56.73 64.08C52.44 59.49 48.08 54.96 43.48 50.69C42.94 50.2 43.65 49.38 44.22 49.84C47.68 52.67 50.97 55.7 54.2 58.85C54.87 55.11 55.38 51.18 54.91 47.43C54.47 47.82 54.04 48.22 53.54 48.52C50.91 50.15 47.55 48.24 45.22 46.19C42.9 44.14 40.2 41.72 37.16 42.34C35.59 45.41 37.62 49.07 39.84 51.69L39.86 51.71Z" fill="#8AB15D" fill-opacity="1.000000" fill-rule="nonzero"/>
			<path id="Vector" d="M78.1 82.71C80.84 85.2 83.59 87.66 86.35 90.15C88.15 82.16 86.4 73.32 85.07 65.41C84.86 64.1 84.57 62.8 84.33 61.52C84.04 61.79 83.75 62.04 83.41 62.22C81.25 63.41 78.67 61.16 77.94 58.8C77.2 56.45 77.39 53.8 76.2 51.65C75.14 49.76 73.02 48.54 70.88 48.47C73.82 57.23 74.36 66.91 69.93 74.82C72.61 77.53 75.33 80.19 78.12 82.73L78.1 82.71Z" fill="#8AB15D" fill-opacity="1.000000" fill-rule="nonzero"/>
			<path id="Vector" d="M53.36 79.26C53.75 79.36 54.14 79.48 54.54 79.57C57.87 80.34 61.32 81 64.75 80.9C67.22 80.84 69.63 80.28 72.08 80.11C70.93 79 69.82 77.86 68.69 76.71C67.88 77.35 66.34 76.25 66.98 75.26C67.01 75.2 67.05 75.15 67.08 75.09C63.89 71.78 60.77 68.41 57.64 65.05C55.6 68.59 49.4 66.83 46.45 65.87C45.64 65.61 44.82 65.31 43.99 64.97C43.87 65.94 43.88 66.89 44.31 67.77C45.64 70.51 49.76 70.47 51.75 72.8C53.22 74.51 53.12 76.94 53.36 79.26Z" fill="#8AB15D" fill-opacity="1.000000" fill-rule="nonzero"/>
			<path id="Vector" d="M105.22 106.92C105.32 97.43 105.4 88.25 104.06 78.91C103.84 79.05 103.62 79.19 103.41 79.35C101.84 80.6 100.86 82.43 99.93 84.22C96.49 77.19 93.06 70.13 89.62 63.1C88.96 61.73 87.87 60.17 86.43 60.25C86.96 62.51 87.44 64.78 87.86 67.07C89.36 75.32 91.36 84.17 88.82 92.36C94.25 97.25 99.72 102.1 105.22 106.92Z" fill="#8AB15D" fill-opacity="1.000000" fill-rule="nonzero"/>
			<path id="Vector" d="M172.95 164.54C175.8 156.62 182.42 150.41 185.12 142.5C184.83 141.49 184.34 140.6 183.49 140.03C182.07 139.1 180.18 139.39 178.6 138.77C176.28 137.84 175.18 135.1 175.06 132.59C174.94 130.09 175.59 127.6 175.54 125.09C175.49 122.83 174.7 120.37 172.87 119.11C172.43 132.65 169.47 146.42 160.89 155.62C164.84 158.66 168.84 161.63 172.93 164.54L172.95 164.54Z" fill="#8AB15D" fill-opacity="1.000000" fill-rule="nonzero"/>
			<path id="Vector" d="M171.96 168.08C171.96 168.08 171.99 167.95 172 167.9C167.16 164.93 162.55 161.6 158.1 158.05C152.6 162.57 146.25 166.25 139.59 168.61C136.23 169.81 132.62 171.13 129.01 171.57C131.98 172.95 135.52 173.15 138.83 172.89C143.16 172.56 147.51 171.6 151.82 172.21C155.65 172.75 159.25 174.5 163.09 174.98C166.2 173.23 169.17 171.11 171.93 168.49C171.93 168.37 171.92 168.24 171.94 168.1L171.96 168.08Z" fill="#8AB15D" fill-opacity="1.000000" fill-rule="nonzero"/>
			<path id="Vector" d="M157.38 124.01C155.9 132.16 151.84 137.92 147.49 144.6C151.06 147.7 154.7 150.69 158.38 153.61C165.67 142.81 168.74 130.92 169.82 118.57C168.19 118.98 166.8 120.35 167.16 121.98C166.25 116.53 164.27 111.27 161.33 106.59C160.11 104.64 158.67 102.74 156.67 101.61C156.67 101.61 156.67 101.61 156.65 101.62C156.76 102.11 156.9 102.6 156.99 103.11C158.23 109.97 158.63 117.13 157.39 124.04L157.38 124.01Z" fill="#8AB15D" fill-opacity="1.000000" fill-rule="nonzero"/>
			<path id="Vector" d="M112.03 116.75C112.1 117.23 111.9 117.71 111.32 117.85C102.83 120.13 93.69 121.51 84.72 121.38C85.72 122.38 87.02 123.16 88.36 123.53C91.58 124.4 94.97 123.77 98.28 123.97C101.6 124.17 105.3 125.67 106.28 128.84C102.17 133.47 94.65 137.75 95.54 142.09C96.02 142.11 96.49 142.15 96.97 142.16C103.93 142.27 111.08 141.84 117.77 139.82C122.52 138.38 126.35 135.77 130.61 133.66C124.46 127.98 118.28 122.33 112.03 116.75Z" fill="#8AB15D" fill-opacity="1.000000" fill-rule="nonzero"/>
			<path id="Vector" d="M109.96 114.92C108.56 113.68 107.19 112.42 105.8 111.18C105.65 111.08 105.52 110.98 105.42 110.83C101.22 107.09 97.03 103.35 92.88 99.55C92.69 100.14 92.19 100.64 91.42 100.58C86.71 100.26 82.14 102.22 77.47 101.74C73.11 101.29 68.72 100.54 64.41 99.7C67.99 103.94 73.93 104.51 79.52 106.21C82.13 107.01 85.48 108.1 85.56 110.84C85.63 112.87 83.69 114.39 83.11 116.32C82.84 117.18 82.89 118.05 83.14 118.87C87.91 118.99 92.66 118.71 97.35 117.68C101.44 116.77 106.64 114.79 110.85 115.71C110.55 115.45 110.26 115.18 109.98 114.92L109.96 114.92Z" fill="#8AB15D" fill-opacity="1.000000" fill-rule="nonzero"/>
			<path id="Vector" d="M132.8 135.68C128.96 139.53 122.14 141.62 117.2 142.69C110.46 144.15 103.67 144.53 96.81 144.22C100.79 148.4 110.31 148.72 117.97 148.46C115.74 149.69 115.11 152.71 115.99 155.11C121.11 154.47 126.11 153.27 131.16 152.1C136.08 150.98 141.1 149.83 145.37 147.13C145.2 146.98 145.02 146.82 144.84 146.67C144.13 146.56 143.55 146.08 143.45 145.41C143.3 145.28 143.16 145.14 143.01 145.03C139.59 141.91 136.18 138.8 132.78 135.66L132.8 135.68Z" fill="#8AB15D" fill-opacity="1.000000" fill-rule="nonzero"/>
			<path id="Vector" d="M144.88 142.35C148.91 135.73 153.14 129.88 154.26 121.78C155.18 115.12 155.01 108.34 153.72 101.73C153.66 101.39 153.57 101.06 153.49 100.73C152.29 100.69 151.12 101 150.17 101.72C148.48 103.05 147.94 105.33 147.45 107.42C146.95 109.5 146.18 111.78 144.29 112.82C142.4 113.86 138.71 112.03 138.92 109.89C139.71 101.93 135.69 93.77 129.19 89.18C129.98 93.95 130.6 98.85 130.49 103.68C130.3 110.79 128.5 117.53 126.91 124.41C126.8 124.9 126.52 125.22 126.19 125.44C132.43 131.07 138.63 136.74 144.89 142.33L144.88 142.35Z" fill="#8AB15D" fill-opacity="1.000000" fill-rule="nonzero"/>
			<path id="Vector" d="M111.86 112.76C115.86 116.21 119.79 119.71 123.7 123.22C125.29 116.52 127.32 109.73 127.25 102.78C127.2 98.17 126.85 93.56 126.18 88.99C126.1 88.43 126.01 87.86 125.92 87.3C125.62 87.16 125.33 87 125.02 86.88C122.83 90.52 120.64 94.18 118.45 97.83C116.03 92.52 113.61 87.2 111.2 81.89C110.67 80.72 110.09 79.48 109 78.75C108.27 78.25 107.39 78.08 106.5 78.14C108.42 88.43 108.68 98.89 107.97 109.33C109.26 110.46 110.55 111.62 111.84 112.74L111.86 112.76Z" fill="#8AB15D" fill-opacity="1.000000" fill-rule="nonzero"/>
			<path id="Vector" d="M151.05 160.05C152.73 158.82 154.34 157.55 156.02 156.4C153.09 154 150.25 151.52 147.44 149.02C142.49 152.52 136.21 153.64 130.38 154.9C126.04 155.82 121.79 156.83 117.43 157.36C119.35 159.19 122.27 159.86 124.96 159.6C128.02 159.3 130.87 157.97 133.65 156.64C132.55 161.61 130.04 166.3 126.49 169.94C126.55 169.99 126.61 170.02 126.64 170.06C130.21 169.62 133.66 168.68 137.03 167.38C141.96 165.47 146.76 163.2 151.03 160.06L151.05 160.05Z" fill="#8AB15D" fill-opacity="1.000000" fill-rule="nonzero"/>
			<path id="Vector" d="M75.02 82.98C74.54 82.53 74.08 82.06 73.61 81.61C73.61 81.61 73.61 81.61 73.57 81.63C68.1 84.95 59.62 82.93 53.66 81.17C53.81 81.69 53.97 82.2 54.23 82.66C57.44 88.36 68.09 85.91 70.96 91.79C68.97 92.16 66.31 95.5 64.49 97.57C64.87 97.63 65.27 97.69 65.64 97.76C70.47 98.44 75.95 99.85 80.79 99.05C84.27 98.49 87.62 97.69 91.11 97.95C89.61 96.57 88.14 95.17 86.65 93.8C86.3 93.64 86.02 93.39 85.87 93.07C82.24 89.7 78.6 86.37 75 82.96L75.02 82.98Z" fill="#8AB15D" fill-opacity="1.000000" fill-rule="nonzero"/>
			<path id="Vector" d="M178.66 89.02C169.75 70.24 154.58 54.94 138.49 41.75C127.72 32.94 117.31 25.13 103.3 22.75C90.49 20.56 77.87 13.52 64.66 17.21C54.47 20.05 47.13 26.38 38.08 31.28C33.73 33.63 28.37 35.53 23.57 34.26C24.95 38.96 22.65 44.37 20.65 48.75C16.59 57.62 15.21 66.33 16.99 76.03C18.94 86.75 21.25 98.09 24.88 108.37C27.03 114.42 29.77 120.58 34.48 125.12C38.66 129.15 43.41 132.33 47.9 135.98C52.53 139.74 56.3 144.3 60.63 148.38C65.7 153.17 71.32 157.24 77.46 160.59C79.01 161.45 80.62 162.25 82.21 163.06C80.26 160.7 78.22 158.45 75.66 156.78C71.89 154.31 67.13 153.23 64.13 149.85C60.96 146.27 60.49 140.89 57.3 137.33C53.44 133.01 46.49 132.37 43.02 127.74C40.25 124.05 40.5 118.86 38.42 114.75C36 109.96 30.79 107.25 27.59 102.96C23.53 97.52 23.13 90.26 22.9 83.46C22.51 72.39 22.13 61.22 23.88 50.28C24.48 46.44 25.49 42.4 28.3 39.69C30.64 37.43 33.88 36.42 37.01 35.49C45.57 32.94 54.13 30.39 62.7 27.86C68.17 26.23 74.01 24.6 79.5 26.13C83.35 27.2 86.68 29.75 90.61 30.55C96.9 31.81 103.79 28.36 109.64 30.97C113.17 32.55 115.46 36.03 118.62 38.23C122.03 40.62 126.47 41.43 130.48 40.45C147.54 52.14 162.42 67.89 174.93 84.35C176.14 85.94 177.34 87.57 178.68 89.07L178.66 89.02Z" fill="#8AB15D" fill-opacity="1.000000" fill-rule="nonzero"/>
			<path id="Vector" d="M114.23 22.65C109.06 20.75 103.59 20.11 98.24 18.92C91.38 17.42 84.87 14.76 77.93 13.6C67.36 11.83 56.81 16.34 47.95 21.65C39.3 26.85 32.63 34.04 22.36 31.65C22.14 31.33 21.91 31.02 21.65 30.7C20.72 29.62 19.07 30.4 19.22 31.56C19.19 31.71 19.22 31.87 19.34 32.04C19.38 32.07 19.4 32.12 19.44 32.15C24.24 39.29 16.9 48.6 14.71 55.6C11.76 65.07 13.57 75.05 15.8 84.45C18.51 95.83 20.56 107.49 25.85 118.03C31.51 129.34 43.24 134.8 51.87 143.41C56.75 148.28 61.23 153.21 66.8 157.33C72.04 161.21 77.85 164.33 83.68 167.19C94.59 172.57 105.86 177.64 117.43 181.42C135.18 187.2 161.21 185.72 173.61 169.8C173.95 169.78 174.26 169.61 174.51 169.38L171.98 167.86C171.98 167.86 171.95 167.99 171.94 168.04C171.91 168.19 171.94 168.31 171.93 168.44C154.92 184.6 130.31 183.46 109.58 175.37C98.64 171.09 87.71 166.14 77.41 160.52C71.29 157.18 65.66 153.12 60.59 148.31C56.26 144.23 52.51 139.69 47.86 135.91C43.37 132.26 38.62 129.08 34.44 125.05C29.73 120.51 26.99 114.37 24.84 108.3C21.19 98.02 18.89 86.68 16.94 75.96C15.17 66.28 16.57 57.57 20.61 48.69C22.61 44.31 24.91 38.89 23.53 34.19C28.33 35.46 33.67 33.56 38.03 31.21C47.09 26.33 54.43 19.98 64.62 17.14C77.83 13.47 90.43 20.49 103.26 22.68C117.27 25.06 127.7 32.85 138.45 41.68C158.34 57.97 176.81 77.47 183.81 102.79C186.96 114.16 187.48 126.14 186.17 137.82C185 148.11 176.32 155.07 172.92 164.47L175.73 166.43C179.74 155.98 188.69 148.57 190.02 136.82C191.23 126.11 190.53 115.24 188.08 104.76C182.33 80.21 165.35 61.22 146.86 45C137.13 36.48 126.52 27.1 114.21 22.58L114.23 22.65Z" fill="#517433" fill-opacity="1.000000" fill-rule="nonzero"/>
			<path id="Vector" d="M160.91 155.61C174.6 140.93 173.96 114.58 171.66 96.14C171.54 95.15 170.06 95.24 170.1 96.25C170.9 116.5 170.01 136.42 158.38 153.63C154.69 150.73 151.06 147.72 147.49 144.61C151.85 137.93 155.91 132.18 157.38 124.02C158.61 117.11 158.23 109.97 156.97 103.09C154.38 88.74 147.26 75.49 139.41 63.38C138.87 62.54 137.61 63.38 138.13 64.23C145.13 75.89 151.1 88.29 153.74 101.73C155.03 108.34 155.19 115.12 154.28 121.78C153.16 129.86 148.93 135.73 144.89 142.35C138.63 136.76 132.43 131.09 126.19 125.46C126.53 125.24 126.8 124.92 126.91 124.43C128.5 117.53 130.3 110.81 130.49 103.7C130.63 98.22 129.82 92.64 128.88 87.27C127.12 77.32 124.18 64.66 116.06 57.78C115.32 57.16 114.51 58.19 115.1 58.88C122.28 66.98 124.66 78.6 126.18 89.01C126.85 93.58 127.2 98.19 127.25 102.8C127.32 109.75 125.28 116.54 123.71 123.24C119.79 119.71 115.86 116.21 111.86 112.77C110.56 111.65 109.28 110.49 107.99 109.37C108.76 98.01 108.42 86.65 106.02 75.5C103.35 63.2 99.03 51.42 94.85 39.57C94.58 38.82 93.47 39.21 93.7 39.95C96.99 50.77 100.55 61.54 102.97 72.6C105.49 84.16 105.35 95.33 105.24 106.94C99.74 102.13 94.27 97.28 88.84 92.38C91.38 84.19 89.38 75.34 87.88 67.08C85.98 56.57 82.91 46.36 78.25 36.73C77.86 35.92 76.53 36.33 76.91 37.18C80.94 46.23 83.44 55.66 85.09 65.4C86.44 73.3 88.17 82.16 86.37 90.14C83.63 87.66 80.86 85.21 78.12 82.71C75.32 80.16 72.61 77.51 69.93 74.81C76.66 62.78 71.95 46.7 64.76 35.92C64.24 35.13 63.05 35.93 63.55 36.71C70.11 47.08 74.05 61.65 68.24 73.09C64.02 68.78 59.86 64.41 55.57 60.18C55.81 60.08 56.01 59.87 56.08 59.52C57.3 52.67 57.9 44.8 53.12 39.1C52.6 38.48 51.56 39.14 52.05 39.82C56.16 45.37 55.4 52.44 54.23 58.87C51.01 55.74 47.71 52.68 44.26 49.86C43.69 49.4 42.98 50.21 43.51 50.71C48.12 54.97 52.48 59.5 56.77 64.09C52.62 65.66 49.37 65.31 45.13 63.82C41.69 62.62 38.06 60.87 35.34 58.4C34.87 57.97 34.28 58.69 34.7 59.14C37.84 62.28 42.27 64.54 46.46 65.89C49.42 66.84 55.62 68.61 57.65 65.06C60.79 68.41 63.91 71.78 67.1 75.11C67.07 75.16 67.03 75.22 67 75.28C66.36 76.26 67.88 77.37 68.71 76.73C69.82 77.86 70.95 79 72.1 80.13C69.65 80.3 67.26 80.85 64.77 80.92C61.34 81.01 57.89 80.36 54.55 79.59C47.64 78 40.83 74.69 35.06 70.58C34.48 70.15 33.73 70.97 34.31 71.43C39.79 75.65 46.08 78.91 52.72 80.91C58.67 82.71 67.83 85.16 73.61 81.67C73.61 81.67 73.61 81.67 73.64 81.65C74.12 82.09 74.58 82.56 75.06 83.01C78.66 86.42 82.29 89.75 85.93 93.12C86.08 93.44 86.36 93.69 86.71 93.85C88.2 95.22 89.68 96.62 91.17 98C87.67 97.74 84.32 98.54 80.85 99.1C76 99.88 70.52 98.49 65.7 97.81C54.81 96.27 44.4 93.66 35.38 87.13C34.87 86.77 34.28 87.44 34.73 87.87C42.16 94.56 52.08 97.28 61.66 99.22C66.87 100.27 72.23 101.24 77.51 101.79C82.17 102.27 86.75 100.31 91.46 100.63C92.23 100.69 92.73 100.19 92.92 99.6C97.06 103.4 101.26 107.14 105.46 110.88C105.56 111.02 105.69 111.13 105.84 111.23C107.23 112.47 108.6 113.73 110 114.97C110.3 115.23 110.59 115.5 110.87 115.76C106.66 114.82 101.46 116.82 97.37 117.73C90.33 119.28 83.11 119.23 75.97 118.51C63.9 117.29 52.26 113.54 40.68 110.1C39.97 109.9 39.59 111.08 40.29 111.32C51.77 115.34 63.47 118.97 75.55 120.73C87.31 122.43 99.92 120.99 111.34 117.92C111.92 117.76 112.12 117.28 112.05 116.82C118.3 122.4 124.46 128.05 130.63 133.73C126.37 135.85 122.52 138.45 117.79 139.88C111.09 141.91 103.95 142.33 96.99 142.23C82.99 142.01 68.7 138.49 56.07 132.46C55.54 132.21 55.15 133 55.67 133.29C67.84 139.74 81.8 143.45 95.55 144.25C102.87 144.67 110.06 144.3 117.22 142.76C122.16 141.69 128.98 139.58 132.82 135.75C136.23 138.88 139.63 142 143.05 145.12C143.21 145.25 143.34 145.38 143.49 145.5C143.59 146.17 144.17 146.64 144.88 146.75C145.05 146.9 145.22 147.07 145.41 147.22C141.14 149.92 136.12 151.06 131.21 152.19C125.36 153.53 119.62 154.98 113.61 155.48C100.32 156.59 87.26 153.04 75.28 147.57C74.59 147.26 74.11 148.26 74.78 148.62C86.2 154.8 99.05 157.91 112.04 157.82C118.37 157.78 124.32 156.28 130.45 154.97C136.28 153.73 142.55 152.58 147.52 149.09C150.33 151.58 153.19 154.06 156.1 156.46C154.41 157.63 152.79 158.88 151.13 160.12C146.85 163.27 142.05 165.52 137.12 167.45C133.08 169.01 128.91 170.08 124.58 170.36C121.05 170.6 117.75 170.53 114.36 171.65C114.03 171.76 114.02 172.14 114.22 172.36C114.82 173.06 115.45 173.73 116.14 174.35C116.16 174.36 116.19 174.34 116.17 174.31C113.75 171.8 121.06 171.85 121.17 171.86C123.5 171.84 125.81 171.92 128.15 171.74C132.05 171.43 136.01 169.93 139.66 168.64C146.33 166.3 152.67 162.6 158.17 158.08C162.62 161.64 167.24 164.98 172.07 167.93L174.6 169.45C176.07 170.29 177.57 171.12 179.08 171.87C180.34 172.49 181.65 170.58 180.45 169.78C178.9 168.71 177.38 167.62 175.83 166.55L173.02 164.58C168.93 161.67 164.92 158.71 160.98 155.66L160.91 155.61Z" fill="#517433" fill-opacity="1.000000" fill-rule="nonzero"/>
		</g>
	</g>
</svg>