<svg width="278.892090" height="273.369141" viewBox="0 0 278.892 273.369" fill="none" xmlns="http://www.w3.org/2000/svg" xmlns:xlink="http://www.w3.org/1999/xlink">
	<desc>
			Created with Pixso.
	</desc>
	<defs>
		<clipPath id="clip350_2041">
			<rect id="green leaf element" width="215.362259" height="223.891464" transform="translate(65.659912 273.369141) rotate(-107.751015)" fill="white" fill-opacity="0"/>
		</clipPath>
	</defs>
	<rect id="green leaf element" width="215.362259" height="223.891464" transform="translate(65.659912 273.369141) rotate(-107.751015)" fill="#FFFFFF" fill-opacity="0"/>
	<g clip-path="url(#clip350_2041)">
		<path id="Vector" d="M-375.6 -719.97C-371.25 -714.18 -366.07 -709.5 -362.24 -703.25C-358.33 -696.89 -355.15 -690.13 -351.83 -683.44C-345.9 -671.55 -337.95 -660.82 -329.02 -651.01C-319.84 -640.93 -309.32 -632.09 -298.68 -623.59C-287.71 -614.85 -276.38 -606.77 -264.01 -600.14C-239.83 -587.21 -211.37 -580.52 -183.97 -583.65C-170.33 -585.21 -157.27 -589.93 -143.72 -592.01C-135.98 -593.22 -123.86 -594.79 -116.02 -591.14C-114.45 -589.77 -112.75 -588.56 -110.93 -587.58C-109.22 -586.66 -107.84 -589.33 -109.55 -590.25C-123.45 -597.89 -124.6 -613.7 -128.88 -627.13C-133.05 -640.16 -141.05 -651.73 -149.52 -662.34C-167.65 -685.05 -189.27 -703.17 -215.31 -716.2C-240.81 -728.94 -268.68 -735.64 -297.15 -735.93C-310.67 -736.07 -323.92 -734.4 -336.75 -730.05C-349.2 -725.83 -363.14 -727.97 -375.1 -722.27C-375.88 -721.91 -376.1 -720.63 -375.6 -719.97Z" fill="#AEBFAC" fill-opacity="1.000000" fill-rule="nonzero"/>
		<path id="Vector" d="M50.48 62.97C38.03 67.18 24.08 65.04 12.13 70.74C11.35 71.11 11.13 72.38 11.62 73.04C15.98 78.84 21.16 83.51 24.99 89.76C28.9 96.12 32.08 102.89 35.4 109.57C41.32 121.46 49.28 132.19 58.21 142C67.39 152.09 77.91 160.93 88.55 169.42C99.52 178.16 110.85 186.24 123.22 192.87C147.4 205.8 175.86 212.49 203.26 209.36C216.9 207.8 229.95 203.09 243.5 201C251.25 199.8 263.36 198.23 271.21 201.88C272.78 203.25 274.48 204.45 276.3 205.44C278.01 206.36 279.39 203.68 277.68 202.76C263.78 195.12 262.63 179.31 258.35 165.88C254.18 152.85 246.18 141.28 237.71 130.67C219.58 107.96 197.96 89.84 171.91 76.81C146.42 64.07 118.55 57.37 90.07 57.08C76.56 56.95 63.31 58.61 50.48 62.97ZM177.1 83.01C202.6 96.65 223.18 116.46 240.39 139.51C248.77 150.73 255.39 163.18 257.99 177.04C259.07 182.78 261.25 188.78 264.54 193.98C256.64 189.49 248.79 185 240.82 180.69C241 160.01 230.13 138.1 215.58 123.84C214.96 123.22 213.86 124.12 214.39 124.83C220.32 132.81 226.29 140.42 230.84 149.32C235.77 158.96 238.36 169.25 239.41 179.93C231 175.4 222.46 171.09 213.57 167.28C212.4 166.78 211.25 166.23 210.09 165.71C208.07 143.03 197.99 120.41 184.09 102.52C183.41 101.65 181.99 102.51 182.62 103.45C195.23 122.7 204.7 142.25 208.61 165.02C200.45 161.3 192.51 157.14 184.72 152.75C183.27 147.69 182.53 142.64 181.69 137.41C180.72 131.33 178.17 125.4 175.91 119.71C171.07 107.49 164.46 95.51 154.27 86.98C153.34 86.21 152.13 87.52 153 88.36C163.63 98.81 170.51 111.79 175.81 125.58C178.1 131.54 179.62 137.25 180.62 143.55C181.01 146 181.32 148.96 182.34 151.42C174.85 147.16 167.47 142.69 160.08 138.23C159.13 127.93 155.49 117.51 151.44 108.15C147.07 98 141.05 88.24 132.14 81.52C131.36 80.93 130.31 82.01 131.07 82.66C147.42 96.65 153.52 117.36 158.71 137.41C157.43 136.63 156.18 135.87 154.9 135.1C149.22 131.67 143.47 128.38 137.66 125.18C137.89 125.17 138.12 125.02 138.12 124.71C138.46 116.96 132.56 108.6 128.75 102.25C122.84 92.37 115.73 83.16 108.7 74.07C108.14 73.35 106.96 74.05 107.49 74.83C112.82 82.7 118.7 90.17 124.06 98.01C129.08 105.37 136.8 115.58 137.22 124.75C137.23 124.86 137.27 124.93 137.33 124.99C128.71 120.25 119.97 115.76 111.1 111.5C110.19 106.44 106.61 101.46 104.24 97.14C100.55 90.45 96.14 84.27 90.78 78.79C90.13 78.12 89.24 79.15 89.82 79.84C93.91 84.56 97.63 89.51 100.96 94.8C103.86 99.38 108.12 105.36 109.89 110.94C104.73 108.47 99.53 106.07 94.33 103.75C92.32 102.87 90.31 101.99 88.31 101.12C88.65 101.1 88.97 100.85 88.81 100.42C84.95 89.62 80.5 73.67 69.16 68.37C68.42 68.02 67.88 69.09 68.57 69.51C79.24 76.02 83.29 89.85 87.71 100.79C87.73 100.86 87.8 100.9 87.85 100.94C81.92 98.39 75.97 95.91 70.03 93.39C67.8 86.41 64.17 78.35 57.64 74.64C57.08 74.32 56.44 75.19 56.98 75.57C63.03 79.87 65.15 86.48 68.4 92.69C62.36 90.12 56.37 87.48 50.46 84.64C49.93 80.14 47.09 76.51 44.94 72.66C44.62 72.09 43.66 72.53 43.91 73.14C45.39 76.92 48.21 80.02 49.15 84.03C43.84 81.46 38.59 78.71 33.48 75.68C32.92 75.34 32.47 76.23 33.02 76.57C39.36 80.62 45.95 84.18 52.68 87.48C47.78 86.91 42.63 87.2 37.8 86.77C37.09 86.71 36.85 87.68 37.57 87.85C43.27 89.33 50 89.48 55.87 89.05C61.76 91.86 67.7 94.5 73.68 97.1C65 97.17 56.63 99.05 47.83 96.95C47.02 96.75 46.82 97.92 47.57 98.17C56.77 101.39 66.84 99.35 76.32 98.26C81.98 100.72 87.65 103.18 93.25 105.75C94.35 106.26 95.43 106.77 96.53 107.3C84.86 110.31 73.16 111.38 61.4 107.73C60.7 107.52 60.29 108.68 60.96 108.94C72.63 113.61 86.56 112.46 98.22 108.09C105.25 111.41 112.21 114.91 119.1 118.54C103.29 119.4 88.12 122.06 72.45 117.1C71.6 116.84 71.1 118.24 71.93 118.57C87.91 124.92 105.11 121.87 121.7 119.92C132.43 125.66 142.98 131.72 153.31 138.11C157.9 140.95 162.47 143.79 167.07 146.59C156.45 152.11 146.49 156.18 134.51 157.86C123.46 159.41 112.21 158.95 101.14 157.84C99.96 157.72 99.54 159.46 100.76 159.68C112.52 161.73 124.53 161.72 136.33 159.96C147.19 158.36 159.56 154.91 168.04 147.58C168.14 147.49 168.19 147.4 168.23 147.29C175.04 151.44 181.89 155.51 188.87 159.34C184.97 160.05 181.3 161.88 177.7 163.47C172.14 165.93 166.44 167.87 160.54 169.42C148.35 172.64 136.38 171.97 124.34 168.48C123.33 168.19 122.73 169.83 123.72 170.22C134.38 174.51 145.33 174.96 156.54 172.84C168.81 170.51 179.09 163.8 190.84 160.39C197.65 164.06 204.58 167.53 211.73 170.62C212.73 171.06 213.72 171.53 214.72 171.97C211.35 173.01 208.13 174.52 204.9 175.99C198.7 178.8 192.29 180.48 185.55 181.42C173.13 183.15 160.63 181.56 148.27 180.21C147.15 180.1 146.74 181.75 147.9 181.97C159.68 184.36 171.83 185.22 183.8 183.95C189.47 183.33 195.1 182.03 200.44 180.07C206.01 178.02 211.14 175.02 216.67 172.87C223.94 176.21 231.01 179.84 238.04 183.58C232.42 188.01 222.92 188.88 216.33 190.99C207 193.97 197.74 196 187.89 194.98C186.86 194.87 186.52 196.31 187.56 196.57C197.6 199.14 207.52 196.69 217.12 193.48C222.01 191.86 226.91 190.42 231.84 188.9C234.75 188.01 237.61 186.71 239.42 184.3C248.21 188.98 256.97 193.75 265.98 198.12C261.19 197.21 255.94 197.44 251.58 197.56C240.04 197.87 228.9 201.04 217.71 203.65C187.78 210.62 157.24 205.91 129.7 192.78C104.81 180.91 81.78 162.11 62.69 142.36C52.78 132.1 44.52 120.48 38.04 107.79C34.63 101.14 31.49 94.39 27.71 87.94C24.3 82.11 19.69 77.84 15.55 72.74C26.76 68.08 39.87 70.06 51.36 65.93C64.43 61.23 78.17 60.03 91.96 60.18C121.81 60.47 150.8 68.92 177.01 82.96L177.1 83.01Z" fill="#90B87E" fill-opacity="1.000000" fill-rule="nonzero"/>
		<path id="Vector" d="M92.06 60.24C78.27 60.1 64.53 61.29 51.45 65.99C39.95 70.13 26.85 68.15 15.65 72.8C19.78 77.9 24.39 82.17 27.81 88C31.59 94.46 34.72 101.2 38.13 107.85C44.62 120.54 52.88 132.16 62.79 142.42C81.9 162.17 104.9 180.97 129.79 192.84C157.36 205.99 187.89 210.68 217.81 203.71C228.98 201.11 240.14 197.94 251.68 197.62C256.03 197.5 261.28 197.27 266.08 198.18C257.08 193.81 248.32 189.04 239.52 184.37C237.72 186.79 234.84 188.07 231.94 188.96C227.03 190.48 222.12 191.92 217.22 193.54C207.61 196.73 197.7 199.2 187.66 196.64C186.62 196.38 186.96 194.93 187.99 195.04C197.84 196.09 207.09 194.02 216.42 191.05C223.02 188.94 232.52 188.09 238.14 183.64C231.1 179.91 224.04 176.27 216.77 172.93C211.24 175.09 206.11 178.08 200.54 180.13C195.2 182.09 189.56 183.4 183.9 184.01C171.93 185.31 159.78 184.43 148 182.04C146.83 181.8 147.24 180.14 148.37 180.28C160.73 181.62 173.22 183.21 185.65 181.49C192.39 180.55 198.8 178.88 205 176.05C208.21 174.59 211.45 173.07 214.82 172.03C213.82 171.59 212.83 171.12 211.83 170.68C204.68 167.59 197.75 164.13 190.94 160.45C179.18 163.85 168.89 170.56 156.64 172.9C145.43 175.04 134.46 174.58 123.81 170.29C122.83 169.89 123.42 168.24 124.44 168.54C136.47 172.03 148.44 172.7 160.64 169.48C166.53 167.92 172.24 166 177.8 163.53C181.4 161.94 185.07 160.12 188.96 159.41C181.99 155.57 175.14 151.51 168.33 147.36C168.31 147.46 168.24 147.56 168.14 147.65C159.66 154.98 147.29 158.42 136.43 160.03C124.62 161.77 112.61 161.78 100.86 159.74C99.64 159.52 100.06 157.78 101.24 157.9C112.3 159 123.56 159.47 134.61 157.92C146.59 156.22 156.53 152.18 167.17 146.66C162.57 143.86 157.99 140.99 153.4 138.17C143.08 131.79 132.53 125.72 121.8 119.98C105.21 121.94 88.01 125 72.03 118.63C71.2 118.31 71.7 116.89 72.55 117.17C88.22 122.13 103.38 119.47 119.2 118.6C112.31 114.97 105.33 111.48 98.31 108.16C86.65 112.52 72.73 113.68 61.06 109C60.38 108.72 60.8 107.58 61.49 107.79C73.25 111.43 84.95 110.36 96.63 107.36C95.53 106.86 94.44 106.33 93.35 105.82C87.75 103.24 82.09 100.78 76.42 98.32C66.94 99.41 56.85 101.46 47.67 98.24C46.94 97.98 47.12 96.81 47.93 97.01C56.73 99.11 65.1 97.24 73.78 97.17C67.81 94.56 61.85 91.92 55.97 89.11C50.1 89.54 43.37 89.39 37.67 87.92C36.96 87.72 37.2 86.77 37.89 86.83C42.73 87.27 47.88 86.97 52.78 87.54C46.05 84.22 39.46 80.69 33.12 76.63C32.59 76.29 33.01 75.41 33.58 75.74C38.69 78.76 43.94 81.5 49.25 84.09C48.3 80.11 45.49 77 44.01 73.2C43.77 72.59 44.72 72.15 45.04 72.72C47.19 76.57 50.03 80.2 50.55 84.71C56.46 87.55 62.46 90.18 68.49 92.75C65.25 86.55 63.11 79.94 57.08 75.64C56.54 75.26 57.17 74.39 57.73 74.7C64.25 78.42 67.88 86.48 70.13 93.45C76.07 95.98 82.01 98.44 87.95 101C87.9 100.96 87.83 100.93 87.81 100.86C83.38 89.94 79.34 76.08 68.67 69.58C67.98 69.15 68.5 68.09 69.26 68.44C80.59 73.74 85.07 89.68 88.91 100.49C89.05 100.92 88.74 101.15 88.41 101.18C90.42 102.04 92.43 102.91 94.42 103.82C99.64 106.15 104.83 108.53 109.99 111C108.22 105.43 103.96 99.45 101.06 94.86C97.73 89.58 94.01 84.63 89.92 79.91C89.34 79.23 90.23 78.2 90.88 78.86C96.22 84.34 100.64 90.5 104.33 97.21C106.71 101.52 110.3 106.5 111.2 111.57C120.06 115.83 128.82 120.33 137.43 125.05C137.39 124.99 137.33 124.93 137.31 124.82C136.9 115.64 129.18 105.43 124.15 98.07C118.8 90.23 112.92 82.77 107.59 74.9C107.06 74.12 108.24 73.41 108.8 74.13C115.85 83.22 122.94 92.44 128.85 102.31C132.65 108.65 138.56 117.02 138.22 124.78C138.2 125.07 137.98 125.24 137.76 125.25C143.57 128.44 149.32 131.73 155 135.16C156.28 135.94 157.53 136.7 158.81 137.47C153.62 117.44 147.52 96.72 131.17 82.72C130.4 82.05 131.43 80.98 132.23 81.58C141.14 88.31 147.17 98.07 151.54 108.21C155.59 117.58 159.21 128 160.18 138.29C167.56 142.75 174.94 147.2 182.44 151.48C181.42 149.02 181.11 146.07 180.72 143.62C179.72 137.32 178.19 131.61 175.9 125.65C170.59 111.86 163.71 98.88 153.09 88.43C152.23 87.58 153.43 86.28 154.37 87.05C164.57 95.59 171.17 107.57 176.01 119.78C178.27 125.46 180.82 131.4 181.79 137.48C182.62 142.7 183.39 147.76 184.81 152.82C192.61 157.21 200.54 161.35 208.7 165.08C204.79 142.32 195.32 122.75 182.71 103.51C182.08 102.55 183.51 101.7 184.19 102.58C198.1 120.47 208.17 143.09 210.18 165.77C211.34 166.3 212.49 166.85 213.67 167.35C222.54 171.16 231.08 175.47 239.51 180C238.46 169.31 235.87 159.02 230.93 149.38C226.38 140.48 220.42 132.87 214.48 124.89C213.95 124.19 215.04 123.29 215.67 123.9C230.22 138.17 241.09 160.08 240.92 180.75C248.86 185.06 256.72 189.56 264.64 194.04C261.35 188.84 259.16 182.84 258.09 177.1C255.49 163.25 248.87 150.8 240.48 139.57C223.28 116.55 202.69 96.74 177.2 83.08C150.99 69.04 122 60.58 92.15 60.29L92.06 60.24ZM121.25 141.41C127.46 140.77 132.99 139.44 138.85 137.43C142.21 136.28 145.52 135.24 149.1 135.83C149.67 135.92 149.6 136.85 149.02 136.83C143.56 136.53 138.61 139.61 133.55 141.19C128.45 142.78 122.85 143.36 117.53 143.67C105.21 144.37 92.98 143.13 81.11 139.8C80.21 139.55 80.49 138.16 81.4 138.37C94.43 141.28 107.91 142.78 121.25 141.42L121.25 141.41Z" fill="#4D7C43" fill-opacity="1.000000" fill-rule="nonzero"/>
		<path id="Vector" d="M81.09 139.78C92.96 143.12 105.2 144.35 117.5 143.66C122.83 143.36 128.41 142.78 133.52 141.18C138.59 139.59 143.54 136.52 149 136.82C149.58 136.84 149.63 135.91 149.08 135.82C145.51 135.22 142.2 136.26 138.83 137.42C132.96 139.43 127.42 140.77 121.23 141.39C107.88 142.75 94.4 141.25 81.37 138.34C80.45 138.14 80.18 139.5 81.08 139.77L81.09 139.78Z" fill="#90B87E" fill-opacity="1.000000" fill-rule="nonzero"/>
		<path id="Vector" d="M203.38 128.35C204.88 139.36 213.74 148.52 215.04 159.6C215.42 162.82 219.87 162.52 219.99 159.33C220.21 153.94 218.42 148.56 217.11 143.39C215.55 137.29 213.39 130.41 209.23 125.6C207.26 123.3 202.96 125.45 203.36 128.36L203.38 128.35Z" fill="#71964C" fill-opacity="1.000000" fill-rule="nonzero"/>
		<path id="Vector" d="M204.77 115.89C205.29 116.45 205.66 117.11 206.03 117.76C206.68 118.88 207.41 119.49 208.68 119.83C209.86 120.16 211.29 119.22 211.46 118C211.67 116.56 211.27 115.64 210.47 114.49C209.84 113.6 209.12 112.74 208.32 112.03C205.77 109.77 202.49 113.43 204.78 115.87L204.77 115.89Z" fill="#71964C" fill-opacity="1.000000" fill-rule="nonzero"/>
		<path id="Vector" d="M194.84 106.5C195.44 106.97 195.83 107.59 196.59 107.92C197.52 108.31 198.96 107.95 199.07 106.75C199.22 105.12 198.44 104.11 197 103.42C195.13 102.52 193.09 105.15 194.84 106.52L194.84 106.5Z" fill="#71964C" fill-opacity="1.000000" fill-rule="nonzero"/>
		<path id="Vector" d="M174.97 188.89C172.75 188.72 170.1 188.67 168.16 189.89C166.46 190.95 167.1 193.36 168.88 193.84C170.84 194.37 172.97 194.59 174.98 195.07C177.48 195.66 179.93 196.4 182.26 194.91C184.14 193.7 183.92 190.99 182.03 189.93C179.94 188.77 177.27 189.07 174.94 188.88L174.97 188.89Z" fill="#71964C" fill-opacity="1.000000" fill-rule="nonzero"/>
		<path id="Vector" d="M210.38 178.74C206.36 179.11 202.88 181.23 199.23 182.84C194.96 184.7 190.68 186.34 185.97 186.42C183.2 186.47 182.77 191.03 185.59 191.33C190.21 191.81 194.59 191.1 199.04 189.88C203.4 188.7 208.61 187.11 212.13 184.2C214.23 182.48 213.66 178.43 210.38 178.74Z" fill="#71964C" fill-opacity="1.000000" fill-rule="nonzero"/>
		<path id="Vector" d="M222.15 180.21C220.6 180.37 219.05 180.84 217.57 181.28C216.18 181.69 215.42 183.27 215.85 184.62C216.32 186.07 217.79 186.68 219.19 186.33C220.5 186.01 221.83 185.83 223.14 185.49C224.24 185.19 225.16 183.93 225.02 182.77C224.98 182.55 224.95 182.32 224.89 182.09C224.61 180.96 223.32 180.09 222.17 180.21L222.15 180.21Z" fill="#71964C" fill-opacity="1.000000" fill-rule="nonzero"/>
		<path id="Vector" d="M233.63 191.19C231.36 191.14 229.2 192.34 227.14 193.17C224.76 194.14 222.35 195.07 219.87 195.8C217.91 196.4 218.9 199.15 220.82 198.76C223.12 198.31 225.38 197.68 227.64 197.04C229.95 196.35 232.69 195.95 234.68 194.55C236.23 193.47 235.43 191.26 233.62 191.21L233.63 191.19Z" fill="#71964C" fill-opacity="1.000000" fill-rule="nonzero"/>
		<path id="Vector" d="M238.97 153.03C239.74 157.46 241.14 161.78 242.48 166.08C243.72 170.07 246.13 173.91 245.98 178.2C245.89 180.61 249.88 180.9 250.18 178.51C250.73 174.37 249.35 170.55 248.24 166.6C246.79 161.49 246.64 155.99 243.28 151.65C242.01 150.01 238.51 150.47 238.95 153.03L238.97 153.03Z" fill="#71964C" fill-opacity="1.000000" fill-rule="nonzero"/>
		<path id="Vector" d="M235.5 144.94C235.47 145.19 235.44 145.4 235.4 145.63C235.2 146.99 236.38 148.23 237.79 147.78C239.19 147.33 239.43 145.63 238.48 144.64C238.32 144.48 238.16 144.3 238 144.15C237.23 143.34 235.67 143.84 235.5 144.94Z" fill="#71964C" fill-opacity="1.000000" fill-rule="nonzero"/>
		<path id="Vector" d="M185.02 169.63C180.76 170.02 176.61 171.92 172.55 173.23C167.92 174.7 163.2 175.59 158.35 175.56C156.11 175.55 155.78 179.28 158.05 179.51C166.95 180.42 178.77 179.13 186.5 174.29C188.59 172.97 187.57 169.41 185.01 169.64L185.02 169.63Z" fill="#71964C" fill-opacity="1.000000" fill-rule="nonzero"/>
		<path id="Vector" d="M193.65 173.7C191.34 174.63 192.4 178.07 194.84 177.4C196.59 176.91 198.51 176.45 199.75 175.03C200.56 174.1 200.1 172.66 198.9 172.38C196.96 171.91 195.37 172.99 193.65 173.68L193.65 173.7Z" fill="#71964C" fill-opacity="1.000000" fill-rule="nonzero"/>
		<path id="Vector" d="M185.25 137.06C185.25 138.14 185.28 139.24 185.34 140.33C185.39 141.44 186.05 142.6 186.43 143.62C187.22 145.73 188.01 147.85 188.77 149.97C189.91 153.23 194.67 151.65 193.82 148.35C193.26 146.17 192.66 143.99 192.04 141.83C191.74 140.78 191.58 139.44 190.98 138.52C190.38 137.61 189.77 136.71 189.19 135.79C188 133.96 185.25 134.94 185.28 137.05L185.25 137.06Z" fill="#71964C" fill-opacity="1.000000" fill-rule="nonzero"/>
		<path id="Vector" d="M173.31 101.68C175.15 106.64 178 110.96 180.75 115.45C183.63 120.16 186.08 125.06 188.62 129.95C189.23 131.13 191.25 130.46 191.06 129.17C189.72 118.9 183.73 107.88 177.67 99.63C176.11 97.5 172.29 98.97 173.29 101.69L173.31 101.68Z" fill="#71964C" fill-opacity="1.000000" fill-rule="nonzero"/>
		<path id="Vector" d="M118.34 163.39C116.41 163.61 116.55 166.39 118.5 166.4C120.26 166.41 122.09 166.89 123.83 166.58C125.17 166.34 125.96 164.41 124.44 163.73C122.55 162.89 120.38 163.14 118.36 163.37L118.34 163.39Z" fill="#71964C" fill-opacity="1.000000" fill-rule="nonzero"/>
		<path id="Vector" d="M158.13 161.28C154.71 161.39 151.39 162.77 148.1 163.65C144.06 164.72 139.84 165.15 135.68 165.45C133.85 165.58 133.47 168.62 135.43 168.78C142.72 169.36 153.35 170.48 159.57 165.78C161.47 164.33 160.7 161.2 158.14 161.3L158.13 161.28Z" fill="#71964C" fill-opacity="1.000000" fill-rule="nonzero"/>
		<path id="Vector" d="M166.18 156.45C165.39 156.61 164.56 157.11 163.79 157.37C161.75 158.1 162.22 161.41 164.49 161.17C166.19 161.01 168.58 161.07 169.39 159.24C169.69 158.53 169.68 157.47 168.98 156.97C168 156.27 167.34 156.2 166.18 156.44L166.18 156.45Z" fill="#71964C" fill-opacity="1.000000" fill-rule="nonzero"/>
		<path id="Vector" d="M139.59 144.58C130.54 144.86 122.02 147.87 112.83 147.36C110.96 147.25 110.76 150.32 112.59 150.61C121.48 151.98 131.91 151.99 140.3 148.39C142.28 147.55 141.92 144.52 139.6 144.59L139.59 144.58Z" fill="#71964C" fill-opacity="1.000000" fill-rule="nonzero"/>
		<path id="Vector" d="M151.63 146.29C149.95 146.51 148.55 147.22 147.03 147.96C145.13 148.87 146.66 152.1 148.59 151.29C150.18 150.63 151.63 150.16 152.93 149.02C154 148.07 153 146.1 151.63 146.27L151.63 146.29Z" fill="#71964C" fill-opacity="1.000000" fill-rule="nonzero"/>
		<path id="Vector" d="M156.5 110.84C157.3 115.12 159.18 119 160.42 123.18C161.64 127.31 162.66 131.49 163.9 135.61C164.54 137.73 167.67 137.06 167.62 134.94C167.45 126.25 166.69 114.98 160.41 108.37C158.57 106.44 156.11 108.77 156.51 110.85L156.5 110.84Z" fill="#71964C" fill-opacity="1.000000" fill-rule="nonzero"/>
		<path id="Vector" d="M155.51 99.69C155.65 100.48 155.75 101.26 156.13 101.97C156.52 102.72 156.92 103.49 157.3 104.25C158.43 106.6 162.49 104.68 161.43 102.32C160.72 100.75 160.12 99.3 158.86 98.1C157.69 97.01 155.2 97.88 155.51 99.67L155.51 99.69Z" fill="#71964C" fill-opacity="1.000000" fill-rule="nonzero"/>
		<path id="Vector" d="M131.9 93.48C135.42 103.03 141.52 111.38 144.92 121.09C145.46 122.65 148.09 122.3 147.86 120.55C146.51 110.13 142.95 98.94 135.94 90.9C134.28 88.99 131.08 91.26 131.9 93.48Z" fill="#71964C" fill-opacity="1.000000" fill-rule="nonzero"/>
		<path id="Vector" d="M122.25 84.15C122.84 86.04 124.06 87.58 124.65 89.48C125.63 92.66 130.47 91.09 129.55 87.92C129.21 86.75 128.72 85.64 128.19 84.56C127.91 84 127.59 83.47 127.24 82.97C126.8 82.31 126.06 81.92 125.39 81.5C123.68 80.45 121.73 82.41 122.27 84.14L122.25 84.15Z" fill="#71964C" fill-opacity="1.000000" fill-rule="nonzero"/>
		<path id="Vector" d="M115.51 129.61C111.35 129.09 107.16 130.01 102.96 130.02C98.03 130.05 93.12 129.2 88.29 128.29C85.95 127.85 85.32 131.18 87.54 131.85C95.87 134.35 108 138.17 116.29 133.9C118.09 132.96 117.5 129.87 115.51 129.62L115.51 129.61Z" fill="#71964C" fill-opacity="1.000000" fill-rule="nonzero"/>
		<path id="Vector" d="M120.32 122.95C118.88 122.56 117.58 122.86 116.11 122.97C114.71 123.07 113.34 123.13 111.95 123.29C109.41 123.57 109.59 127.29 112.16 127.26C114.94 127.23 118.55 128.14 120.96 126.51C122.44 125.5 121.96 123.42 120.32 122.95Z" fill="#71964C" fill-opacity="1.000000" fill-rule="nonzero"/>
		<path id="Vector" d="M126.84 131.97C124.83 132.67 125.28 136.17 127.54 135.77C128.76 135.55 130 135.55 130.86 134.52C131.59 133.63 131.39 132.38 130.37 131.81C129.17 131.15 128.02 131.55 126.82 131.98L126.84 131.97Z" fill="#71964C" fill-opacity="1.000000" fill-rule="nonzero"/>
		<path id="Vector" d="M107.51 89.65C109.51 93.24 111.6 96.67 113.9 100.1C115.76 102.86 118.62 105.95 119.07 109.37C119.3 111.13 121.64 111.32 122.14 109.61C123.19 106.05 121.09 102.81 119.54 99.7C117.15 94.84 115.06 90.42 110.8 86.9C108.88 85.3 106.3 87.5 107.51 89.65Z" fill="#71964C" fill-opacity="1.000000" fill-rule="nonzero"/>
		<path id="Vector" d="M94.5 113.88C93.33 113.51 92.18 113.73 90.97 113.79C89.64 113.85 88.31 113.86 86.98 113.85C84.67 113.82 84.93 117.27 87.18 117.39C89.65 117.53 92.81 118.03 95.05 116.8C96.39 116.06 95.73 114.27 94.52 113.89L94.5 113.88Z" fill="#71964C" fill-opacity="1.000000" fill-rule="nonzero"/>
		<path id="Vector" d="M69.67 101.36C68.43 101.51 67.21 101.62 65.95 101.64C64.63 101.66 63.41 101.15 62.07 101.26C59.76 101.43 59.06 104.05 60.5 105.63C62.18 107.5 65.4 107.46 67.73 107.48C70.56 107.51 73.64 107.34 76.27 106.25C77.97 105.54 78.85 102.58 76.64 101.76C74.27 100.9 72.14 101.05 69.67 101.36Z" fill="#71964C" fill-opacity="1.000000" fill-rule="nonzero"/>
		<path id="Vector" d="M68.42 75.29C69.71 79.93 71.64 84.33 74.1 88.5C75.26 90.47 78.17 88.93 77.6 86.86C76.96 84.51 76.33 82.18 75.57 79.85C74.69 77.23 73.43 75.27 71.46 73.36C70.08 72.01 67.94 73.57 68.44 75.3L68.42 75.29Z" fill="#71964C" fill-opacity="1.000000" fill-rule="nonzero"/>
		<path id="Vector" d="M64.26 70.88C63.29 70.6 62.17 71.39 62 72.34C61.72 73.92 62.5 75.12 63.8 75.95C65.09 76.77 66.93 75.48 66.77 74.02C66.6 72.47 65.79 71.3 64.25 70.86L64.26 70.88Z" fill="#71964C" fill-opacity="1.000000" fill-rule="nonzero"/>
		<path id="Vector" d="M46.15 91.51C43.96 91.47 44.01 94.55 45.87 95.11C47.22 95.52 48.72 95.86 49.93 94.92C51 94.1 50.91 92.74 49.8 92.01C48.69 91.29 47.38 91.56 46.14 91.54L46.15 91.51Z" fill="#71964C" fill-opacity="1.000000" fill-rule="nonzero"/>
		<path id="Vector" d="M51.95 76.55C52.61 78.37 53.49 80.54 54.79 81.96C55.47 82.71 56.97 82.44 57.35 81.5C58.32 79.15 56.72 77.37 55.91 75.27C54.95 72.79 51.03 73.99 51.95 76.54L51.95 76.55Z" fill="#71964C" fill-opacity="1.000000" fill-rule="nonzero"/>
		<path id="Vector" d="M35.01 81.71C33.95 81.38 32.81 81.4 31.73 81.6C30.24 81.84 29.82 84.1 31.52 84.39C32.96 84.66 34.41 85.91 35.81 84.98C36.25 84.69 36.59 84.14 36.53 83.59C36.51 83.54 36.51 83.48 36.51 83.42C36.4 82.52 35.89 81.96 35.05 81.7L35.01 81.71Z" fill="#71964C" fill-opacity="1.000000" fill-rule="nonzero"/>
		<path id="Vector" d="M37.82 75.53C38.59 76.54 39.42 77.88 40.75 78.12C41.61 78.28 42.55 77.43 42.19 76.53C41.73 75.38 40.6 74.79 39.72 73.94C38.73 72.99 36.98 74.38 37.84 75.52L37.82 75.53Z" fill="#71964C" fill-opacity="1.000000" fill-rule="nonzero"/>
		<path id="Vector" d="M27.53 73.96C26.03 73.25 24.91 75.42 26.35 76.24C27.17 76.7 27.8 77.06 28.76 76.98C29.51 76.91 29.92 76.11 29.53 75.49C29.03 74.66 28.39 74.37 27.53 73.96Z" fill="#71964C" fill-opacity="1.000000" fill-rule="nonzero"/>
	</g>
</svg>
