<svg width="195.061768" height="197.699463" viewBox="0 0 195.062 197.699" fill="none" xmlns="http://www.w3.org/2000/svg" xmlns:xlink="http://www.w3.org/1999/xlink">
	<desc>
			Created with Pixso.
	</desc>
	<defs>
		<clipPath id="clip350_2000">
			<rect id="green leaf element" width="144.080109" height="149.786255" transform="translate(0.000000 62.982178) rotate(-25.921133)" fill="white" fill-opacity="0"/>
		</clipPath>
	</defs>
	<g opacity="0.500000">
		<rect id="green leaf element" width="144.080109" height="149.786255" transform="translate(0.000000 62.982178) rotate(-25.921133)" fill="#FFFFFF" fill-opacity="0"/>
		<g clip-path="url(#clip350_2000)">
			<path id="Vector" d="M128.18 0.73C124.76 4.16 122.15 8.04 118.38 11.17C114.54 14.36 110.36 17.11 106.25 19.95C98.94 25 92.59 31.29 86.94 38.13C81.14 45.17 76.28 52.98 71.67 60.84C66.93 68.93 62.65 77.2 59.44 86.02C53.17 103.27 51.45 122.75 56.12 140.59C58.46 149.48 62.82 157.68 65.49 166.45C67.02 171.47 69.21 179.34 67.54 184.88C66.78 186.05 66.15 187.29 65.67 188.59C65.22 189.81 67.12 190.47 67.57 189.25C71.31 179.32 81.67 177.06 90.16 172.95C98.39 168.95 105.29 162.55 111.51 155.93C124.83 141.76 134.77 125.72 140.92 107.24C146.94 89.14 148.72 70.05 146.21 51.16C145.01 42.2 142.65 33.58 138.55 25.51C134.57 17.66 134.66 8.22 129.75 0.84C129.44 0.36 128.57 0.34 128.18 0.73Z" fill="#AEBFAC" fill-opacity="1.000000" fill-rule="nonzero"/>
			<path id="Vector" d="M137.88 32.93C133.91 25.08 134 15.64 129.09 8.27C128.77 7.78 127.91 7.76 127.52 8.15C124.09 11.59 121.49 15.46 117.72 18.59C113.87 21.78 109.7 24.53 105.59 27.37C98.28 32.42 91.93 38.71 86.28 45.55C80.47 52.59 75.62 60.4 71 68.26C66.26 76.35 61.99 84.62 58.77 93.44C52.51 110.69 50.79 130.17 55.46 148.02C57.79 156.9 62.16 165.1 64.83 173.87C66.36 178.89 68.55 186.76 66.88 192.31C66.12 193.47 65.48 194.71 65.01 196.01C64.56 197.23 66.46 197.89 66.91 196.67C70.65 186.74 81.01 184.48 89.49 180.37C97.73 176.37 104.63 169.97 110.85 163.35C124.16 149.18 134.11 133.14 140.26 114.66C146.27 96.56 148.06 77.47 145.54 58.58C144.35 49.62 141.99 41.01 137.88 32.93ZM136.65 118.68C130.04 136.86 118.88 152.38 105.25 165.96C98.62 172.58 91 178.15 82.07 181.19C78.37 182.45 74.61 184.46 71.48 187.14C73.7 181.47 75.92 175.85 78.02 170.16C91.73 168.31 105.21 159.03 113.27 148.04C113.62 147.57 112.92 146.93 112.5 147.35C107.78 152.04 103.31 156.71 97.84 160.57C91.93 164.75 85.36 167.45 78.39 169.16C80.59 163.16 82.63 157.09 84.31 150.84C84.53 150.02 84.78 149.21 85.02 148.39C99.85 144.9 113.87 136.07 124.39 125.17C124.9 124.63 124.2 123.77 123.64 124.28C112.09 134.46 100.04 142.59 85.33 147.34C87.02 141.59 89.02 135.94 91.19 130.35C94.4 128.91 97.68 127.94 101.06 126.89C104.99 125.67 108.68 123.42 112.23 121.38C119.86 117.01 127.17 111.5 131.85 103.94C132.27 103.25 131.29 102.57 130.81 103.23C124.91 111.26 116.96 117.05 108.33 121.87C104.6 123.96 100.97 125.51 96.89 126.77C95.3 127.26 93.38 127.75 91.85 128.65C93.95 123.29 96.21 117.97 98.46 112.66C105.2 111.05 111.75 107.65 117.56 104.08C123.86 100.22 129.75 95.3 133.36 88.76C133.68 88.19 132.86 87.6 132.5 88.17C124.79 100.32 111.66 106.33 98.88 111.68C99.27 110.76 99.65 109.85 100.04 108.93C101.77 104.85 103.41 100.73 104.97 96.57C105 96.72 105.12 96.86 105.33 96.83C110.5 96.32 115.47 91.62 119.31 88.49C125.29 83.64 130.71 78.06 136.07 72.53C136.49 72.1 135.91 71.38 135.44 71.81C130.74 76.08 126.36 80.69 121.67 84.98C117.28 89.01 111.25 95.09 105.21 96.24C105.14 96.26 105.1 96.29 105.07 96.33C107.39 90.18 109.53 83.96 111.5 77.68C114.77 76.6 117.73 73.75 120.36 71.77C124.44 68.69 128.12 65.19 131.24 61.12C131.62 60.62 130.85 60.13 130.45 60.58C127.71 63.74 124.79 66.67 121.6 69.38C118.84 71.74 115.29 75.13 111.76 76.83C112.91 73.18 114 69.51 115.04 65.84C115.44 64.43 115.83 63.01 116.21 61.6C116.26 61.83 116.46 62.01 116.72 61.87C123.51 58.29 133.65 53.82 136.08 45.81C136.24 45.28 135.48 45.03 135.27 45.53C131.97 53.21 123.2 57.21 116.37 61.18C116.33 61.2 116.31 61.25 116.29 61.28C117.41 57.11 118.49 52.94 119.6 48.76C124 46.62 129 43.45 130.83 38.77C130.99 38.37 130.35 38.03 130.15 38.43C127.88 42.84 123.71 44.87 119.9 47.61C121.03 43.37 122.21 39.15 123.53 34.97C126.46 34.19 128.59 31.97 130.94 30.18C131.28 29.91 130.9 29.32 130.52 29.54C128.16 30.88 126.37 33.04 123.81 34.05C125.01 30.29 126.33 26.55 127.85 22.88C128.02 22.47 127.39 22.26 127.22 22.66C125.13 27.24 123.41 31.94 121.86 36.71C121.77 33.42 121.09 30.03 120.91 26.79C120.89 26.31 120.22 26.25 120.18 26.74C119.74 30.66 120.28 35.13 121.12 38.98C119.82 43.14 118.64 47.32 117.48 51.54C116.61 45.79 114.57 40.43 115.13 34.4C115.18 33.85 114.39 33.83 114.29 34.35C113.04 40.74 115.35 47.22 116.97 53.39C115.88 57.37 114.79 61.36 113.61 65.31C113.38 66.09 113.15 66.85 112.9 67.63C109.8 60.19 107.98 52.55 109.28 44.41C109.35 43.93 108.55 43.76 108.44 44.24C106.45 52.41 108.54 61.52 112.54 68.83C111.01 73.8 109.36 78.74 107.61 83.65C105.53 73.26 102.33 63.47 104.12 52.62C104.21 52.04 103.24 51.83 103.1 52.41C100.42 63.6 104.07 74.7 106.94 85.5C104.16 93.15 101.15 100.72 97.9 108.16C96.45 111.47 95.01 114.77 93.59 118.09C88.92 111.58 85.29 105.37 83.03 97.59C80.95 90.42 80.19 82.93 79.87 75.49C79.84 74.7 78.65 74.59 78.62 75.41C78.38 83.4 79.52 91.35 81.81 99C83.91 106.04 87.37 113.9 93.03 118.82C93.1 118.88 93.16 118.9 93.24 118.92C91.13 123.82 89.09 128.75 87.22 133.73C86.38 131.22 84.82 128.96 83.42 126.73C81.26 123.28 79.44 119.69 77.85 115.93C74.56 108.16 73.87 100.17 75.03 91.87C75.13 91.17 73.98 90.93 73.82 91.62C71.99 99.09 72.74 106.38 75.21 113.61C77.92 121.51 83.33 127.68 86.71 135.14C84.93 140 83.29 144.91 81.92 149.95C81.73 150.65 81.51 151.35 81.31 152.05C80.31 149.92 79 147.93 77.72 145.93C75.27 142.09 73.54 138.01 72.28 133.63C69.96 125.57 69.82 117.14 69.54 108.83C69.51 108.08 68.37 107.96 68.34 108.75C67.87 116.78 68.46 124.91 70.44 132.72C71.39 136.41 72.79 140.01 74.59 143.37C76.48 146.86 78.95 149.97 80.9 153.43C79.38 158.56 77.65 163.58 75.84 168.6C72.37 165.3 70.9 159.09 68.87 154.92C66.01 149.03 63.78 143.09 63.52 136.47C63.5 135.78 62.51 135.69 62.44 136.4C61.69 143.3 64.26 149.63 67.3 155.69C68.84 158.77 70.25 161.88 71.73 165C72.6 166.84 73.73 168.61 75.5 169.58C73.23 175.85 70.91 182.1 68.87 188.48C69.02 185.22 68.36 181.77 67.87 178.89C66.57 171.28 63.41 164.2 60.62 157.04C53.16 137.88 53.37 117.22 59.45 97.72C64.94 80.11 75.2 63.08 86.47 48.56C92.32 41.02 99.23 34.45 107.02 28.94C111.1 26.05 115.27 23.34 119.18 20.22C122.72 17.41 125.11 13.95 128.09 10.72C132.24 17.7 132.17 26.57 136 33.79C140.36 42 142.46 50.98 143.67 60.13C146.32 79.92 143.47 99.92 136.67 118.62L136.65 118.68Z" fill="#90B87E" fill-opacity="1.000000" fill-rule="nonzero"/>
			<path id="Vector" d="M143.64 60.2C142.42 51.05 140.33 42.07 135.97 33.86C132.14 26.63 132.21 17.77 128.06 10.79C125.07 14.02 122.69 17.48 119.15 20.29C115.23 23.41 111.07 26.12 106.98 29.01C99.2 34.52 92.29 41.09 86.44 48.63C75.18 63.16 64.91 80.18 59.42 97.8C53.33 117.3 53.13 137.97 60.58 157.11C63.37 164.26 66.53 171.35 67.84 178.97C68.33 181.84 68.98 185.29 68.84 188.55C70.88 182.18 73.2 175.93 75.46 169.65C73.68 168.69 72.56 166.91 71.7 165.07C70.22 161.96 68.81 158.85 67.26 155.76C64.24 149.7 61.66 143.37 62.4 136.47C62.48 135.76 63.47 135.85 63.49 136.54C63.74 143.17 65.98 149.09 68.84 154.99C70.86 159.16 72.33 165.37 75.81 168.67C77.62 163.65 79.35 158.63 80.87 153.5C78.92 150.04 76.45 146.93 74.56 143.44C72.75 140.08 71.35 136.48 70.41 132.79C68.41 124.98 67.84 116.85 68.3 108.82C68.35 108.03 69.48 108.14 69.5 108.9C69.79 117.21 69.92 125.64 72.25 133.7C73.51 138.08 75.23 142.17 77.68 146C78.96 147.99 80.27 149.99 81.28 152.12C81.48 151.42 81.69 150.72 81.89 150.02C83.26 144.98 84.89 140.07 86.68 135.21C83.31 127.75 77.89 121.57 75.17 113.68C72.69 106.46 71.95 99.15 73.79 91.69C73.95 91 75.11 91.24 75 91.94C73.83 100.24 74.53 108.23 77.82 116C79.41 119.76 81.23 123.35 83.39 126.8C84.79 129.03 86.34 131.29 87.18 133.8C89.06 128.82 91.1 123.89 93.2 118.99C93.13 118.98 93.06 118.95 92.99 118.89C87.33 113.97 83.87 106.11 81.78 99.07C79.5 91.41 78.36 83.47 78.58 75.48C78.62 74.66 79.8 74.77 79.84 75.56C80.17 82.99 80.92 90.49 83 97.66C85.26 105.43 88.89 111.64 93.55 118.16C94.97 114.84 96.43 111.54 97.87 108.23C101.11 100.79 104.13 93.22 106.91 85.57C104.03 74.77 100.37 63.68 103.07 52.48C103.2 51.9 104.19 52.1 104.09 52.69C102.29 63.54 105.5 73.33 107.57 83.72C109.32 78.81 110.97 73.86 112.5 68.9C108.51 61.59 106.42 52.48 108.4 44.31C108.52 43.83 109.32 44 109.24 44.48C107.95 52.61 109.78 60.26 112.87 67.7C113.1 66.93 113.35 66.16 113.58 65.39C114.75 61.43 115.85 57.46 116.93 53.47C115.31 47.29 113 40.8 114.26 34.42C114.36 33.91 115.15 33.92 115.09 34.47C114.54 40.5 116.58 45.86 117.45 51.61C118.61 47.4 119.79 43.21 121.09 39.05C120.25 35.2 119.71 30.73 120.14 26.81C120.2 26.32 120.86 26.39 120.88 26.86C121.05 30.1 121.74 33.49 121.83 36.78C123.38 32.01 125.1 27.31 127.18 22.73C127.36 22.34 127.98 22.54 127.82 22.95C126.3 26.62 124.98 30.35 123.77 34.12C126.32 33.11 128.11 30.95 130.49 29.61C130.87 29.4 131.25 29.98 130.91 30.25C128.56 32.04 126.43 34.26 123.49 35.04C122.17 39.22 121 43.45 119.87 47.69C123.67 44.94 127.84 42.9 130.12 38.5C130.32 38.1 130.96 38.44 130.8 38.84C128.96 43.51 123.96 46.68 119.56 48.83C118.46 53.01 117.39 57.18 116.26 61.35C116.28 61.32 116.29 61.27 116.34 61.25C123.15 57.27 131.94 53.28 135.23 45.6C135.45 45.1 136.2 45.34 136.05 45.88C133.61 53.89 123.48 58.37 116.69 61.94C116.42 62.07 116.23 61.89 116.18 61.67C115.8 63.09 115.42 64.5 115.01 65.91C113.96 69.58 112.87 73.25 111.73 76.9C115.26 75.2 118.81 71.81 121.57 69.45C124.75 66.74 127.68 63.81 130.41 60.65C130.8 60.2 131.57 60.7 131.2 61.19C128.08 65.25 124.42 68.76 120.33 71.84C117.7 73.82 114.74 76.68 111.47 77.75C109.49 84.03 107.34 90.25 105.04 96.4C105.07 96.37 105.11 96.33 105.18 96.31C111.21 95.16 117.24 89.08 121.64 85.05C126.32 80.76 130.71 76.15 135.41 71.88C135.88 71.45 136.46 72.17 136.03 72.6C130.68 78.14 125.26 83.71 119.28 88.56C115.44 91.68 110.46 96.39 105.29 96.9C105.1 96.92 104.97 96.79 104.94 96.64C103.37 100.8 101.74 104.92 100.01 109C99.62 109.92 99.23 110.83 98.84 111.75C111.61 106.41 124.76 100.39 132.47 88.24C132.84 87.66 133.65 88.24 133.33 88.83C129.72 95.37 123.83 100.29 117.53 104.15C111.71 107.72 105.16 111.11 98.43 112.73C96.18 118.05 93.93 123.35 91.81 128.72C93.34 127.82 95.27 127.33 96.86 126.84C100.93 125.58 104.57 124.03 108.3 121.94C116.93 117.11 124.87 111.32 130.78 103.3C131.26 102.64 132.23 103.32 131.81 104.01C127.13 111.58 119.82 117.09 112.2 121.45C108.65 123.49 104.96 125.74 101.03 126.97C97.64 128.01 94.36 129 91.15 130.42C88.99 136.01 87 141.65 85.3 147.41C100 142.66 112.06 134.53 123.6 124.35C124.18 123.84 124.88 124.7 124.36 125.24C113.84 136.15 99.82 144.97 84.99 148.46C84.75 149.28 84.49 150.09 84.27 150.91C82.59 157.15 80.55 163.22 78.35 169.23C85.33 167.52 91.9 164.82 97.81 160.64C103.27 156.78 107.75 152.11 112.47 147.42C112.88 147 113.58 147.63 113.24 148.11C105.17 159.1 91.7 168.38 77.99 170.23C75.89 175.9 73.66 181.53 71.44 187.21C74.58 184.54 78.34 182.52 82.04 181.26C90.96 178.22 98.58 172.65 105.22 166.03C118.83 152.45 129.99 136.93 136.61 118.75C143.42 100.06 146.26 80.06 143.62 60.26L143.64 60.2ZM92.67 87.25C93.68 91.3 95.08 94.83 96.97 98.53C98.05 100.64 99.06 102.73 99.01 105.16C99 105.54 98.38 105.59 98.34 105.2C98.02 101.56 95.51 98.57 93.98 95.37C92.44 92.14 91.53 88.49 90.81 85C89.18 76.91 88.84 68.69 89.92 60.51C89.99 59.89 90.94 59.95 90.89 60.57C90.2 69.47 90.49 78.54 92.65 87.25L92.67 87.25Z" fill="#4D7C43" fill-opacity="1.000000" fill-rule="nonzero"/>
			<path id="Vector" d="M89.92 60.5C88.84 68.67 89.19 76.9 90.82 84.98C91.52 88.48 92.44 92.12 93.98 95.35C95.51 98.56 98.02 101.55 98.34 105.19C98.38 105.57 99 105.52 99.01 105.15C99.07 102.73 98.06 100.63 96.98 98.51C95.09 94.82 93.68 91.27 92.67 87.23C90.51 78.52 90.22 69.45 90.9 60.55C90.95 59.92 90.02 59.87 89.93 60.49L89.92 60.5Z" fill="#90B87E" fill-opacity="1.000000" fill-rule="nonzero"/>
			<path id="Vector" d="M109.12 140.39C101.97 142.43 96.75 149.17 89.53 151.09C87.44 151.64 88.06 154.56 90.18 154.34C93.77 153.98 97.16 152.27 100.46 150.91C104.36 149.31 108.71 147.22 111.5 144.01C112.84 142.48 111 139.84 109.11 140.38L109.12 140.39Z" fill="#71964C" fill-opacity="1.000000" fill-rule="nonzero"/>
			<path id="Vector" d="M117.5 140.13C117.18 140.53 116.78 140.83 116.39 141.14C115.7 141.68 115.37 142.22 115.27 143.1C115.16 143.9 115.92 144.77 116.74 144.76C117.71 144.76 118.29 144.41 118.98 143.77C119.5 143.27 120 142.71 120.4 142.12C121.65 140.21 118.92 138.39 117.52 140.14L117.5 140.13Z" fill="#71964C" fill-opacity="1.000000" fill-rule="nonzero"/>
			<path id="Vector" d="M122.78 132.66C122.52 133.11 122.15 133.42 122 133.96C121.83 134.61 122.21 135.53 123.02 135.49C124.11 135.43 124.71 134.82 125.02 133.8C125.44 132.47 123.5 131.37 122.77 132.66L122.78 132.66Z" fill="#71964C" fill-opacity="1.000000" fill-rule="nonzero"/>
			<path id="Vector" d="M66.33 127.33C66.23 125.85 66.01 124.09 65.02 122.92C64.16 121.9 62.62 122.55 62.47 123.77C62.31 125.12 62.37 126.55 62.24 127.93C62.08 129.64 61.83 131.33 63.03 132.73C64.02 133.87 65.79 133.46 66.31 132.11C66.88 130.62 66.43 128.88 66.33 127.32L66.33 127.33Z" fill="#71964C" fill-opacity="1.000000" fill-rule="nonzero"/>
			<path id="Vector" d="M76.42 149.82C75.79 147.19 74.05 145.09 72.64 142.83C71 140.18 69.51 137.5 69.01 134.39C68.72 132.55 65.65 132.7 65.73 134.6C65.84 137.71 66.73 140.54 67.96 143.37C69.16 146.14 70.71 149.45 72.97 151.5C74.31 152.73 76.93 151.97 76.42 149.82Z" fill="#71964C" fill-opacity="1.000000" fill-rule="nonzero"/>
			<path id="Vector" d="M76.56 157.76C76.31 156.74 75.85 155.77 75.42 154.83C75.01 153.94 73.9 153.59 73.05 154C72.13 154.45 71.86 155.49 72.23 156.38C72.57 157.21 72.81 158.08 73.16 158.91C73.46 159.62 74.39 160.1 75.14 159.89C75.28 159.85 75.43 159.81 75.58 159.75C76.3 159.45 76.75 158.52 76.57 157.77L76.56 157.76Z" fill="#71964C" fill-opacity="1.000000" fill-rule="nonzero"/>
			<path id="Vector" d="M70.38 166.4C70.2 164.89 69.2 163.58 68.45 162.29C67.58 160.81 66.74 159.3 66.02 157.73C65.44 156.48 63.71 157.4 64.15 158.64C64.67 160.12 65.3 161.56 65.94 162.99C66.61 164.46 67.14 166.23 68.26 167.42C69.12 168.34 70.51 167.6 70.37 166.39L70.38 166.4Z" fill="#71964C" fill-opacity="1.000000" fill-rule="nonzero"/>
			<path id="Vector" d="M96.16 166.31C93.3 167.24 90.58 168.58 87.85 169.87C85.33 171.07 83.01 173.04 80.16 173.34C78.56 173.51 78.74 176.18 80.35 176.16C83.15 176.12 85.54 174.85 88.06 173.74C91.3 172.3 94.93 171.67 97.49 169.03C98.45 168.04 97.81 165.76 96.16 166.3L96.16 166.31Z" fill="#71964C" fill-opacity="1.000000" fill-rule="nonzero"/>
			<path id="Vector" d="M101.19 163.25C101.02 163.24 100.88 163.25 100.72 163.24C99.81 163.24 99.09 164.14 99.52 165.03C99.96 165.91 101.1 165.91 101.67 165.19C101.76 165.06 101.86 164.94 101.95 164.82C102.41 164.23 101.93 163.25 101.19 163.25Z" fill="#71964C" fill-opacity="1.000000" fill-rule="nonzero"/>
			<path id="Vector" d="M80.04 132.16C79.37 129.38 77.72 126.81 76.47 124.24C75.05 121.32 74.02 118.28 73.58 115.06C73.37 113.58 70.87 113.71 70.93 115.24C71.18 121.22 73.15 128.92 77.09 133.58C78.17 134.84 80.43 133.83 80.03 132.15L80.04 132.16Z" fill="#71964C" fill-opacity="1.000000" fill-rule="nonzero"/>
			<path id="Vector" d="M78.17 138.26C77.33 136.82 75.15 137.85 75.83 139.4C76.31 140.52 76.8 141.74 77.86 142.43C78.56 142.88 79.46 142.43 79.54 141.61C79.66 140.28 78.8 139.34 78.18 138.26L78.17 138.26Z" fill="#71964C" fill-opacity="1.000000" fill-rule="nonzero"/>
			<path id="Vector" d="M101.63 129.21C100.91 129.32 100.19 129.44 99.47 129.59C98.74 129.72 98.04 130.27 97.4 130.62C96.07 131.35 94.75 132.07 93.42 132.77C91.37 133.84 92.87 136.84 94.97 135.97C96.36 135.38 97.74 134.78 99.12 134.17C99.79 133.87 100.66 133.63 101.21 133.15C101.76 132.67 102.29 132.18 102.84 131.71C103.94 130.74 103.04 129.02 101.64 129.24L101.63 129.21Z" fill="#71964C" fill-opacity="1.000000" fill-rule="nonzero"/>
			<path id="Vector" d="M123.92 117.95C120.81 119.63 118.23 121.93 115.51 124.18C112.67 126.54 109.66 128.63 106.66 130.77C105.94 131.28 106.57 132.56 107.41 132.31C114.08 130.45 120.81 125.44 125.69 120.64C126.96 119.4 125.62 117.01 123.92 117.93L123.92 117.95Z" fill="#71964C" fill-opacity="1.000000" fill-rule="nonzero"/>
			<path id="Vector" d="M77.83 87.41C77.5 86.15 75.67 86.51 75.86 87.8C76.02 88.97 75.87 90.23 76.24 91.35C76.53 92.21 77.88 92.55 78.19 91.49C78.56 90.15 78.19 88.74 77.84 87.42L77.83 87.41Z" fill="#71964C" fill-opacity="1.000000" fill-rule="nonzero"/>
			<path id="Vector" d="M83.01 113.56C82.62 111.3 81.38 109.24 80.49 107.15C79.4 104.57 78.71 101.82 78.11 99.09C77.85 97.89 75.8 97.93 75.89 99.24C76.19 104.12 76.46 111.27 80.17 114.94C81.31 116.06 83.31 115.25 83 113.57L83.01 113.56Z" fill="#71964C" fill-opacity="1.000000" fill-rule="nonzero"/>
			<path id="Vector" d="M86.97 118.43C86.79 117.93 86.39 117.42 86.14 116.94C85.46 115.65 83.32 116.28 83.69 117.76C83.96 118.87 84.15 120.46 85.43 120.82C85.93 120.96 86.63 120.85 86.9 120.34C87.27 119.62 87.25 119.18 86.98 118.43L86.97 118.43Z" fill="#71964C" fill-opacity="1.000000" fill-rule="nonzero"/>
			<path id="Vector" d="M92.31 99.7C91.26 93.73 88.46 88.37 87.92 82.24C87.81 80.99 85.77 81.15 85.75 82.39C85.69 88.41 86.67 95.31 89.85 100.53C90.6 101.76 92.57 101.23 92.3 99.7L92.31 99.7Z" fill="#71964C" fill-opacity="1.000000" fill-rule="nonzero"/>
			<path id="Vector" d="M92.32 107.83C92.02 106.74 91.41 105.88 90.78 104.94C89.99 103.77 88 105.09 88.72 106.29C89.31 107.28 89.76 108.2 90.63 108.95C91.37 109.57 92.58 108.72 92.33 107.83L92.32 107.83Z" fill="#71964C" fill-opacity="1.000000" fill-rule="nonzero"/>
			<path id="Vector" d="M116.26 107.69C113.5 108.62 111.11 110.23 108.46 111.45C105.84 112.66 103.17 113.73 100.56 114.94C99.21 115.57 99.96 117.57 101.36 117.34C107.09 116.4 114.49 114.82 118.27 110.04C119.37 108.64 117.59 107.23 116.25 107.69L116.26 107.69Z" fill="#71964C" fill-opacity="1.000000" fill-rule="nonzero"/>
			<path id="Vector" d="M123.55 105.97C123.04 106.14 122.54 106.28 122.1 106.6C121.64 106.93 121.17 107.27 120.7 107.59C119.25 108.56 120.91 111.07 122.37 110.14C123.34 109.52 124.25 108.99 124.92 108.04C125.53 107.16 124.72 105.59 123.56 105.97L123.55 105.97Z" fill="#71964C" fill-opacity="1.000000" fill-rule="nonzero"/>
			<path id="Vector" d="M125.42 89.74C119.43 92.98 114.48 97.82 108.37 100.99C107.39 101.5 107.87 103.21 109.01 102.88C115.78 101 122.85 97.58 127.51 92.18C128.61 90.89 126.81 88.99 125.42 89.74Z" fill="#71964C" fill-opacity="1.000000" fill-rule="nonzero"/>
			<path id="Vector" d="M130.68 82.47C129.48 83.04 128.58 83.99 127.37 84.56C125.36 85.51 126.86 88.57 128.88 87.66C129.62 87.32 130.31 86.89 130.97 86.43C131.32 86.2 131.64 85.94 131.93 85.66C132.33 85.3 132.52 84.78 132.73 84.3C133.27 83.06 131.78 81.96 130.69 82.48L130.68 82.47Z" fill="#71964C" fill-opacity="1.000000" fill-rule="nonzero"/>
			<path id="Vector" d="M99.93 82.32C99.88 79.52 98.87 76.83 98.47 74.05C97.98 70.79 98.07 67.46 98.22 64.17C98.29 62.58 96.02 62.48 95.79 64.01C94.93 69.77 93.55 78.16 97.17 83.25C97.96 84.35 99.95 83.66 99.92 82.33L99.93 82.32Z" fill="#71964C" fill-opacity="1.000000" fill-rule="nonzero"/>
			<path id="Vector" d="M104.8 84.88C104.92 83.88 104.6 83.05 104.39 82.09C104.19 81.17 104.02 80.27 103.78 79.37C103.36 77.71 100.91 78.18 101.17 79.88C101.45 81.72 101.2 84.2 102.51 85.64C103.31 86.52 104.64 86.01 104.8 84.88Z" fill="#71964C" fill-opacity="1.000000" fill-rule="nonzero"/>
			<path id="Vector" d="M99.45 90.05C98.79 88.79 96.52 89.42 97 90.87C97.26 91.67 97.38 92.49 98.14 92.95C98.8 93.35 99.61 93.11 99.89 92.38C100.21 91.52 99.84 90.79 99.44 90.04L99.45 90.05Z" fill="#71964C" fill-opacity="1.000000" fill-rule="nonzero"/>
			<path id="Vector" d="M125.63 73.22C123.45 74.9 121.37 76.61 119.32 78.45C117.67 79.95 115.9 82.13 113.67 82.76C112.53 83.08 112.63 84.64 113.81 84.81C116.27 85.17 118.21 83.47 120.12 82.15C123.11 80.1 125.84 78.3 127.77 75.15C128.64 73.72 126.94 72.22 125.63 73.22Z" fill="#71964C" fill-opacity="1.000000" fill-rule="nonzero"/>
			<path id="Vector" d="M108.35 66.91C108.48 66.1 108.23 65.36 108.08 64.57C107.91 63.69 107.78 62.81 107.66 61.93C107.45 60.4 105.2 60.9 105.33 62.4C105.47 64.05 105.44 66.19 106.47 67.55C107.09 68.38 108.21 67.77 108.34 66.93L108.35 66.91Z" fill="#71964C" fill-opacity="1.000000" fill-rule="nonzero"/>
			<path id="Vector" d="M114.28 49.28C114.07 48.48 113.88 47.68 113.75 46.85C113.6 45.97 113.83 45.12 113.63 44.24C113.3 42.73 111.49 42.51 110.58 43.61C109.51 44.91 109.84 47.03 110.05 48.58C110.3 50.46 110.7 52.48 111.67 54.12C112.31 55.17 114.35 55.48 114.68 53.94C115.02 52.28 114.72 50.89 114.28 49.28Z" fill="#71964C" fill-opacity="1.000000" fill-rule="nonzero"/>
			<path id="Vector" d="M131.43 45.97C128.48 47.27 125.75 48.97 123.22 50.99C122.02 51.95 123.32 53.73 124.64 53.16C126.13 52.51 127.62 51.87 129.09 51.14C130.74 50.31 131.92 49.29 133 47.81C133.76 46.76 132.52 45.5 131.42 45.99L131.43 45.97Z" fill="#71964C" fill-opacity="1.000000" fill-rule="nonzero"/>
			<path id="Vector" d="M133.95 42.8C134.05 42.13 133.41 41.47 132.77 41.44C131.7 41.41 130.98 42.04 130.55 42.98C130.13 43.91 131.16 45.01 132.11 44.76C133.12 44.5 133.82 43.85 133.96 42.79L133.95 42.8Z" fill="#71964C" fill-opacity="1.000000" fill-rule="nonzero"/>
			<path id="Vector" d="M118.57 32.77C118.39 31.32 116.35 31.64 116.16 32.93C116.01 33.86 115.93 34.89 116.67 35.6C117.32 36.23 118.21 36.04 118.59 35.23C118.95 34.43 118.65 33.59 118.55 32.76L118.57 32.77Z" fill="#71964C" fill-opacity="1.000000" fill-rule="nonzero"/>
			<path id="Vector" d="M129.03 35.19C127.89 35.8 126.53 36.59 125.72 37.58C125.28 38.11 125.6 39.07 126.26 39.24C127.91 39.65 128.94 38.42 130.25 37.69C131.8 36.82 130.64 34.34 129.04 35.18L129.03 35.19Z" fill="#71964C" fill-opacity="1.000000" fill-rule="nonzero"/>
			<path id="Vector" d="M124 24.46C124.12 23.73 124 22.98 123.76 22.28C123.46 21.32 121.93 21.25 121.89 22.4C121.85 23.38 121.16 24.46 121.91 25.3C122.15 25.57 122.54 25.74 122.9 25.65C122.93 25.63 122.97 25.63 123.01 25.62C123.59 25.46 123.92 25.07 124.01 24.48L124 24.46Z" fill="#71964C" fill-opacity="1.000000" fill-rule="nonzero"/>
			<path id="Vector" d="M128.36 25.74C127.76 26.34 126.96 27.01 126.93 27.92C126.9 28.5 127.55 29.05 128.11 28.72C128.83 28.31 129.12 27.51 129.59 26.84C130.13 26.09 129.04 25.07 128.37 25.75L128.36 25.74Z" fill="#71964C" fill-opacity="1.000000" fill-rule="nonzero"/>
			<path id="Vector" d="M128.42 18.77C128.74 17.71 127.2 17.17 126.8 18.21C126.57 18.79 126.4 19.24 126.54 19.87C126.65 20.36 127.22 20.56 127.6 20.24C128.1 19.83 128.23 19.38 128.42 18.77Z" fill="#71964C" fill-opacity="1.000000" fill-rule="nonzero"/>
		</g>
	</g>
</svg>
