<svg width="219.682129" height="213.172241" viewBox="0 0 219.682 213.172" fill="none" xmlns="http://www.w3.org/2000/svg" xmlns:xlink="http://www.w3.org/1999/xlink">
	<desc>
			Created with Pixso.
	</desc>
	<defs>
		<clipPath id="clip350_1824">
			<rect id="green leaf element" width="202.627853" height="209.615540" transform="translate(10.345459 213.172241) rotate(-92.926567)" fill="white" fill-opacity="0"/>
		</clipPath>
	</defs>
	<g opacity="0.500000">
		<rect id="green leaf element" width="202.627853" height="209.615540" transform="translate(10.345459 213.172241) rotate(-92.926567)" fill="#FFFFFF" fill-opacity="0"/>
		<g clip-path="url(#clip350_1824)">
			<path id="Vector" d="M0.18 12.98C2.74 19.28 6.31 24.76 8.29 31.35C10.31 38.05 11.57 44.95 12.98 51.8C15.5 64.01 20.14 75.64 25.88 86.68C31.79 98.03 39.21 108.57 46.83 118.82C54.68 129.37 63.01 139.42 72.64 148.39C91.47 165.92 115.67 178.81 141.27 182.54C154.01 184.39 166.98 183.25 179.77 184.61C187.08 185.37 198.44 186.85 204.68 192.04C205.77 193.66 207.03 195.17 208.44 196.49C209.77 197.74 211.66 195.64 210.33 194.4C199.56 184.14 202.31 169.53 201.65 156.32C200.99 143.5 196.51 131.09 191.37 119.45C180.38 94.51 165.12 72.89 144.62 54.83C124.56 37.16 100.89 24.41 75.14 17.32C62.92 13.95 50.5 12.29 37.83 13.16C25.53 14 13.39 8.72 1.19 11.02C0.39 11.16 -0.12 12.26 0.18 12.98Z" fill="#AEBFAC" fill-opacity="1.000000" fill-rule="nonzero"/>
			<path id="Vector" d="M47.05 18.08C34.75 18.91 22.61 13.63 10.4 15.93C9.61 16.08 9.1 17.18 9.39 17.9C11.95 24.2 15.53 29.68 17.51 36.26C19.52 42.97 20.78 49.87 22.19 56.72C24.72 68.93 29.36 80.56 35.1 91.6C41.01 102.95 48.43 113.48 56.04 123.74C63.89 134.29 72.23 144.34 81.86 153.31C100.68 170.84 124.89 183.72 150.48 187.46C163.23 189.31 176.19 188.17 188.98 189.52C196.29 190.29 207.66 191.77 213.9 196.96C214.99 198.58 216.24 200.08 217.66 201.41C218.99 202.66 220.88 200.56 219.55 199.32C208.78 189.05 211.53 174.44 210.87 161.24C210.21 148.42 205.73 136.01 200.59 124.37C189.59 99.42 174.33 77.81 153.84 59.75C133.78 42.08 110.11 29.32 84.36 22.23C72.13 18.87 59.72 17.2 47.05 18.08ZM157.06 66.61C176.91 85.1 190.82 107.99 200.9 133.02C205.81 145.2 208.83 158.08 207.87 171.27C207.46 176.73 208.01 182.69 209.74 188.2C203.65 182.24 197.61 176.29 191.42 170.46C196.53 151.75 191.93 129.28 182.16 112.86C181.75 112.15 180.53 112.7 180.84 113.47C184.31 122.13 187.89 130.46 189.88 139.62C192.05 149.54 191.93 159.5 190.32 169.44C183.78 163.31 177.07 157.36 169.92 151.77C168.98 151.04 168.07 150.27 167.14 149.51C170.75 128.46 167.03 105.53 158.72 85.98C158.31 85.03 156.82 85.46 157.16 86.47C163.98 106.95 167.88 126.95 165.96 148.53C159.46 143.2 153.26 137.53 147.24 131.68C147.14 126.74 147.68 121.98 148.18 117.04C148.75 111.3 147.87 105.3 147.18 99.61C145.71 87.36 142.6 74.91 135.4 64.74C134.74 63.82 133.33 64.71 133.91 65.69C141.05 77.71 144.18 91.13 145.68 104.91C146.32 110.86 146.34 116.41 145.74 122.36C145.5 124.67 145.08 127.42 145.41 129.9C139.64 124.24 134.01 118.42 128.39 112.6C129.99 103.03 129.19 92.72 127.77 83.25C126.23 73.01 123.11 62.71 116.64 54.48C116.07 53.76 114.87 54.48 115.4 55.26C126.87 71.87 127.43 92.11 127.34 111.53C126.37 110.52 125.41 109.53 124.44 108.52C120.11 104.05 115.69 99.69 111.18 95.4C111.39 95.44 111.64 95.36 111.71 95.08C113.88 88.13 110.53 79.14 108.6 72.46C105.61 62.09 101.37 52.04 97.17 42.1C96.84 41.32 95.6 41.67 95.9 42.51C98.84 50.92 102.38 59.1 105.36 67.5C108.15 75.37 112.7 86.48 110.88 94.9C110.87 95.01 110.89 95.07 110.93 95.14C104.25 88.78 97.39 82.61 90.38 76.63C90.76 71.81 88.71 66.44 87.59 61.96C85.85 55 83.34 48.34 79.79 42.09C79.36 41.33 78.31 42.05 78.67 42.81C81.25 48.07 83.43 53.45 85.19 59.05C86.72 63.9 89.15 70.34 89.41 75.82C85.33 72.35 81.19 68.92 77.02 65.57C75.42 64.29 73.8 63.01 72.2 61.74C72.51 61.81 72.86 61.66 72.82 61.23C71.91 50.51 71.7 34.98 62.69 27.46C62.1 26.96 61.36 27.8 61.88 28.35C70 36.81 70.35 50.32 71.73 61.31C71.74 61.37 71.79 61.42 71.83 61.47C67.06 57.74 62.26 54.06 57.48 50.35C57.13 43.49 55.77 35.31 50.73 30.38C50.3 29.96 49.52 30.59 49.92 31.07C54.37 36.42 54.71 42.92 56.16 49.33C51.31 45.55 46.5 41.72 41.82 37.73C42.43 33.52 40.72 29.54 39.7 25.54C39.55 24.95 38.56 25.12 38.65 25.73C39.08 29.51 40.9 33 40.79 36.86C36.59 33.25 32.49 29.51 28.58 25.53C28.15 25.09 27.54 25.79 27.95 26.22C32.72 31.42 37.85 36.23 43.16 40.83C38.86 39.14 34.11 38.18 29.83 36.62C29.21 36.4 28.75 37.22 29.37 37.55C34.19 40.25 40.25 42.01 45.68 43.02C50.34 46.98 55.09 50.8 59.9 54.59C52.01 52.58 43.97 52.27 36.49 48.26C35.81 47.88 35.35 48.9 35.97 49.31C43.54 54.43 53.16 54.99 62.02 56.28C66.55 59.87 71.11 63.45 75.57 67.13C76.44 67.86 77.3 68.58 78.17 69.32C66.87 69.25 56 67.42 46.21 61.29C45.63 60.92 44.98 61.88 45.53 62.28C54.99 69.32 67.89 71.6 79.51 70.44C85.09 75.14 90.57 79.98 95.94 84.92C81.4 81.92 67.01 80.69 53.99 72.44C53.28 72 52.49 73.15 53.16 73.64C66.13 83.23 82.46 84.59 97.97 86.8C106.32 94.57 114.44 102.6 122.27 110.87C125.75 114.55 129.22 118.22 132.72 121.86C121.77 124.32 111.76 125.62 100.49 124.27C90.1 123.03 80 119.92 70.24 116.25C69.19 115.86 68.4 117.34 69.45 117.83C79.62 122.51 90.51 125.38 101.64 126.62C111.87 127.76 123.92 127.61 133.36 122.99C133.47 122.94 133.54 122.86 133.6 122.77C138.78 128.17 144.02 133.5 149.42 138.65C145.72 138.36 141.95 139.13 138.31 139.71C132.67 140.62 127.05 141.01 121.33 141C109.49 140.99 98.8 137.51 88.72 131.46C87.88 130.96 86.94 132.3 87.74 132.89C96.38 139.34 106.2 142.37 116.88 143.14C128.56 143.97 139.49 140.35 150.97 140.07C156.26 145.04 161.71 149.84 167.46 154.36C168.26 155 169.04 155.66 169.84 156.3C166.54 156.43 163.26 157.03 159.98 157.59C153.68 158.65 147.46 158.64 141.13 157.88C129.44 156.46 118.49 152.03 107.61 147.84C106.62 147.47 105.85 148.87 106.85 149.35C116.96 154.34 127.77 158.03 138.93 159.75C144.22 160.55 149.64 160.72 154.95 160.22C160.49 159.7 165.86 158.21 171.4 157.58C177.19 162.35 182.72 167.34 188.21 172.42C182.04 175.09 173.23 173.6 166.74 173.93C157.56 174.4 148.68 174.02 139.99 170.73C139.09 170.39 138.43 171.61 139.31 172.1C147.8 176.83 157.39 176.99 166.86 176.38C171.68 176.08 176.47 175.95 181.31 175.76C184.16 175.65 187.07 175.15 189.28 173.4C196.13 179.76 202.93 186.18 210.06 192.3C205.93 190.33 201.11 189.28 197.13 188.34C186.59 185.86 175.73 186.06 164.96 185.74C136.14 184.89 109.58 173.3 87.75 154.78C68.03 138.05 51.66 115.49 39.08 93C32.56 81.32 27.85 68.8 25.01 55.74C23.52 48.89 22.29 42.02 20.41 35.26C18.71 29.16 15.55 24.18 13.03 18.56C24.3 17.03 35.72 21.97 47.13 20.97C60.11 19.85 72.86 22.06 85.33 25.5C112.32 32.91 136.58 47.53 156.99 66.55L157.06 66.61Z" fill="#90B87E" fill-opacity="1.000000" fill-rule="nonzero"/>
			<path id="Vector" d="M85.4 25.58C72.93 22.14 60.18 19.93 47.2 21.06C35.78 22.05 24.38 17.11 13.1 18.64C15.63 24.26 18.78 29.24 20.48 35.34C22.36 42.11 23.59 48.97 25.08 55.82C27.92 68.88 32.63 81.4 39.15 93.08C51.75 115.57 68.1 138.13 87.82 154.87C109.67 173.4 136.23 184.97 165.03 185.82C175.78 186.14 186.66 185.94 197.21 188.42C201.18 189.36 206 190.41 210.13 192.38C203.02 186.26 196.22 179.84 189.35 173.48C187.14 175.25 184.23 175.73 181.38 175.84C176.56 176.04 171.77 176.16 166.94 176.46C157.46 177.05 147.87 176.91 139.38 172.18C138.51 171.69 139.16 170.47 140.07 170.81C148.75 174.12 157.63 174.47 166.81 174.01C173.3 173.68 182.12 175.19 188.28 172.5C182.79 167.42 177.26 162.44 171.47 157.67C165.94 158.29 160.57 159.78 155.03 160.3C149.71 160.8 144.29 160.63 139.01 159.83C127.84 158.13 117.03 154.42 106.92 149.43C105.92 148.94 106.69 147.53 107.68 147.92C118.57 152.11 129.52 156.55 141.2 157.96C147.54 158.72 153.75 158.75 160.05 157.67C163.31 157.11 166.61 156.52 169.92 156.38C169.12 155.74 168.33 155.08 167.53 154.44C161.78 149.92 156.33 145.12 151.04 140.15C139.56 140.42 128.62 144.03 116.95 143.22C106.28 142.47 96.44 139.42 87.81 132.98C87.01 132.39 87.95 131.02 88.79 131.54C98.87 137.59 109.57 141.07 121.4 141.08C127.12 141.07 132.75 140.7 138.39 139.8C142.03 139.22 145.79 138.44 149.5 138.73C144.09 133.58 138.85 128.25 133.67 122.86C133.63 122.94 133.55 123.02 133.43 123.07C123.99 127.69 111.94 127.85 101.71 126.7C90.58 125.45 79.7 122.58 69.52 117.91C68.47 117.42 69.27 115.95 70.31 116.34C80.07 119.98 90.17 123.11 100.56 124.35C111.83 125.68 121.82 124.4 132.79 121.95C129.29 118.3 125.83 114.61 122.34 110.95C114.51 102.68 106.4 94.66 98.04 86.88C82.53 84.67 66.21 83.33 53.23 73.72C52.56 73.23 53.35 72.06 54.06 72.52C67.08 80.77 81.47 82 96.02 85C90.64 80.06 85.15 75.22 79.58 70.53C67.96 71.69 55.06 69.4 45.6 62.36C45.05 61.94 45.7 61.01 46.28 61.37C56.07 67.49 66.94 69.32 78.24 69.4C77.37 68.68 76.51 67.94 75.64 67.21C71.18 63.54 66.64 59.95 62.09 56.36C53.23 55.07 43.59 54.51 36.04 49.39C35.44 48.98 35.88 47.96 36.56 48.34C44.04 52.36 52.08 52.66 59.97 54.68C55.18 50.88 50.41 47.06 45.75 43.11C40.32 42.09 34.26 40.33 29.44 37.63C28.84 37.29 29.3 36.48 29.91 36.7C34.19 38.26 38.93 39.22 43.23 40.91C37.93 36.29 32.8 31.5 28.02 26.31C27.62 25.87 28.22 25.17 28.65 25.61C32.56 29.57 36.66 33.32 40.86 36.94C40.95 33.1 39.15 29.61 38.72 25.81C38.65 25.2 39.62 25.03 39.77 25.62C40.79 29.63 42.5 33.6 41.9 37.81C46.57 41.8 51.38 45.63 56.24 49.41C54.78 43 54.43 36.5 49.99 31.15C49.59 30.68 50.37 30.04 50.81 30.46C55.82 35.39 57.18 43.58 57.55 50.43C62.33 54.15 67.13 57.81 71.9 61.55C71.86 61.5 71.81 61.46 71.81 61.39C70.41 50.42 70.07 36.89 61.95 28.44C61.43 27.88 62.15 27.04 62.76 27.54C71.77 35.06 72 50.59 72.89 61.31C72.92 61.74 72.58 61.88 72.27 61.82C73.89 63.09 75.51 64.35 77.1 65.65C81.26 69.02 85.4 72.43 89.49 75.9C89.22 70.42 86.79 63.98 85.26 59.13C83.51 53.54 81.32 48.15 78.74 42.89C78.38 42.15 79.44 41.43 79.87 42.17C83.4 48.42 85.92 55.07 87.67 62.04C88.78 66.52 90.85 71.89 90.45 76.71C97.47 82.69 104.32 88.88 111 95.22C110.98 95.15 110.94 95.09 110.95 94.98C112.78 86.56 108.23 75.45 105.43 67.58C102.46 59.18 98.91 51 95.97 42.59C95.67 41.75 96.92 41.4 97.25 42.18C101.46 52.12 105.68 62.17 108.67 72.55C110.6 79.2 113.95 88.21 111.78 95.16C111.69 95.42 111.46 95.52 111.25 95.48C115.76 99.77 120.18 104.13 124.51 108.6C125.48 109.61 126.44 110.6 127.41 111.61C127.51 92.21 126.95 71.95 115.47 55.34C114.94 54.55 116.13 53.82 116.71 54.56C123.18 62.79 126.3 73.09 127.84 83.33C129.26 92.8 130.05 103.11 128.46 112.68C134.08 118.5 139.71 124.3 145.48 129.98C145.15 127.51 145.57 124.75 145.81 122.44C146.41 116.49 146.4 110.94 145.75 104.99C144.24 91.21 141.11 77.79 133.99 65.77C133.41 64.79 134.81 63.9 135.47 64.82C142.67 75.01 145.79 87.46 147.25 99.69C147.94 105.39 148.83 111.38 148.25 117.13C147.75 122.06 147.23 126.84 147.31 131.76C153.33 137.61 159.53 143.26 166.04 148.61C167.95 127.03 164.05 107.02 157.23 86.55C156.89 85.53 158.38 85.09 158.79 86.06C167.12 105.61 170.83 128.54 167.21 149.59C168.14 150.35 169.05 151.12 169.99 151.86C177.13 157.44 183.83 163.39 190.4 169.52C192 159.58 192.12 149.63 189.96 139.71C187.97 130.54 184.38 122.21 180.91 113.55C180.6 112.78 181.8 112.23 182.23 112.94C192 129.36 196.61 151.84 191.49 170.54C197.66 176.35 203.7 182.32 209.82 188.28C208.08 182.78 207.54 176.82 207.94 171.35C208.9 158.17 205.88 145.28 200.97 133.1C190.89 108.09 176.96 85.19 157.13 66.7C136.73 47.68 112.47 33.06 85.47 25.64L85.4 25.58ZM92.41 106.17C98.19 107.09 103.52 107.21 109.32 106.79C112.64 106.55 115.89 106.4 119 107.79C119.49 108.01 119.21 108.84 118.69 108.68C113.81 107.11 108.59 108.7 103.61 108.93C98.6 109.15 93.39 108.33 88.49 107.33C77.15 105.01 66.36 100.96 56.4 95.09C55.64 94.65 56.23 93.46 57 93.87C68.12 99.62 79.98 104.22 92.41 106.19L92.41 106.17Z" fill="#4D7C43" fill-opacity="1.000000" fill-rule="nonzero"/>
			<path id="Vector" d="M56.38 95.08C66.34 100.95 77.15 105 88.47 107.32C93.37 108.33 98.57 109.13 103.59 108.91C108.57 108.69 113.8 107.09 118.67 108.66C119.19 108.83 119.46 107.99 118.99 107.78C115.89 106.38 112.64 106.53 109.31 106.77C103.51 107.19 98.16 107.07 92.39 106.16C79.96 104.19 68.1 99.59 56.98 93.83C56.19 93.43 55.62 94.6 56.38 95.06L56.38 95.08Z" fill="#90B87E" fill-opacity="1.000000" fill-rule="nonzero"/>
			<path id="Vector" d="M170.01 114.03C168.73 124.37 174.58 134.8 173.1 145.16C172.67 148.17 176.78 148.96 177.65 146.1C179.15 141.27 178.8 135.96 178.85 130.96C178.91 125.05 178.6 118.3 175.98 112.94C174.74 110.37 170.33 111.3 170 114.03L170.01 114.03Z" fill="#71964C" fill-opacity="1.000000" fill-rule="nonzero"/>
			<path id="Vector" d="M174.26 103.06C174.6 103.69 174.77 104.38 174.96 105.06C175.28 106.23 175.79 106.96 176.87 107.57C177.85 108.15 179.38 107.64 179.82 106.58C180.35 105.32 180.22 104.39 179.77 103.15C179.41 102.2 178.97 101.25 178.41 100.41C176.64 97.75 172.79 100.29 174.28 103.04L174.26 103.06Z" fill="#71964C" fill-opacity="1.000000" fill-rule="nonzero"/>
			<path id="Vector" d="M167.51 92.16C167.95 92.74 168.15 93.39 168.75 93.87C169.5 94.45 170.9 94.46 171.29 93.4C171.81 91.96 171.35 90.86 170.21 89.89C168.72 88.62 166.24 90.52 167.51 92.18L167.51 92.16Z" fill="#71964C" fill-opacity="1.000000" fill-rule="nonzero"/>
			<path id="Vector" d="M129.73 162.11C127.77 161.43 125.38 160.75 123.33 161.38C121.53 161.94 121.53 164.28 123.03 165.14C124.68 166.09 126.56 166.8 128.26 167.72C130.39 168.85 132.43 170.11 134.9 169.32C136.9 168.67 137.35 166.16 135.89 164.75C134.28 163.19 131.78 162.83 129.72 162.1L129.73 162.11Z" fill="#71964C" fill-opacity="1.000000" fill-rule="nonzero"/>
			<path id="Vector" d="M164.29 161.4C160.55 160.77 156.88 161.86 153.19 162.44C148.87 163.11 144.59 163.57 140.31 162.51C137.78 161.89 136.3 165.92 138.79 166.87C142.86 168.42 147 168.82 151.33 168.78C155.56 168.75 160.67 168.56 164.56 166.77C166.88 165.72 167.33 161.9 164.29 161.4Z" fill="#71964C" fill-opacity="1.000000" fill-rule="nonzero"/>
			<path id="Vector" d="M174.61 165.56C173.16 165.32 171.64 165.39 170.19 165.43C168.83 165.46 167.77 166.71 167.84 168.04C167.91 169.47 169.1 170.38 170.45 170.39C171.71 170.42 172.97 170.57 174.23 170.58C175.31 170.57 176.44 169.64 176.59 168.56C176.61 168.36 176.63 168.13 176.64 167.91C176.65 166.82 175.69 165.72 174.62 165.56L174.61 165.56Z" fill="#71964C" fill-opacity="1.000000" fill-rule="nonzero"/>
			<path id="Vector" d="M182.38 178.26C180.33 177.67 178.09 178.24 176.02 178.5C173.63 178.81 171.22 179.07 168.8 179.15C166.87 179.21 167.12 181.95 168.95 182.06C171.14 182.2 173.34 182.17 175.54 182.13C177.81 182.06 180.39 182.36 182.53 181.56C184.19 180.95 183.99 178.76 182.36 178.28L182.38 178.26Z" fill="#71964C" fill-opacity="1.000000" fill-rule="nonzero"/>
			<path id="Vector" d="M196.37 144.94C196.01 149.14 196.24 153.39 196.43 157.61C196.59 161.53 197.86 165.59 196.69 169.44C196.03 171.61 199.58 172.82 200.43 170.73C201.92 167.11 201.58 163.32 201.52 159.47C201.44 154.49 202.61 149.46 200.61 144.72C199.85 142.93 196.57 142.5 196.35 144.94L196.37 144.94Z" fill="#71964C" fill-opacity="1.000000" fill-rule="nonzero"/>
			<path id="Vector" d="M195.17 136.78C195.08 136.99 195 137.18 194.91 137.37C194.4 138.56 195.18 139.97 196.56 139.89C197.94 139.82 198.56 138.34 197.94 137.21C197.83 137.03 197.73 136.83 197.62 136.65C197.11 135.74 195.58 135.82 195.17 136.78Z" fill="#71964C" fill-opacity="1.000000" fill-rule="nonzero"/>
			<path id="Vector" d="M143.47 147.06C139.51 146.39 135.3 147.12 131.3 147.33C126.75 147.56 122.26 147.23 117.86 146.04C115.84 145.49 114.64 148.8 116.64 149.55C124.49 152.5 135.52 154.17 143.69 151.64C145.91 150.94 145.83 147.47 143.45 147.06L143.47 147.06Z" fill="#71964C" fill-opacity="1.000000" fill-rule="nonzero"/>
			<path id="Vector" d="M150.32 152.81C148 153.1 148.14 156.48 150.51 156.46C152.22 156.44 154.06 156.48 155.53 155.48C156.49 154.84 156.42 153.42 155.4 152.88C153.75 151.99 152.05 152.59 150.32 152.8L150.32 152.81Z" fill="#71964C" fill-opacity="1.000000" fill-rule="nonzero"/>
			<path id="Vector" d="M151.48 117.57C151.23 118.56 150.99 119.56 150.78 120.56C150.56 121.58 150.88 122.79 150.98 123.81C151.19 125.91 151.41 128.02 151.58 130.13C151.83 133.35 156.53 133.06 156.55 129.87C156.56 127.75 156.54 125.64 156.5 123.53C156.48 122.5 156.66 121.25 156.33 120.28C156.01 119.3 155.67 118.35 155.37 117.37C154.72 115.43 152 115.65 151.52 117.57L151.48 117.57Z" fill="#71964C" fill-opacity="1.000000" fill-rule="nonzero"/>
			<path id="Vector" d="M149.14 82.63C149.62 87.57 151.17 92.17 152.59 96.91C154.07 101.86 155.12 106.89 156.25 111.94C156.51 113.15 158.5 113.03 158.65 111.81C159.89 102.18 157.1 90.75 153.59 81.82C152.69 79.52 148.87 79.93 149.12 82.63L149.14 82.63Z" fill="#71964C" fill-opacity="1.000000" fill-rule="nonzero"/>
			<path id="Vector" d="M84.5 125.42C82.7 125.15 82.16 127.7 83.93 128.18C85.52 128.61 87.07 129.48 88.71 129.62C89.98 129.72 91.16 128.16 89.95 127.18C88.44 125.97 86.41 125.68 84.52 125.4L84.5 125.42Z" fill="#71964C" fill-opacity="1.000000" fill-rule="nonzero"/>
			<path id="Vector" d="M121.09 133.04C117.96 132.31 114.62 132.78 111.43 132.79C107.5 132.78 103.58 132.17 99.73 131.44C98.04 131.12 96.97 133.78 98.71 134.39C105.17 136.67 114.54 140.24 121.31 137.47C123.39 136.61 123.44 133.59 121.09 133.06L121.09 133.04Z" fill="#71964C" fill-opacity="1.000000" fill-rule="nonzero"/>
			<path id="Vector" d="M129.55 130.59C128.8 130.55 127.92 130.8 127.15 130.85C125.13 131.02 124.76 134.13 126.88 134.47C128.46 134.73 130.61 135.35 131.78 133.89C132.23 133.32 132.47 132.35 131.96 131.73C131.24 130.86 130.66 130.64 129.55 130.58L129.55 130.59Z" fill="#71964C" fill-opacity="1.000000" fill-rule="nonzero"/>
			<path id="Vector" d="M108.28 113.45C100.01 111.53 91.56 112.22 83.35 109.56C81.68 109.01 80.76 111.74 82.35 112.44C90.09 115.81 99.54 118.33 108.01 117.08C110.01 116.79 110.41 113.95 108.28 113.46L108.28 113.45Z" fill="#71964C" fill-opacity="1.000000" fill-rule="nonzero"/>
			<path id="Vector" d="M118.79 117.89C117.21 117.68 115.77 117.99 114.22 118.29C112.27 118.67 112.89 121.96 114.84 121.69C116.43 121.47 117.86 121.4 119.31 120.68C120.51 120.07 120.08 118.04 118.79 117.87L118.79 117.89Z" fill="#71964C" fill-opacity="1.000000" fill-rule="nonzero"/>
			<path id="Vector" d="M131.71 86.91C131.41 90.98 132.17 94.95 132.3 99.04C132.42 103.08 132.34 107.11 132.48 111.15C132.55 113.22 135.54 113.36 136.01 111.42C137.94 103.51 139.95 93.1 135.84 85.6C134.64 83.41 131.85 84.94 131.71 86.92L131.71 86.91Z" fill="#71964C" fill-opacity="1.000000" fill-rule="nonzero"/>
			<path id="Vector" d="M133.48 76.56C133.42 77.31 133.32 78.04 133.49 78.78C133.67 79.55 133.85 80.35 134.01 81.12C134.47 83.52 138.62 82.76 138.22 80.36C137.95 78.77 137.75 77.31 136.9 75.92C136.1 74.65 133.63 74.85 133.48 76.54L133.48 76.56Z" fill="#71964C" fill-opacity="1.000000" fill-rule="nonzero"/>
			<path id="Vector" d="M113.56 65.27C114.46 74.77 117.99 83.81 118.74 93.42C118.86 94.97 121.33 95.29 121.54 93.64C122.81 83.87 122.26 72.87 117.84 63.9C116.79 61.77 113.34 63.06 113.56 65.27Z" fill="#71964C" fill-opacity="1.000000" fill-rule="nonzero"/>
			<path id="Vector" d="M107.05 54.49C107.13 56.35 107.86 58.03 107.94 59.91C108.07 63.02 112.83 62.76 112.76 59.66C112.73 58.52 112.56 57.4 112.33 56.29C112.21 55.71 112.05 55.16 111.85 54.62C111.61 53.92 111.04 53.38 110.53 52.85C109.23 51.48 106.99 52.79 107.06 54.49L107.05 54.49Z" fill="#71964C" fill-opacity="1.000000" fill-rule="nonzero"/>
			<path id="Vector" d="M90.03 94.1C86.39 92.63 82.37 92.46 78.56 91.46C74.08 90.31 69.83 88.36 65.66 86.37C63.65 85.42 62.28 88.29 64.13 89.42C71.09 93.69 81.17 100.06 89.71 98.17C91.57 97.75 91.77 94.81 90.03 94.11L90.03 94.1Z" fill="#71964C" fill-opacity="1.000000" fill-rule="nonzero"/>
			<path id="Vector" d="M95.99 89.22C94.78 88.51 93.53 88.47 92.17 88.22C90.88 87.98 89.62 87.7 88.33 87.51C85.95 87.16 85.22 90.57 87.56 91.17C90.08 91.81 93.14 93.49 95.72 92.59C97.3 92.03 97.37 90.03 95.99 89.22Z" fill="#71964C" fill-opacity="1.000000" fill-rule="nonzero"/>
			<path id="Vector" d="M99.74 98.96C97.75 99.11 97.32 102.39 99.46 102.57C100.63 102.66 101.75 102.96 102.77 102.23C103.65 101.6 103.77 100.42 102.98 99.66C102.05 98.77 100.91 98.86 99.72 98.96L99.74 98.96Z" fill="#71964C" fill-opacity="1.000000" fill-rule="nonzero"/>
			<path id="Vector" d="M92.35 55.95C93.31 59.69 94.39 63.3 95.65 66.95C96.67 69.9 98.53 73.39 98.11 76.6C97.9 78.25 99.97 78.98 100.84 77.55C102.65 74.58 101.52 71.14 100.86 67.95C99.85 62.97 99.02 58.45 96.01 54.24C94.64 52.33 91.78 53.71 92.35 55.95Z" fill="#71964C" fill-opacity="1.000000" fill-rule="nonzero"/>
			<path id="Vector" d="M74.75 74.8C73.78 74.19 72.68 74.11 71.58 73.87C70.35 73.61 69.14 73.3 67.94 72.97C65.85 72.39 65.26 75.58 67.28 76.23C69.48 76.95 72.22 78.16 74.55 77.57C75.95 77.23 75.77 75.45 74.77 74.82L74.75 74.8Z" fill="#71964C" fill-opacity="1.000000" fill-rule="nonzero"/>
			<path id="Vector" d="M55.23 57.5C54.08 57.33 52.95 57.14 51.8 56.85C50.59 56.56 49.62 55.81 48.37 55.58C46.24 55.18 44.97 57.39 45.9 59.17C46.98 61.26 49.9 62 52.01 62.58C54.58 63.28 57.41 63.87 60.05 63.51C61.76 63.27 63.27 60.8 61.47 59.53C59.52 58.18 57.55 57.8 55.23 57.5Z" fill="#71964C" fill-opacity="1.000000" fill-rule="nonzero"/>
			<path id="Vector" d="M60.35 33.55C60.42 38.07 61.11 42.52 62.34 46.89C62.92 48.96 65.92 48.26 65.91 46.25C65.89 43.96 65.88 41.7 65.74 39.4C65.58 36.81 64.91 34.73 63.58 32.53C62.65 30.98 60.34 31.88 60.37 33.57L60.35 33.55Z" fill="#71964C" fill-opacity="1.000000" fill-rule="nonzero"/>
			<path id="Vector" d="M57.64 28.56C56.83 28.07 55.62 28.52 55.24 29.34C54.61 30.71 55.03 31.98 56.01 33.04C56.99 34.1 58.96 33.37 59.17 32.01C59.38 30.56 58.92 29.31 57.64 28.54L57.64 28.56Z" fill="#71964C" fill-opacity="1.000000" fill-rule="nonzero"/>
			<path id="Vector" d="M36.27 42.93C34.29 42.36 33.6 45.16 35.15 46.12C36.28 46.82 37.56 47.48 38.88 46.92C40.05 46.44 40.29 45.18 39.46 44.25C38.63 43.34 37.38 43.26 36.25 42.95L36.27 42.93Z" fill="#71964C" fill-opacity="1.000000" fill-rule="nonzero"/>
			<path id="Vector" d="M45.12 30.75C45.28 32.55 45.56 34.74 46.4 36.33C46.83 37.18 48.25 37.3 48.83 36.53C50.27 34.63 49.24 32.64 49.02 30.53C48.74 28.06 44.9 28.2 45.12 30.73L45.12 30.75Z" fill="#71964C" fill-opacity="1.000000" fill-rule="nonzero"/>
			<path id="Vector" d="M28.52 31.37C27.64 30.81 26.6 30.56 25.57 30.48C24.17 30.34 23.24 32.28 24.71 32.96C25.95 33.54 26.97 35.03 28.46 34.52C28.93 34.36 29.37 33.95 29.45 33.43C29.45 33.38 29.46 33.33 29.47 33.28C29.58 32.44 29.26 31.8 28.56 31.36L28.52 31.37Z" fill="#71964C" fill-opacity="1.000000" fill-rule="nonzero"/>
			<path id="Vector" d="M32.55 26.43C33 27.53 33.43 28.95 34.59 29.48C35.32 29.84 36.39 29.29 36.27 28.39C36.13 27.24 35.25 26.43 34.65 25.45C33.98 24.35 32.06 25.19 32.57 26.43L32.55 26.43Z" fill="#71964C" fill-opacity="1.000000" fill-rule="nonzero"/>
			<path id="Vector" d="M23.6 22.54C22.4 21.54 20.87 23.24 21.98 24.33C22.61 24.95 23.09 25.42 23.99 25.58C24.68 25.69 25.25 25.07 25.04 24.41C24.79 23.54 24.27 23.12 23.6 22.54Z" fill="#71964C" fill-opacity="1.000000" fill-rule="nonzero"/>
		</g>
	</g>
</svg>
