<svg width="180.405518" height="186.790894" viewBox="0 0 180.406 186.791" fill="none" xmlns="http://www.w3.org/2000/svg" xmlns:xlink="http://www.w3.org/1999/xlink">
	<desc>
			Created with Pixso.
	</desc>
	<defs>
		<clipPath id="clip350_1865">
			<rect id="green leaf element" width="160.107819" height="167.248535" transform="translate(0.000000 20.952759) rotate(-7.519667)" fill="white" fill-opacity="0"/>
		</clipPath>
	</defs>
	<g opacity="0.500000">
		<rect id="green leaf element" width="160.107819" height="167.248535" transform="translate(0.000000 20.952759) rotate(-7.519667)" fill="#FFFFFF" fill-opacity="0"/>
		<g clip-path="url(#clip350_1865)">
			<path id="Vector" d="M157.69 0.07C152.86 2.49 148.75 5.67 143.66 7.65C138.48 9.66 133.1 11.09 127.76 12.64C118.26 15.41 109.34 19.81 100.97 25.05C92.36 30.44 84.48 36.98 76.85 43.65C68.99 50.52 61.56 57.75 55.06 65.94C42.37 81.94 33.7 101.91 32.35 122.4C31.68 132.61 33.4 142.8 33.13 153.01C32.99 158.84 32.53 167.93 28.81 173.2C27.6 174.16 26.49 175.25 25.53 176.45C24.63 177.58 26.4 178.95 27.3 177.82C34.75 168.65 46.49 169.91 56.9 168.55C67 167.22 76.54 162.9 85.44 158.1C104.49 147.83 120.64 134.39 133.64 117.03C146.37 100.04 154.98 80.5 158.97 59.68C160.86 49.79 161.4 39.86 159.91 29.88C158.48 20.2 161.89 10.26 159.31 0.74C159.14 0.12 158.24 -0.21 157.69 0.07Z" fill="#AEBFAC" fill-opacity="1.000000" fill-rule="nonzero"/>
			<path id="Vector" d="M156.6 37.49C155.16 27.8 158.58 17.87 155.99 8.35C155.83 7.73 154.92 7.4 154.38 7.67C149.55 10.09 145.44 13.27 140.35 15.25C135.17 17.27 129.79 18.7 124.45 20.25C114.95 23.01 106.03 27.42 97.66 32.65C89.04 38.04 81.17 44.58 73.53 51.25C65.67 58.13 58.25 65.36 51.75 73.54C39.06 89.55 30.38 109.51 29.03 130.01C28.37 140.21 30.09 150.4 29.82 160.61C29.67 166.45 29.22 175.53 25.5 180.8C24.29 181.76 23.18 182.85 22.22 184.06C21.31 185.19 23.09 186.55 23.99 185.42C31.44 176.25 43.17 177.51 53.59 176.16C63.69 174.83 73.23 170.5 82.12 165.7C101.18 155.43 117.33 141.99 130.33 124.64C143.05 107.64 151.66 88.11 155.65 67.28C157.55 57.39 158.09 47.46 156.6 37.49ZM125.1 127.62C111.72 144.49 94.47 156.94 75.3 166.49C65.96 171.14 55.95 174.34 45.46 174.41C41.11 174.44 36.42 175.24 32.17 176.96C36.51 171.76 40.84 166.61 45.06 161.34C60.19 164.21 77.69 159.16 90.07 150.39C90.61 150.02 90.09 149.09 89.51 149.39C82.87 152.67 76.5 156.04 69.37 158.19C61.66 160.53 53.77 161.06 45.8 160.41C50.24 154.84 54.53 149.16 58.5 143.15C59.03 142.36 59.58 141.59 60.12 140.81C77.01 142.34 94.92 137.96 109.88 130.15C110.6 129.77 110.16 128.61 109.39 128.94C93.61 135.63 78.02 139.97 60.82 139.81C64.63 134.33 68.73 129.07 72.98 123.94C76.89 123.54 80.68 123.67 84.62 123.76C89.21 123.85 93.9 122.77 98.36 121.87C107.96 119.94 117.62 116.69 125.22 110.36C125.91 109.77 125.11 108.72 124.38 109.24C115.31 115.64 104.89 118.97 94.08 121.01C89.4 121.9 85.01 122.26 80.27 122.16C78.42 122.11 76.21 121.95 74.28 122.37C78.39 117.45 82.64 112.63 86.9 107.81C94.57 108.48 102.69 107.2 110.09 105.48C118.1 103.62 126.05 100.5 132.16 94.86C132.7 94.37 132.05 93.46 131.47 93.93C119.04 104.05 103.06 105.77 87.68 106.92C88.42 106.08 89.14 105.26 89.88 104.43C93.14 100.72 96.32 96.95 99.43 93.11C99.41 93.28 99.49 93.47 99.71 93.51C105.35 94.79 112.26 91.58 117.42 89.63C125.44 86.61 133.14 82.62 140.74 78.67C141.34 78.36 140.98 77.4 140.33 77.69C133.86 80.55 127.61 83.87 121.15 86.75C115.09 89.46 106.58 93.76 99.8 92.84C99.72 92.84 99.67 92.86 99.62 92.9C104.24 87.21 108.69 81.4 112.98 75.47C116.82 75.47 120.94 73.51 124.42 72.34C129.81 70.52 134.93 68.12 139.65 64.92C140.23 64.53 139.59 63.74 139.01 64.07C135.01 66.44 130.89 68.51 126.57 70.25C122.83 71.77 117.88 74.1 113.56 74.65C116.05 71.2 118.5 67.71 120.89 64.2C121.81 62.85 122.72 61.49 123.62 60.14C123.58 60.39 123.73 60.66 124.06 60.6C132.49 59.21 144.77 58.06 150.16 50.46C150.51 49.96 149.8 49.43 149.4 49.87C143.22 56.83 132.54 57.96 123.94 59.75C123.88 59.75 123.85 59.8 123.81 59.83C126.46 55.82 129.07 51.79 131.71 47.77C137.12 47.06 143.51 45.47 147.1 41.18C147.4 40.81 146.85 40.23 146.5 40.58C142.54 44.44 137.42 45.11 132.44 46.67C135.12 42.59 137.85 38.54 140.72 34.59C144.09 34.8 147.13 33.2 150.23 32.14C150.69 31.98 150.49 31.22 150.02 31.32C147.05 31.9 144.4 33.56 141.34 33.72C143.93 30.17 146.64 26.68 149.54 23.34C149.86 22.97 149.27 22.53 148.95 22.89C145.14 26.99 141.66 31.35 138.34 35.84C139.41 32.33 139.88 28.51 140.84 25.03C140.98 24.52 140.3 24.21 140.08 24.72C138.24 28.7 137.23 33.61 136.77 37.98C133.93 41.91 131.21 45.91 128.5 49.96C129.6 43.59 129.34 37.2 132.05 31.03C132.3 30.47 131.47 30.16 131.18 30.68C127.61 36.99 127.77 44.65 127.3 51.74C124.75 55.56 122.2 59.39 119.57 63.15C119.05 63.88 118.53 64.61 118 65.35C117.34 56.39 118.11 47.68 122.35 39.54C122.6 39.06 121.8 38.6 121.52 39.06C116.54 46.99 115.54 57.35 117.19 66.48C113.83 71.19 110.34 75.83 106.77 80.39C108.23 68.69 108.29 57.23 114.01 46.4C114.31 45.81 113.35 45.26 113 45.82C106.23 56.69 106.18 69.7 105.41 82.11C99.78 89.22 93.93 96.14 87.88 102.86C85.19 105.85 82.5 108.83 79.84 111.82C77.2 103.31 75.55 95.47 75.91 86.47C76.23 78.16 78.07 69.98 80.35 62.02C80.59 61.16 79.38 60.63 79.05 61.49C75.99 69.84 74.4 78.64 74.12 87.52C73.86 95.69 74.74 105.22 78.98 112.4C79.04 112.49 79.1 112.54 79.17 112.58C75.22 117.02 71.34 121.5 67.6 126.1C67.6 123.15 66.75 120.22 66.06 117.38C64.99 112.97 64.33 108.54 63.98 104.01C63.24 94.64 65.32 85.96 69.47 77.6C69.82 76.9 68.7 76.24 68.28 76.91C63.72 84.16 61.94 92.12 62 100.62C62.08 109.92 65.63 118.35 66.57 127.41C62.98 131.91 59.52 136.53 56.3 141.36C55.85 142.04 55.37 142.7 54.92 143.38C54.6 140.77 53.92 138.21 53.27 135.64C52.04 130.73 51.65 125.81 51.86 120.74C52.25 111.41 55.07 102.46 57.7 93.58C57.93 92.77 56.77 92.26 56.46 93.08C53.14 101.39 50.9 110.18 50.24 119.13C49.94 123.36 50.15 127.66 50.88 131.84C51.64 136.19 53.15 140.34 54 144.68C50.59 149.57 46.98 154.26 43.31 158.92C40.81 154.21 41.44 147.14 40.77 142.03C39.82 134.79 39.56 127.74 41.62 120.65C41.83 119.92 40.82 119.48 40.49 120.2C37.28 127.22 37.76 134.81 38.83 142.28C39.37 146.07 39.77 149.86 40.24 153.67C40.5 155.92 41.07 158.19 42.6 159.83C38 165.65 33.34 171.44 28.95 177.47C30.25 174.07 30.78 170.19 31.27 166.99C32.57 158.49 31.73 149.9 31.3 141.36C30.17 118.5 37.67 96.75 50.95 78.3C62.96 61.64 79.79 47.26 96.8 35.89C105.63 29.99 115.25 25.48 125.4 22.41C130.73 20.8 136.09 19.4 141.32 17.48C146.05 15.76 149.79 12.94 154.08 10.59C156 19.42 152.81 28.77 154.31 37.73C156.02 47.94 155.07 58.17 153.14 68.25C148.96 90.09 138.91 110.21 125.15 127.56L125.1 127.62Z" fill="#90B87E" fill-opacity="1.000000" fill-rule="nonzero"/>
			<path id="Vector" d="M153.08 68.32C155.01 58.23 155.96 48 154.25 37.8C152.75 28.82 155.94 19.48 154.02 10.65C149.73 13.01 145.99 15.82 141.26 17.55C136.03 19.46 130.67 20.86 125.34 22.48C115.19 25.54 105.57 30.06 96.74 35.96C79.73 47.34 62.9 61.7 50.89 78.36C37.6 96.82 30.11 118.57 31.24 141.42C31.67 149.95 32.51 158.55 31.21 167.05C30.72 170.26 30.19 174.14 28.89 177.53C33.29 171.52 37.94 165.73 42.54 159.9C41 158.25 40.44 155.98 40.17 153.74C39.72 149.93 39.31 146.15 38.77 142.34C37.71 134.88 37.22 127.28 40.43 120.26C40.76 119.54 41.77 119.98 41.56 120.72C39.48 127.8 39.77 134.85 40.71 142.09C41.38 147.2 40.74 154.28 43.25 158.98C46.92 154.32 50.53 149.63 53.94 144.75C53.09 140.41 51.58 136.25 50.82 131.9C50.09 127.72 49.88 123.42 50.18 119.19C50.82 110.24 53.08 101.45 56.4 93.14C56.72 92.32 57.88 92.83 57.64 93.65C55.01 102.52 52.19 111.47 51.8 120.8C51.59 125.87 51.97 130.79 53.21 135.71C53.86 138.26 54.54 140.83 54.86 143.44C55.31 142.76 55.79 142.1 56.24 141.42C59.46 136.59 62.92 131.97 66.51 127.47C65.58 118.41 62.03 109.97 61.94 100.68C61.87 92.19 63.66 84.21 68.22 76.98C68.64 76.31 69.77 76.96 69.41 77.67C65.26 86.02 63.18 94.71 63.92 104.07C64.28 108.6 64.93 113.03 66 117.44C66.69 120.28 67.54 123.22 67.54 126.16C71.28 121.56 75.16 117.08 79.11 112.64C79.04 112.61 78.98 112.55 78.92 112.46C74.68 105.28 73.8 95.76 74.06 87.58C74.35 78.7 75.94 69.9 78.99 61.55C79.32 60.69 80.53 61.23 80.29 62.08C78.02 70.04 76.17 78.23 75.85 86.53C75.5 95.53 77.14 103.36 79.78 111.89C82.44 108.89 85.15 105.91 87.82 102.92C93.87 96.2 99.72 89.28 105.35 82.18C106.12 69.76 106.16 56.76 112.94 45.88C113.29 45.32 114.27 45.87 113.95 46.46C108.23 57.29 108.17 68.75 106.71 80.45C110.28 75.89 113.76 71.24 117.13 66.54C115.48 57.41 116.48 47.06 121.46 39.13C121.75 38.66 122.54 39.12 122.29 39.6C118.06 47.74 117.29 56.45 117.94 65.41C118.46 64.67 118.99 63.95 119.51 63.21C122.14 59.45 124.69 55.63 127.24 51.8C127.7 44.71 127.54 37.04 131.12 30.74C131.41 30.24 132.24 30.53 131.99 31.09C129.28 37.27 129.54 43.65 128.44 50.02C131.15 45.99 133.87 41.97 136.71 38.04C137.17 33.68 138.18 28.76 140.02 24.78C140.25 24.29 140.92 24.6 140.78 25.09C139.82 28.58 139.35 32.39 138.28 35.91C141.61 31.41 145.08 27.05 148.89 22.95C149.21 22.6 149.8 23.03 149.48 23.4C146.59 26.74 143.88 30.23 141.28 33.78C144.33 33.61 146.98 31.96 149.96 31.38C150.44 31.29 150.63 32.04 150.17 32.2C147.07 33.26 144.03 34.86 140.66 34.65C137.79 38.61 135.06 42.65 132.38 46.73C137.36 45.17 142.48 44.49 146.44 40.64C146.79 40.29 147.34 40.87 147.03 41.24C143.45 45.52 137.05 47.11 131.65 47.84C129.01 51.86 126.42 55.88 123.75 59.89C123.79 59.86 123.82 59.81 123.88 59.81C132.47 58.01 143.16 56.89 149.34 49.94C149.74 49.49 150.45 50.01 150.1 50.52C144.71 58.12 132.43 59.29 124 60.67C123.67 60.71 123.54 60.45 123.56 60.2C122.66 61.57 121.76 62.93 120.83 64.26C118.43 67.77 115.99 71.26 113.5 74.72C117.82 74.16 122.77 71.83 126.51 70.32C130.83 68.58 134.95 66.5 138.95 64.14C139.52 63.8 140.16 64.59 139.59 64.98C134.87 68.17 129.77 70.59 124.36 72.4C120.88 73.57 116.76 75.54 112.92 75.53C108.63 81.46 104.16 87.27 99.56 92.96C99.61 92.94 99.66 92.9 99.74 92.91C106.52 93.82 115.03 89.52 121.09 86.81C127.55 83.93 133.8 80.61 140.27 77.75C140.92 77.46 141.28 78.43 140.67 78.74C133.08 82.7 125.38 86.67 117.36 89.69C112.21 91.64 105.29 94.85 99.65 93.57C99.44 93.52 99.35 93.34 99.37 93.17C96.26 97.01 93.08 100.79 89.82 104.49C89.08 105.33 88.36 106.15 87.62 106.98C102.98 105.83 118.98 104.12 131.41 93.99C132 93.52 132.65 94.41 132.1 94.92C125.99 100.56 118.04 103.68 110.03 105.54C102.63 107.26 94.51 108.53 86.84 107.87C82.58 112.69 78.35 117.51 74.22 122.43C76.15 122.02 78.36 122.18 80.21 122.22C84.95 122.32 89.34 121.96 94.02 121.08C104.82 119.02 115.25 115.69 124.32 109.3C125.05 108.78 125.85 109.84 125.16 110.42C117.55 116.76 107.89 120.01 98.3 121.93C93.84 122.83 89.15 123.91 84.56 123.82C80.62 123.74 76.82 123.62 72.92 124C68.67 129.13 64.58 134.39 60.76 139.88C77.96 140.03 93.56 135.69 109.33 129C110.12 128.67 110.56 129.83 109.82 130.21C94.86 138.03 76.95 142.41 60.06 140.87C59.52 141.65 58.97 142.42 58.44 143.21C54.47 149.21 50.18 154.89 45.74 160.47C53.71 161.12 61.6 160.59 69.31 158.25C76.44 156.1 82.81 152.74 89.45 149.45C90.03 149.15 90.55 150.07 90.01 150.45C77.63 159.22 60.13 164.28 45 161.4C40.79 166.65 36.45 171.81 32.11 177.02C36.36 175.3 41.05 174.5 45.4 174.47C55.89 174.4 65.9 171.21 75.24 166.55C94.39 157 111.64 144.54 125.04 127.68C138.81 110.33 148.86 90.21 153.03 68.38L153.08 68.32ZM89.72 78.93C89.36 83.57 89.6 87.79 90.3 92.36C90.7 94.97 91.02 97.53 90.11 100.08C89.97 100.49 89.3 100.31 89.39 99.89C90.33 95.93 88.74 91.89 88.25 87.97C87.76 84.02 88.08 79.84 88.56 75.9C89.68 66.78 92.21 57.99 96.23 49.73C96.53 49.1 97.51 49.49 97.24 50.13C93.38 59.29 90.49 68.97 89.71 78.93L89.72 78.93Z" fill="#4D7C43" fill-opacity="1.000000" fill-rule="nonzero"/>
			<path id="Vector" d="M96.24 49.72C92.22 57.97 89.69 66.78 88.57 75.89C88.08 79.83 87.77 83.99 88.26 87.96C88.75 91.88 90.34 95.92 89.4 99.88C89.31 100.3 89.98 100.46 90.12 100.07C91.03 97.53 90.71 94.97 90.31 92.34C89.61 87.78 89.37 83.54 89.73 78.92C90.51 68.96 93.4 59.28 97.26 50.11C97.53 49.46 96.57 49.09 96.25 49.71L96.24 49.72Z" fill="#90B87E" fill-opacity="1.000000" fill-rule="nonzero"/>
			<path id="Vector" d="M88.38 140.85C80.12 140.49 72.23 145.77 63.94 145.25C61.53 145.1 61.16 148.4 63.48 148.91C67.4 149.79 71.58 149.19 75.54 148.91C80.22 148.59 85.55 147.91 89.62 145.51C91.57 144.36 90.56 140.93 88.38 140.84L88.38 140.85Z" fill="#71964C" fill-opacity="1.000000" fill-rule="nonzero"/>
			<path id="Vector" d="M97.33 143.52C96.85 143.83 96.32 144.01 95.8 144.2C94.88 144.53 94.34 144.98 93.93 145.87C93.53 146.69 94.03 147.86 94.9 148.14C95.92 148.49 96.65 148.32 97.6 147.89C98.34 147.54 99.06 147.13 99.69 146.64C101.68 145.07 99.43 142.18 97.35 143.54L97.33 143.52Z" fill="#71964C" fill-opacity="1.000000" fill-rule="nonzero"/>
			<path id="Vector" d="M105.53 137.49C105.11 137.88 104.6 138.08 104.26 138.59C103.85 139.21 103.93 140.32 104.79 140.57C105.96 140.89 106.81 140.45 107.5 139.49C108.41 138.23 106.75 136.39 105.52 137.49L105.53 137.49Z" fill="#71964C" fill-opacity="1.000000" fill-rule="nonzero"/>
			<path id="Vector" d="M47.79 111.99C48.21 110.39 48.6 108.46 47.97 106.88C47.41 105.49 45.56 105.64 44.98 106.87C44.32 108.24 43.88 109.77 43.26 111.18C42.5 112.93 41.63 114.63 42.41 116.54C43.05 118.08 45.07 118.28 46.09 117.04C47.22 115.66 47.36 113.66 47.8 111.98L47.79 111.99Z" fill="#71964C" fill-opacity="1.000000" fill-rule="nonzero"/>
			<path id="Vector" d="M50.53 139.29C50.79 136.3 49.7 133.46 49.01 130.58C48.21 127.2 47.57 123.84 48.14 120.38C48.48 118.35 45.19 117.43 44.6 119.46C43.63 122.78 43.57 126.08 43.87 129.51C44.16 132.85 44.63 136.89 46.29 139.85C47.28 141.62 50.32 141.74 50.53 139.29Z" fill="#71964C" fill-opacity="1.000000" fill-rule="nonzero"/>
			<path id="Vector" d="M47.89 147.73C47.98 146.57 47.84 145.37 47.71 144.23C47.6 143.15 46.54 142.39 45.5 142.52C44.37 142.67 43.72 143.67 43.8 144.74C43.86 145.74 43.81 146.74 43.89 147.75C43.96 148.6 44.77 149.43 45.63 149.48C45.8 149.49 45.98 149.49 46.15 149.48C47.02 149.42 47.82 148.59 47.89 147.74L47.89 147.73Z" fill="#71964C" fill-opacity="1.000000" fill-rule="nonzero"/>
			<path id="Vector" d="M38.32 154.67C38.66 153.02 38.06 151.28 37.73 149.66C37.33 147.79 36.98 145.89 36.77 143.98C36.59 142.46 34.44 142.83 34.47 144.28C34.5 146.03 34.66 147.77 34.83 149.51C35.02 151.3 34.95 153.36 35.72 155C36.31 156.28 38.03 155.98 38.3 154.66L38.32 154.67Z" fill="#71964C" fill-opacity="1.000000" fill-rule="nonzero"/>
			<path id="Vector" d="M65.58 163.66C62.23 163.63 58.88 164.09 55.55 164.5C52.46 164.87 49.32 166.13 46.2 165.45C44.45 165.07 43.71 167.95 45.42 168.49C48.38 169.44 51.36 168.94 54.4 168.65C58.34 168.27 62.39 168.88 66.01 167C67.38 166.29 67.51 163.66 65.57 163.64L65.58 163.66Z" fill="#71964C" fill-opacity="1.000000" fill-rule="nonzero"/>
			<path id="Vector" d="M71.96 162.19C71.79 162.13 71.63 162.08 71.47 162.02C70.5 161.7 69.44 162.4 69.58 163.49C69.72 164.57 70.93 164.97 71.79 164.41C71.93 164.31 72.08 164.22 72.21 164.12C72.9 163.66 72.75 162.46 71.96 162.19Z" fill="#71964C" fill-opacity="1.000000" fill-rule="nonzero"/>
			<path id="Vector" d="M60.57 121.92C60.85 118.74 60.01 115.45 59.59 112.3C59.12 108.72 59.1 105.14 59.77 101.58C60.07 99.95 57.38 99.21 56.92 100.84C55.07 107.24 54.44 116.08 56.96 122.38C57.65 124.09 60.4 123.81 60.57 121.91L60.57 121.92Z" fill="#71964C" fill-opacity="1.000000" fill-rule="nonzero"/>
			<path id="Vector" d="M56.45 127.7C56.07 125.88 53.41 126.21 53.58 128.08C53.7 129.43 53.78 130.89 54.66 131.99C55.23 132.71 56.35 132.56 56.72 131.72C57.31 130.36 56.73 129.06 56.46 127.7L56.45 127.7Z" fill="#71964C" fill-opacity="1.000000" fill-rule="nonzero"/>
			<path id="Vector" d="M84.41 126.41C83.62 126.27 82.81 126.14 82 126.04C81.18 125.93 80.25 126.26 79.45 126.4C77.79 126.7 76.14 127 74.48 127.27C71.94 127.68 72.47 131.38 75 131.19C76.67 131.07 78.35 130.92 80.02 130.75C80.83 130.67 81.83 130.73 82.58 130.42C83.33 130.1 84.06 129.77 84.81 129.47C86.31 128.83 85.97 126.69 84.42 126.43L84.41 126.41Z" fill="#71964C" fill-opacity="1.000000" fill-rule="nonzero"/>
			<path id="Vector" d="M111.92 122.36C108.04 123.04 104.5 124.56 100.84 125.98C97.01 127.47 93.09 128.61 89.17 129.82C88.23 130.11 88.45 131.68 89.42 131.72C97.13 132.1 106 129.17 112.84 125.83C114.61 124.97 114.04 121.97 111.92 122.34L111.92 122.36Z" fill="#71964C" fill-opacity="1.000000" fill-rule="nonzero"/>
			<path id="Vector" d="M73.99 73.88C74.09 72.44 72.04 72.17 71.77 73.6C71.53 74.89 70.94 76.17 70.93 77.48C70.93 78.49 72.24 79.33 72.94 78.31C73.81 77.03 73.91 75.41 74.01 73.89L73.99 73.88Z" fill="#71964C" fill-opacity="1.000000" fill-rule="nonzero"/>
			<path id="Vector" d="M70.26 103.32C70.64 100.8 70.06 98.18 69.85 95.66C69.61 92.55 69.85 89.41 70.18 86.32C70.33 84.96 68.15 84.28 67.78 85.69C66.38 90.95 64.15 98.59 66.77 103.78C67.58 105.37 69.98 105.21 70.25 103.32L70.26 103.32Z" fill="#71964C" fill-opacity="1.000000" fill-rule="nonzero"/>
			<path id="Vector" d="M72.73 109.86C72.72 109.26 72.47 108.59 72.37 107.99C72.11 106.4 69.63 106.3 69.5 107.99C69.39 109.26 69.03 111 70.26 111.84C70.74 112.16 71.52 112.29 71.98 111.85C72.62 111.22 72.76 110.75 72.74 109.86L72.73 109.86Z" fill="#71964C" fill-opacity="1.000000" fill-rule="nonzero"/>
			<path id="Vector" d="M84.96 91.95C85.96 85.28 84.88 78.64 86.47 71.97C86.8 70.62 84.59 70.06 84.13 71.36C81.95 77.7 80.55 85.34 82.07 91.96C82.43 93.53 84.7 93.67 84.95 91.96L84.96 91.95Z" fill="#71964C" fill-opacity="1.000000" fill-rule="nonzero"/>
			<path id="Vector" d="M82.11 100.55C82.17 99.28 81.84 98.17 81.5 96.96C81.08 95.44 78.51 96.13 78.85 97.66C79.12 98.91 79.27 100.03 79.93 101.13C80.49 102.04 82.07 101.58 82.12 100.55L82.11 100.55Z" fill="#71964C" fill-opacity="1.000000" fill-rule="nonzero"/>
			<path id="Vector" d="M107.44 108.83C104.2 108.84 101.1 109.7 97.88 110.06C94.69 110.41 91.49 110.59 88.31 110.96C86.67 111.15 86.75 113.53 88.31 113.77C94.69 114.8 103.06 115.74 108.74 112.02C110.39 110.92 109.01 108.81 107.43 108.83L107.44 108.83Z" fill="#71964C" fill-opacity="1.000000" fill-rule="nonzero"/>
			<path id="Vector" d="M115.74 109.58C115.14 109.58 114.57 109.54 113.99 109.73C113.39 109.92 112.77 110.11 112.17 110.28C110.3 110.8 111.16 114.03 113.03 113.57C114.28 113.25 115.42 113.01 116.46 112.24C117.42 111.53 117.11 109.59 115.76 109.58L115.74 109.58Z" fill="#71964C" fill-opacity="1.000000" fill-rule="nonzero"/>
			<path id="Vector" d="M123.43 93.1C115.96 94.41 109.04 97.78 101.47 98.97C100.25 99.16 100.16 101.14 101.48 101.2C109.29 101.59 117.96 100.47 124.78 96.4C126.4 95.44 125.16 92.79 123.43 93.1Z" fill="#71964C" fill-opacity="1.000000" fill-rule="nonzero"/>
			<path id="Vector" d="M131.55 87.27C130.08 87.45 128.8 88.13 127.32 88.32C124.86 88.61 125.37 92.37 127.82 92.11C128.72 92.02 129.59 91.81 130.46 91.56C130.91 91.43 131.34 91.27 131.75 91.08C132.29 90.84 132.68 90.36 133.07 89.92C134.07 88.81 132.89 87.12 131.55 87.28L131.55 87.27Z" fill="#71964C" fill-opacity="1.000000" fill-rule="nonzero"/>
			<path id="Vector" d="M99.13 76.29C100.06 73.31 99.94 70.12 100.5 67.04C101.13 63.42 102.4 59.94 103.71 56.52C104.34 54.86 101.98 53.96 101.2 55.49C98.26 61.27 93.85 69.65 95.88 76.29C96.33 77.73 98.68 77.71 99.12 76.29L99.13 76.29Z" fill="#71964C" fill-opacity="1.000000" fill-rule="nonzero"/>
			<path id="Vector" d="M103.37 80.7C103.85 79.7 103.8 78.71 103.92 77.61C104.03 76.57 104.17 75.56 104.24 74.53C104.37 72.62 101.62 72.26 101.29 74.15C100.95 76.19 99.8 78.71 100.68 80.7C101.22 81.91 102.81 81.84 103.37 80.7Z" fill="#71964C" fill-opacity="1.000000" fill-rule="nonzero"/>
			<path id="Vector" d="M95.9 84.28C95.65 82.71 93.03 82.58 93.02 84.29C93.02 85.22 92.85 86.13 93.5 86.89C94.04 87.54 94.99 87.56 95.54 86.89C96.19 86.1 96.04 85.2 95.89 84.26L95.9 84.28Z" fill="#71964C" fill-opacity="1.000000" fill-rule="nonzero"/>
			<path id="Vector" d="M129.47 75.73C126.57 76.73 123.78 77.8 120.97 79.03C118.7 80.03 116.05 81.71 113.49 81.59C112.17 81.53 111.72 83.21 112.9 83.81C115.37 85.05 118.03 83.94 120.51 83.22C124.39 82.11 127.91 81.17 131.05 78.51C132.48 77.32 131.21 75.13 129.47 75.73Z" fill="#71964C" fill-opacity="1.000000" fill-rule="nonzero"/>
			<path id="Vector" d="M113.44 62.98C113.87 62.17 113.86 61.3 113.98 60.41C114.11 59.42 114.28 58.45 114.47 57.48C114.79 55.79 112.23 55.52 111.85 57.16C111.41 58.95 110.63 61.19 111.24 63C111.6 64.08 113 63.83 113.43 63L113.44 62.98Z" fill="#71964C" fill-opacity="1.000000" fill-rule="nonzero"/>
			<path id="Vector" d="M125.91 46.45C125.97 45.52 126.05 44.61 126.21 43.69C126.37 42.71 126.9 41.89 127 40.9C127.18 39.18 125.35 38.31 124 39.16C122.41 40.15 122.01 42.51 121.69 44.22C121.29 46.29 121.01 48.57 121.46 50.64C121.76 51.98 123.8 53.02 124.7 51.51C125.64 49.88 125.82 48.3 125.91 46.45Z" fill="#71964C" fill-opacity="1.000000" fill-rule="nonzero"/>
			<path id="Vector" d="M145.19 48.99C141.62 49.33 138.14 50.15 134.75 51.4C133.15 51.99 133.89 54.33 135.49 54.19C137.29 54.03 139.09 53.88 140.9 53.63C142.93 53.33 144.54 52.67 146.2 51.48C147.37 50.65 146.51 48.87 145.18 49.01L145.19 48.99Z" fill="#71964C" fill-opacity="1.000000" fill-rule="nonzero"/>
			<path id="Vector" d="M148.97 46.53C149.31 45.86 148.87 44.93 148.2 44.68C147.08 44.27 146.1 44.68 145.32 45.52C144.54 46.36 145.25 47.88 146.33 47.96C147.49 48.04 148.46 47.6 148.99 46.53L148.97 46.53Z" fill="#71964C" fill-opacity="1.000000" fill-rule="nonzero"/>
			<path id="Vector" d="M136.25 30.52C136.58 28.92 134.32 28.55 133.65 29.84C133.17 30.77 132.73 31.83 133.25 32.84C133.71 33.73 134.72 33.85 135.41 33.13C136.08 32.41 136.06 31.42 136.24 30.51L136.25 30.52Z" fill="#71964C" fill-opacity="1.000000" fill-rule="nonzero"/>
			<path id="Vector" d="M146.45 36.76C145.03 37 143.32 37.36 142.11 38.12C141.47 38.52 141.46 39.65 142.1 40.06C143.7 41.08 145.21 40.14 146.86 39.83C148.81 39.45 148.45 36.43 146.46 36.76L146.45 36.76Z" fill="#71964C" fill-opacity="1.000000" fill-rule="nonzero"/>
			<path id="Vector" d="M144.92 23.66C145.3 22.93 145.43 22.09 145.44 21.27C145.45 20.15 143.86 19.54 143.42 20.74C143.03 21.76 141.92 22.66 142.41 23.81C142.57 24.17 142.92 24.5 143.34 24.52C143.38 24.52 143.42 24.53 143.46 24.53C144.14 24.57 144.62 24.27 144.92 23.69L144.92 23.66Z" fill="#71964C" fill-opacity="1.000000" fill-rule="nonzero"/>
			<path id="Vector" d="M149.08 26.54C148.23 26.97 147.14 27.4 146.79 28.34C146.55 28.95 147.06 29.76 147.76 29.61C148.66 29.42 149.25 28.68 149.98 28.14C150.82 27.54 150.02 26.08 149.08 26.55L149.08 26.54Z" fill="#71964C" fill-opacity="1.000000" fill-rule="nonzero"/>
			<path id="Vector" d="M151.59 19.21C152.31 18.2 150.86 17.09 150.07 18.04C149.63 18.58 149.28 18.99 149.22 19.71C149.17 20.26 149.7 20.67 150.2 20.47C150.88 20.22 151.17 19.78 151.59 19.21Z" fill="#71964C" fill-opacity="1.000000" fill-rule="nonzero"/>
		</g>
	</g>
</svg>
