<svg width="722.557129" height="821.114014" viewBox="0 0 722.557 821.114" fill="none" xmlns="http://www.w3.org/2000/svg" xmlns:xlink="http://www.w3.org/1999/xlink">
	<desc>
			Created with Pixso.
	</desc>
	<defs>
		<linearGradient x1="226.915466" y1="97.342407" x2="495.641663" y2="723.771545" id="paint_linear_238_974_0" gradientUnits="userSpaceOnUse">
			<stop stop-color="#FED632"/>
			<stop offset="1.000000" stop-color="#F2CD34"/>
		</linearGradient>
	</defs>
	<path id="Vector" d="M205.51 626.14L212.31 633.23C213.98 634.97 214.93 637 214.29 637.84C214.22 637.89 214.14 637.94 214.06 637.98C213.16 638.36 211.38 637.52 209.59 635.85L201 626.74C198.12 623.52 195.35 620.37 192.45 616.94C189.44 613.23 186.49 609.48 183.65 605.58C177.94 597.91 172.5 589.34 167.54 580.89C163.07 572.8 158.25 563.52 154.95 555.81C153.14 551.8 151.52 547.82 149.93 543.72C148.22 539.56 147.22 536.43 145.93 532.64C144.79 529.01 143.58 525.41 142.51 521.76L139.99 512.38L137.77 503.1L136.55 496.94C135.79 493.04 135.07 489.01 134.49 485.14C131.18 463.98 130.23 443.96 130.67 426.22C129.58 423.82 128.51 421.32 127.37 418.65C126.14 415.4 124.75 411.77 123.46 407.98C120.89 400.63 118.22 391.09 115.93 381.28C111.26 361.03 108.98 339.75 108.41 322.64C107.85 304.97 108.42 293.04 108.99 282.89C109.31 278.75 109.59 274.73 109.83 270.62C110.1 267.17 110.42 263.81 110.84 260.51C111.72 253.79 112.79 247.32 114.29 240.89C120.14 215.35 131.61 190.07 151.08 168.25C148.92 169.07 146.69 169.91 144.54 170.73C154.19 154.46 166.76 139.72 186.05 124.1C172.41 133.62 161.66 143.24 152.58 152.26C163.23 139.68 176.29 126.29 195.06 113.56C199.91 110.25 203.85 108.12 208.03 105.99C212.18 103.77 216.44 101.83 220.68 100.01C224.91 98.19 229.16 96.6 233.37 95.12C237.6 93.87 241.79 92.73 246.07 91.79C254.48 89.96 263.22 88.33 271.13 88.05C279.03 87.77 286.84 87.87 294.47 88.5C302.37 89 308.63 90.54 315.47 92.06C321.95 93.73 328.94 95.41 334.37 97.75C334.67 97.87 334.97 97.98 335.28 98.1C337.56 97.77 339.87 97.51 342.2 97.28C357.72 95.86 378.27 97.39 400.26 105.42C422.32 113.2 443.92 127.31 459.75 141.21C475.76 155.15 487.33 168.88 495.71 179.64C497.96 182.57 499.62 184.86 501.61 187.57C503.61 190.27 505.23 192.69 506.77 194.92L514.16 206.1C529.76 230.57 538.24 247.63 541.57 253.43C542.38 254.52 542.49 255.24 542.18 255.96C546.47 261.17 551.67 267.44 557.52 274.85C568.39 288.88 582.75 307.53 598.26 338.04C600.2 341.99 601.99 345.57 603.91 349.86L609.72 363.39L612.41 370.25L615.1 377.88C616.81 383.05 618.45 388.24 619.95 393.49C622.98 404.44 625.57 416.12 627.29 427.73C628.92 439.72 630.12 451.67 630.03 463.16C630.01 468.96 629.88 474.69 629.53 480.29L629.2 484.21L628.97 486.21L628.4 490.12C627.63 495.35 626.69 500.76 625.63 505.11C623.51 514.58 620.92 522.37 618.04 529.5C617.36 531.8 616.59 533.91 615.85 535.89C613.97 563.07 610.33 584.77 603.18 602.2C606.46 597 609.7 591.5 613.18 585C609.72 602.06 605.64 615.16 600.41 624.97C599.22 627.26 598.02 629.33 596.88 631.16L593.24 636.5C590.53 640.33 587.56 643.72 584.43 646.95C580.35 650.91 575.15 655.93 571 657.71C569.09 658.53 567.4 658.66 566.14 657.69C565.01 657.4 563.92 657.2 562.79 656.91C562.52 656.83 562.26 656.72 562 656.6C561.32 656.29 560.62 655.98 559.58 656.42C559.37 656.51 559.14 656.63 558.9 656.79C555.58 658.22 552.24 659.2 548.81 659.57L547.24 663.91L543.79 673.4L535.67 685.45C527.18 698 516.74 708.93 505.31 716.95C499.69 720.8 493.6 724.53 488.06 727.02L479.38 730.74C476.52 731.86 474 732.61 471.15 733.38C449.16 739.59 431.3 738.68 417.13 737.2C411.77 736.6 408.14 735.93 403.94 735.29C399.84 734.49 395.8 733.66 391.69 732.64C383.5 730.7 375.32 728.2 367.14 725.48C320 710.1 274.33 679.62 228.68 651.13C224.67 648.4 221.89 644.26 222.18 642.02C222.33 641.49 222.66 641.13 223.15 640.92C224.53 640.32 227.15 641.01 230.04 642.99C276.37 668.4 321.7 696.13 367.93 709.79C378.95 713.07 390.02 715.89 400.97 717.65C389.98 714.24 379.05 709.8 368.17 704.9C350.16 696.82 332.42 686.63 315.06 675.39C297.6 664.3 280.74 651.5 263.3 640.07C257.38 636.6 251.53 632.88 245.7 629.04C239.98 625.26 234.8 620.58 229.88 615.35C228.2 613.96 226.61 612.41 224.89 610.92L222.48 608.62L221.16 607.29L217.53 603.51C215.11 600.99 212.83 598.4 210.47 595.63C208.04 592.67 205.56 589.62 203.22 586.51C198.51 580.4 194.01 573.43 189.92 566.62C173.57 539.03 166.37 512.3 163.03 496.93C157.03 469.68 155.49 443.31 156.25 421.51C156.85 403.47 158.69 388.22 160.51 375.18C159.82 371.21 159.24 367.24 158.8 363.33C156.14 341.55 156.85 324.89 157.63 313.65L158.34 305.78L158.75 302.23C157.8 304.62 156.8 307.45 155.74 311.01C153.24 319.21 150.63 331.23 149.25 345.95C147.83 360.36 147.99 378.09 149.32 392.88C149.92 400.52 150.57 406.7 151.35 412.81C151.91 417.81 152.49 422.67 153.03 427.45C153.36 431.32 153.53 434.25 153.59 437.11C153.73 440.17 153.53 442.04 153.16 443.53C152.57 446.29 151.57 448.03 150.12 448.65C148.31 449.43 145.81 448.42 142.6 445.39C141.21 444.31 139.28 441.36 137.42 438.6C136.46 437.12 135.45 435.55 134.43 433.76C134.4 433.71 134.37 433.66 134.34 433.61C134.27 449.82 135.41 467.75 138.44 486.56C139.9 494.83 140.58 500.11 144.22 514.24C147.33 526.36 152.31 541.48 159.55 557.39C163.27 565.48 167.7 574.04 172.5 582.11C177.48 590.43 182.83 598.59 188.49 605.95C194.36 613.78 199.79 620.02 205.51 626.14ZM335.54 133.72C327.31 135.02 318.28 136.84 308.83 139.48C307.14 140.45 305.45 141.46 303.75 142.48C303.41 142.69 303.06 142.91 302.71 143.12C305.33 142.88 307.95 142.7 310.56 142.57C314.87 142.5 318.88 142.67 322.99 142.91C327.1 143.15 331.3 143.57 335.35 144.06C339.26 144.61 342.86 145.4 346.65 146.23C376.65 153.05 399.35 166.23 417.46 179.6C436.99 191.81 453.13 204.69 468.33 218.31C467.85 217.18 467.22 216.12 466.74 214.99C470.59 218.9 474.23 222.9 477.84 227.03L479.08 228.16C476.9 223.87 474.75 219.45 472.51 215.18L466.62 208.47C448.24 193.1 429.45 177.35 405.7 162.51C400.09 158.79 393.31 155.25 386.74 151.83C380.5 148.39 372.62 145.21 365.25 142.25C356.21 138.78 346.25 135.79 335.54 133.72ZM262.46 210.74C261.47 211.01 260.47 211.29 259.39 211.69C257.06 212.5 256.38 210.96 255.83 209.73C255.45 208.87 255.14 208.16 254.39 208.48C254.33 208.51 254.27 208.54 254.21 208.58C241.65 216.3 232.65 224.95 225.26 233.24C217.91 241.62 212.14 249.99 207.23 258.22C204.25 263.32 201.56 268.33 199.08 273.39C198.26 275.83 197.49 278.26 196.74 280.67C196.75 282.29 196.85 283.83 197.06 285.28C196.67 286.03 196.28 286.8 195.89 287.56C195.85 288.91 195.83 290.23 195.84 291.54C196.47 290.53 197.11 289.53 197.75 288.54C198.02 289.42 198.34 290.25 198.73 291.01L198.65 287.17C200.79 283.9 203 280.71 205.3 277.54C206.44 275.01 207.65 272.49 208.92 269.95C211.13 265.56 213.86 260.82 216.67 256.28C219.53 251.83 222.53 247.53 225.59 243.55C231.88 235.62 238.62 228.73 245.69 222.8C251.16 218.27 256.76 214.27 262.46 210.74ZM170.99 414.29C170.65 418.19 170.36 422.25 170.16 426.45C169.55 438.28 169.72 451.33 171 465.03C171.6 471.89 172.54 478.94 173.76 486.09C174.36 489.62 175.06 493.21 175.77 496.81L176.32 499.46L177.22 503.31L179.27 511.21C179.66 510.68 180.05 510.16 180.53 509.95C180.64 509.9 180.75 509.87 180.87 509.86C183.44 509.43 186.69 512.71 191.21 519.56C188.92 512.86 187.59 507.42 186.22 501.89C185.43 498.67 185.18 497.11 184.83 495.14L183.78 489.37C182.6 481.75 181.56 474.07 181.12 466.81C180.3 455.6 180.41 445.09 181.08 435.38C178.98 432 176.68 427.65 174.12 421.85C173.09 419.62 172.04 417.08 170.99 414.29ZM198.65 287.17C198.35 287.62 198.05 288.08 197.75 288.54C197.45 287.52 197.22 286.43 197.06 285.28C197.55 284.3 198.05 283.34 198.55 282.41L198.65 287.17ZM292.61 490.56L292.67 490.48C292.4 490.65 292.18 490.8 292 490.93L291.9 491.05C291.85 491.1 291.82 491.13 291.79 491.17L292.35 490.75C292.45 490.67 292.53 490.61 292.61 490.56ZM355.64 367.62L352.18 361.94L352.42 362.5L353.13 363.76C353.96 365.21 354.84 366.48 355.64 367.62ZM387.8 362.17L387.95 361.94L387.75 361.47L387.8 362.17ZM338 202.28C339.05 205.99 338.87 209.85 337.73 213.5C338.95 214.24 340.15 215 341.34 215.76C342.1 215.48 342.86 215.21 343.62 214.95C346.38 213.99 348 213.29 353.2 211.96C358.96 210.59 365.16 212.39 365.51 215.13C365.67 216.19 365.2 217.18 364.31 218.08C364.84 218.22 365.36 218.37 365.88 218.53C367.95 219.14 369.99 219.78 371.98 220.45C377.62 220.46 384.04 221.48 390.79 224.2C402.2 228.73 412.16 237.3 418.83 244.77C418.58 243.63 418.74 243.09 419.13 242.93C419.73 242.67 420.86 243.24 421.92 243.77C422.37 243.99 422.8 244.21 423.18 244.36C425.16 245.29 427.08 246.24 429.06 247.17C413.92 234.86 397.02 222.75 375.16 212.88C364.52 208.05 351.73 204.25 338 202.28ZM383.85 301.16C384.01 301.88 384.17 302.54 384.34 303.2C384.17 302.5 384 301.82 383.85 301.16ZM456.1 427.1L456.2 427.13L456.45 427.15C456.38 427.14 456.32 427.13 456.27 427.1L456.1 427.1Z" fill="url(#paint_linear_238_974_0)" fill-opacity="1.000000" fill-rule="evenodd"/>
</svg>