<svg width="692.000000" height="697.500000" viewBox="0 0 692 697.5" fill="none" xmlns="http://www.w3.org/2000/svg" xmlns:xlink="http://www.w3.org/1999/xlink">
	<desc>
			Created with Pixso.
	</desc>
	<defs>
		<linearGradient x1="553.912842" y1="215.564224" x2="138.087097" y2="481.935791" id="paint_linear_350_1908_0" gradientUnits="userSpaceOnUse">
			<stop stop-color="#FED632"/>
			<stop offset="1.000000" stop-color="#F2CD34"/>
		</linearGradient>
	</defs>
	<path id="Vector" d="M482.71 139.21L476.07 135.26C474.45 134.29 473.47 132.91 474.04 132.09C474.1 132.03 474.17 131.97 474.25 131.92C475.07 131.39 476.77 131.62 478.51 132.51L486.89 137.63C489.71 139.47 492.43 141.29 495.27 143.3C498.23 145.5 501.13 147.75 503.94 150.15C509.59 154.83 515.01 160.3 519.98 165.78C524.48 171.11 529.36 177.29 532.75 182.59C534.6 185.33 536.28 188.09 537.93 190.95C539.69 193.84 540.75 196.08 542.11 198.76C543.32 201.36 544.59 203.92 545.74 206.56L548.47 213.39L550.92 220.21L552.31 224.79C553.17 227.71 554.01 230.73 554.7 233.66C558.65 249.64 560.34 265.3 560.64 279.5C561.76 281.13 562.87 282.85 564.04 284.69C565.32 286.97 566.76 289.51 568.12 292.2C570.82 297.4 573.7 304.32 576.23 311.54C581.41 326.47 584.39 342.8 585.62 356.24C586.85 370.14 586.8 379.75 586.68 387.95C586.55 391.31 586.45 394.57 586.39 397.89C586.27 400.7 586.12 403.45 585.85 406.17C585.3 411.72 584.57 417.12 583.42 422.59C579 444.31 569.31 467.21 552.01 489.33C553.99 488.15 556.04 486.93 558.02 485.75C549.67 501.04 538.53 515.84 521.15 532.99C533.49 522.08 543.14 511.79 551.26 502.39C541.83 515.01 530.17 528.85 513.16 543.59C508.76 547.4 505.18 550.07 501.36 552.79C497.58 555.57 493.68 558.16 489.8 560.65L489.79 560.65C485.91 563.14 482.01 565.45 478.14 567.66C474.25 569.7 470.37 571.63 466.42 573.43C458.64 576.96 450.55 580.41 443.18 582.58C435.81 584.74 428.51 586.59 421.37 587.97C413.97 589.52 408.06 589.84 401.62 590.32C395.5 590.59 388.91 590.98 383.74 590.46C383.46 590.44 383.18 590.42 382.88 590.4C380.76 591.22 378.62 592 376.45 592.75C362.03 597.71 342.78 601.56 321.92 600.6C301.01 599.86 280.28 593.98 264.94 586.84C249.43 579.72 238.07 571.67 229.82 565.19C227.59 563.42 225.96 562.01 223.98 560.35C222.01 558.7 220.4 557.18 218.87 555.78L211.52 548.73C195.97 533.14 187.36 521.69 184.02 517.9C183.22 517.24 183.09 516.69 183.34 516.05C179.13 512.96 174.03 509.27 168.26 504.83C157.55 496.37 143.39 485.1 127.68 464.7C125.7 462.04 123.9 459.64 121.92 456.71L115.96 447.39L113.17 442.61L110.35 437.21C108.54 433.54 106.8 429.82 105.19 426.02C101.92 418.08 99.03 409.44 96.96 400.64C94.95 391.53 93.35 382.34 92.96 373.19C92.75 368.58 92.64 364 92.74 359.47L92.89 356.27L93.02 354.63L93.4 351.38C93.91 347.04 94.57 342.52 95.38 338.8C96.98 330.76 99.08 323.94 101.48 317.57C102.03 315.57 102.66 313.71 103.26 311.95C103.92 289.91 106.45 271.79 112.42 256.19C109.56 261.13 106.76 266.29 103.78 272.31C106.32 257.91 109.6 246.51 114.09 237.43C115.1 235.32 116.14 233.38 117.13 231.65L120.32 226.51C122.68 222.8 125.32 219.38 128.11 216.04C131.76 211.89 136.41 206.63 140.22 204.19C141.97 203.07 143.54 202.55 144.76 203.01C145.82 202.96 146.85 202.85 147.91 202.81C148.17 202.8 148.42 202.83 148.67 202.86C149.32 202.93 149.98 203.01 150.93 202.4C151.13 202.28 151.33 202.13 151.55 201.94C154.59 199.99 157.67 198.38 160.86 197.25L162.15 193.42L164.99 185.03L172.08 173.46C179.5 161.41 188.8 150.16 199.16 140.98C204.24 136.53 209.78 132.07 214.85 128.74L222.8 123.64C225.43 122.05 227.76 120.83 230.38 119.52C250.66 109.17 267.37 105.49 280.66 103.18C285.68 102.33 289.1 101.97 293.05 101.44C296.91 101.07 300.71 100.73 304.59 100.53C312.32 100.05 320.05 100.02 327.8 100.16C372.43 100.76 416.3 113.71 460.06 125.08C463.92 126.26 466.68 128.86 466.5 130.71C466.39 131.17 466.09 131.54 465.65 131.82C464.37 132.64 461.91 132.73 459.13 131.88C414.85 123.12 371.41 112.27 327.7 112.82C317.28 112.92 306.83 113.41 296.54 114.72C306.93 114.72 317.32 115.54 327.67 116.76C344.81 118.73 361.78 122.45 378.45 127.1C395.2 131.61 411.45 137.61 428.19 142.39C433.86 143.69 439.48 145.2 445.07 146.81C450.56 148.41 455.59 150.84 460.39 153.78C462.02 154.47 463.56 155.31 465.23 156.07L467.57 157.3L468.86 158.03L472.4 160.14C474.76 161.55 476.99 163.03 479.3 164.65C481.7 166.4 484.14 168.22 486.45 170.11C491.09 173.8 495.57 178.23 499.66 182.63C516.04 200.5 523.85 219.95 527.58 231.33C534.28 251.48 536.79 272.04 536.96 289.54C537.13 304 536.02 316.57 534.85 327.37C535.66 330.35 536.36 333.36 536.93 336.35C540.29 352.99 540.3 366.39 540.03 375.5L539.68 381.93L539.44 384.85C540.24 382.72 541.05 380.22 541.9 377.13C543.9 370.01 545.86 359.82 546.54 347.8C547.29 336.01 546.42 321.97 544.58 310.56C543.71 304.64 542.86 299.9 541.88 295.23C541.16 291.41 540.42 287.69 539.72 284.03C539.26 281.04 538.99 278.75 538.81 276.49C538.56 274.1 538.67 272.57 538.95 271.29C539.39 268.96 540.26 267.32 541.58 266.48C543.25 265.41 545.62 265.6 548.74 267.21C550.07 267.73 552 269.6 553.84 271.33C554.81 272.27 555.81 273.26 556.83 274.44C556.86 274.47 556.89 274.5 556.92 274.54C556.33 261.64 554.55 247.69 550.96 233.5C549.26 227.3 548.42 223.27 544.45 212.95C541.05 204.09 535.8 193.32 528.39 182.47C524.59 176.97 520.11 171.26 515.31 166.04C510.31 160.66 505 155.49 499.41 151.05C493.62 146.27 488.29 142.66 482.71 139.21ZM381.2 562.19C388.83 559.13 397.19 555.46 405.9 551.03C407.44 549.84 408.98 548.63 410.52 547.4C410.84 547.15 411.15 546.89 411.47 546.64C409.03 547.48 406.59 548.26 404.16 549.01C400.14 550.13 396.39 550.98 392.54 551.8C388.69 552.62 384.76 553.32 380.96 553.93C377.28 554.46 373.89 554.72 370.33 554.99C342.04 556.97 320.31 552.1 302.87 545.94C284.14 541.06 268.55 534.81 253.81 527.75C254.31 528.52 254.94 529.21 255.43 529.99C251.68 527.83 248.12 525.55 244.58 523.17L243.38 522.57C245.59 525.44 247.77 528.42 250.04 531.26L255.81 535.13C273.59 542.81 291.76 550.68 314.54 556.62C319.92 558.19 326.4 559.33 332.66 560.42C338.63 561.62 346.12 562.2 353.12 562.73C361.7 563.26 371.12 563.18 381.2 562.19ZM446.32 483.03C447.23 482.58 448.15 482.11 449.14 481.52C451.29 480.3 451.98 481.36 452.54 482.21C452.93 482.79 453.25 483.28 453.94 482.84C453.99 482.81 454.05 482.77 454.1 482.72C465.52 473.49 473.57 464.41 480.14 456.01C486.66 447.54 491.71 439.48 495.96 431.73C498.53 426.95 500.85 422.31 502.96 417.69C503.62 415.54 504.25 413.43 504.84 411.33C504.77 410.04 504.61 408.84 504.37 407.75C504.7 407.05 505.03 406.35 505.36 405.64C505.35 404.57 505.31 403.51 505.25 402.47C504.7 403.43 504.14 404.38 503.58 405.33C503.3 404.69 502.96 404.12 502.57 403.6L502.8 406.64C500.93 409.76 499 412.84 496.98 415.92C496.02 418.21 495 420.51 493.91 422.83C492.03 426.87 489.67 431.3 487.22 435.6C484.74 439.84 482.1 443.99 479.41 447.9C473.86 455.75 467.85 462.88 461.49 469.33C456.56 474.27 451.49 478.83 446.32 483.03ZM523.49 298.9C523.65 295.72 523.75 292.43 523.78 289.04C523.87 279.5 523.18 269.18 521.44 258.62C520.59 253.32 519.44 247.95 518 242.58C517.3 239.92 516.5 237.24 515.7 234.56L515.07 232.59L514.08 229.76L511.84 223.99C511.5 224.51 511.16 225.02 510.72 225.3C510.62 225.37 510.52 225.42 510.41 225.46C508.03 226.43 504.86 224.63 500.36 220.31C502.77 225.06 504.23 229.05 505.73 233.1C506.6 235.46 506.9 236.64 507.3 238.12L508.52 242.44C509.93 248.2 511.21 254.04 511.91 259.7C513.13 268.39 513.45 276.76 513.22 284.64C515.31 286.8 517.64 289.7 520.26 293.67C521.31 295.19 522.4 296.94 523.49 298.9ZM502.8 406.64C503.06 406.2 503.32 405.77 503.58 405.33C503.91 406.06 504.17 406.87 504.37 407.75C503.94 408.64 503.51 409.53 503.09 410.39L502.8 406.64ZM406.87 268.31L406.82 268.38C407.06 268.19 407.26 268.01 407.42 267.87L407.51 267.74C407.55 267.7 407.58 267.66 407.61 267.63L407.1 268.1C407.02 268.18 406.94 268.25 406.87 268.31ZM352.99 381.44L356.45 385.1L356.2 384.71L355.49 383.89C354.65 382.94 353.78 382.15 352.99 381.44ZM323.18 393.69L323.05 393.91L323.26 394.23L323.18 393.69ZM376.14 508.36C375 505.68 375.02 502.57 375.93 499.39C374.76 499.1 373.61 498.8 372.47 498.48C371.77 498.89 371.08 499.29 370.38 499.69C367.84 501.13 366.35 502.08 361.56 504.42C356.23 506.93 350.37 507.03 349.94 504.94C349.74 504.14 350.14 503.23 350.93 502.31C350.43 502.32 349.94 502.33 349.45 502.33C347.49 502.36 345.57 502.35 343.68 502.31C338.41 503.69 332.38 504.47 325.96 503.97C315.13 503.18 305.49 498.83 298.96 494.54C299.24 495.39 299.11 495.85 298.75 496.08C298.2 496.43 297.12 496.26 296.12 496.1C295.69 496.03 295.27 495.96 294.92 495.94C293.03 495.69 291.2 495.4 289.31 495.16C303.94 501.2 320.2 506.65 341.02 509.1C351.15 510.31 363.24 510.18 376.14 508.36ZM329.33 441.16C329.16 440.62 328.98 440.14 328.8 439.66C328.99 440.17 329.17 440.67 329.33 441.16ZM256.8 358.97L256.7 358.97L256.47 359.01C256.53 359 256.6 359 256.64 359.01L256.8 358.97Z" fill="url(#paint_linear_350_1908_0)" fill-opacity="1.000000" fill-rule="evenodd"/>
</svg>
