<svg width="24.000000" height="24.000000" viewBox="0 0 24 24" fill="none" xmlns="http://www.w3.org/2000/svg" xmlns:xlink="http://www.w3.org/1999/xlink">
	<desc>
			Created with Pixso.
	</desc>
	<defs>
		<clipPath id="clip478_3968">
			<rect id="whatsapp" width="24.000000" height="24.000000" fill="white" fill-opacity="0"/>
		</clipPath>
	</defs>
	<rect id="whatsapp" width="24.000000" height="24.000000" fill="#FFFFFF" fill-opacity="0"/>
	<g clip-path="url(#clip478_3968)">
		<path id="primary" d="M20.05 17.92C19.12 19.19 17.9 20.22 16.49 20.93C15.08 21.64 13.52 22 11.95 22C10.37 21.99 8.82 21.61 7.42 20.89L2 22L3.11 16.58C2.38 15.17 2 13.61 2 12.03C1.99 10.45 2.36 8.88 3.08 7.47C3.79 6.06 4.83 4.84 6.11 3.91C7.39 2.98 8.87 2.36 10.44 2.12C12 1.87 13.6 2 15.11 2.49C16.61 2.98 17.98 3.83 19.09 4.95C20.21 6.07 21.04 7.44 21.52 8.95C22 10.46 22.12 12.06 21.86 13.62C21.61 15.18 20.99 16.65 20.05 17.92ZM8.31 10.82L10.01 9.11L9.56 7.55L7.55 7.55C7.55 7.55 7.1 10.38 10.35 13.62C13.61 16.87 16.44 16.44 16.44 16.44L16.44 14.43L14.88 13.99L13.17 15.69" stroke="#FFFFFF" stroke-opacity="1.000000" stroke-width="2.222241" stroke-linejoin="round" stroke-linecap="round"/>
	</g>
</svg>
