<svg width="100.000000" height="100.000000" viewBox="0 0 100 100" fill="none" xmlns="http://www.w3.org/2000/svg" xmlns:xlink="http://www.w3.org/1999/xlink">
	<desc>
			Created with Pixso.
	</desc>
	<defs>
		<clipPath id="clip350_2119">
			<rect id="solar:camera-outline" width="80.000000" height="80.000000" transform="translate(10.000000 10.000000)" fill="white" fill-opacity="0"/>
		</clipPath>
		<clipPath id="clip350_2118">
			<rect id="Frame 28" width="100.000000" height="100.000000" fill="white" fill-opacity="0"/>
		</clipPath>
	</defs>
	<g clip-path="url(#clip350_2118)">
		<rect id="solar:camera-outline" width="80.000000" height="80.000000" transform="translate(10.000000 10.000000)" fill="#FFFFFF" fill-opacity="0"/>
		<g clip-path="url(#clip350_2119)">
			<path id="Vector" d="M35.32 24.95C36.21 20.59 40.1 17.5 44.55 17.5L55.44 17.5C59.89 17.5 63.78 20.59 64.67 24.95C64.77 25.43 65.02 25.87 65.4 26.18C65.77 26.5 66.24 26.68 66.74 26.7L66.85 26.7C71.52 26.91 75.12 27.48 78.12 29.45C80.01 30.69 81.63 32.28 82.9 34.15C84.48 36.46 85.17 39.12 85.5 42.33C85.83 45.48 85.83 49.41 85.83 54.4L85.83 54.68C85.83 59.67 85.83 63.61 85.5 66.75C85.17 69.96 84.48 72.62 82.9 74.94C81.63 76.8 80 78.4 78.12 79.64C75.77 81.17 73.08 81.85 69.82 82.18C66.63 82.5 62.63 82.5 57.54 82.5L42.45 82.5C37.37 82.5 33.36 82.5 30.17 82.18C26.91 81.85 24.22 81.18 21.88 79.64C19.99 78.4 18.36 76.8 17.09 74.93C15.52 72.62 14.82 69.96 14.49 66.75C14.16 63.61 14.16 59.67 14.16 54.68L14.16 54.4C14.16 49.41 14.16 45.48 14.49 42.33C14.82 39.12 15.52 36.46 17.09 34.15C18.36 32.28 19.99 30.68 21.88 29.45C24.88 27.48 28.47 26.91 33.15 26.7L33.2 26.7L33.25 26.7C33.75 26.68 34.22 26.5 34.59 26.18C34.97 25.87 35.22 25.43 35.32 24.95ZM44.55 22.5C42.42 22.5 40.63 23.97 40.22 25.95C39.57 29.15 36.73 31.67 33.32 31.7C28.82 31.9 26.42 32.45 24.62 33.63C23.28 34.51 22.13 35.64 21.23 36.96C20.31 38.31 19.75 40.04 19.46 42.85C19.17 45.7 19.16 49.38 19.16 54.54C19.16 59.7 19.16 63.38 19.46 66.23C19.75 69.04 20.31 70.77 21.23 72.12C22.12 73.44 23.27 74.57 24.62 75.46C26.01 76.37 27.79 76.92 30.67 77.2C33.58 77.49 37.33 77.5 42.59 77.5L57.4 77.5C62.66 77.5 66.41 77.5 69.33 77.2C72.2 76.92 73.98 76.37 75.37 75.46C76.72 74.57 77.87 73.44 78.76 72.12C79.69 70.77 80.24 69.04 80.53 66.23C80.83 63.38 80.83 59.7 80.83 54.54C80.83 49.38 80.83 45.7 80.53 42.85C80.24 40.04 79.69 38.31 78.76 36.96C77.86 35.64 76.71 34.5 75.37 33.63C73.58 32.45 71.17 31.9 66.67 31.7C63.26 31.67 60.42 29.15 59.77 25.95C59.56 24.96 59.01 24.08 58.22 23.45C57.43 22.82 56.45 22.48 55.44 22.5L44.55 22.5ZM50 45.83C48.01 45.83 46.1 46.62 44.69 48.03C43.29 49.43 42.5 51.34 42.5 53.33C42.5 55.32 43.29 57.23 44.69 58.63C46.1 60.04 48.01 60.83 50 60.83C51.98 60.83 53.89 60.04 55.3 58.63C56.71 57.23 57.5 55.32 57.5 53.33C57.5 51.34 56.71 49.43 55.3 48.03C53.89 46.62 51.98 45.83 50 45.83ZM37.5 53.33C37.5 50.01 38.81 46.83 41.16 44.49C43.5 42.15 46.68 40.83 50 40.83C53.31 40.83 56.49 42.15 58.83 44.49C61.18 46.83 62.5 50.01 62.5 53.33C62.5 56.64 61.18 59.82 58.83 62.17C56.49 64.51 53.31 65.83 50 65.83C46.68 65.83 43.5 64.51 41.16 62.17C38.81 59.82 37.5 56.64 37.5 53.33ZM67.5 43.33C67.5 42.67 67.76 42.03 68.23 41.56C68.7 41.09 69.33 40.83 70 40.83L73.33 40.83C73.99 40.83 74.63 41.09 75.1 41.56C75.57 42.03 75.83 42.67 75.83 43.33C75.83 43.99 75.57 44.63 75.1 45.1C74.63 45.56 73.99 45.83 73.33 45.83L70 45.83C69.33 45.83 68.7 45.56 68.23 45.1C67.76 44.63 67.5 43.99 67.5 43.33Z" fill="#000000" fill-opacity="1.000000" fill-rule="evenodd"/>
		</g>
	</g>
</svg>