<svg width="100.000000" height="100.000000" viewBox="0 0 100 100" fill="none" xmlns="http://www.w3.org/2000/svg" xmlns:xlink="http://www.w3.org/1999/xlink">
	<desc>
			Created with Pixso.
	</desc>
	<defs>
		<clipPath id="clip350_2113">
			<rect id="fluent:vehicle-car-profile-rtl-20-regular" width="88.000000" height="88.000000" transform="translate(6.000000 6.000000)" fill="white" fill-opacity="0"/>
		</clipPath>
		<clipPath id="clip350_2112">
			<rect id="Frame 29" width="100.000000" height="100.000000" fill="white" fill-opacity="0"/>
		</clipPath>
	</defs>
	<g clip-path="url(#clip350_2112)">
		<rect id="fluent:vehicle-car-profile-rtl-20-regular" width="88.000000" height="88.000000" transform="translate(6.000000 6.000000)" fill="#FFFFFF" fill-opacity="0"/>
		<g clip-path="url(#clip350_2113)">
			<path id="Vector" d="M69.72 32.51L72.61 41.2L58.8 41.2L58.8 28L63.45 28C64.84 28 66.19 28.43 67.31 29.24C68.44 30.05 69.28 31.2 69.72 32.51ZM74.08 45.6L74.09 45.64L75.26 45.93L75.8 46.06C77.23 46.42 78.49 47.24 79.4 48.4C80.3 49.57 80.8 51 80.8 52.47L80.8 59.9C80.8 60.6 80.58 61.26 80.19 61.8C79.4 59.52 77.89 57.56 75.88 56.22C73.87 54.89 71.48 54.25 69.07 54.41C66.66 54.57 64.37 55.52 62.56 57.1C60.74 58.69 59.5 60.83 59.02 63.2L40.98 63.2C40.49 60.83 39.25 58.69 37.43 57.1C35.62 55.52 33.33 54.57 30.92 54.41C28.51 54.25 26.12 54.89 24.11 56.22C22.1 57.56 20.59 59.52 19.8 61.8C19.41 61.24 19.2 60.58 19.2 59.9L19.2 54.56C19.19 53.1 19.67 51.69 20.56 50.53C21.45 49.38 22.69 48.55 24.1 48.18L33.79 45.6L74.08 45.6ZM37.36 41.2L42.81 31.39C43.38 30.36 44.21 29.51 45.23 28.91C46.24 28.31 47.39 28 48.57 28L54.4 28L54.4 41.2L37.36 41.2ZM14.8 59.9C14.8 63.01 16.64 65.69 19.3 66.9C19.65 69.47 20.9 71.84 22.83 73.58C24.76 75.32 27.25 76.32 29.84 76.4C32.44 76.49 34.98 75.65 37.02 74.04C39.06 72.42 40.46 70.14 40.98 67.6L59.02 67.6C59.53 70.14 60.93 72.42 62.97 74.04C65.01 75.65 67.55 76.49 70.15 76.4C72.75 76.32 75.23 75.32 77.16 73.58C79.09 71.84 80.34 69.47 80.69 66.9C82.04 66.29 83.17 65.3 83.97 64.06C84.77 62.82 85.2 61.37 85.2 59.9L85.2 52.47C85.2 50.13 84.45 47.85 83.07 45.97C81.69 44.08 79.74 42.68 77.51 41.98L73.89 31.11C73.16 28.93 71.76 27.02 69.89 25.67C68.01 24.32 65.77 23.6 63.46 23.6L48.57 23.6C46.61 23.59 44.68 24.12 42.99 25.11C41.3 26.11 39.9 27.54 38.95 29.25L32.17 41.47L22.97 43.93C20.62 44.55 18.55 45.93 17.07 47.85C15.6 49.78 14.8 52.13 14.8 54.56L14.8 59.9ZM69.8 58.8C71.55 58.8 73.22 59.49 74.46 60.73C75.7 61.97 76.4 63.64 76.4 65.4C76.4 67.15 75.7 68.82 74.46 70.06C73.22 71.3 71.55 72 69.8 72C68.04 72 66.37 71.3 65.13 70.06C63.89 68.82 63.2 67.15 63.2 65.4C63.2 63.64 63.89 61.97 65.13 60.73C66.37 59.49 68.04 58.8 69.8 58.8ZM30.2 58.8C31.95 58.8 33.62 59.49 34.86 60.73C36.1 61.97 36.8 63.64 36.8 65.4C36.8 67.15 36.1 68.82 34.86 70.06C33.62 71.3 31.95 72 30.2 72C28.44 72 26.77 71.3 25.53 70.06C24.29 68.82 23.6 67.15 23.6 65.4C23.6 63.64 24.29 61.97 25.53 60.73C26.77 59.49 28.44 58.8 30.2 58.8Z" fill="#000000" fill-opacity="1.000000" fill-rule="nonzero"/>
		</g>
	</g>
</svg>