<svg width="100.000000" height="100.000000" viewBox="0 0 100 100" fill="none" xmlns="http://www.w3.org/2000/svg" xmlns:xlink="http://www.w3.org/1999/xlink">
	<desc>
			Created with Pixso.
	</desc>
	<defs>
		<clipPath id="clip350_2124">
			<rect id="Frame 27" width="100.000000" height="100.000000" fill="white" fill-opacity="0"/>
		</clipPath>
	</defs>
	<g clip-path="url(#clip350_2124)">
		<path id="Union" d="M77.458 30.881C77.0786 29.7048 75.8562 29.0791 74.6799 29.4587C73.5039 29.8383 72.8782 31.0607 73.2578 32.2368L74.6135 36.4373L55.3127 42.6672L57.1155 46.7234L86.4705 37.2482C87.6465 36.8685 88.2725 35.6461 87.8928 34.47C87.5132 33.2938 86.2908 32.6681 85.1145 33.0477L78.814 35.0814L77.458 30.881ZM40.4021 68.0824L49.2297 46.0132Q49.3997 45.5889 49.6946 45.2866Q49.9895 44.9844 50.4097 44.8043Q50.8296 44.6243 51.252 44.6191Q51.6741 44.614 52.0986 44.7837Q52.3088 44.8678 52.4941 44.99Q52.6792 45.1122 52.8394 45.2723Q52.9995 45.4324 53.1216 45.6177Q53.2439 45.8029 53.3279 46.0132L62.1555 68.0824C62.6147 69.2299 62.0737 70.4921 60.9263 70.951C59.7788 71.41 58.5166 70.8691 58.0576 69.7216L51.2788 52.7751L44.5002 69.7216C44.0413 70.8691 42.7791 71.41 41.6316 70.951C40.4841 70.4921 39.9431 69.2299 40.4021 68.0824ZM24.2083 52.7072L45.894 45.7074L43.4875 51.1222L15.063 60.2971C13.887 60.6768 12.6646 60.0509 12.2849 58.8748C11.9053 57.6986 12.531 56.4763 13.7073 56.0967L20.0078 54.0629L18.6521 49.8625C18.2725 48.6864 18.8982 47.464 20.0742 47.0844C21.2505 46.7047 22.4729 47.3306 22.8525 48.5067L24.2083 52.7072Z" clip-rule="evenodd" fill="#000000" fill-opacity="1.000000" fill-rule="evenodd"/>
	</g>
</svg>