<svg width="100.000000" height="100.000000" viewBox="0 0 100 100" fill="none" xmlns="http://www.w3.org/2000/svg" xmlns:xlink="http://www.w3.org/1999/xlink">
	<desc>
			Created with Pixso.
	</desc>
	<defs>
		<clipPath id="clip350_2107">
			<rect id="healthicons:forest-outline" width="100.000000" height="100.000000" fill="white" fill-opacity="0"/>
		</clipPath>
	</defs>
	<rect id="healthicons:forest-outline" width="100.000000" height="100.000000" fill="#FFFFFF" fill-opacity="0"/>
	<g clip-path="url(#clip350_2107)">
		<path id="Vector" d="M29.16 62.34C19.79 60.96 12.5 50.36 12.5 37.5C12.5 23.69 20.89 12.5 31.25 12.5C41.6 12.5 50 23.69 50 37.5C50 50.36 42.7 60.96 33.33 62.34L33.33 77.08L66.66 77.08L66.66 62.59L56.81 62.59C55.28 62.59 53.79 62.07 52.58 61.12C51.38 60.17 50.53 58.84 50.18 57.34C49.82 55.85 49.98 54.28 50.63 52.89C51.28 51.5 52.38 50.36 53.76 49.68C53.15 47.64 53.33 45.44 54.26 43.53C55.19 41.61 56.8 40.11 58.78 39.33C58.43 37.83 58.43 36.27 58.77 34.77C59.11 33.27 59.79 31.87 60.74 30.66C61.7 29.46 62.92 28.49 64.3 27.82C65.69 27.15 67.21 26.81 68.75 26.81C70.28 26.81 71.8 27.15 73.19 27.82C74.57 28.49 75.79 29.46 76.75 30.66C77.7 31.87 78.38 33.27 78.72 34.77C79.06 36.27 79.06 37.83 78.71 39.33C80.69 40.11 82.3 41.61 83.23 43.53C84.16 45.44 84.34 47.64 83.73 49.68C85.11 50.36 86.21 51.5 86.86 52.89C87.51 54.28 87.67 55.85 87.31 57.34C86.96 58.84 86.11 60.17 84.91 61.12C83.7 62.07 82.21 62.59 80.68 62.59L70.83 62.59L70.83 77.08L82.29 77.08C83.67 77.08 84.99 77.63 85.97 78.6C86.95 79.58 87.5 80.91 87.5 82.29C87.5 83.67 86.95 84.99 85.97 85.97C84.99 86.95 83.67 87.5 82.29 87.5L17.7 87.5C16.32 87.5 15 86.95 14.02 85.97C13.04 84.99 12.5 83.67 12.5 82.29C12.5 80.91 13.04 79.58 14.02 78.6C15 77.63 16.32 77.08 17.7 77.08L29.16 77.08L29.16 62.34ZM45.83 37.5C45.83 43.58 43.97 48.94 41.17 52.67C38.92 55.68 36.17 57.51 33.33 58.11L33.33 51.04L29.16 51.04L29.16 58.11C26.32 57.51 23.57 55.68 21.32 52.67C18.52 48.94 16.66 43.58 16.66 37.5C16.66 31.41 18.52 26.05 21.32 22.32C24.12 18.58 27.67 16.66 31.25 16.66C34.82 16.66 38.37 18.58 41.17 22.32C43.97 26.05 45.83 31.41 45.83 37.5ZM74.65 38.39L73.85 41.88L77.17 43.2C78.18 43.6 79.01 44.37 79.49 45.35C79.96 46.33 80.05 47.45 79.74 48.49L78.75 51.83L81.86 53.4C82.4 53.67 82.83 54.11 83.08 54.65C83.33 55.19 83.4 55.8 83.26 56.38C83.12 56.96 82.79 57.48 82.32 57.85C81.85 58.22 81.27 58.42 80.68 58.42L70.83 58.42L70.83 53.12L66.66 53.12L66.66 58.42L56.81 58.42C56.22 58.42 55.64 58.22 55.17 57.85C54.7 57.48 54.37 56.96 54.23 56.38C54.09 55.8 54.16 55.19 54.41 54.65C54.66 54.11 55.09 53.67 55.63 53.4L58.74 51.83L57.75 48.49C57.44 47.45 57.53 46.33 58 45.35C58.48 44.37 59.31 43.6 60.32 43.2L63.64 41.88L62.84 38.39C62.63 37.5 62.63 36.58 62.83 35.69C63.04 34.8 63.44 33.97 64 33.26C64.57 32.54 65.29 31.97 66.11 31.57C66.93 31.18 67.83 30.97 68.75 30.97C69.66 30.97 70.56 31.18 71.38 31.57C72.2 31.97 72.92 32.54 73.49 33.26C74.05 33.97 74.45 34.8 74.66 35.69C74.86 36.58 74.86 37.5 74.65 38.39ZM16.66 82.29C16.66 82.01 16.77 81.75 16.97 81.55C17.16 81.35 17.43 81.25 17.7 81.25L82.29 81.25C82.56 81.25 82.83 81.35 83.02 81.55C83.22 81.75 83.33 82.01 83.33 82.29C83.33 82.56 83.22 82.83 83.02 83.02C82.83 83.22 82.56 83.33 82.29 83.33L17.7 83.33C17.43 83.33 17.16 83.22 16.97 83.02C16.77 82.83 16.66 82.56 16.66 82.29Z" fill="#000000" fill-opacity="1.000000" fill-rule="evenodd"/>
	</g>
</svg>