<svg width="298.976074" height="297.229492" viewBox="0 0 298.976 297.229" fill="none" xmlns="http://www.w3.org/2000/svg" xmlns:xlink="http://www.w3.org/1999/xlink">
	<desc>
			Created with Pixso.
	</desc>
	<defs>
		<clipPath id="clip350_1945">
			<rect id="green leaf element" width="267.000000" height="269.000000" transform="translate(31.903320 297.229492) rotate(-96.862572)" fill="white" fill-opacity="0"/>
		</clipPath>
	</defs>
	<rect id="green leaf element" width="267.000000" height="269.000000" transform="translate(31.903320 297.229492) rotate(-96.862572)" fill="#FFFFFF" fill-opacity="0"/>
	<g clip-path="url(#clip350_1945)">
		<path id="Vector" d="M253.96 243.27C256.19 244.4 258.46 245.5 260.74 246.49C262.63 247.32 264.42 244.41 262.6 243.31C260.23 241.85 257.92 240.36 255.55 238.91C260.66 223.22 273.28 211.65 274.35 194.26C275.32 178.42 273.48 162.46 269.09 147.24C258.77 111.54 232.37 84.87 203.93 62.4C188.97 50.59 172.66 37.59 154.21 31.86C146.45 29.45 138.36 28.92 130.39 27.58C120.19 25.88 110.41 22.46 100.1 21.28C84.42 19.47 69.24 26.89 56.6 35.38C44.27 43.67 34.99 54.76 19.7 52.01C19.35 51.55 18.98 51.12 18.59 50.67C17.14 49.15 14.76 50.42 15.07 52.12C15.04 52.33 15.09 52.57 15.28 52.81C15.34 52.85 15.38 52.93 15.43 52.97C23.04 63.12 12.93 77.37 10.23 87.83C6.61 101.98 10.02 116.54 14.01 130.2C18.85 146.74 22.75 163.74 31.32 178.86C40.5 195.07 58.18 202.23 71.52 214.24C79.07 221.04 86.03 227.96 94.54 233.61C102.55 238.93 111.33 243.07 120.12 246.84C136.58 253.94 153.55 260.55 170.84 265.25C197.41 272.42 235.6 268.28 252.65 243.93C253.14 243.87 253.58 243.6 253.94 243.24L253.96 243.27Z" fill="#AEBFAC" fill-opacity="1.000000" fill-rule="nonzero"/>
		<path id="Vector" d="M264.78 247.82C257.44 243.82 250.39 239.26 243.58 234.38C235.83 241.44 226.77 247.33 217.14 251.31C211.86 253.48 206.15 256.01 200.43 256.73C197 257.14 193.63 257.23 190.17 257.44C190.01 257.45 179.25 257.91 183 261.41C183.03 261.44 183.01 261.49 182.95 261.47C181.9 260.62 180.89 259.69 179.98 258.69C179.65 258.39 179.66 257.83 180.14 257.64C185.03 255.71 189.89 255.57 195.07 254.97C201.42 254.21 207.48 252.34 213.31 249.74C220.42 246.56 227.31 242.86 233.37 237.91C235.75 235.96 238.01 233.97 240.41 232.15C235.92 228.84 231.55 225.41 227.23 221.94C220.21 227.46 211.05 229.59 202.56 231.88C193.64 234.27 184.98 236.92 175.68 237.46C156.58 238.57 137.43 234.97 120.16 226.73C119.18 226.24 119.79 224.74 120.81 225.14C138.85 232.29 158.34 236.54 177.81 233.91C186.59 232.72 194.96 230.15 203.46 227.73C210.6 225.71 217.9 223.65 223.98 219.35C223.72 219.15 223.46 218.91 223.17 218.71C222.13 218.6 221.23 217.94 221.03 216.96C220.8 216.78 220.59 216.59 220.36 216.44C215.09 212.11 209.85 207.78 204.6 203.42C199.24 209.37 189.36 212.96 182.18 214.91C171.75 217.75 161.16 218.81 150.39 218.74C130.1 218.59 109.28 214.18 90.88 205.6C90.1 205.22 90.59 204.03 91.42 204.35C110.45 212.25 131.74 216.36 152.37 215.65C162.61 215.28 173.11 214.13 182.8 210.64C189.68 208.17 195.12 204.04 201.22 200.61C191.75 192.73 182.23 184.87 172.62 177.14C172.75 177.83 172.5 178.55 171.66 178.81C155.07 184.18 136.63 187.27 119.2 185.62C101.31 183.95 83.81 179.49 66.6 174.43C65.56 174.13 66.06 172.33 67.09 172.6C84.38 176.8 101.78 181.44 119.64 182.32C130.21 182.85 140.84 182.39 151.09 179.57C157.04 177.93 164.53 174.63 170.8 175.67C170.34 175.3 169.9 174.93 169.46 174.56C167.3 172.84 165.19 171.09 163.05 169.37C162.83 169.24 162.62 169.1 162.47 168.88C156.01 163.7 149.55 158.51 143.17 153.24C142.93 154.11 142.23 154.88 141.09 154.86C134.14 154.75 127.56 157.97 120.65 157.61C112.82 157.21 104.89 156.21 97.15 155.03C82.9 152.89 68.1 149.63 56.67 140.35C55.93 139.75 56.79 138.72 57.56 139.21C71.33 148.13 86.87 151.17 102.98 152.64C110.13 153.28 118.3 154.94 125.37 153.4C130.44 152.31 135.31 150.88 140.47 151C138.15 149.09 135.89 147.14 133.6 145.23C133.07 145.03 132.64 144.69 132.39 144.21C126.79 139.53 121.19 134.9 115.64 130.16C114.9 129.54 114.19 128.88 113.45 128.26C113.45 128.26 113.45 128.26 113.4 128.29C105.16 133.88 91.53 130.95 82.61 128.75C72.71 126.3 63.19 121.99 54.81 116.19C53.92 115.58 54.96 114.32 55.84 114.87C64.65 120.49 74.88 124.85 85.21 126.67C90.17 127.55 95.3 128.25 100.34 127.86C103.98 127.58 107.47 126.58 111.06 126.15C109.29 124.59 107.57 123 105.82 121.39C104.67 122.4 102.33 120.89 103.2 119.39C103.25 119.3 103.29 119.22 103.33 119.13C98.39 114.5 93.55 109.78 88.68 105.06C85.95 110.43 76.69 108.3 72.27 107.12C66.03 105.44 59.31 102.48 54.46 98.07C53.78 97.47 54.62 96.36 55.35 96.94C59.51 100.37 65.01 102.66 70.15 104.18C76.5 106.05 81.31 106.32 87.3 103.7C80.64 97.27 73.89 90.93 66.79 85C65.97 84.31 66.95 83.06 67.82 83.69C73.12 87.59 78.19 91.81 83.18 96.2C84.38 86.66 85 76.22 78.53 68.34C77.76 67.38 79.24 66.35 80.06 67.2C87.51 75.2 87.23 86.85 85.94 97.03C85.87 97.54 85.6 97.86 85.25 98.04C91.87 103.94 98.33 110.05 104.86 116.07C112.55 98.81 105.62 77.66 95.22 62.9C94.42 61.78 96.12 60.52 96.94 61.64C108.31 77 116.47 100.29 107.47 118.48C111.62 122.25 115.82 125.97 120.12 129.49C124.34 132.94 128.57 136.36 132.82 139.81C134.87 127.93 131.63 115.04 129.08 103.5C125.92 89.29 121.52 75.59 114.92 62.59C114.3 61.37 116.24 60.66 116.86 61.83C124.43 75.64 129.72 90.44 133.31 105.76C136.13 117.8 139.74 130.66 136.62 142.91C144.98 149.69 153.39 156.41 161.85 163.1C161.14 146.01 160.5 129.54 155.92 112.75C151.53 96.66 145.49 81.07 139.82 65.39C139.43 64.31 141.04 63.66 141.49 64.75C148.51 81.87 155.78 98.86 160.63 116.78C165.01 133.01 166.39 149.7 166.08 166.47C168.06 168.03 170.05 169.63 172.03 171.19C178.18 175.97 184.22 180.83 190.25 185.7C192.08 175.72 194.55 165.58 193.93 155.36C193.51 148.58 192.64 141.82 191.31 135.14C188.3 119.94 183.91 103.05 172.75 91.65C171.82 90.68 172.95 89.09 174.08 89.96C186.51 99.44 191.82 117.85 195.15 132.39C196.94 140.22 198.55 148.37 198.76 156.44C199.02 166.91 196.87 176.96 195.05 187.21C194.92 187.94 194.53 188.43 194.07 188.78C203.67 196.59 213.22 204.47 222.86 212.23C228.3 202.18 234.09 193.25 235.13 181.25C235.97 171.39 235.22 161.42 232.82 151.79C227.96 132.21 218.22 114.41 207.03 97.79C206.22 96.56 207.99 95.24 208.85 96.43C221.35 113.67 232.78 132.61 237.68 153.55C240.02 163.56 241.15 174.06 239.85 184.32C238.3 196.44 232.76 205.21 226.86 215.36C232.33 219.67 237.92 223.8 243.55 227.82C259.37 201.61 259.19 172.23 256.48 142.5C256.36 141.01 258.52 140.78 258.77 142.23C263.55 169.17 266.49 207.9 247.42 230.54C253.46 234.72 259.57 238.79 265.81 242.76C270.1 228.68 282.35 217.79 283.29 202.56C284.35 185.25 282.66 167.69 277.19 151.2C264.98 114.46 236.34 87.16 205.84 64.68C189.34 52.52 173.43 41.82 152.63 39.36C133.62 37.11 114.52 27.7 95.37 34.12C80.58 39.06 70.26 48.94 57.3 56.83C51.08 60.61 43.34 63.81 36.19 62.3C38.57 69.11 35.59 77.25 32.98 83.85C27.67 97.21 26.3 110.12 29.63 124.26C33.31 139.88 37.56 156.39 43.68 171.25C47.29 180 51.79 188.85 59.07 195.18C65.52 200.79 72.75 205.12 79.63 210.15C86.72 215.34 92.62 221.76 99.29 227.44C107.11 234.1 115.7 239.67 124.97 244.14C140.55 251.64 157 258.13 173.41 263.57C204.51 273.92 240.82 273.72 264.64 248.68C264.62 248.5 264.6 248.32 264.63 248.11C264.62 248.03 264.66 247.92 264.67 247.84L264.78 247.82Z" fill="#6B9244" fill-opacity="1.000000" fill-rule="nonzero"/>
		<path id="Vector" d="M85.33 98.08C91.95 103.98 98.42 110.09 104.95 116.12C109.97 104.82 108.73 91.88 104.36 80.14C101.3 81.22 98.84 84.02 98.3 87.23C96.96 84.43 95.59 81.54 93.21 79.53C91.15 77.8 88.12 76.92 85.67 77.85C87.2 84.02 86.8 90.8 86 97.05C85.93 97.56 85.65 97.88 85.3 98.05L85.33 98.08Z" fill="#8AB15D" fill-opacity="1.000000" fill-rule="nonzero"/>
		<path id="Vector" d="M61.59 86.79C65.07 90.49 69.26 94.34 69.45 99.41C69.49 100.86 69.22 102.34 68.97 103.79C69.38 103.93 69.8 104.09 70.21 104.2C76.56 106.07 81.36 106.34 87.36 103.72C80.7 97.29 73.94 90.95 66.84 85.02C66.02 84.33 67.01 83.08 67.87 83.71C73.17 87.61 78.25 91.83 83.23 96.22C83.94 90.67 84.4 84.84 83.42 79.36C82.81 79.96 82.2 80.59 81.49 81.07C77.74 83.66 72.65 81.1 69.07 78.26C65.5 75.42 61.35 72.07 56.93 73.21C54.84 77.84 58.11 83.07 61.57 86.77L61.59 86.79Z" fill="#8AB15D" fill-opacity="1.000000" fill-rule="nonzero"/>
		<path id="Vector" d="M120.2 129.53C124.42 132.98 128.66 136.4 132.9 139.85C134.95 127.97 131.71 115.08 129.16 103.54C128.75 101.64 128.23 99.75 127.77 97.88C127.37 98.3 126.97 98.69 126.48 98.98C123.38 100.89 119.42 97.78 118.16 94.36C116.91 90.95 116.99 87.04 115.06 83.97C113.37 81.27 110.16 79.63 107 79.69C111.98 92.36 113.51 106.56 107.59 118.54C111.74 122.32 115.93 126.04 120.23 129.56L120.2 129.53Z" fill="#8AB15D" fill-opacity="1.000000" fill-rule="nonzero"/>
		<path id="Vector" d="M83.53 126.32C84.13 126.43 84.7 126.58 85.29 126.69C90.25 127.57 95.38 128.27 100.42 127.88C104.06 127.6 107.55 126.6 111.14 126.16C109.37 124.61 107.65 123.02 105.9 121.41C104.75 122.42 102.41 120.91 103.28 119.4C103.33 119.32 103.37 119.24 103.41 119.15C98.47 114.52 93.63 109.8 88.76 105.08C86.03 110.45 76.77 108.32 72.36 107.13C71.15 106.8 69.92 106.42 68.68 105.99C68.56 107.43 68.65 108.82 69.36 110.08C71.52 114.02 77.57 113.66 80.69 116.92C82.98 119.34 83.02 122.92 83.53 126.32Z" fill="#8AB15D" fill-opacity="1.000000" fill-rule="nonzero"/>
		<path id="Vector" d="M161.93 163.12C161.36 149.15 160.78 135.63 158.12 121.99C157.8 122.21 157.48 122.43 157.2 122.68C154.98 124.63 153.67 127.4 152.44 130.11C146.85 120.02 141.27 109.9 135.68 99.8C134.6 97.85 132.88 95.63 130.77 95.85C131.72 99.14 132.59 102.44 133.39 105.78C136.21 117.82 139.82 130.68 136.7 142.93C145.06 149.71 153.47 156.43 161.93 163.12Z" fill="#8AB15D" fill-opacity="1.000000" fill-rule="nonzero"/>
		<path id="Vector" d="M265.92 242.8C269.53 230.94 278.79 221.3 282.17 209.47C281.68 208 280.89 206.72 279.58 205.96C277.43 204.69 274.67 205.25 272.31 204.46C268.81 203.27 266.99 199.32 266.63 195.64C266.26 191.96 267.03 188.26 266.77 184.57C266.53 181.24 265.18 177.69 262.38 175.96C262.75 195.92 259.44 216.4 247.5 230.59C253.55 234.77 259.66 238.83 265.89 242.81L265.92 242.8Z" fill="#8AB15D" fill-opacity="1.000000" fill-rule="nonzero"/>
		<path id="Vector" d="M264.73 248.09C264.73 248.09 264.76 247.9 264.78 247.82C257.44 243.82 250.4 239.26 243.58 234.38C235.83 241.44 226.77 247.33 217.14 251.31C212.29 253.32 207.07 255.53 201.8 256.46C206.26 258.27 211.49 258.3 216.35 257.66C222.69 256.85 229.03 255.11 235.4 255.69C241.08 256.19 246.51 258.49 252.21 258.92C256.65 256.11 260.86 252.75 264.73 248.7C264.7 248.52 264.68 248.34 264.71 248.12L264.73 248.09Z" fill="#8AB15D" fill-opacity="1.000000" fill-rule="nonzero"/>
		<path id="Vector" d="M239.96 184.34C238.41 196.45 232.87 205.22 226.96 215.38C232.44 219.68 238.03 223.81 243.66 227.83C253.58 211.38 257.2 193.66 257.86 175.4C255.49 176.13 253.55 178.24 254.21 180.62C252.46 172.67 249.15 165.08 244.46 158.41C242.52 155.63 240.27 152.95 237.24 151.44C237.24 151.44 237.24 151.44 237.21 151.44C237.41 152.16 237.65 152.87 237.82 153.61C240.16 163.62 241.29 174.12 239.99 184.39L239.96 184.34Z" fill="#8AB15D" fill-opacity="1.000000" fill-rule="nonzero"/>
		<path id="Vector" d="M172.69 177.07C172.82 177.77 172.57 178.49 171.73 178.75C159.41 182.74 146.07 185.45 132.85 185.93C134.39 187.33 136.37 188.39 138.37 188.83C143.17 189.86 148.12 188.69 153 188.73C157.89 188.78 163.45 190.69 165.14 195.29C159.43 202.42 148.7 209.28 150.33 215.6C151.04 215.6 151.73 215.62 152.44 215.59C162.69 215.22 173.18 214.07 182.87 210.58C189.75 208.11 195.19 203.97 201.3 200.55C191.82 192.66 182.3 184.81 172.69 177.07Z" fill="#8AB15D" fill-opacity="1.000000" fill-rule="nonzero"/>
		<path id="Vector" d="M169.51 174.53C167.35 172.81 165.23 171.06 163.1 169.34C162.87 169.2 162.67 169.07 162.52 168.85C156.06 163.67 149.6 158.48 143.21 153.2C142.98 154.08 142.28 154.85 141.14 154.83C134.19 154.71 127.61 157.93 120.7 157.58C114.25 157.24 107.74 156.47 101.33 155.55C106.93 161.53 115.71 161.92 124.06 164.01C127.95 164.99 132.97 166.34 133.3 170.36C133.55 173.34 130.8 175.73 130.1 178.61C129.77 179.89 129.9 181.17 130.34 182.36C137.36 182.17 144.34 181.41 151.16 179.53C157.11 177.89 164.6 174.59 170.88 175.63C170.41 175.26 169.97 174.89 169.53 174.53L169.51 174.53Z" fill="#8AB15D" fill-opacity="1.000000" fill-rule="nonzero"/>
		<path id="Vector" d="M204.67 203.36C199.32 209.31 189.43 212.9 182.25 214.85C172.43 217.51 162.48 218.57 152.36 218.63C158.52 224.49 172.56 224.25 183.82 223.29C180.62 225.26 179.92 229.75 181.4 233.21C188.89 231.89 196.15 229.75 203.5 227.65C210.65 225.63 217.95 223.56 224.03 219.27C223.76 219.06 223.5 218.83 223.21 218.63C222.17 218.51 221.27 217.86 221.07 216.88C220.84 216.69 220.63 216.51 220.4 216.35C215.13 212.02 209.89 207.69 204.64 203.34L204.67 203.36Z" fill="#8AB15D" fill-opacity="1.000000" fill-rule="nonzero"/>
		<path id="Vector" d="M222.95 212.27C228.39 202.22 234.17 193.29 235.21 181.29C236.06 171.43 235.31 161.46 232.91 151.83C232.79 151.34 232.63 150.86 232.49 150.38C230.73 150.4 229.03 150.95 227.69 152.09C225.3 154.17 224.68 157.57 224.1 160.67C223.52 163.78 222.56 167.19 219.86 168.86C217.16 170.54 211.59 168.12 211.74 164.96C212.3 153.17 205.77 141.48 195.86 135.2C197.38 142.17 198.67 149.33 198.87 156.46C199.12 166.93 196.98 176.97 195.15 187.22C195.03 187.95 194.64 188.45 194.18 188.79C203.78 196.61 213.33 204.48 222.97 212.24L222.95 212.27Z" fill="#8AB15D" fill-opacity="1.000000" fill-rule="nonzero"/>
		<path id="Vector" d="M172.14 171.2C178.28 175.98 184.33 180.85 190.35 185.72C192.19 175.73 194.66 165.59 194.04 155.37C193.62 148.59 192.75 141.83 191.42 135.16C191.27 134.33 191.09 133.51 190.91 132.69C190.47 132.5 190.02 132.29 189.55 132.14C186.6 137.66 183.66 143.22 180.71 148.75C176.75 141.12 172.8 133.47 168.84 125.84C167.98 124.15 167.03 122.37 165.38 121.38C164.27 120.69 162.95 120.51 161.65 120.66C165.25 135.67 166.42 151.05 166.16 166.46C168.14 168.02 170.13 169.62 172.11 171.18L172.14 171.2Z" fill="#8AB15D" fill-opacity="1.000000" fill-rule="nonzero"/>
		<path id="Vector" d="M233.36 237.86C235.74 235.91 238.01 233.92 240.4 232.1C235.91 228.79 231.54 225.36 227.22 221.89C220.2 227.41 211.04 229.54 202.55 231.83C196.24 233.51 190.07 235.31 183.68 236.42C186.65 238.96 191 239.73 194.94 239.15C199.42 238.48 203.51 236.3 207.5 234.13C206.26 241.54 202.91 248.62 197.97 254.25C198.06 254.32 198.14 254.36 198.2 254.41C203.42 253.49 208.42 251.86 213.28 249.69C220.39 246.51 227.28 242.81 233.34 237.86L233.36 237.86Z" fill="#8AB15D" fill-opacity="1.000000" fill-rule="nonzero"/>
		<path id="Vector" d="M115.69 130.15C114.95 129.53 114.24 128.88 113.51 128.25C113.51 128.25 113.51 128.25 113.46 128.29C105.65 133.58 93.02 131.25 84.13 129.1C84.38 129.86 84.65 130.59 85.08 131.25C90.22 139.39 105.71 135 110.37 143.43C107.47 144.13 103.81 149.24 101.29 152.42C101.85 152.48 102.44 152.54 103 152.61C110.15 153.25 118.32 154.91 125.4 153.37C130.46 152.28 135.33 150.85 140.49 150.97C138.18 149.06 135.91 147.12 133.62 145.2C133.1 145 132.66 144.66 132.42 144.19C126.81 139.5 121.22 134.87 115.66 130.13L115.69 130.15Z" fill="#8AB15D" fill-opacity="1.000000" fill-rule="nonzero"/>
		<path id="Vector" d="M268.64 131.25C254.13 104.28 230.65 82.91 205.98 64.72C189.48 52.56 173.57 41.86 152.77 39.4C133.76 37.15 114.66 27.73 95.5 34.15C80.71 39.1 70.4 48.97 57.44 56.86C51.22 60.65 43.47 63.85 36.33 62.33C38.7 69.15 35.72 77.29 33.11 83.88C27.81 97.24 26.43 110.15 29.77 124.29C33.45 139.92 37.7 156.43 43.82 171.29C47.43 180.04 51.93 188.89 59.21 195.22C65.66 200.83 72.88 205.16 79.77 210.19C86.86 215.38 92.75 221.79 99.43 227.48C107.25 234.14 115.84 239.7 125.11 244.18C127.46 245.32 129.89 246.38 132.28 247.46C129.25 244.13 126.07 240.98 122.18 238.7C116.45 235.35 109.36 234.12 104.7 229.38C99.76 224.35 98.66 216.46 93.7 211.47C87.69 205.41 77.43 204.98 71.97 198.43C67.62 193.2 67.6 185.55 64.22 179.65C60.31 172.79 52.43 169.2 47.4 163.13C41.01 155.42 39.89 144.77 39.03 134.79C37.62 118.52 36.23 102.11 37.97 85.89C38.58 80.19 39.76 74.17 43.68 69.97C46.96 66.46 51.66 64.74 56.19 63.14C68.59 58.74 80.99 54.35 93.42 49.97C101.35 47.17 109.82 44.33 118.01 46.17C123.76 47.46 128.85 50.96 134.68 51.84C144.03 53.22 153.92 47.63 162.72 51.03C168.03 53.08 171.66 58.03 176.48 61.04C181.68 64.29 188.27 65.16 194.11 63.4C220.09 79.33 243.17 101.38 262.81 124.67C264.72 126.92 266.6 129.22 268.68 131.32L268.64 131.25Z" fill="#8AB15D" fill-opacity="1.000000" fill-rule="nonzero"/>
		<path id="Vector" d="M168.86 38.44C161.1 36.02 153.01 35.49 145.04 34.16C134.83 32.46 125.05 29.04 114.75 27.85C99.07 26.05 83.89 33.47 71.24 41.96C58.91 50.25 49.64 61.34 34.34 58.59C34 58.13 33.63 57.7 33.23 57.24C31.78 55.73 29.4 56.99 29.71 58.7C29.69 58.91 29.74 59.14 29.93 59.38C29.99 59.43 30.02 59.5 30.08 59.55C37.69 69.69 27.58 83.94 24.88 94.4C21.25 108.56 24.67 123.11 28.66 136.78C33.5 153.32 37.39 170.32 45.97 185.44C55.15 201.64 72.82 208.81 86.17 220.82C93.72 227.61 100.67 234.53 109.19 240.19C117.19 245.5 125.98 249.64 134.77 253.42C151.22 260.51 168.19 267.13 185.49 271.83C212.06 279 250.25 274.85 267.29 250.5C267.79 250.44 268.23 250.18 268.58 249.82L264.75 247.77C264.75 247.77 264.72 247.96 264.7 248.04C264.67 248.26 264.72 248.44 264.72 248.62C240.89 273.68 204.6 273.85 173.49 263.51C157.07 258.04 140.62 251.58 125.04 244.08C115.77 239.63 107.19 234.07 99.36 227.38C92.69 221.69 86.83 215.3 79.71 210.09C72.82 205.06 65.6 200.73 59.14 195.12C51.86 188.79 47.37 179.97 43.75 171.19C37.61 156.33 33.38 139.82 29.71 124.19C26.37 110.08 27.77 97.17 33.05 83.79C35.66 77.19 38.64 69.05 36.26 62.24C43.41 63.75 51.13 60.55 57.37 56.77C70.34 48.9 80.65 39 95.44 34.06C114.59 27.66 133.67 37.06 152.7 39.3C173.5 41.76 189.43 52.43 205.92 64.62C236.41 87.1 265.06 114.4 277.26 151.14C282.76 167.63 284.42 185.21 283.36 202.49C282.43 217.73 270.17 228.62 265.88 242.7L270.16 245.38C275.26 229.7 287.88 218.13 288.96 200.74C289.93 184.89 288.09 168.94 283.69 153.71C273.38 118.01 246.98 91.34 218.54 68.88C203.58 57.06 187.27 44.06 168.82 38.34L168.86 38.44Z" fill="#517433" fill-opacity="1.000000" fill-rule="nonzero"/>
		<path id="Vector" d="M247.53 230.58C266.58 207.94 263.66 169.21 258.88 142.27C258.63 140.82 256.47 141.05 256.59 142.54C259.3 172.27 259.49 201.65 243.67 227.85C238.01 223.86 232.45 219.7 226.97 215.4C232.87 205.25 238.41 196.48 239.96 184.36C241.26 174.1 240.16 163.62 237.79 153.59C232.9 132.67 221.43 113.71 208.96 96.47C208.1 95.28 206.31 96.61 207.14 97.83C218.33 114.45 228.04 132.25 232.93 151.83C235.33 161.46 236.08 171.42 235.24 181.29C234.2 193.26 228.41 202.22 222.97 212.27C213.33 204.51 203.78 196.63 194.18 188.82C194.67 188.47 195.03 187.98 195.16 187.25C196.98 176.97 199.13 166.95 198.87 156.48C198.66 148.4 197.05 140.26 195.26 132.43C191.93 117.92 186.65 99.5 174.19 90C173.06 89.13 171.93 90.72 172.86 91.69C184.02 103.06 188.41 119.98 191.42 135.18C192.75 141.86 193.62 148.62 194.04 155.4C194.66 165.62 192.16 175.76 190.36 185.74C184.33 180.85 178.28 175.98 172.14 171.23C170.14 169.68 168.17 168.07 166.19 166.51C166.47 149.75 165.12 133.05 160.74 116.82C155.89 98.93 148.65 81.91 141.6 64.79C141.15 63.7 139.54 64.37 139.94 65.43C145.6 81.11 151.64 96.69 156.03 112.79C160.62 129.6 161.25 146.05 161.96 163.14C153.5 156.48 145.1 149.76 136.73 142.95C139.85 130.7 136.24 117.84 133.42 105.8C129.83 90.48 124.54 75.68 116.97 61.86C116.33 60.7 114.41 61.41 115.03 62.63C121.63 75.63 126.03 89.33 129.19 103.54C131.76 115.05 134.98 127.97 132.92 139.85C128.71 136.4 124.45 133 120.23 129.53C115.92 125.98 111.73 122.29 107.58 118.52C116.58 100.31 108.45 77.01 97.05 61.68C96.23 60.56 94.53 61.82 95.33 62.94C105.76 77.7 112.66 98.85 104.97 116.11C98.44 110.09 91.98 103.98 85.36 98.07C85.71 97.9 85.98 97.58 86.05 97.07C87.34 86.89 87.63 75.27 80.17 67.24C79.35 66.37 77.87 67.41 78.64 68.38C85.1 76.23 84.52 86.7 83.29 96.24C78.3 91.88 73.23 87.63 67.93 83.73C67.06 83.1 66.08 84.35 66.9 85.04C74 90.97 80.75 97.31 87.41 103.74C81.42 106.36 76.61 106.09 70.26 104.22C65.12 102.7 59.64 100.4 55.46 96.98C54.73 96.38 53.91 97.48 54.57 98.11C59.42 102.49 66.11 105.48 72.38 107.16C76.8 108.34 86.06 110.47 88.79 105.1C93.66 109.8 98.5 114.52 103.44 119.17C103.4 119.26 103.36 119.34 103.31 119.43C102.44 120.93 104.76 122.45 105.93 121.43C107.65 123.02 109.4 124.6 111.17 126.19C107.58 126.62 104.11 127.62 100.45 127.9C95.41 128.29 90.28 127.59 85.32 126.71C75.02 124.89 64.76 120.53 55.95 114.91C55.07 114.33 54.03 115.59 54.92 116.22C63.3 122.03 72.79 126.35 82.72 128.79C91.62 130.99 105.27 133.92 113.52 128.33C113.52 128.33 113.52 128.33 113.56 128.3C114.3 128.92 115.01 129.58 115.75 130.2C121.3 134.94 126.9 139.57 132.5 144.25C132.75 144.73 133.18 145.07 133.71 145.27C136 147.19 138.29 149.13 140.58 151.04C135.42 150.92 130.55 152.35 125.48 153.44C118.41 154.95 110.24 153.32 103.09 152.68C86.95 151.24 71.44 148.17 57.67 139.25C56.9 138.76 56.07 139.78 56.78 140.39C68.21 149.67 83.01 152.93 97.26 155.07C105 156.22 112.96 157.24 120.76 157.65C127.67 158 134.25 154.78 141.2 154.9C142.34 154.92 143.04 154.15 143.28 153.28C149.66 158.55 156.12 163.74 162.58 168.92C162.73 169.12 162.94 169.28 163.16 169.41C165.3 171.13 167.41 172.88 169.57 174.6C170.03 174.97 170.47 175.34 170.91 175.71C164.64 174.64 157.15 177.97 151.2 179.61C140.95 182.42 130.32 182.89 119.75 182.36C101.91 181.48 84.49 176.84 67.2 172.64C66.15 172.4 65.67 174.17 66.71 174.47C83.92 179.53 101.4 183.99 119.31 185.66C136.73 187.29 155.18 184.22 171.77 178.85C172.6 178.56 172.86 177.85 172.73 177.18C182.34 184.91 191.84 192.77 201.33 200.65C195.23 204.1 189.76 208.22 182.91 210.68C173.19 214.17 162.72 215.32 152.48 215.69C131.85 216.43 110.56 212.31 91.53 204.39C90.72 204.07 90.21 205.26 90.99 205.64C109.39 214.22 130.21 218.63 150.5 218.77C161.3 218.85 171.86 217.76 182.29 214.95C189.47 213 199.35 209.39 204.71 203.46C209.96 207.82 215.2 212.15 220.47 216.48C220.7 216.66 220.91 216.84 221.14 217C221.34 217.98 222.24 218.64 223.28 218.75C223.54 218.96 223.81 219.19 224.09 219.39C218.01 223.68 210.72 225.75 203.57 227.77C195.07 230.19 186.73 232.75 177.92 233.95C158.45 236.58 138.96 232.33 120.92 225.18C119.9 224.78 119.26 226.28 120.27 226.77C137.54 235.01 156.69 238.61 175.79 237.5C185.09 236.96 193.75 234.31 202.67 231.92C211.16 229.66 220.29 227.5 227.34 221.98C231.66 225.45 236.06 228.88 240.52 232.19C238.13 234.04 235.83 236 233.48 237.95C227.43 242.9 220.53 246.58 213.42 249.78C207.59 252.38 201.53 254.27 195.18 255.01C190.01 255.63 185.14 255.77 180.25 257.68C179.77 257.87 179.79 258.42 180.09 258.73C181.03 259.72 182.01 260.66 183.06 261.51C183.09 261.53 183.14 261.5 183.11 261.45C179.36 257.94 190.12 257.47 190.28 257.47C193.71 257.27 197.11 257.21 200.54 256.77C206.26 256.03 211.97 253.52 217.25 251.35C226.88 247.4 235.94 241.48 243.69 234.42C250.51 239.33 257.55 243.89 264.89 247.86L268.72 249.91C270.94 251.04 273.21 252.14 275.5 253.13C277.39 253.96 279.18 251.05 277.36 249.95C274.99 248.49 272.68 247 270.31 245.55L266.03 242.87C259.8 238.9 253.66 234.83 247.64 230.65L247.53 230.58Z" fill="#517433" fill-opacity="1.000000" fill-rule="nonzero"/>
	</g>
</svg>