<svg width="669.946045" height="653.345947" viewBox="0 0 669.946 653.346" fill="none" xmlns="http://www.w3.org/2000/svg" xmlns:xlink="http://www.w3.org/1999/xlink">
	<desc>
			Created with Pixso.
	</desc>
	<defs/>
	<path id="Vector" d="M266.39 51.75L257.99 54.21C255.94 54.81 254.04 54.56 253.8 53.45C253.79 53.35 253.8 53.25 253.82 53.15C254.02 52.06 255.51 50.83 257.59 50.07L268.3 47.05C272 46.13 275.6 45.28 279.46 44.47C283.58 43.71 287.68 43.03 291.83 42.55C300.07 41.47 308.78 41.19 317.16 41.28C325.05 41.65 333.94 42.37 340.96 43.63C344.65 44.21 348.23 44.94 351.88 45.78C355.63 46.54 358.31 47.38 361.59 48.33C364.68 49.33 367.78 50.24 370.86 51.33L378.63 54.32L386.18 57.54L391.05 59.92C394.14 61.45 397.29 63.08 400.26 64.76C416.56 73.8 430.87 84.46 442.88 95.15C445.1 95.48 447.38 95.89 449.8 96.33C452.68 97.03 455.91 97.78 459.18 98.73C465.58 100.5 473.54 103.44 481.49 106.91C497.86 114.11 513.72 124.21 525.82 133.56C538.31 143.24 546.25 150.68 552.95 157.1C555.65 159.8 558.27 162.39 560.99 165.01C563.23 167.27 565.39 169.51 567.44 171.83C571.63 176.56 575.54 181.33 579.2 186.5C593.82 206.9 605.36 232.59 610.39 263.99C610.94 261.44 611.5 258.8 612.05 256.25C618.31 274.97 622.01 295.61 622.86 323.25C623.31 304.59 622.2 288.66 620.66 274.68C623.86 292.23 626.38 312.57 625.49 338.05C625.27 344.64 624.72 349.66 624.03 354.93C623.44 360.22 622.58 365.45 621.65 370.59C620.73 375.73 619.64 380.75 618.49 385.66C617.18 390.47 615.8 395.17 614.25 399.84C611.19 409.01 607.81 418.39 603.93 426.17C600.05 433.96 595.96 441.44 591.61 448.43C587.19 455.77 582.9 460.92 578.34 466.63C573.85 471.92 569.09 477.69 564.68 481.58C564.45 481.8 564.21 482.02 563.97 482.25C563.02 484.64 562.01 487.03 560.97 489.4C553.96 505.19 542.33 524.13 525.46 540.71C508.73 557.49 487.88 570.17 470.14 577.4C452.27 584.78 436.84 588.01 425.1 589.87C421.92 590.36 419.49 590.63 416.59 590.99C413.7 591.35 411.2 591.52 408.86 591.71L397.34 592.37C372.43 593.27 356.29 591.6 350.57 591.45C349.4 591.6 348.85 591.29 348.51 590.58C342.7 591.7 335.7 593.09 327.58 594.46C312.3 596.83 292.04 599.89 263 597.21C259.27 596.81 255.88 596.46 251.93 595.84L239.6 593.61L233.49 592.24L226.83 590.42C222.39 589.09 217.96 587.67 213.56 586.09C204.45 582.67 195.06 578.42 186.16 573.36C177.05 568.01 168.18 562.25 160.29 555.53C156.31 552.15 152.42 548.71 148.73 545.13L146.19 542.55L144.94 541.18L142.53 538.36C139.32 534.59 136.07 530.56 133.61 527.02C128.17 519.5 124.13 512.5 120.69 505.6C119.45 503.61 118.39 501.65 117.4 499.79C99.62 482.26 86.52 466.2 78.18 449.22C80.07 455.4 82.2 461.71 84.89 468.82C74.9 455.62 67.96 444.11 63.89 433.39C62.92 430.91 62.11 428.56 61.43 426.4L59.62 419.8C58.37 414.98 57.56 410.15 56.94 405.26C56.31 399.04 55.52 391.13 56.43 386.09C56.85 383.77 57.63 382.06 58.95 381.41C59.73 380.49 60.43 379.55 61.21 378.63C61.4 378.41 61.62 378.23 61.83 378.04C62.4 377.57 62.98 377.07 63.2 375.82C63.25 375.56 63.28 375.27 63.29 374.94C64.02 370.92 65.06 367.13 66.58 363.6L64.39 359.58L59.61 350.77L55.48 335.97C51.19 320.52 49.02 304.13 49.37 288.46C49.61 280.81 50.17 272.78 51.31 266L53.21 255.47C53.91 252.06 54.69 249.2 55.62 246.01C62.66 221.2 72.48 204.5 80.8 191.68C83.97 186.86 86.3 183.75 88.91 180.06C91.57 176.57 94.22 173.16 97.04 169.78C102.6 163 108.53 156.56 114.62 150.23C149.51 113.66 194.05 87.22 237.21 59.65C241.16 57.36 245.46 57.07 246.85 58.65C247.14 59.09 247.22 59.63 247.11 60.22C246.81 61.9 244.99 64.02 242.14 65.67C200.75 95.68 158.27 123.37 125.05 160.07C117.11 168.8 109.46 177.85 102.61 187.4C110.62 178.77 119.31 170.79 128.29 163.13C143.14 150.43 159.31 139.2 176 128.96C192.65 118.52 210.16 109.66 227.03 99.45C232.47 95.74 238.05 92.24 243.7 88.84C249.25 85.51 255.15 83.22 261.29 81.5C263.12 80.68 265 80.04 266.91 79.24L269.74 78.25L271.34 77.74L275.82 76.43C278.8 75.55 281.76 74.85 284.89 74.17C288.18 73.53 291.57 72.91 294.92 72.45C301.56 71.44 308.68 71.13 315.49 71.12C342.95 71.3 365.1 79.81 377.43 85.48C399.32 95.44 418.31 109.21 432.96 122.55C445.1 133.55 454.68 144.15 462.74 153.44C465.83 155.07 468.88 156.8 471.8 158.64C488.2 168.67 499.33 178.98 506.68 186.23L511.75 191.48L513.98 193.93C512.83 191.62 511.39 189.02 509.48 185.94C505.11 178.79 498.16 169.31 488.71 159.48C479.5 149.77 467.17 139.68 456.29 132.41C450.7 128.58 446.11 125.63 441.48 122.85C437.75 120.5 434.09 118.24 430.52 116.01C427.69 114.08 425.58 112.55 423.57 110.95C421.39 109.32 420.2 108.05 419.36 106.84C417.76 104.67 417.07 102.69 417.39 100.94C417.78 98.74 419.77 96.91 423.51 95.56C424.97 94.85 428 94.69 430.87 94.5C432.38 94.42 433.98 94.36 435.74 94.41C435.79 94.41 435.84 94.41 435.89 94.42C424.74 84.97 411.78 75.7 397.24 67.75C390.78 64.38 386.79 61.98 375.17 57.32C365.2 53.31 352.21 49.37 337.49 47.16C330 46.07 321.81 45.39 313.77 45.36C305.47 45.36 297.08 45.79 289.08 47C280.66 48.13 273.56 49.77 266.39 51.75ZM539.26 461.91C542.59 453.22 545.99 443.45 549.03 432.81C549.23 430.62 549.41 428.41 549.57 426.18C549.61 425.72 549.64 425.26 549.67 424.81C548.49 427.47 547.26 430.1 546.01 432.69C543.84 436.9 541.65 440.66 539.37 444.49C537.09 448.32 534.64 452.12 532.21 455.75C529.82 459.21 527.42 462.22 524.91 465.39C504.75 490.39 483.96 504.67 465.41 514.41C446.94 526.19 429.74 534.31 412.51 541.1C413.54 541.29 414.6 541.3 415.63 541.49C410.94 542.94 406.31 544.14 401.6 545.24L400.18 545.77C404.26 546.16 408.42 546.64 412.52 546.94L420.18 545.14C440.25 536.3 460.79 527.28 483.27 512.95C488.72 509.69 494.66 505.19 500.39 500.83C505.98 496.8 512.24 491.04 518.07 485.64C525.12 478.92 532.31 471.04 539.26 461.91ZM523.73 346.87C524.05 345.76 524.37 344.64 524.65 343.36C525.29 340.64 526.71 340.88 527.84 341.07C528.63 341.2 529.28 341.3 529.44 340.39C529.45 340.32 529.46 340.25 529.47 340.17C530.61 323.58 529.27 309.9 527.36 297.98C525.36 286.04 522.55 275.63 519.4 266.14C517.41 260.32 515.34 254.82 513.13 249.51C511.86 247.31 510.59 245.15 509.31 243.04C508.18 242.12 507.07 241.32 505.97 240.68C505.64 239.87 505.32 239.05 504.99 238.23C504.08 237.42 503.18 236.63 502.27 235.88C502.64 237.08 503 238.27 503.36 239.47C502.61 239.21 501.87 239.05 501.14 238.98L503.84 241.12C504.99 245.08 506.06 249.06 507.06 253.11C508.22 255.67 509.34 258.29 510.43 260.98C512.33 265.66 514.19 271.03 515.88 276.37C517.48 281.7 518.89 287.08 520.07 292.33C522.3 302.99 523.59 313.47 524.04 323.72C524.35 331.61 524.22 339.34 523.73 346.87ZM430.36 140.94C427.84 138.35 425.19 135.73 422.4 133.11C414.54 125.68 405.45 118.29 395.34 111.61C390.29 108.22 384.94 105.05 379.38 102.1C376.64 100.63 373.79 99.23 370.95 97.84L368.84 96.84L365.72 95.48L359.21 92.89C359.37 93.57 359.54 94.25 359.43 94.83C359.41 94.96 359.37 95.09 359.32 95.21C358.29 97.94 354.36 99.17 347.3 99.58C353.1 101.24 357.54 103.11 362.06 104.98C364.69 106.08 365.9 106.74 367.43 107.54L371.97 109.86C377.83 113.13 383.66 116.57 388.9 120.34C397.05 126.03 404.25 132.21 410.61 138.48C414.02 138.41 418.21 138.7 423.53 139.58C425.6 139.88 427.89 140.34 430.36 140.94ZM503.84 241.12C503.68 240.57 503.52 240.02 503.36 239.47C504.22 239.76 505.09 240.17 505.97 240.68C506.38 241.72 506.79 242.76 507.17 243.78L503.84 241.12ZM315.11 214.16L315.13 214.27C315.15 213.91 315.16 213.61 315.17 213.37L315.14 213.19C315.13 213.13 315.12 213.07 315.11 213.02L315.11 213.81C315.12 213.94 315.11 214.06 315.11 214.16ZM438.43 278.47C438.78 278.86 439.12 279.28 439.43 279.73C440.09 277.55 440.39 276.54 440.75 274.54L440.77 274.45C440.12 275.88 439.34 277.23 438.43 278.47ZM367.5 346.05L373.2 346L372.69 345.91L371.46 345.87C370.02 345.83 368.69 345.95 367.5 346.05ZM354.7 380.23L354.78 380.51L355.2 380.59L354.7 380.23ZM490.67 424.64C487.58 423.51 485.01 421.1 483.07 417.89C481.93 418.64 480.79 419.36 479.66 420.07C479.45 420.96 479.25 421.85 479.04 422.73C478.28 425.95 477.93 427.92 476.17 433.7C474.14 440.06 469.72 445 467.65 443.75C466.83 443.29 466.39 442.26 466.23 440.89C465.86 441.32 465.48 441.73 465.11 442.14C463.62 443.79 462.13 445.38 460.64 446.92C457.73 452.35 453.73 457.95 448.37 462.9C439.37 471.28 428.33 475.93 419.74 478.05C420.66 478.47 420.94 478.93 420.86 479.41C420.72 480.13 419.75 480.9 418.84 481.61C418.45 481.91 418.08 482.2 417.79 482.48C416.12 483.86 414.48 485.15 412.81 486.53C429.1 479.04 446.16 469.74 464.23 454.35C473.04 446.88 482.25 436.75 490.67 424.64ZM398.83 411.7C398.25 411.43 397.72 411.21 397.17 410.99C397.75 411.23 398.3 411.47 398.83 411.7ZM274.73 408.58L274.65 408.66L274.51 408.88C274.55 408.83 274.6 408.77 274.64 408.74L274.73 408.58Z" fill="#FFD525" fill-opacity="0.400000" fill-rule="evenodd"/>
</svg>
